G04 #@! TF.GenerationSoftware,KiCad,Pcbnew,5.1.2-f72e74a~84~ubuntu18.04.1*
G04 #@! TF.CreationDate,2019-05-20T21:18:26+03:00*
G04 #@! TF.ProjectId,manipulyator-v3 (2),6d616e69-7075-46c7-9961-746f722d7633,rev?*
G04 #@! TF.SameCoordinates,Original*
G04 #@! TF.FileFunction,Copper,L1,Top*
G04 #@! TF.FilePolarity,Positive*
%FSLAX45Y45*%
G04 Gerber Fmt 4.5, Leading zero omitted, Abs format (unit mm)*
G04 Created by KiCad (PCBNEW 5.1.2-f72e74a~84~ubuntu18.04.1) date 2019-05-20 21:18:26*
%MOMM*%
%LPD*%
G04 APERTURE LIST*
%ADD10O,1.200000X2.000000*%
%ADD11R,1.600000X1.600000*%
%ADD12C,1.600000*%
%ADD13O,1.600000X1.600000*%
%ADD14C,1.524000*%
%ADD15C,2.000000*%
%ADD16C,2.340000*%
%ADD17C,1.500000*%
%ADD18R,1.500000X1.500000*%
%ADD19R,2.400000X1.600000*%
%ADD20O,2.400000X1.600000*%
%ADD21C,0.500000*%
G04 APERTURE END LIST*
D10*
X6921500Y2095500D03*
X7175500Y2095500D03*
X7429500Y2095500D03*
X7683500Y2095500D03*
X7937500Y2095500D03*
D11*
X317500Y317500D03*
D12*
X571500Y317500D03*
X825500Y317500D03*
X1079500Y317500D03*
X1333500Y317500D03*
X1587500Y317500D03*
X1841500Y317500D03*
X2095500Y317500D03*
X2349500Y317500D03*
X2603500Y317500D03*
X2857500Y317500D03*
X3111500Y317500D03*
X3111500Y1841500D03*
X2857500Y1841500D03*
X2603500Y1841500D03*
X2349500Y1841500D03*
X2095500Y1841500D03*
X1841500Y1841500D03*
X1587500Y1841500D03*
X1333500Y1841500D03*
X1079500Y1841500D03*
X825500Y1841500D03*
X571500Y1841500D03*
X317500Y1841500D03*
D13*
X2857500Y3111500D03*
X3111500Y2349500D03*
X3111500Y3111500D03*
D11*
X2857500Y2349500D03*
D13*
X2857500Y4381500D03*
X3111500Y3619500D03*
X3111500Y4381500D03*
D11*
X2857500Y3619500D03*
D13*
X4635500Y2222500D03*
D12*
X3619500Y2222500D03*
D13*
X4635500Y2603500D03*
D12*
X3619500Y2603500D03*
D14*
X571500Y2730500D03*
X1079500Y3238500D03*
X1079500Y2984500D03*
X1079500Y2476500D03*
X1079500Y2222500D03*
X571500Y4000500D03*
X1079500Y4508500D03*
X1079500Y4254500D03*
X1079500Y3746500D03*
X1079500Y3492500D03*
X5397500Y571500D03*
X4889500Y1079500D03*
X5143500Y1079500D03*
X5651500Y1079500D03*
X5905500Y1079500D03*
D15*
X1714500Y2484500D03*
X2214500Y2484500D03*
X2214500Y2984500D03*
X1714500Y2984500D03*
X1722500Y3746500D03*
X2222500Y3746500D03*
X2222500Y4246500D03*
X1722500Y4246500D03*
D14*
X4508500Y1079500D03*
X4254500Y1079500D03*
X3746500Y1079500D03*
X3492500Y1079500D03*
X4000500Y571500D03*
D16*
X6413500Y1460500D03*
X6663500Y460500D03*
X6913500Y1460500D03*
D13*
X2349500Y1206500D03*
D12*
X1333500Y1206500D03*
D11*
X4699000Y3810000D03*
D13*
X4699000Y3048000D03*
D10*
X4381500Y4318000D03*
X4635500Y4318000D03*
X4889500Y4318000D03*
X5143500Y4318000D03*
D12*
X7929500Y1587500D03*
X7429500Y1587500D03*
X8318500Y1587500D03*
X8318500Y2087500D03*
D11*
X3873500Y3810000D03*
D13*
X3873500Y3048000D03*
X4254500Y3810000D03*
D11*
X4254500Y3048000D03*
D17*
X5397500Y1460500D03*
X5143500Y1714500D03*
D18*
X5651500Y1714500D03*
D13*
X2349500Y825500D03*
D12*
X1333500Y825500D03*
X5143500Y3302000D03*
D13*
X5143500Y2286000D03*
X5651500Y2603500D03*
D12*
X5651500Y3619500D03*
X4508500Y1587500D03*
D13*
X3492500Y1587500D03*
D12*
X7810500Y2603500D03*
D13*
X6794500Y2603500D03*
D19*
X8318500Y444500D03*
D20*
X7556500Y1206500D03*
X8318500Y698500D03*
X7556500Y952500D03*
X8318500Y952500D03*
X7556500Y698500D03*
X8318500Y1206500D03*
X7556500Y444500D03*
D12*
X7429500Y2286000D03*
X2476500Y2159000D03*
X7620000Y2413000D03*
X2921000Y2032000D03*
X6540500Y3111500D03*
X6540500Y2603500D03*
D21*
X2476500Y2209500D02*
X2476500Y2159000D01*
M02*
