G04 #@! TF.GenerationSoftware,KiCad,Pcbnew,5.1.2-f72e74a~84~ubuntu18.04.1*
G04 #@! TF.CreationDate,2019-05-23T00:02:26+03:00*
G04 #@! TF.ProjectId,manipulyator-v3 (3),6d616e69-7075-46c7-9961-746f722d7633,rev?*
G04 #@! TF.SameCoordinates,Original*
G04 #@! TF.FileFunction,Copper,L2,Bot*
G04 #@! TF.FilePolarity,Positive*
%FSLAX45Y45*%
G04 Gerber Fmt 4.5, Leading zero omitted, Abs format (unit mm)*
G04 Created by KiCad (PCBNEW 5.1.2-f72e74a~84~ubuntu18.04.1) date 2019-05-23 00:02:26*
%MOMM*%
%LPD*%
G04 APERTURE LIST*
%ADD10R,2.400000X1.600000*%
%ADD11O,2.400000X1.600000*%
%ADD12O,1.200000X2.000000*%
%ADD13R,1.600000X1.600000*%
%ADD14C,1.600000*%
%ADD15O,1.600000X1.600000*%
%ADD16C,1.524000*%
%ADD17C,2.000000*%
%ADD18C,2.340000*%
%ADD19C,1.500000*%
%ADD20R,1.500000X1.500000*%
%ADD21C,0.500000*%
%ADD22C,0.254000*%
G04 APERTURE END LIST*
D10*
X8318500Y444500D03*
D11*
X7556500Y1206500D03*
X8318500Y698500D03*
X7556500Y952500D03*
X8318500Y952500D03*
X7556500Y698500D03*
X8318500Y1206500D03*
X7556500Y444500D03*
D12*
X6921500Y2095500D03*
X7175500Y2095500D03*
X7429500Y2095500D03*
X7683500Y2095500D03*
X7937500Y2095500D03*
D13*
X317500Y317500D03*
D14*
X571500Y317500D03*
X825500Y317500D03*
X1079500Y317500D03*
X1333500Y317500D03*
X1587500Y317500D03*
X1841500Y317500D03*
X2095500Y317500D03*
X2349500Y317500D03*
X2603500Y317500D03*
X2857500Y317500D03*
X3111500Y317500D03*
X3111500Y1841500D03*
X2857500Y1841500D03*
X2603500Y1841500D03*
X2349500Y1841500D03*
X2095500Y1841500D03*
X1841500Y1841500D03*
X1587500Y1841500D03*
X1333500Y1841500D03*
X1079500Y1841500D03*
X825500Y1841500D03*
X571500Y1841500D03*
X317500Y1841500D03*
D15*
X2857500Y3111500D03*
X3111500Y2349500D03*
X3111500Y3111500D03*
D13*
X2857500Y2349500D03*
D15*
X2857500Y4381500D03*
X3111500Y3619500D03*
X3111500Y4381500D03*
D13*
X2857500Y3619500D03*
D15*
X4635500Y2222500D03*
D14*
X3619500Y2222500D03*
D15*
X4635500Y2603500D03*
D14*
X3619500Y2603500D03*
D16*
X571500Y2730500D03*
X1079500Y3238500D03*
X1079500Y2984500D03*
X1079500Y2476500D03*
X1079500Y2222500D03*
X571500Y4000500D03*
X1079500Y4508500D03*
X1079500Y4254500D03*
X1079500Y3746500D03*
X1079500Y3492500D03*
X5397500Y571500D03*
X4889500Y1079500D03*
X5143500Y1079500D03*
X5651500Y1079500D03*
X5905500Y1079500D03*
D17*
X1714500Y2484500D03*
X2214500Y2484500D03*
X2214500Y2984500D03*
X1714500Y2984500D03*
X1722500Y3746500D03*
X2222500Y3746500D03*
X2222500Y4246500D03*
X1722500Y4246500D03*
D16*
X4508500Y1079500D03*
X4254500Y1079500D03*
X3746500Y1079500D03*
X3492500Y1079500D03*
X4000500Y571500D03*
D18*
X6413500Y1460500D03*
X6663500Y460500D03*
X6913500Y1460500D03*
D15*
X2349500Y1206500D03*
D14*
X1333500Y1206500D03*
D13*
X4699000Y3810000D03*
D15*
X4699000Y3048000D03*
D12*
X4381500Y4318000D03*
X4635500Y4318000D03*
X4889500Y4318000D03*
X5143500Y4318000D03*
D14*
X7929500Y1587500D03*
X7429500Y1587500D03*
X8318500Y1587500D03*
X8318500Y2087500D03*
D13*
X3873500Y3810000D03*
D15*
X3873500Y3048000D03*
X4254500Y3810000D03*
D13*
X4254500Y3048000D03*
D19*
X5080000Y1524000D03*
X4826000Y1778000D03*
D20*
X5334000Y1778000D03*
D15*
X2349500Y825500D03*
D14*
X1333500Y825500D03*
X5143500Y3302000D03*
D15*
X5143500Y2286000D03*
X5651500Y2603500D03*
D14*
X5651500Y3619500D03*
X4508500Y1587500D03*
D15*
X3492500Y1587500D03*
D14*
X7810500Y2603500D03*
D15*
X6794500Y2603500D03*
D13*
X5969000Y1651000D03*
D14*
X5719000Y1651000D03*
D19*
X7645400Y2336800D03*
X2819400Y2032000D03*
X6477000Y1828800D03*
X3327400Y1900910D03*
X2463800Y558800D03*
X2717800Y863600D03*
X2717800Y1168400D03*
X3969544Y2558256D03*
X8305800Y1828800D03*
X7934790Y1828800D03*
X6684666Y2087266D03*
X5003800Y2032000D03*
X8305800Y1422400D03*
X8584700Y914400D03*
D17*
X6380240Y2862730D03*
D19*
X3886200Y3251200D03*
X2135020Y2106780D03*
X2717800Y1422400D03*
X2108200Y558800D03*
D21*
X4699000Y3810000D02*
X4699000Y3965030D01*
X4635500Y4318000D02*
X4635500Y4028530D01*
X4635500Y4028530D02*
X4699000Y3965030D01*
X4254500Y3048000D02*
X4699000Y3048000D01*
X7429500Y1920470D02*
X6639330Y1920470D01*
X7429500Y2095500D02*
X7429500Y1920470D01*
X6639330Y1920470D02*
X5701220Y2858580D01*
X5701220Y2858580D02*
X4482000Y2858580D01*
X4482000Y2858580D02*
X3674330Y2050910D01*
X3657740Y2067500D02*
X3674330Y2050910D01*
X2998077Y2067500D02*
X3657740Y2067500D01*
X2871077Y2194500D02*
X2998077Y2067500D01*
X2759900Y2194500D02*
X2871077Y2194500D01*
X2603500Y1841500D02*
X2603500Y2038100D01*
X2603500Y2038100D02*
X2759900Y2194500D01*
X7683500Y2095500D02*
X7683500Y2298700D01*
X7683500Y2298700D02*
X7645400Y2336800D01*
X2857500Y1841500D02*
X2857500Y1993900D01*
X2857500Y1993900D02*
X2819400Y2032000D01*
X7937500Y2070100D02*
X7937500Y2095500D01*
X7683160Y1815760D02*
X7937500Y2070100D01*
X6477000Y1828800D02*
X6490040Y1815760D01*
X6490040Y1815760D02*
X7683160Y1815760D01*
X3111500Y1841500D02*
X3267990Y1841500D01*
X3267990Y1841500D02*
X3327400Y1900910D01*
X4889500Y4318000D02*
X4889500Y4142970D01*
X5143500Y3302000D02*
X5143500Y3888970D01*
X5143500Y3888970D02*
X4889500Y4142970D01*
X5143500Y4318000D02*
X5143500Y4142970D01*
X5143500Y4142970D02*
X5651500Y3634970D01*
X5651500Y3634970D02*
X5651500Y3619500D01*
X2796410Y533630D02*
X2718890Y456110D01*
X2718890Y456110D02*
X2718890Y432890D01*
X2718890Y432890D02*
X2603500Y317500D01*
X4508500Y1079500D02*
X4289880Y860880D01*
X4289880Y860880D02*
X3123660Y860880D01*
X3123660Y860880D02*
X2796410Y533630D01*
X2349500Y825500D02*
X2504530Y825500D01*
X2504530Y825500D02*
X2796410Y533630D01*
X2349500Y317500D02*
X2349500Y444500D01*
X2349500Y444500D02*
X2463800Y558800D01*
X3200857Y1079500D02*
X2984957Y863600D01*
X3492500Y1079500D02*
X3200857Y1079500D01*
X2984957Y863600D02*
X2717800Y863600D01*
X2717800Y1168400D02*
X2387600Y1168400D01*
X2387600Y1168400D02*
X2349500Y1206500D01*
X588880Y1841500D02*
X588880Y554120D01*
X588880Y554120D02*
X825500Y317500D01*
X588880Y1841500D02*
X571500Y1841500D01*
X3189020Y2349500D02*
X3266530Y2349500D01*
X3111500Y2349500D02*
X3189020Y2349500D01*
X3776790Y2539110D02*
X3650680Y2413000D01*
X3650680Y2413000D02*
X3330030Y2413000D01*
X3330030Y2413000D02*
X3266530Y2349500D01*
X3189020Y3619500D02*
X3422770Y3385750D01*
X3422770Y3385750D02*
X3718460Y3385750D01*
X1079500Y317500D02*
X825500Y317500D01*
X3111500Y3619500D02*
X3189020Y3619500D01*
X5397500Y1431210D02*
X5003800Y1824910D01*
X3795936Y2558256D02*
X3776790Y2539110D01*
X3969544Y2558256D02*
X3795936Y2558256D01*
X3683000Y3421210D02*
X3718460Y3385750D01*
X3683000Y3619500D02*
X3683000Y3421210D01*
X3726000Y3662500D02*
X3683000Y3619500D01*
X3733500Y3965000D02*
X3718500Y3950000D01*
X4381500Y4318000D02*
X4021000Y3957500D01*
X4013500Y3965000D02*
X3733500Y3965000D01*
X3718500Y3950000D02*
X3718500Y3670000D01*
X4021000Y3957500D02*
X4013500Y3965000D01*
X3718500Y3670000D02*
X3726000Y3662500D01*
X817410Y2070030D02*
X588880Y1841500D01*
X3189020Y2349500D02*
X3033980Y2504540D01*
X3033980Y2504540D02*
X2599560Y2504540D01*
X3776790Y2700210D02*
X3776790Y2539110D01*
X3581400Y2895600D02*
X3776790Y2700210D01*
X3718460Y3385750D02*
X3581400Y3248690D01*
X3581400Y3248690D02*
X3581400Y2895600D01*
X2404520Y2309500D02*
X2599560Y2504540D01*
X1406077Y2309500D02*
X2404520Y2309500D01*
X1166607Y2070030D02*
X1406077Y2309500D01*
X817410Y2070030D02*
X1166607Y2070030D01*
X4956890Y1778000D02*
X4826000Y1778000D01*
X5003800Y1824910D02*
X4956890Y1778000D01*
X8318500Y2087500D02*
X8318500Y1841500D01*
X8318500Y1841500D02*
X8305800Y1828800D01*
X7934790Y1592790D02*
X7929500Y1587500D01*
X7934790Y1828800D02*
X7934790Y1592790D01*
X6913266Y2087266D02*
X6921500Y2095500D01*
X6684666Y2087266D02*
X6913266Y2087266D01*
X4818124Y1231900D02*
X5397500Y1231900D01*
X4738300Y1152076D02*
X4818124Y1231900D01*
X4300476Y647700D02*
X4738300Y1085524D01*
X4076700Y647700D02*
X4300476Y647700D01*
X4000500Y571500D02*
X4076700Y647700D01*
X5397500Y1431210D02*
X5397500Y1231900D01*
X4738300Y1085524D02*
X4738300Y1152076D01*
X5397500Y1231900D02*
X5397500Y571500D01*
X5003800Y1824910D02*
X5003800Y2032000D01*
X7556500Y1206500D02*
X7361470Y1206500D01*
X7361470Y1206500D02*
X7361470Y1519470D01*
X7361470Y1519470D02*
X7429500Y1587500D01*
X6926390Y947610D02*
X6413500Y1460500D01*
X6926390Y947610D02*
X6926390Y723390D01*
X6926390Y723390D02*
X6663500Y460500D01*
X6530500Y1577500D02*
X6413500Y1460500D01*
X7005660Y1652500D02*
X6605500Y1652500D01*
X7105500Y1552660D02*
X7005660Y1652500D01*
X7105500Y1233500D02*
X7105500Y1552660D01*
X7386500Y952500D02*
X7105500Y1233500D01*
X6605500Y1652500D02*
X6530500Y1577500D01*
X7556500Y952500D02*
X7386500Y952500D01*
X7737952Y289499D02*
X6834501Y289499D01*
X6780500Y343500D02*
X6663500Y460500D01*
X6834501Y289499D02*
X6780500Y343500D01*
X8146953Y698500D02*
X7737952Y289499D01*
X8318500Y698500D02*
X8146953Y698500D01*
X8318500Y1587500D02*
X8318500Y1435100D01*
X8318500Y1435100D02*
X8305800Y1422400D01*
X8368800Y698500D02*
X8318500Y698500D01*
X8584700Y914400D02*
X8368800Y698500D01*
X7556500Y444500D02*
X7751530Y444500D01*
X7751530Y444500D02*
X8089750Y782720D01*
X8089750Y782720D02*
X8089750Y994120D01*
X8089750Y994120D02*
X8302130Y1206500D01*
X6794500Y2603500D02*
X6949530Y2603500D01*
X6949530Y2603500D02*
X6949530Y2496500D01*
X6949530Y2496500D02*
X7175500Y2270530D01*
X7175500Y2095500D02*
X7175500Y2270530D01*
X8302130Y1206500D02*
X8476560Y1380930D01*
X8476560Y1380930D02*
X8476560Y2158300D01*
X8476560Y2158300D02*
X7876320Y2758540D01*
X7876320Y2758540D02*
X7663510Y2758540D01*
X7663510Y2758540D02*
X7175500Y2270530D01*
X8318500Y1206500D02*
X8302130Y1206500D01*
X1333500Y1206500D02*
X1079500Y1460500D01*
X1079500Y1460500D02*
X1079500Y1841500D01*
X1333500Y825500D02*
X1333500Y1206500D01*
X6535270Y2862730D02*
X6794500Y2603500D01*
X6380240Y2862730D02*
X6380240Y2862730D01*
X6380240Y2862730D02*
X6535270Y2862730D01*
X3873500Y3048000D02*
X3873500Y3238500D01*
X3873500Y3238500D02*
X3886200Y3251200D01*
X2024740Y1996500D02*
X2135020Y2106780D01*
X1234500Y1996500D02*
X2024740Y1996500D01*
X1079500Y1841500D02*
X1234500Y1996500D01*
X4254500Y3810000D02*
X3873500Y3810000D01*
X4508500Y1587500D02*
X4572000Y1524000D01*
X4572000Y1524000D02*
X5080000Y1524000D01*
X5459000Y1778000D02*
X5334000Y1778000D01*
X5487000Y1806000D02*
X5459000Y1778000D01*
X6109000Y1806000D02*
X5487000Y1806000D01*
X8123470Y444500D02*
X7831370Y152400D01*
X6221500Y1693500D02*
X6109000Y1806000D01*
X8318500Y444500D02*
X8123470Y444500D01*
X7831370Y152400D02*
X6687440Y152400D01*
X6221500Y618340D02*
X6221500Y1693500D01*
X6687440Y152400D02*
X6221500Y618340D01*
X2855730Y1015040D02*
X2285040Y1015040D01*
X5143500Y2286000D02*
X4987750Y2286000D01*
X2285040Y1015040D02*
X1587500Y317500D01*
X3124270Y1283580D02*
X2855730Y1015040D01*
X4987750Y2286000D02*
X3985330Y1283580D01*
X3985330Y1283580D02*
X3124270Y1283580D01*
X5496470Y2603500D02*
X5651500Y2603500D01*
X5341430Y2758540D02*
X5496470Y2603500D01*
X4523440Y2758540D02*
X5341430Y2758540D01*
X1333500Y317500D02*
X1333500Y546100D01*
X1333500Y546100D02*
X2413000Y1625600D01*
X2413000Y1625600D02*
X3274215Y1625600D01*
X3274215Y1625600D02*
X3426615Y1778000D01*
X3426615Y1778000D02*
X3542900Y1778000D01*
X3542900Y1778000D02*
X4523440Y2758540D01*
X4635500Y2222500D02*
X4635500Y2448470D01*
X4635500Y2603500D02*
X4635500Y2448470D01*
X3647530Y1587500D02*
X4282530Y2222500D01*
X4282530Y2222500D02*
X4635500Y2222500D01*
X3492500Y1587500D02*
X3647530Y1587500D01*
X3327400Y1422400D02*
X3492500Y1587500D01*
X2717800Y1422400D02*
X3327400Y1422400D01*
X2095500Y317500D02*
X2095500Y546100D01*
X2095500Y546100D02*
X2108200Y558800D01*
X7556500Y698500D02*
X7751530Y698500D01*
X7810500Y2603500D02*
X8084790Y2329210D01*
X8084790Y2329210D02*
X8084790Y1520810D01*
X8084790Y1520810D02*
X7751530Y1187550D01*
X7751530Y1187550D02*
X7751530Y698500D01*
X6913500Y1189100D02*
X6913500Y1460500D01*
X7556500Y698500D02*
X7361470Y698500D01*
X7361470Y741130D02*
X6913500Y1189100D01*
X7361470Y698500D02*
X7361470Y741130D01*
X1722500Y3746500D02*
X1333500Y3746500D01*
X1333500Y3746500D02*
X1079500Y3492500D01*
X2222500Y3746500D02*
X1968500Y4000500D01*
X1968500Y4000500D02*
X571500Y4000500D01*
X2844800Y4114800D02*
X3111500Y4381500D01*
X2222500Y4246500D02*
X2354200Y4114800D01*
X2354200Y4114800D02*
X2844800Y4114800D01*
X2857500Y4381500D02*
X2702470Y4381500D01*
X2657000Y4426970D02*
X2702470Y4381500D01*
X1902970Y4426970D02*
X2657000Y4426970D01*
X1722500Y4246500D02*
X1902970Y4426970D01*
X1714500Y2484500D02*
X1341500Y2484500D01*
X1341500Y2484500D02*
X1079500Y2222500D01*
X2214500Y2484500D02*
X1968500Y2730500D01*
X1968500Y2730500D02*
X571500Y2730500D01*
X2214500Y2984500D02*
X2245570Y2953430D01*
X2245570Y2953430D02*
X2953430Y2953430D01*
X2953430Y2953430D02*
X3111500Y3111500D01*
X2857500Y3111500D02*
X2702470Y3111500D01*
X2648210Y3165760D02*
X2702470Y3111500D01*
X1895760Y3165760D02*
X2648210Y3165760D01*
X1714500Y2984500D02*
X1895760Y3165760D01*
X2857500Y3464470D02*
X2857500Y3619500D01*
X2983460Y3464470D02*
X2857500Y3464470D01*
X3378200Y3069730D02*
X2983460Y3464470D01*
X3378200Y2794000D02*
X3378200Y3069730D01*
X3619500Y2603500D02*
X3568700Y2603500D01*
X3568700Y2603500D02*
X3378200Y2794000D01*
X3619500Y2222500D02*
X3591460Y2194460D01*
X3591460Y2194460D02*
X3012540Y2194460D01*
X3012540Y2194460D02*
X2857500Y2349500D01*
X141001Y4684999D02*
X141001Y141001D01*
X141001Y141001D02*
X6008401Y141001D01*
X8318500Y952500D02*
X8323704Y952500D01*
X6008401Y141001D02*
X6121400Y254000D01*
X6121400Y254000D02*
X6121400Y1498600D01*
X8634699Y4684999D02*
X141001Y4684999D01*
X8634699Y1263495D02*
X8634699Y4684999D01*
X8323704Y952500D02*
X8634699Y1263495D01*
X6121400Y1498600D02*
X5969000Y1651000D01*
X5905500Y1079500D02*
X5905500Y1282700D01*
X5719000Y1469200D02*
X5719000Y1651000D01*
X5905500Y1282700D02*
X5719000Y1469200D01*
X5142300Y420300D02*
X4800600Y762000D01*
X5470076Y420300D02*
X5142300Y420300D01*
X4800600Y762000D02*
X4800600Y990600D01*
X5905500Y1079500D02*
X5905500Y855724D01*
X4800600Y990600D02*
X4889500Y1079500D01*
X5905500Y855724D02*
X5470076Y420300D01*
D22*
G36*
X5430817Y2543995D02*
G01*
X5433588Y2540618D01*
X5436965Y2537847D01*
X5436965Y2537847D01*
X5445760Y2530629D01*
X5447064Y2529559D01*
X5462439Y2521341D01*
X5479121Y2516281D01*
X5492122Y2515000D01*
X5492123Y2515000D01*
X5496470Y2514572D01*
X5500817Y2515000D01*
X5538492Y2515000D01*
X5549539Y2501539D01*
X5571390Y2483607D01*
X5596319Y2470282D01*
X5623369Y2462076D01*
X5644451Y2460000D01*
X5658549Y2460000D01*
X5679631Y2462076D01*
X5706681Y2470282D01*
X5731610Y2483607D01*
X5753461Y2501539D01*
X5771393Y2523390D01*
X5784718Y2548319D01*
X5792924Y2575369D01*
X5795694Y2603500D01*
X5792924Y2631631D01*
X5788531Y2646111D01*
X6467342Y1967300D01*
X6463359Y1967300D01*
X6436601Y1961977D01*
X6411396Y1951537D01*
X6388711Y1936380D01*
X6369420Y1917089D01*
X6354263Y1894404D01*
X6343822Y1869199D01*
X6338500Y1842441D01*
X6338500Y1815159D01*
X6343822Y1788401D01*
X6354263Y1763196D01*
X6369420Y1740511D01*
X6388711Y1721220D01*
X6411396Y1706063D01*
X6436601Y1695622D01*
X6463359Y1690300D01*
X6490641Y1690300D01*
X6517399Y1695622D01*
X6527754Y1699912D01*
X6470996Y1643153D01*
X6470995Y1643153D01*
X6462610Y1634768D01*
X6431278Y1641000D01*
X6395722Y1641000D01*
X6360850Y1634063D01*
X6328001Y1620457D01*
X6310000Y1608429D01*
X6310000Y1689154D01*
X6310428Y1693500D01*
X6310000Y1697847D01*
X6310000Y1697848D01*
X6308719Y1710849D01*
X6303659Y1727532D01*
X6295441Y1742906D01*
X6292495Y1746495D01*
X6287153Y1753005D01*
X6287153Y1753005D01*
X6284382Y1756382D01*
X6281005Y1759153D01*
X6174653Y1865504D01*
X6171882Y1868882D01*
X6158406Y1879941D01*
X6143031Y1888159D01*
X6126349Y1893220D01*
X6113348Y1894500D01*
X6113347Y1894500D01*
X6109000Y1894928D01*
X6104653Y1894500D01*
X5491347Y1894500D01*
X5487000Y1894928D01*
X5482653Y1894500D01*
X5482652Y1894500D01*
X5469651Y1893220D01*
X5460434Y1890423D01*
X5454119Y1898118D01*
X5444449Y1906054D01*
X5433418Y1911950D01*
X5421448Y1915581D01*
X5409000Y1916807D01*
X5259000Y1916807D01*
X5246552Y1915581D01*
X5234582Y1911950D01*
X5223551Y1906054D01*
X5213882Y1898118D01*
X5205946Y1888449D01*
X5200050Y1877418D01*
X5196419Y1865448D01*
X5195193Y1853000D01*
X5195193Y1703000D01*
X5196419Y1690552D01*
X5200050Y1678582D01*
X5205946Y1667551D01*
X5213882Y1657881D01*
X5223551Y1649946D01*
X5234582Y1644050D01*
X5246552Y1640419D01*
X5259000Y1639193D01*
X5409000Y1639193D01*
X5421448Y1640419D01*
X5433418Y1644050D01*
X5444449Y1649946D01*
X5454119Y1657881D01*
X5462054Y1667551D01*
X5467950Y1678582D01*
X5471506Y1690303D01*
X5476349Y1690780D01*
X5493031Y1695841D01*
X5508406Y1704059D01*
X5521882Y1715118D01*
X5523836Y1717500D01*
X5591222Y1717500D01*
X5581015Y1692857D01*
X5575500Y1665133D01*
X5575500Y1636866D01*
X5581015Y1609143D01*
X5591832Y1583027D01*
X5607536Y1559524D01*
X5627524Y1539536D01*
X5630500Y1537548D01*
X5630500Y1473547D01*
X5630072Y1469200D01*
X5630500Y1464853D01*
X5630500Y1464852D01*
X5631329Y1456431D01*
X5631780Y1451851D01*
X5632586Y1449194D01*
X5636841Y1435169D01*
X5645059Y1419794D01*
X5656118Y1406318D01*
X5659496Y1403547D01*
X5817000Y1246042D01*
X5817000Y1188382D01*
X5816446Y1188012D01*
X5796988Y1168554D01*
X5781699Y1145673D01*
X5778500Y1137949D01*
X5775300Y1145673D01*
X5760012Y1168554D01*
X5740553Y1188012D01*
X5717673Y1203301D01*
X5692249Y1213831D01*
X5665259Y1219200D01*
X5637741Y1219200D01*
X5610751Y1213831D01*
X5585327Y1203301D01*
X5562447Y1188012D01*
X5542988Y1168554D01*
X5527700Y1145673D01*
X5517169Y1120249D01*
X5511800Y1093259D01*
X5511800Y1065741D01*
X5517169Y1038751D01*
X5527700Y1013327D01*
X5542988Y990446D01*
X5562447Y970988D01*
X5585327Y955699D01*
X5610751Y945169D01*
X5637741Y939800D01*
X5665259Y939800D01*
X5692249Y945169D01*
X5717673Y955699D01*
X5740553Y970988D01*
X5760012Y990446D01*
X5775300Y1013327D01*
X5778500Y1021051D01*
X5781699Y1013327D01*
X5796988Y990446D01*
X5816446Y970988D01*
X5817000Y970618D01*
X5817000Y892382D01*
X5532782Y608163D01*
X5524264Y631802D01*
X5518066Y643398D01*
X5494057Y650096D01*
X5415461Y571500D01*
X5416875Y570086D01*
X5398914Y552125D01*
X5397500Y553540D01*
X5396086Y552125D01*
X5378125Y570086D01*
X5379540Y571500D01*
X5300944Y650096D01*
X5276934Y643398D01*
X5265224Y618495D01*
X5258598Y591787D01*
X5257309Y564298D01*
X5261408Y537087D01*
X5270736Y511198D01*
X5272018Y508800D01*
X5178958Y508800D01*
X5019701Y668057D01*
X5318904Y668057D01*
X5397500Y589461D01*
X5476096Y668057D01*
X5469398Y692066D01*
X5444495Y703776D01*
X5417787Y710402D01*
X5390298Y711691D01*
X5363087Y707592D01*
X5337198Y698264D01*
X5325602Y692066D01*
X5318904Y668057D01*
X5019701Y668057D01*
X4889100Y798658D01*
X4889100Y939800D01*
X4903259Y939800D01*
X4930249Y945169D01*
X4955673Y955699D01*
X4978554Y970988D01*
X4998012Y990446D01*
X5013301Y1013327D01*
X5016500Y1021051D01*
X5019700Y1013327D01*
X5034988Y990446D01*
X5054447Y970988D01*
X5077327Y955699D01*
X5102751Y945169D01*
X5129741Y939800D01*
X5157259Y939800D01*
X5184249Y945169D01*
X5209673Y955699D01*
X5232554Y970988D01*
X5252012Y990446D01*
X5267301Y1013327D01*
X5277831Y1038751D01*
X5283200Y1065741D01*
X5283200Y1093259D01*
X5277831Y1120249D01*
X5267301Y1145673D01*
X5252012Y1168554D01*
X5232554Y1188012D01*
X5209673Y1203301D01*
X5184249Y1213831D01*
X5157259Y1219200D01*
X5129741Y1219200D01*
X5102751Y1213831D01*
X5077327Y1203301D01*
X5054447Y1188012D01*
X5034988Y1168554D01*
X5019700Y1145673D01*
X5016500Y1137949D01*
X5013301Y1145673D01*
X4998012Y1168554D01*
X4978554Y1188012D01*
X4955673Y1203301D01*
X4930249Y1213831D01*
X4903259Y1219200D01*
X4875741Y1219200D01*
X4848751Y1213831D01*
X4823327Y1203301D01*
X4800447Y1188012D01*
X4780988Y1168554D01*
X4765700Y1145673D01*
X4755169Y1120249D01*
X4749800Y1093259D01*
X4749800Y1065741D01*
X4749930Y1065088D01*
X4741095Y1056253D01*
X4737718Y1053482D01*
X4734947Y1050105D01*
X4734947Y1050105D01*
X4726659Y1040006D01*
X4718441Y1024631D01*
X4713381Y1007949D01*
X4711672Y990600D01*
X4712100Y986252D01*
X4712100Y766347D01*
X4711672Y762000D01*
X4712100Y757653D01*
X4712100Y757652D01*
X4713060Y747906D01*
X4713381Y744651D01*
X4714567Y740739D01*
X4718441Y727969D01*
X4726659Y712594D01*
X4737718Y699118D01*
X4741096Y696347D01*
X5076647Y360795D01*
X5079418Y357418D01*
X5082795Y354647D01*
X5082795Y354647D01*
X5085957Y352052D01*
X5092894Y346359D01*
X5108269Y338141D01*
X5124951Y333080D01*
X5137952Y331800D01*
X5137953Y331800D01*
X5142300Y331372D01*
X5146647Y331800D01*
X5465729Y331800D01*
X5470076Y331372D01*
X5474423Y331800D01*
X5474424Y331800D01*
X5487425Y333080D01*
X5504107Y338141D01*
X5519482Y346359D01*
X5532958Y357418D01*
X5535730Y360795D01*
X5965005Y790071D01*
X5968382Y792842D01*
X5972097Y797369D01*
X5979441Y806318D01*
X5980421Y808151D01*
X5987659Y821692D01*
X5992719Y838375D01*
X5994000Y851376D01*
X5994000Y851377D01*
X5994428Y855724D01*
X5994000Y860071D01*
X5994000Y970618D01*
X5994553Y970988D01*
X6014012Y990446D01*
X6029300Y1013327D01*
X6032900Y1022017D01*
X6032900Y290658D01*
X5971743Y229501D01*
X3225287Y229501D01*
X3238668Y249527D01*
X3249485Y275643D01*
X3255000Y303367D01*
X3255000Y331634D01*
X3249485Y359357D01*
X3238668Y385473D01*
X3222964Y408976D01*
X3202976Y428964D01*
X3179473Y444668D01*
X3153357Y455485D01*
X3125633Y461000D01*
X3097366Y461000D01*
X3069643Y455485D01*
X3043527Y444668D01*
X3020024Y428964D01*
X3000036Y408976D01*
X2984500Y385724D01*
X2968964Y408976D01*
X2948976Y428964D01*
X2925473Y444668D01*
X2899357Y455485D01*
X2871633Y461000D01*
X2848938Y461000D01*
X2855916Y467978D01*
X2859293Y470749D01*
X2862064Y474126D01*
X2862881Y474943D01*
X3921904Y474943D01*
X3928602Y450934D01*
X3953505Y439224D01*
X3980213Y432598D01*
X4007702Y431309D01*
X4034913Y435408D01*
X4060802Y444736D01*
X4072398Y450934D01*
X4079096Y474943D01*
X4000500Y553540D01*
X3921904Y474943D01*
X2862881Y474943D01*
X2952236Y564298D01*
X3860309Y564298D01*
X3864408Y537087D01*
X3873736Y511198D01*
X3879934Y499602D01*
X3903943Y492904D01*
X3982539Y571500D01*
X4018460Y571500D01*
X4097056Y492904D01*
X4121066Y499602D01*
X4132776Y524505D01*
X4139402Y551214D01*
X4140691Y578702D01*
X4136592Y605913D01*
X4127264Y631802D01*
X4121066Y643398D01*
X4097056Y650096D01*
X4018460Y571500D01*
X3982539Y571500D01*
X3903943Y650096D01*
X3879934Y643398D01*
X3868224Y618495D01*
X3861598Y591787D01*
X3860309Y564298D01*
X2952236Y564298D01*
X3055994Y668057D01*
X3921904Y668057D01*
X4000500Y589461D01*
X4079096Y668057D01*
X4072398Y692066D01*
X4047495Y703776D01*
X4020786Y710402D01*
X3993298Y711691D01*
X3966087Y707592D01*
X3940198Y698264D01*
X3928602Y692066D01*
X3921904Y668057D01*
X3055994Y668057D01*
X3160318Y772380D01*
X4285533Y772380D01*
X4289880Y771952D01*
X4294227Y772380D01*
X4294228Y772380D01*
X4307229Y773660D01*
X4323911Y778721D01*
X4339286Y786939D01*
X4352762Y797998D01*
X4355533Y801376D01*
X4494088Y939930D01*
X4494741Y939800D01*
X4522259Y939800D01*
X4549249Y945169D01*
X4574673Y955699D01*
X4597554Y970988D01*
X4617012Y990446D01*
X4632301Y1013327D01*
X4642831Y1038751D01*
X4648200Y1065741D01*
X4648200Y1093259D01*
X4642831Y1120249D01*
X4632301Y1145673D01*
X4617012Y1168554D01*
X4597554Y1188012D01*
X4574673Y1203301D01*
X4549249Y1213831D01*
X4522259Y1219200D01*
X4494741Y1219200D01*
X4467751Y1213831D01*
X4442327Y1203301D01*
X4419447Y1188012D01*
X4399988Y1168554D01*
X4384700Y1145673D01*
X4381500Y1137949D01*
X4378301Y1145673D01*
X4363012Y1168554D01*
X4343554Y1188012D01*
X4320673Y1203301D01*
X4295249Y1213831D01*
X4268259Y1219200D01*
X4240741Y1219200D01*
X4213751Y1213831D01*
X4188327Y1203301D01*
X4165446Y1188012D01*
X4145988Y1168554D01*
X4130699Y1145673D01*
X4120169Y1120249D01*
X4114800Y1093259D01*
X4114800Y1065741D01*
X4120169Y1038751D01*
X4130699Y1013327D01*
X4145988Y990446D01*
X4165446Y970988D01*
X4188327Y955699D01*
X4203584Y949380D01*
X3797416Y949380D01*
X3812673Y955699D01*
X3835553Y970988D01*
X3855012Y990446D01*
X3870300Y1013327D01*
X3880831Y1038751D01*
X3886200Y1065741D01*
X3886200Y1093259D01*
X3880831Y1120249D01*
X3870300Y1145673D01*
X3855012Y1168554D01*
X3835553Y1188012D01*
X3824975Y1195080D01*
X3980983Y1195080D01*
X3985330Y1194652D01*
X3989677Y1195080D01*
X3989678Y1195080D01*
X4002679Y1196361D01*
X4019361Y1201421D01*
X4034736Y1209639D01*
X4048212Y1220698D01*
X4050983Y1224076D01*
X4371111Y1544203D01*
X4381332Y1519527D01*
X4397036Y1496024D01*
X4417024Y1476036D01*
X4440527Y1460332D01*
X4466643Y1449515D01*
X4494367Y1444000D01*
X4522634Y1444000D01*
X4530866Y1445637D01*
X4537969Y1441841D01*
X4552902Y1437311D01*
X4554651Y1436780D01*
X4567652Y1435500D01*
X4567653Y1435500D01*
X4572000Y1435072D01*
X4576347Y1435500D01*
X4972632Y1435500D01*
X4991711Y1416420D01*
X5014396Y1401263D01*
X5039601Y1390823D01*
X5066359Y1385500D01*
X5093641Y1385500D01*
X5120399Y1390823D01*
X5145604Y1401263D01*
X5168289Y1416420D01*
X5187580Y1435711D01*
X5202737Y1458396D01*
X5213178Y1483601D01*
X5218500Y1510359D01*
X5218500Y1537641D01*
X5213178Y1564399D01*
X5202737Y1589604D01*
X5187580Y1612289D01*
X5168289Y1631580D01*
X5145604Y1646737D01*
X5120399Y1657177D01*
X5093641Y1662500D01*
X5066359Y1662500D01*
X5039601Y1657177D01*
X5014396Y1646737D01*
X4991711Y1631580D01*
X4972632Y1612500D01*
X4649839Y1612500D01*
X4646485Y1629357D01*
X4635668Y1655473D01*
X4619964Y1678976D01*
X4616639Y1682301D01*
X4748261Y1682301D01*
X4754814Y1658414D01*
X4779512Y1646824D01*
X4805996Y1640275D01*
X4833249Y1639019D01*
X4860224Y1643103D01*
X4885883Y1652372D01*
X4897186Y1658414D01*
X4903739Y1682301D01*
X4826000Y1760039D01*
X4748261Y1682301D01*
X4616639Y1682301D01*
X4599976Y1698964D01*
X4576473Y1714668D01*
X4551797Y1724889D01*
X4597659Y1770751D01*
X4687019Y1770751D01*
X4691104Y1743776D01*
X4700372Y1718117D01*
X4706414Y1706814D01*
X4730301Y1700261D01*
X4808040Y1778000D01*
X4843961Y1778000D01*
X4921699Y1700261D01*
X4945586Y1706814D01*
X4957176Y1731512D01*
X4963725Y1757996D01*
X4964981Y1785249D01*
X4960897Y1812224D01*
X4951628Y1837883D01*
X4945586Y1849186D01*
X4921699Y1855739D01*
X4843961Y1778000D01*
X4808040Y1778000D01*
X4730301Y1855739D01*
X4706414Y1849186D01*
X4694824Y1824488D01*
X4688275Y1798004D01*
X4687019Y1770751D01*
X4597659Y1770751D01*
X4700607Y1873699D01*
X4748261Y1873699D01*
X4826000Y1795960D01*
X4903739Y1873699D01*
X4897186Y1897586D01*
X4872488Y1909176D01*
X4846004Y1915725D01*
X4818751Y1916981D01*
X4791776Y1912896D01*
X4766117Y1903628D01*
X4754814Y1897586D01*
X4748261Y1873699D01*
X4700607Y1873699D01*
X5024408Y2197500D01*
X5030492Y2197500D01*
X5041539Y2184039D01*
X5063390Y2166107D01*
X5088319Y2152782D01*
X5115369Y2144576D01*
X5136451Y2142500D01*
X5150549Y2142500D01*
X5171631Y2144576D01*
X5198681Y2152782D01*
X5223610Y2166107D01*
X5245461Y2184039D01*
X5263393Y2205890D01*
X5276718Y2230819D01*
X5284924Y2257869D01*
X5287694Y2286000D01*
X5284924Y2314131D01*
X5276718Y2341181D01*
X5263393Y2366110D01*
X5245461Y2387961D01*
X5223610Y2405893D01*
X5198681Y2419218D01*
X5171631Y2427424D01*
X5150549Y2429500D01*
X5136451Y2429500D01*
X5115369Y2427424D01*
X5088319Y2419218D01*
X5063390Y2405893D01*
X5041539Y2387961D01*
X5030492Y2374500D01*
X4992097Y2374500D01*
X4987750Y2374928D01*
X4983403Y2374500D01*
X4983402Y2374500D01*
X4970401Y2373220D01*
X4953719Y2368159D01*
X4938344Y2359941D01*
X4928245Y2351653D01*
X4928245Y2351653D01*
X4924868Y2348882D01*
X4922097Y2345505D01*
X4777575Y2200983D01*
X4779694Y2222500D01*
X4776924Y2250631D01*
X4768718Y2277681D01*
X4755393Y2302610D01*
X4737461Y2324461D01*
X4724000Y2335508D01*
X4724000Y2490492D01*
X4737461Y2501539D01*
X4755393Y2523390D01*
X4768718Y2548319D01*
X4776924Y2575369D01*
X4779694Y2603500D01*
X4776924Y2631631D01*
X4768718Y2658681D01*
X4762647Y2670040D01*
X5304772Y2670040D01*
X5430817Y2543995D01*
X5430817Y2543995D01*
G37*
X5430817Y2543995D02*
X5433588Y2540618D01*
X5436965Y2537847D01*
X5436965Y2537847D01*
X5445760Y2530629D01*
X5447064Y2529559D01*
X5462439Y2521341D01*
X5479121Y2516281D01*
X5492122Y2515000D01*
X5492123Y2515000D01*
X5496470Y2514572D01*
X5500817Y2515000D01*
X5538492Y2515000D01*
X5549539Y2501539D01*
X5571390Y2483607D01*
X5596319Y2470282D01*
X5623369Y2462076D01*
X5644451Y2460000D01*
X5658549Y2460000D01*
X5679631Y2462076D01*
X5706681Y2470282D01*
X5731610Y2483607D01*
X5753461Y2501539D01*
X5771393Y2523390D01*
X5784718Y2548319D01*
X5792924Y2575369D01*
X5795694Y2603500D01*
X5792924Y2631631D01*
X5788531Y2646111D01*
X6467342Y1967300D01*
X6463359Y1967300D01*
X6436601Y1961977D01*
X6411396Y1951537D01*
X6388711Y1936380D01*
X6369420Y1917089D01*
X6354263Y1894404D01*
X6343822Y1869199D01*
X6338500Y1842441D01*
X6338500Y1815159D01*
X6343822Y1788401D01*
X6354263Y1763196D01*
X6369420Y1740511D01*
X6388711Y1721220D01*
X6411396Y1706063D01*
X6436601Y1695622D01*
X6463359Y1690300D01*
X6490641Y1690300D01*
X6517399Y1695622D01*
X6527754Y1699912D01*
X6470996Y1643153D01*
X6470995Y1643153D01*
X6462610Y1634768D01*
X6431278Y1641000D01*
X6395722Y1641000D01*
X6360850Y1634063D01*
X6328001Y1620457D01*
X6310000Y1608429D01*
X6310000Y1689154D01*
X6310428Y1693500D01*
X6310000Y1697847D01*
X6310000Y1697848D01*
X6308719Y1710849D01*
X6303659Y1727532D01*
X6295441Y1742906D01*
X6292495Y1746495D01*
X6287153Y1753005D01*
X6287153Y1753005D01*
X6284382Y1756382D01*
X6281005Y1759153D01*
X6174653Y1865504D01*
X6171882Y1868882D01*
X6158406Y1879941D01*
X6143031Y1888159D01*
X6126349Y1893220D01*
X6113348Y1894500D01*
X6113347Y1894500D01*
X6109000Y1894928D01*
X6104653Y1894500D01*
X5491347Y1894500D01*
X5487000Y1894928D01*
X5482653Y1894500D01*
X5482652Y1894500D01*
X5469651Y1893220D01*
X5460434Y1890423D01*
X5454119Y1898118D01*
X5444449Y1906054D01*
X5433418Y1911950D01*
X5421448Y1915581D01*
X5409000Y1916807D01*
X5259000Y1916807D01*
X5246552Y1915581D01*
X5234582Y1911950D01*
X5223551Y1906054D01*
X5213882Y1898118D01*
X5205946Y1888449D01*
X5200050Y1877418D01*
X5196419Y1865448D01*
X5195193Y1853000D01*
X5195193Y1703000D01*
X5196419Y1690552D01*
X5200050Y1678582D01*
X5205946Y1667551D01*
X5213882Y1657881D01*
X5223551Y1649946D01*
X5234582Y1644050D01*
X5246552Y1640419D01*
X5259000Y1639193D01*
X5409000Y1639193D01*
X5421448Y1640419D01*
X5433418Y1644050D01*
X5444449Y1649946D01*
X5454119Y1657881D01*
X5462054Y1667551D01*
X5467950Y1678582D01*
X5471506Y1690303D01*
X5476349Y1690780D01*
X5493031Y1695841D01*
X5508406Y1704059D01*
X5521882Y1715118D01*
X5523836Y1717500D01*
X5591222Y1717500D01*
X5581015Y1692857D01*
X5575500Y1665133D01*
X5575500Y1636866D01*
X5581015Y1609143D01*
X5591832Y1583027D01*
X5607536Y1559524D01*
X5627524Y1539536D01*
X5630500Y1537548D01*
X5630500Y1473547D01*
X5630072Y1469200D01*
X5630500Y1464853D01*
X5630500Y1464852D01*
X5631329Y1456431D01*
X5631780Y1451851D01*
X5632586Y1449194D01*
X5636841Y1435169D01*
X5645059Y1419794D01*
X5656118Y1406318D01*
X5659496Y1403547D01*
X5817000Y1246042D01*
X5817000Y1188382D01*
X5816446Y1188012D01*
X5796988Y1168554D01*
X5781699Y1145673D01*
X5778500Y1137949D01*
X5775300Y1145673D01*
X5760012Y1168554D01*
X5740553Y1188012D01*
X5717673Y1203301D01*
X5692249Y1213831D01*
X5665259Y1219200D01*
X5637741Y1219200D01*
X5610751Y1213831D01*
X5585327Y1203301D01*
X5562447Y1188012D01*
X5542988Y1168554D01*
X5527700Y1145673D01*
X5517169Y1120249D01*
X5511800Y1093259D01*
X5511800Y1065741D01*
X5517169Y1038751D01*
X5527700Y1013327D01*
X5542988Y990446D01*
X5562447Y970988D01*
X5585327Y955699D01*
X5610751Y945169D01*
X5637741Y939800D01*
X5665259Y939800D01*
X5692249Y945169D01*
X5717673Y955699D01*
X5740553Y970988D01*
X5760012Y990446D01*
X5775300Y1013327D01*
X5778500Y1021051D01*
X5781699Y1013327D01*
X5796988Y990446D01*
X5816446Y970988D01*
X5817000Y970618D01*
X5817000Y892382D01*
X5532782Y608163D01*
X5524264Y631802D01*
X5518066Y643398D01*
X5494057Y650096D01*
X5415461Y571500D01*
X5416875Y570086D01*
X5398914Y552125D01*
X5397500Y553540D01*
X5396086Y552125D01*
X5378125Y570086D01*
X5379540Y571500D01*
X5300944Y650096D01*
X5276934Y643398D01*
X5265224Y618495D01*
X5258598Y591787D01*
X5257309Y564298D01*
X5261408Y537087D01*
X5270736Y511198D01*
X5272018Y508800D01*
X5178958Y508800D01*
X5019701Y668057D01*
X5318904Y668057D01*
X5397500Y589461D01*
X5476096Y668057D01*
X5469398Y692066D01*
X5444495Y703776D01*
X5417787Y710402D01*
X5390298Y711691D01*
X5363087Y707592D01*
X5337198Y698264D01*
X5325602Y692066D01*
X5318904Y668057D01*
X5019701Y668057D01*
X4889100Y798658D01*
X4889100Y939800D01*
X4903259Y939800D01*
X4930249Y945169D01*
X4955673Y955699D01*
X4978554Y970988D01*
X4998012Y990446D01*
X5013301Y1013327D01*
X5016500Y1021051D01*
X5019700Y1013327D01*
X5034988Y990446D01*
X5054447Y970988D01*
X5077327Y955699D01*
X5102751Y945169D01*
X5129741Y939800D01*
X5157259Y939800D01*
X5184249Y945169D01*
X5209673Y955699D01*
X5232554Y970988D01*
X5252012Y990446D01*
X5267301Y1013327D01*
X5277831Y1038751D01*
X5283200Y1065741D01*
X5283200Y1093259D01*
X5277831Y1120249D01*
X5267301Y1145673D01*
X5252012Y1168554D01*
X5232554Y1188012D01*
X5209673Y1203301D01*
X5184249Y1213831D01*
X5157259Y1219200D01*
X5129741Y1219200D01*
X5102751Y1213831D01*
X5077327Y1203301D01*
X5054447Y1188012D01*
X5034988Y1168554D01*
X5019700Y1145673D01*
X5016500Y1137949D01*
X5013301Y1145673D01*
X4998012Y1168554D01*
X4978554Y1188012D01*
X4955673Y1203301D01*
X4930249Y1213831D01*
X4903259Y1219200D01*
X4875741Y1219200D01*
X4848751Y1213831D01*
X4823327Y1203301D01*
X4800447Y1188012D01*
X4780988Y1168554D01*
X4765700Y1145673D01*
X4755169Y1120249D01*
X4749800Y1093259D01*
X4749800Y1065741D01*
X4749930Y1065088D01*
X4741095Y1056253D01*
X4737718Y1053482D01*
X4734947Y1050105D01*
X4734947Y1050105D01*
X4726659Y1040006D01*
X4718441Y1024631D01*
X4713381Y1007949D01*
X4711672Y990600D01*
X4712100Y986252D01*
X4712100Y766347D01*
X4711672Y762000D01*
X4712100Y757653D01*
X4712100Y757652D01*
X4713060Y747906D01*
X4713381Y744651D01*
X4714567Y740739D01*
X4718441Y727969D01*
X4726659Y712594D01*
X4737718Y699118D01*
X4741096Y696347D01*
X5076647Y360795D01*
X5079418Y357418D01*
X5082795Y354647D01*
X5082795Y354647D01*
X5085957Y352052D01*
X5092894Y346359D01*
X5108269Y338141D01*
X5124951Y333080D01*
X5137952Y331800D01*
X5137953Y331800D01*
X5142300Y331372D01*
X5146647Y331800D01*
X5465729Y331800D01*
X5470076Y331372D01*
X5474423Y331800D01*
X5474424Y331800D01*
X5487425Y333080D01*
X5504107Y338141D01*
X5519482Y346359D01*
X5532958Y357418D01*
X5535730Y360795D01*
X5965005Y790071D01*
X5968382Y792842D01*
X5972097Y797369D01*
X5979441Y806318D01*
X5980421Y808151D01*
X5987659Y821692D01*
X5992719Y838375D01*
X5994000Y851376D01*
X5994000Y851377D01*
X5994428Y855724D01*
X5994000Y860071D01*
X5994000Y970618D01*
X5994553Y970988D01*
X6014012Y990446D01*
X6029300Y1013327D01*
X6032900Y1022017D01*
X6032900Y290658D01*
X5971743Y229501D01*
X3225287Y229501D01*
X3238668Y249527D01*
X3249485Y275643D01*
X3255000Y303367D01*
X3255000Y331634D01*
X3249485Y359357D01*
X3238668Y385473D01*
X3222964Y408976D01*
X3202976Y428964D01*
X3179473Y444668D01*
X3153357Y455485D01*
X3125633Y461000D01*
X3097366Y461000D01*
X3069643Y455485D01*
X3043527Y444668D01*
X3020024Y428964D01*
X3000036Y408976D01*
X2984500Y385724D01*
X2968964Y408976D01*
X2948976Y428964D01*
X2925473Y444668D01*
X2899357Y455485D01*
X2871633Y461000D01*
X2848938Y461000D01*
X2855916Y467978D01*
X2859293Y470749D01*
X2862064Y474126D01*
X2862881Y474943D01*
X3921904Y474943D01*
X3928602Y450934D01*
X3953505Y439224D01*
X3980213Y432598D01*
X4007702Y431309D01*
X4034913Y435408D01*
X4060802Y444736D01*
X4072398Y450934D01*
X4079096Y474943D01*
X4000500Y553540D01*
X3921904Y474943D01*
X2862881Y474943D01*
X2952236Y564298D01*
X3860309Y564298D01*
X3864408Y537087D01*
X3873736Y511198D01*
X3879934Y499602D01*
X3903943Y492904D01*
X3982539Y571500D01*
X4018460Y571500D01*
X4097056Y492904D01*
X4121066Y499602D01*
X4132776Y524505D01*
X4139402Y551214D01*
X4140691Y578702D01*
X4136592Y605913D01*
X4127264Y631802D01*
X4121066Y643398D01*
X4097056Y650096D01*
X4018460Y571500D01*
X3982539Y571500D01*
X3903943Y650096D01*
X3879934Y643398D01*
X3868224Y618495D01*
X3861598Y591787D01*
X3860309Y564298D01*
X2952236Y564298D01*
X3055994Y668057D01*
X3921904Y668057D01*
X4000500Y589461D01*
X4079096Y668057D01*
X4072398Y692066D01*
X4047495Y703776D01*
X4020786Y710402D01*
X3993298Y711691D01*
X3966087Y707592D01*
X3940198Y698264D01*
X3928602Y692066D01*
X3921904Y668057D01*
X3055994Y668057D01*
X3160318Y772380D01*
X4285533Y772380D01*
X4289880Y771952D01*
X4294227Y772380D01*
X4294228Y772380D01*
X4307229Y773660D01*
X4323911Y778721D01*
X4339286Y786939D01*
X4352762Y797998D01*
X4355533Y801376D01*
X4494088Y939930D01*
X4494741Y939800D01*
X4522259Y939800D01*
X4549249Y945169D01*
X4574673Y955699D01*
X4597554Y970988D01*
X4617012Y990446D01*
X4632301Y1013327D01*
X4642831Y1038751D01*
X4648200Y1065741D01*
X4648200Y1093259D01*
X4642831Y1120249D01*
X4632301Y1145673D01*
X4617012Y1168554D01*
X4597554Y1188012D01*
X4574673Y1203301D01*
X4549249Y1213831D01*
X4522259Y1219200D01*
X4494741Y1219200D01*
X4467751Y1213831D01*
X4442327Y1203301D01*
X4419447Y1188012D01*
X4399988Y1168554D01*
X4384700Y1145673D01*
X4381500Y1137949D01*
X4378301Y1145673D01*
X4363012Y1168554D01*
X4343554Y1188012D01*
X4320673Y1203301D01*
X4295249Y1213831D01*
X4268259Y1219200D01*
X4240741Y1219200D01*
X4213751Y1213831D01*
X4188327Y1203301D01*
X4165446Y1188012D01*
X4145988Y1168554D01*
X4130699Y1145673D01*
X4120169Y1120249D01*
X4114800Y1093259D01*
X4114800Y1065741D01*
X4120169Y1038751D01*
X4130699Y1013327D01*
X4145988Y990446D01*
X4165446Y970988D01*
X4188327Y955699D01*
X4203584Y949380D01*
X3797416Y949380D01*
X3812673Y955699D01*
X3835553Y970988D01*
X3855012Y990446D01*
X3870300Y1013327D01*
X3880831Y1038751D01*
X3886200Y1065741D01*
X3886200Y1093259D01*
X3880831Y1120249D01*
X3870300Y1145673D01*
X3855012Y1168554D01*
X3835553Y1188012D01*
X3824975Y1195080D01*
X3980983Y1195080D01*
X3985330Y1194652D01*
X3989677Y1195080D01*
X3989678Y1195080D01*
X4002679Y1196361D01*
X4019361Y1201421D01*
X4034736Y1209639D01*
X4048212Y1220698D01*
X4050983Y1224076D01*
X4371111Y1544203D01*
X4381332Y1519527D01*
X4397036Y1496024D01*
X4417024Y1476036D01*
X4440527Y1460332D01*
X4466643Y1449515D01*
X4494367Y1444000D01*
X4522634Y1444000D01*
X4530866Y1445637D01*
X4537969Y1441841D01*
X4552902Y1437311D01*
X4554651Y1436780D01*
X4567652Y1435500D01*
X4567653Y1435500D01*
X4572000Y1435072D01*
X4576347Y1435500D01*
X4972632Y1435500D01*
X4991711Y1416420D01*
X5014396Y1401263D01*
X5039601Y1390823D01*
X5066359Y1385500D01*
X5093641Y1385500D01*
X5120399Y1390823D01*
X5145604Y1401263D01*
X5168289Y1416420D01*
X5187580Y1435711D01*
X5202737Y1458396D01*
X5213178Y1483601D01*
X5218500Y1510359D01*
X5218500Y1537641D01*
X5213178Y1564399D01*
X5202737Y1589604D01*
X5187580Y1612289D01*
X5168289Y1631580D01*
X5145604Y1646737D01*
X5120399Y1657177D01*
X5093641Y1662500D01*
X5066359Y1662500D01*
X5039601Y1657177D01*
X5014396Y1646737D01*
X4991711Y1631580D01*
X4972632Y1612500D01*
X4649839Y1612500D01*
X4646485Y1629357D01*
X4635668Y1655473D01*
X4619964Y1678976D01*
X4616639Y1682301D01*
X4748261Y1682301D01*
X4754814Y1658414D01*
X4779512Y1646824D01*
X4805996Y1640275D01*
X4833249Y1639019D01*
X4860224Y1643103D01*
X4885883Y1652372D01*
X4897186Y1658414D01*
X4903739Y1682301D01*
X4826000Y1760039D01*
X4748261Y1682301D01*
X4616639Y1682301D01*
X4599976Y1698964D01*
X4576473Y1714668D01*
X4551797Y1724889D01*
X4597659Y1770751D01*
X4687019Y1770751D01*
X4691104Y1743776D01*
X4700372Y1718117D01*
X4706414Y1706814D01*
X4730301Y1700261D01*
X4808040Y1778000D01*
X4843961Y1778000D01*
X4921699Y1700261D01*
X4945586Y1706814D01*
X4957176Y1731512D01*
X4963725Y1757996D01*
X4964981Y1785249D01*
X4960897Y1812224D01*
X4951628Y1837883D01*
X4945586Y1849186D01*
X4921699Y1855739D01*
X4843961Y1778000D01*
X4808040Y1778000D01*
X4730301Y1855739D01*
X4706414Y1849186D01*
X4694824Y1824488D01*
X4688275Y1798004D01*
X4687019Y1770751D01*
X4597659Y1770751D01*
X4700607Y1873699D01*
X4748261Y1873699D01*
X4826000Y1795960D01*
X4903739Y1873699D01*
X4897186Y1897586D01*
X4872488Y1909176D01*
X4846004Y1915725D01*
X4818751Y1916981D01*
X4791776Y1912896D01*
X4766117Y1903628D01*
X4754814Y1897586D01*
X4748261Y1873699D01*
X4700607Y1873699D01*
X5024408Y2197500D01*
X5030492Y2197500D01*
X5041539Y2184039D01*
X5063390Y2166107D01*
X5088319Y2152782D01*
X5115369Y2144576D01*
X5136451Y2142500D01*
X5150549Y2142500D01*
X5171631Y2144576D01*
X5198681Y2152782D01*
X5223610Y2166107D01*
X5245461Y2184039D01*
X5263393Y2205890D01*
X5276718Y2230819D01*
X5284924Y2257869D01*
X5287694Y2286000D01*
X5284924Y2314131D01*
X5276718Y2341181D01*
X5263393Y2366110D01*
X5245461Y2387961D01*
X5223610Y2405893D01*
X5198681Y2419218D01*
X5171631Y2427424D01*
X5150549Y2429500D01*
X5136451Y2429500D01*
X5115369Y2427424D01*
X5088319Y2419218D01*
X5063390Y2405893D01*
X5041539Y2387961D01*
X5030492Y2374500D01*
X4992097Y2374500D01*
X4987750Y2374928D01*
X4983403Y2374500D01*
X4983402Y2374500D01*
X4970401Y2373220D01*
X4953719Y2368159D01*
X4938344Y2359941D01*
X4928245Y2351653D01*
X4928245Y2351653D01*
X4924868Y2348882D01*
X4922097Y2345505D01*
X4777575Y2200983D01*
X4779694Y2222500D01*
X4776924Y2250631D01*
X4768718Y2277681D01*
X4755393Y2302610D01*
X4737461Y2324461D01*
X4724000Y2335508D01*
X4724000Y2490492D01*
X4737461Y2501539D01*
X4755393Y2523390D01*
X4768718Y2548319D01*
X4776924Y2575369D01*
X4779694Y2603500D01*
X4776924Y2631631D01*
X4768718Y2658681D01*
X4762647Y2670040D01*
X5304772Y2670040D01*
X5430817Y2543995D01*
G36*
X955699Y4574673D02*
G01*
X945169Y4549249D01*
X939800Y4522259D01*
X939800Y4494741D01*
X945169Y4467751D01*
X955699Y4442327D01*
X970988Y4419447D01*
X990446Y4399988D01*
X1013327Y4384700D01*
X1021051Y4381500D01*
X1013327Y4378301D01*
X990446Y4363012D01*
X970988Y4343554D01*
X955699Y4320673D01*
X945169Y4295249D01*
X939800Y4268259D01*
X939800Y4240741D01*
X945169Y4213751D01*
X955699Y4188327D01*
X970988Y4165446D01*
X990446Y4145988D01*
X1013327Y4130699D01*
X1038751Y4120169D01*
X1065741Y4114800D01*
X1093259Y4114800D01*
X1120249Y4120169D01*
X1145673Y4130699D01*
X1168554Y4145988D01*
X1188012Y4165446D01*
X1203301Y4188327D01*
X1213831Y4213751D01*
X1219200Y4240741D01*
X1219200Y4268259D01*
X1213831Y4295249D01*
X1203301Y4320673D01*
X1188012Y4343554D01*
X1168554Y4363012D01*
X1145673Y4378301D01*
X1137949Y4381500D01*
X1145673Y4384700D01*
X1168554Y4399988D01*
X1188012Y4419447D01*
X1203301Y4442327D01*
X1213831Y4467751D01*
X1219200Y4494741D01*
X1219200Y4522259D01*
X1213831Y4549249D01*
X1203301Y4574673D01*
X1188717Y4596499D01*
X8546199Y4596499D01*
X8546199Y2212948D01*
X8542213Y2217805D01*
X8542213Y2217805D01*
X8539442Y2221182D01*
X8536065Y2223953D01*
X7941973Y2818044D01*
X7939202Y2821422D01*
X7925726Y2832481D01*
X7910351Y2840699D01*
X7893669Y2845759D01*
X7880668Y2847040D01*
X7880667Y2847040D01*
X7876320Y2847468D01*
X7871973Y2847040D01*
X7667857Y2847040D01*
X7663510Y2847468D01*
X7659163Y2847040D01*
X7659162Y2847040D01*
X7646161Y2845759D01*
X7629479Y2840699D01*
X7614104Y2832481D01*
X7604005Y2824193D01*
X7604005Y2824193D01*
X7600628Y2821422D01*
X7597857Y2818045D01*
X7175500Y2395688D01*
X7038030Y2533158D01*
X7038030Y2599152D01*
X7038458Y2603500D01*
X7036749Y2620849D01*
X7031689Y2637531D01*
X7023471Y2652906D01*
X7012412Y2666382D01*
X6998936Y2677441D01*
X6983561Y2685659D01*
X6966879Y2690720D01*
X6953878Y2692000D01*
X6953878Y2692000D01*
X6949530Y2692428D01*
X6945182Y2692000D01*
X6907508Y2692000D01*
X6896461Y2705461D01*
X6874610Y2723393D01*
X6849681Y2736718D01*
X6822631Y2744924D01*
X6801549Y2747000D01*
X6787451Y2747000D01*
X6777170Y2745988D01*
X6600923Y2922234D01*
X6598152Y2925612D01*
X6584676Y2936671D01*
X6569301Y2944889D01*
X6552619Y2949949D01*
X6539618Y2951230D01*
X6539617Y2951230D01*
X6535270Y2951658D01*
X6530923Y2951230D01*
X6517746Y2951230D01*
X6507239Y2966955D01*
X6484465Y2989729D01*
X6457686Y3007622D01*
X6427931Y3019947D01*
X6396343Y3026230D01*
X6364137Y3026230D01*
X6332549Y3019947D01*
X6302794Y3007622D01*
X6276015Y2989729D01*
X6253241Y2966955D01*
X6235348Y2940176D01*
X6223023Y2910421D01*
X6216740Y2878833D01*
X6216740Y2846627D01*
X6223023Y2815039D01*
X6235348Y2785284D01*
X6253241Y2758505D01*
X6276015Y2735731D01*
X6302794Y2717838D01*
X6332549Y2705513D01*
X6364137Y2699230D01*
X6396343Y2699230D01*
X6427931Y2705513D01*
X6457686Y2717838D01*
X6484465Y2735731D01*
X6507239Y2758505D01*
X6510082Y2762760D01*
X6652012Y2620830D01*
X6650306Y2603500D01*
X6653076Y2575369D01*
X6661282Y2548319D01*
X6674607Y2523390D01*
X6692539Y2501539D01*
X6714390Y2483607D01*
X6739319Y2470282D01*
X6766369Y2462076D01*
X6787451Y2460000D01*
X6801549Y2460000D01*
X6822631Y2462076D01*
X6849681Y2470282D01*
X6862863Y2477328D01*
X6867371Y2462469D01*
X6875589Y2447094D01*
X6883877Y2436995D01*
X6883877Y2436995D01*
X6886648Y2433618D01*
X6890025Y2430847D01*
X7087000Y2233872D01*
X7087000Y2222337D01*
X7072317Y2204445D01*
X7060849Y2182990D01*
X7053787Y2159710D01*
X7052000Y2141566D01*
X7052000Y2049433D01*
X7053787Y2031290D01*
X7060558Y2008970D01*
X7035965Y2008970D01*
X7040149Y2018950D01*
X7045000Y2042800D01*
X7045000Y2082800D01*
X6934200Y2082800D01*
X6934200Y2080800D01*
X6908800Y2080800D01*
X6908800Y2082800D01*
X6798000Y2082800D01*
X6798000Y2042800D01*
X6802851Y2018950D01*
X6807035Y2008970D01*
X6675988Y2008970D01*
X6536758Y2148200D01*
X6798000Y2148200D01*
X6798000Y2108200D01*
X6908800Y2108200D01*
X6908800Y2242373D01*
X6934200Y2242373D01*
X6934200Y2108200D01*
X7045000Y2108200D01*
X7045000Y2148200D01*
X7040149Y2172050D01*
X7030739Y2194495D01*
X7017131Y2214673D01*
X6999847Y2231808D01*
X6979553Y2245242D01*
X6957028Y2254459D01*
X6953261Y2254846D01*
X6934200Y2242373D01*
X6908800Y2242373D01*
X6889739Y2254846D01*
X6885972Y2254459D01*
X6863447Y2245242D01*
X6843153Y2231808D01*
X6825869Y2214673D01*
X6812261Y2194495D01*
X6802851Y2172050D01*
X6798000Y2148200D01*
X6536758Y2148200D01*
X5766873Y2918084D01*
X5764102Y2921462D01*
X5750626Y2932521D01*
X5735251Y2940739D01*
X5718569Y2945799D01*
X5705568Y2947080D01*
X5705567Y2947080D01*
X5701220Y2947508D01*
X5696873Y2947080D01*
X4801815Y2947080D01*
X4818893Y2967890D01*
X4832218Y2992819D01*
X4840424Y3019869D01*
X4843194Y3048000D01*
X4840424Y3076131D01*
X4832218Y3103181D01*
X4818893Y3128110D01*
X4800961Y3149961D01*
X4779110Y3167893D01*
X4754181Y3181218D01*
X4727131Y3189424D01*
X4706049Y3191500D01*
X4691951Y3191500D01*
X4670869Y3189424D01*
X4643819Y3181218D01*
X4618890Y3167893D01*
X4597039Y3149961D01*
X4585992Y3136500D01*
X4397470Y3136500D01*
X4397081Y3140448D01*
X4393450Y3152418D01*
X4387554Y3163449D01*
X4379619Y3173118D01*
X4369949Y3181054D01*
X4358918Y3186950D01*
X4346948Y3190581D01*
X4334500Y3191807D01*
X4174500Y3191807D01*
X4162052Y3190581D01*
X4150082Y3186950D01*
X4139051Y3181054D01*
X4129381Y3173118D01*
X4121446Y3163449D01*
X4115550Y3152418D01*
X4111919Y3140448D01*
X4110693Y3128000D01*
X4110693Y2968000D01*
X4111919Y2955552D01*
X4115550Y2943582D01*
X4121446Y2932551D01*
X4129381Y2922881D01*
X4139051Y2914946D01*
X4150082Y2909050D01*
X4162052Y2905419D01*
X4174500Y2904193D01*
X4334500Y2904193D01*
X4346948Y2905419D01*
X4358918Y2909050D01*
X4369949Y2914946D01*
X4379619Y2922881D01*
X4387554Y2932551D01*
X4393450Y2943582D01*
X4397081Y2955552D01*
X4397470Y2959500D01*
X4585992Y2959500D01*
X4596185Y2947080D01*
X4486347Y2947080D01*
X4482000Y2947508D01*
X4477653Y2947080D01*
X4477652Y2947080D01*
X4464651Y2945799D01*
X4447969Y2940739D01*
X4432594Y2932521D01*
X4422495Y2924233D01*
X4422495Y2924233D01*
X4419118Y2921462D01*
X4416347Y2918085D01*
X3758337Y2260075D01*
X3757485Y2264357D01*
X3746668Y2290473D01*
X3730964Y2313976D01*
X3710976Y2333964D01*
X3687473Y2349668D01*
X3661357Y2360485D01*
X3633633Y2366000D01*
X3605366Y2366000D01*
X3577643Y2360485D01*
X3551527Y2349668D01*
X3528024Y2333964D01*
X3508036Y2313976D01*
X3492332Y2290473D01*
X3489220Y2282960D01*
X3238117Y2282960D01*
X3241207Y2288112D01*
X3250691Y2314596D01*
X3238562Y2336800D01*
X3124200Y2336800D01*
X3124200Y2334800D01*
X3098800Y2334800D01*
X3098800Y2336800D01*
X3096800Y2336800D01*
X3096800Y2362200D01*
X3098800Y2362200D01*
X3098800Y2476492D01*
X3124200Y2476492D01*
X3124200Y2362200D01*
X3238562Y2362200D01*
X3250691Y2384404D01*
X3241207Y2410888D01*
X3226738Y2435013D01*
X3207841Y2455852D01*
X3185242Y2472604D01*
X3159809Y2484625D01*
X3146404Y2488690D01*
X3124200Y2476492D01*
X3098800Y2476492D01*
X3076596Y2488690D01*
X3063191Y2484625D01*
X3037758Y2472604D01*
X3015159Y2455852D01*
X3000323Y2439492D01*
X3000081Y2441948D01*
X2996450Y2453918D01*
X2990554Y2464949D01*
X2982618Y2474619D01*
X2972949Y2482554D01*
X2961918Y2488450D01*
X2949948Y2492081D01*
X2937500Y2493307D01*
X2777500Y2493307D01*
X2765052Y2492081D01*
X2753082Y2488450D01*
X2742051Y2482554D01*
X2732382Y2474619D01*
X2724446Y2464949D01*
X2718550Y2453918D01*
X2714919Y2441948D01*
X2713693Y2429500D01*
X2713693Y2270151D01*
X2710494Y2268441D01*
X2700395Y2260153D01*
X2700395Y2260153D01*
X2697018Y2257382D01*
X2694247Y2254005D01*
X2543995Y2103753D01*
X2540618Y2100982D01*
X2537847Y2097605D01*
X2537847Y2097605D01*
X2529559Y2087506D01*
X2521341Y2072131D01*
X2516281Y2055449D01*
X2514572Y2038100D01*
X2515000Y2033752D01*
X2515000Y1954952D01*
X2512024Y1952964D01*
X2492036Y1932976D01*
X2476500Y1909724D01*
X2460964Y1932976D01*
X2440976Y1952964D01*
X2417473Y1968668D01*
X2391357Y1979485D01*
X2363634Y1985000D01*
X2335367Y1985000D01*
X2307643Y1979485D01*
X2281527Y1968668D01*
X2258024Y1952964D01*
X2238036Y1932976D01*
X2222500Y1909724D01*
X2206964Y1932976D01*
X2186976Y1952964D01*
X2163473Y1968668D01*
X2159300Y1970396D01*
X2175419Y1973602D01*
X2200624Y1984043D01*
X2223309Y1999200D01*
X2242600Y2018491D01*
X2257757Y2041176D01*
X2268198Y2066381D01*
X2273520Y2093139D01*
X2273520Y2120421D01*
X2268198Y2147179D01*
X2257757Y2172384D01*
X2242600Y2195069D01*
X2223309Y2214360D01*
X2200624Y2229517D01*
X2175419Y2239958D01*
X2148661Y2245280D01*
X2121379Y2245280D01*
X2094621Y2239958D01*
X2069416Y2229517D01*
X2046731Y2214360D01*
X2027440Y2195069D01*
X2012283Y2172384D01*
X2001842Y2147179D01*
X1996520Y2120421D01*
X1996520Y2093438D01*
X1988082Y2085000D01*
X1238847Y2085000D01*
X1234500Y2085428D01*
X1230153Y2085000D01*
X1230152Y2085000D01*
X1217151Y2083720D01*
X1200469Y2078659D01*
X1185094Y2070441D01*
X1185094Y2070441D01*
X1185094Y2070441D01*
X1174995Y2062153D01*
X1174995Y2062153D01*
X1171618Y2059382D01*
X1168847Y2056005D01*
X1097144Y1984302D01*
X1093634Y1985000D01*
X1065367Y1985000D01*
X1037643Y1979485D01*
X1011527Y1968668D01*
X988024Y1952964D01*
X968036Y1932976D01*
X952500Y1909724D01*
X936964Y1932976D01*
X916976Y1952964D01*
X893473Y1968668D01*
X867357Y1979485D01*
X839633Y1985000D01*
X811366Y1985000D01*
X783643Y1979485D01*
X757527Y1968668D01*
X734024Y1952964D01*
X714036Y1932976D01*
X698409Y1909587D01*
X695167Y1915651D01*
X670770Y1922810D01*
X589461Y1841500D01*
X670770Y1760190D01*
X695167Y1767349D01*
X698219Y1773799D01*
X698332Y1773527D01*
X714036Y1750024D01*
X734024Y1730036D01*
X757527Y1714332D01*
X783643Y1703515D01*
X811366Y1698000D01*
X839633Y1698000D01*
X867357Y1703515D01*
X893473Y1714332D01*
X916976Y1730036D01*
X936964Y1750024D01*
X952500Y1773276D01*
X968036Y1750024D01*
X988024Y1730036D01*
X991000Y1728048D01*
X991000Y1464847D01*
X990572Y1460500D01*
X991000Y1456153D01*
X991000Y1456152D01*
X991685Y1449194D01*
X992280Y1443151D01*
X992678Y1441841D01*
X997341Y1426469D01*
X1005559Y1411094D01*
X1016618Y1397618D01*
X1019995Y1394847D01*
X1190698Y1224144D01*
X1190000Y1220634D01*
X1190000Y1192367D01*
X1195515Y1164643D01*
X1206332Y1138527D01*
X1222036Y1115024D01*
X1242024Y1095036D01*
X1245000Y1093048D01*
X1245000Y938952D01*
X1242024Y936964D01*
X1222036Y916976D01*
X1206332Y893473D01*
X1195515Y867357D01*
X1190000Y839633D01*
X1190000Y811366D01*
X1195515Y783643D01*
X1206332Y757527D01*
X1222036Y734024D01*
X1242024Y714036D01*
X1265527Y698332D01*
X1291643Y687515D01*
X1319367Y682000D01*
X1344242Y682000D01*
X1273995Y611753D01*
X1270618Y608982D01*
X1267847Y605605D01*
X1267847Y605605D01*
X1259559Y595506D01*
X1251341Y580131D01*
X1246281Y563449D01*
X1244572Y546100D01*
X1245000Y541752D01*
X1245000Y430952D01*
X1242024Y428964D01*
X1222036Y408976D01*
X1206409Y385587D01*
X1203167Y391651D01*
X1178770Y398810D01*
X1097461Y317500D01*
X1098875Y316086D01*
X1080914Y298125D01*
X1079500Y299540D01*
X1078086Y298125D01*
X1060125Y316086D01*
X1061540Y317500D01*
X980230Y398810D01*
X955833Y391651D01*
X952703Y385036D01*
X949167Y391651D01*
X924770Y398810D01*
X843460Y317500D01*
X844875Y316086D01*
X826914Y298125D01*
X825500Y299540D01*
X824086Y298125D01*
X806125Y316086D01*
X807539Y317500D01*
X726230Y398810D01*
X701833Y391651D01*
X698781Y385201D01*
X698668Y385473D01*
X682964Y408976D01*
X675169Y416770D01*
X744190Y416770D01*
X825500Y335461D01*
X906810Y416770D01*
X998190Y416770D01*
X1079500Y335461D01*
X1160810Y416770D01*
X1153651Y441167D01*
X1128100Y453257D01*
X1100682Y460130D01*
X1072449Y461522D01*
X1044487Y457379D01*
X1017871Y447860D01*
X1005349Y441167D01*
X998190Y416770D01*
X906810Y416770D01*
X899651Y441167D01*
X874100Y453257D01*
X846682Y460130D01*
X818449Y461522D01*
X790487Y457379D01*
X763871Y447860D01*
X751349Y441167D01*
X744190Y416770D01*
X675169Y416770D01*
X662976Y428964D01*
X639473Y444668D01*
X613357Y455485D01*
X585634Y461000D01*
X557367Y461000D01*
X529643Y455485D01*
X503527Y444668D01*
X480024Y428964D01*
X460164Y409104D01*
X460081Y409948D01*
X456450Y421918D01*
X450554Y432949D01*
X442618Y442618D01*
X432949Y450554D01*
X421918Y456450D01*
X409948Y460081D01*
X397500Y461307D01*
X237500Y461307D01*
X229501Y460519D01*
X229501Y1727713D01*
X249527Y1714332D01*
X275643Y1703515D01*
X303367Y1698000D01*
X331634Y1698000D01*
X359357Y1703515D01*
X385473Y1714332D01*
X408976Y1730036D01*
X421169Y1742230D01*
X490190Y1742230D01*
X497349Y1717833D01*
X522900Y1705743D01*
X550318Y1698870D01*
X578551Y1697478D01*
X606513Y1701621D01*
X633129Y1711140D01*
X645651Y1717833D01*
X652810Y1742230D01*
X571500Y1823539D01*
X490190Y1742230D01*
X421169Y1742230D01*
X428964Y1750024D01*
X444591Y1773413D01*
X447833Y1767349D01*
X472230Y1760190D01*
X553540Y1841500D01*
X472230Y1922810D01*
X447833Y1915651D01*
X444781Y1909201D01*
X444668Y1909473D01*
X428964Y1932976D01*
X421169Y1940770D01*
X490190Y1940770D01*
X571500Y1859460D01*
X652810Y1940770D01*
X645651Y1965167D01*
X620100Y1977257D01*
X592682Y1984130D01*
X564449Y1985522D01*
X536487Y1981379D01*
X509871Y1971860D01*
X497349Y1965167D01*
X490190Y1940770D01*
X421169Y1940770D01*
X408976Y1952964D01*
X385473Y1968668D01*
X359357Y1979485D01*
X331634Y1985000D01*
X303367Y1985000D01*
X275643Y1979485D01*
X249527Y1968668D01*
X229501Y1955287D01*
X229501Y2744259D01*
X431800Y2744259D01*
X431800Y2716741D01*
X437169Y2689751D01*
X447699Y2664327D01*
X462988Y2641447D01*
X482446Y2621988D01*
X505327Y2606700D01*
X530751Y2596169D01*
X557741Y2590800D01*
X585259Y2590800D01*
X612249Y2596169D01*
X637673Y2606700D01*
X660554Y2621988D01*
X680012Y2641447D01*
X680382Y2642000D01*
X1668232Y2642000D01*
X1666809Y2641717D01*
X1637054Y2629392D01*
X1610275Y2611499D01*
X1587501Y2588725D01*
X1576994Y2573000D01*
X1345847Y2573000D01*
X1341500Y2573428D01*
X1337153Y2573000D01*
X1337152Y2573000D01*
X1324151Y2571720D01*
X1307469Y2566659D01*
X1292094Y2558441D01*
X1281995Y2550153D01*
X1281995Y2550153D01*
X1278618Y2547382D01*
X1275847Y2544005D01*
X1219200Y2487358D01*
X1219200Y2490259D01*
X1213831Y2517249D01*
X1203301Y2542673D01*
X1188012Y2565554D01*
X1168554Y2585012D01*
X1145673Y2600301D01*
X1120249Y2610831D01*
X1093259Y2616200D01*
X1065741Y2616200D01*
X1038751Y2610831D01*
X1013327Y2600301D01*
X990446Y2585012D01*
X970988Y2565554D01*
X955699Y2542673D01*
X945169Y2517249D01*
X939800Y2490259D01*
X939800Y2462741D01*
X945169Y2435751D01*
X955699Y2410327D01*
X970988Y2387447D01*
X990446Y2367988D01*
X1013327Y2352700D01*
X1021051Y2349500D01*
X1013327Y2346301D01*
X990446Y2331012D01*
X970988Y2311554D01*
X955699Y2288673D01*
X945169Y2263249D01*
X939800Y2236259D01*
X939800Y2208741D01*
X945169Y2181751D01*
X955699Y2156327D01*
X970988Y2133447D01*
X990446Y2113988D01*
X1013327Y2098700D01*
X1038751Y2088169D01*
X1065741Y2082800D01*
X1093259Y2082800D01*
X1120249Y2088169D01*
X1145673Y2098700D01*
X1168554Y2113988D01*
X1188012Y2133447D01*
X1203301Y2156327D01*
X1213831Y2181751D01*
X1219200Y2208741D01*
X1219200Y2236259D01*
X1219070Y2236912D01*
X1378158Y2396000D01*
X1576994Y2396000D01*
X1587501Y2380275D01*
X1610275Y2357501D01*
X1637054Y2339608D01*
X1666809Y2327283D01*
X1698397Y2321000D01*
X1730603Y2321000D01*
X1762191Y2327283D01*
X1791946Y2339608D01*
X1818725Y2357501D01*
X1841499Y2380275D01*
X1859392Y2407054D01*
X1871717Y2436809D01*
X1878000Y2468397D01*
X1878000Y2500603D01*
X1871717Y2532191D01*
X1859392Y2561946D01*
X1841499Y2588725D01*
X1818725Y2611499D01*
X1791946Y2629392D01*
X1762191Y2641717D01*
X1760767Y2642000D01*
X1931842Y2642000D01*
X2054690Y2519153D01*
X2051000Y2500603D01*
X2051000Y2468397D01*
X2057283Y2436809D01*
X2069608Y2407054D01*
X2087501Y2380275D01*
X2110275Y2357501D01*
X2137054Y2339608D01*
X2166809Y2327283D01*
X2198397Y2321000D01*
X2230603Y2321000D01*
X2262191Y2327283D01*
X2291946Y2339608D01*
X2318725Y2357501D01*
X2341499Y2380275D01*
X2359392Y2407054D01*
X2371717Y2436809D01*
X2378000Y2468397D01*
X2378000Y2500603D01*
X2371717Y2532191D01*
X2359392Y2561946D01*
X2341499Y2588725D01*
X2318725Y2611499D01*
X2291946Y2629392D01*
X2262191Y2641717D01*
X2230603Y2648000D01*
X2198397Y2648000D01*
X2179848Y2644310D01*
X2034153Y2790004D01*
X2031382Y2793382D01*
X2017906Y2804441D01*
X2002531Y2812659D01*
X1985849Y2817719D01*
X1972848Y2819000D01*
X1972847Y2819000D01*
X1968500Y2819428D01*
X1964153Y2819000D01*
X680382Y2819000D01*
X680012Y2819553D01*
X660554Y2839012D01*
X637673Y2854300D01*
X612249Y2864831D01*
X585259Y2870200D01*
X557741Y2870200D01*
X530751Y2864831D01*
X505327Y2854300D01*
X482446Y2839012D01*
X462988Y2819553D01*
X447699Y2796673D01*
X437169Y2771249D01*
X431800Y2744259D01*
X229501Y2744259D01*
X229501Y3760259D01*
X939800Y3760259D01*
X939800Y3732741D01*
X945169Y3705751D01*
X955699Y3680327D01*
X970988Y3657446D01*
X990446Y3637988D01*
X1013327Y3622699D01*
X1021051Y3619500D01*
X1013327Y3616300D01*
X990446Y3601012D01*
X970988Y3581553D01*
X955699Y3558673D01*
X945169Y3533249D01*
X939800Y3506259D01*
X939800Y3478741D01*
X945169Y3451751D01*
X955699Y3426327D01*
X970988Y3403446D01*
X990446Y3383988D01*
X1013327Y3368699D01*
X1021051Y3365500D01*
X1013327Y3362300D01*
X990446Y3347012D01*
X970988Y3327553D01*
X955699Y3304673D01*
X945169Y3279249D01*
X939800Y3252259D01*
X939800Y3224741D01*
X945169Y3197751D01*
X955699Y3172327D01*
X970988Y3149446D01*
X990446Y3129988D01*
X1013327Y3114699D01*
X1021051Y3111500D01*
X1013327Y3108300D01*
X990446Y3093012D01*
X970988Y3073553D01*
X955699Y3050673D01*
X945169Y3025249D01*
X939800Y2998259D01*
X939800Y2970741D01*
X945169Y2943751D01*
X955699Y2918327D01*
X970988Y2895446D01*
X990446Y2875988D01*
X1013327Y2860699D01*
X1038751Y2850169D01*
X1065741Y2844800D01*
X1093259Y2844800D01*
X1120249Y2850169D01*
X1145673Y2860699D01*
X1168554Y2875988D01*
X1188012Y2895446D01*
X1203301Y2918327D01*
X1213831Y2943751D01*
X1219200Y2970741D01*
X1219200Y2998259D01*
X1218734Y3000603D01*
X1551000Y3000603D01*
X1551000Y2968397D01*
X1557283Y2936809D01*
X1569608Y2907054D01*
X1587501Y2880275D01*
X1610275Y2857501D01*
X1637054Y2839608D01*
X1666809Y2827283D01*
X1698397Y2821000D01*
X1730603Y2821000D01*
X1762191Y2827283D01*
X1791946Y2839608D01*
X1818725Y2857501D01*
X1841499Y2880275D01*
X1859392Y2907054D01*
X1871717Y2936809D01*
X1878000Y2968397D01*
X1878000Y3000603D01*
X1874310Y3019152D01*
X1932418Y3077260D01*
X2079840Y3077260D01*
X2069608Y3061946D01*
X2057283Y3032191D01*
X2051000Y3000603D01*
X2051000Y2968397D01*
X2057283Y2936809D01*
X2069608Y2907054D01*
X2087501Y2880275D01*
X2110275Y2857501D01*
X2137054Y2839608D01*
X2166809Y2827283D01*
X2198397Y2821000D01*
X2230603Y2821000D01*
X2262191Y2827283D01*
X2291946Y2839608D01*
X2318725Y2857501D01*
X2326154Y2864930D01*
X2949083Y2864930D01*
X2953430Y2864502D01*
X2957777Y2864930D01*
X2957778Y2864930D01*
X2970779Y2866210D01*
X2987461Y2871271D01*
X3002836Y2879489D01*
X3016312Y2890548D01*
X3019083Y2893926D01*
X3094170Y2969012D01*
X3104451Y2968000D01*
X3118549Y2968000D01*
X3139631Y2970076D01*
X3166681Y2978282D01*
X3191610Y2991607D01*
X3213461Y3009539D01*
X3231393Y3031390D01*
X3244718Y3056319D01*
X3249777Y3072995D01*
X3289700Y3033072D01*
X3289700Y2798347D01*
X3289272Y2794000D01*
X3289700Y2789653D01*
X3289700Y2789652D01*
X3290130Y2785284D01*
X3290980Y2776651D01*
X3291212Y2775889D01*
X3296041Y2759969D01*
X3304259Y2744594D01*
X3315318Y2731118D01*
X3318696Y2728347D01*
X3480550Y2566492D01*
X3481515Y2561643D01*
X3492332Y2535527D01*
X3508036Y2512024D01*
X3528024Y2492036D01*
X3551527Y2476332D01*
X3577643Y2465515D01*
X3605366Y2460000D01*
X3633633Y2460000D01*
X3661357Y2465515D01*
X3687473Y2476332D01*
X3710976Y2492036D01*
X3730964Y2512024D01*
X3746668Y2535527D01*
X3757485Y2561643D01*
X3763000Y2589367D01*
X3763000Y2617634D01*
X3757485Y2645357D01*
X3746668Y2671473D01*
X3730964Y2694976D01*
X3710976Y2714964D01*
X3687473Y2730668D01*
X3661357Y2741485D01*
X3633633Y2747000D01*
X3605366Y2747000D01*
X3577643Y2741485D01*
X3562249Y2735109D01*
X3466700Y2830658D01*
X3466700Y3048000D01*
X3729306Y3048000D01*
X3732076Y3019869D01*
X3740282Y2992819D01*
X3753607Y2967890D01*
X3771539Y2946039D01*
X3793390Y2928107D01*
X3818319Y2914782D01*
X3845369Y2906576D01*
X3866451Y2904500D01*
X3880549Y2904500D01*
X3901631Y2906576D01*
X3928681Y2914782D01*
X3953610Y2928107D01*
X3975461Y2946039D01*
X3993393Y2967890D01*
X4006718Y2992819D01*
X4014924Y3019869D01*
X4017694Y3048000D01*
X4014924Y3076131D01*
X4006718Y3103181D01*
X3993393Y3128110D01*
X3977881Y3147012D01*
X3993780Y3162911D01*
X4008937Y3185596D01*
X4019377Y3210801D01*
X4024700Y3237559D01*
X4024700Y3264841D01*
X4019377Y3291599D01*
X4008937Y3316804D01*
X3993780Y3339489D01*
X3974489Y3358780D01*
X3951804Y3373937D01*
X3926599Y3384377D01*
X3899841Y3389700D01*
X3872559Y3389700D01*
X3845801Y3384377D01*
X3820596Y3373937D01*
X3797911Y3358780D01*
X3778620Y3339489D01*
X3763463Y3316804D01*
X3753022Y3291599D01*
X3747700Y3264841D01*
X3747700Y3237559D01*
X3753022Y3210801D01*
X3763463Y3185596D01*
X3778620Y3162911D01*
X3782541Y3158990D01*
X3771539Y3149961D01*
X3753607Y3128110D01*
X3740282Y3103181D01*
X3732076Y3076131D01*
X3729306Y3048000D01*
X3466700Y3048000D01*
X3466700Y3065383D01*
X3467128Y3069730D01*
X3466700Y3074077D01*
X3466700Y3074078D01*
X3465419Y3087079D01*
X3464920Y3088725D01*
X3460359Y3103761D01*
X3452141Y3119136D01*
X3443853Y3129235D01*
X3443853Y3129235D01*
X3441082Y3132612D01*
X3437705Y3135383D01*
X3087040Y3486048D01*
X3098800Y3492508D01*
X3098800Y3606800D01*
X3124200Y3606800D01*
X3124200Y3492508D01*
X3146404Y3480310D01*
X3159809Y3484375D01*
X3185242Y3496396D01*
X3207841Y3513148D01*
X3226738Y3533987D01*
X3241207Y3558112D01*
X3250691Y3584596D01*
X3238562Y3606800D01*
X3124200Y3606800D01*
X3098800Y3606800D01*
X3096800Y3606800D01*
X3096800Y3632200D01*
X3098800Y3632200D01*
X3098800Y3746491D01*
X3124200Y3746491D01*
X3124200Y3632200D01*
X3238562Y3632200D01*
X3250691Y3654404D01*
X3241207Y3680888D01*
X3226738Y3705013D01*
X3207841Y3725852D01*
X3185242Y3742604D01*
X3159809Y3754625D01*
X3146404Y3758690D01*
X3124200Y3746491D01*
X3098800Y3746491D01*
X3076596Y3758690D01*
X3063191Y3754625D01*
X3037758Y3742604D01*
X3015159Y3725852D01*
X3000323Y3709492D01*
X3000081Y3711948D01*
X2996450Y3723918D01*
X2990554Y3734949D01*
X2982618Y3744618D01*
X2972949Y3752554D01*
X2961918Y3758450D01*
X2949948Y3762081D01*
X2937500Y3763307D01*
X2777500Y3763307D01*
X2765052Y3762081D01*
X2753082Y3758450D01*
X2742051Y3752554D01*
X2732382Y3744618D01*
X2724446Y3734949D01*
X2718550Y3723918D01*
X2714919Y3711948D01*
X2713693Y3699500D01*
X2713693Y3539500D01*
X2714919Y3527052D01*
X2718550Y3515082D01*
X2724446Y3504051D01*
X2732382Y3494381D01*
X2742051Y3486446D01*
X2753082Y3480550D01*
X2765052Y3476919D01*
X2769000Y3476530D01*
X2769000Y3468818D01*
X2768572Y3464470D01*
X2770281Y3447121D01*
X2775341Y3430439D01*
X2783559Y3415064D01*
X2791588Y3405280D01*
X2794618Y3401588D01*
X2808094Y3390529D01*
X2823469Y3382311D01*
X2840151Y3377250D01*
X2857500Y3375542D01*
X2861848Y3375970D01*
X2946802Y3375970D01*
X3072995Y3249777D01*
X3056319Y3244718D01*
X3031390Y3231393D01*
X3009539Y3213461D01*
X2991607Y3191610D01*
X2984500Y3178314D01*
X2977393Y3191610D01*
X2959461Y3213461D01*
X2937610Y3231393D01*
X2912681Y3244718D01*
X2885631Y3252924D01*
X2864549Y3255000D01*
X2850451Y3255000D01*
X2829369Y3252924D01*
X2802319Y3244718D01*
X2777390Y3231393D01*
X2755539Y3213461D01*
X2744492Y3200000D01*
X2739128Y3200000D01*
X2713863Y3225264D01*
X2711092Y3228642D01*
X2697616Y3239701D01*
X2682241Y3247919D01*
X2665559Y3252979D01*
X2652558Y3254260D01*
X2652557Y3254260D01*
X2648210Y3254688D01*
X2643863Y3254260D01*
X1900107Y3254260D01*
X1895760Y3254688D01*
X1891413Y3254260D01*
X1891412Y3254260D01*
X1878411Y3252979D01*
X1861729Y3247919D01*
X1846354Y3239701D01*
X1836255Y3231413D01*
X1836255Y3231413D01*
X1832878Y3228642D01*
X1830107Y3225265D01*
X1749152Y3144310D01*
X1730603Y3148000D01*
X1698397Y3148000D01*
X1666809Y3141717D01*
X1637054Y3129392D01*
X1610275Y3111499D01*
X1587501Y3088725D01*
X1569608Y3061946D01*
X1557283Y3032191D01*
X1551000Y3000603D01*
X1218734Y3000603D01*
X1213831Y3025249D01*
X1203301Y3050673D01*
X1188012Y3073553D01*
X1168554Y3093012D01*
X1145673Y3108300D01*
X1137949Y3111500D01*
X1145673Y3114699D01*
X1168554Y3129988D01*
X1188012Y3149446D01*
X1203301Y3172327D01*
X1213831Y3197751D01*
X1219200Y3224741D01*
X1219200Y3252259D01*
X1213831Y3279249D01*
X1203301Y3304673D01*
X1188012Y3327553D01*
X1168554Y3347012D01*
X1145673Y3362300D01*
X1137949Y3365500D01*
X1145673Y3368699D01*
X1168554Y3383988D01*
X1188012Y3403446D01*
X1203301Y3426327D01*
X1213831Y3451751D01*
X1219200Y3478741D01*
X1219200Y3506259D01*
X1219070Y3506912D01*
X1370158Y3658000D01*
X1584994Y3658000D01*
X1595501Y3642275D01*
X1618275Y3619501D01*
X1645054Y3601608D01*
X1674809Y3589283D01*
X1706397Y3583000D01*
X1738603Y3583000D01*
X1770191Y3589283D01*
X1799946Y3601608D01*
X1826725Y3619501D01*
X1849499Y3642275D01*
X1867392Y3669054D01*
X1879717Y3698809D01*
X1886000Y3730397D01*
X1886000Y3762603D01*
X1879717Y3794191D01*
X1867392Y3823946D01*
X1849499Y3850725D01*
X1826725Y3873499D01*
X1799946Y3891392D01*
X1770191Y3903717D01*
X1738603Y3910000D01*
X1706397Y3910000D01*
X1674809Y3903717D01*
X1645054Y3891392D01*
X1618275Y3873499D01*
X1595501Y3850725D01*
X1584994Y3835000D01*
X1337847Y3835000D01*
X1333500Y3835428D01*
X1329153Y3835000D01*
X1329152Y3835000D01*
X1316151Y3833719D01*
X1299469Y3828659D01*
X1284094Y3820441D01*
X1284094Y3820441D01*
X1284094Y3820441D01*
X1273995Y3812153D01*
X1273995Y3812153D01*
X1270618Y3809382D01*
X1267847Y3806005D01*
X1219200Y3757358D01*
X1219200Y3760259D01*
X1213831Y3787249D01*
X1203301Y3812673D01*
X1188012Y3835553D01*
X1168554Y3855012D01*
X1145673Y3870300D01*
X1120249Y3880831D01*
X1093259Y3886200D01*
X1065741Y3886200D01*
X1038751Y3880831D01*
X1013327Y3870300D01*
X990446Y3855012D01*
X970988Y3835553D01*
X955699Y3812673D01*
X945169Y3787249D01*
X939800Y3760259D01*
X229501Y3760259D01*
X229501Y4014259D01*
X431800Y4014259D01*
X431800Y3986741D01*
X437169Y3959751D01*
X447699Y3934327D01*
X462988Y3911446D01*
X482446Y3891988D01*
X505327Y3876699D01*
X530751Y3866169D01*
X557741Y3860800D01*
X585259Y3860800D01*
X612249Y3866169D01*
X637673Y3876699D01*
X660554Y3891988D01*
X680012Y3911446D01*
X680382Y3912000D01*
X1931842Y3912000D01*
X2062690Y3781152D01*
X2059000Y3762603D01*
X2059000Y3730397D01*
X2065283Y3698809D01*
X2077608Y3669054D01*
X2095501Y3642275D01*
X2118275Y3619501D01*
X2145054Y3601608D01*
X2174809Y3589283D01*
X2206397Y3583000D01*
X2238603Y3583000D01*
X2270191Y3589283D01*
X2299946Y3601608D01*
X2326725Y3619501D01*
X2349499Y3642275D01*
X2367392Y3669054D01*
X2379717Y3698809D01*
X2386000Y3730397D01*
X2386000Y3762603D01*
X2379717Y3794191D01*
X2367392Y3823946D01*
X2349499Y3850725D01*
X2326725Y3873499D01*
X2302029Y3890000D01*
X3729693Y3890000D01*
X3729693Y3730000D01*
X3730919Y3717552D01*
X3734550Y3705582D01*
X3740446Y3694551D01*
X3748381Y3684881D01*
X3758051Y3676946D01*
X3769082Y3671050D01*
X3781052Y3667419D01*
X3793500Y3666193D01*
X3953500Y3666193D01*
X3965948Y3667419D01*
X3977918Y3671050D01*
X3988949Y3676946D01*
X3998618Y3684881D01*
X4006554Y3694551D01*
X4012450Y3705582D01*
X4016081Y3717552D01*
X4016470Y3721500D01*
X4141492Y3721500D01*
X4152539Y3708039D01*
X4174390Y3690107D01*
X4199319Y3676782D01*
X4226369Y3668576D01*
X4247451Y3666500D01*
X4261549Y3666500D01*
X4282631Y3668576D01*
X4309681Y3676782D01*
X4334610Y3690107D01*
X4356461Y3708039D01*
X4374393Y3729890D01*
X4387718Y3754819D01*
X4395924Y3781869D01*
X4398694Y3810000D01*
X4395924Y3838131D01*
X4387718Y3865181D01*
X4374393Y3890110D01*
X4356461Y3911961D01*
X4334610Y3929893D01*
X4309681Y3943218D01*
X4282631Y3951424D01*
X4261549Y3953500D01*
X4247451Y3953500D01*
X4226369Y3951424D01*
X4199319Y3943218D01*
X4174390Y3929893D01*
X4152539Y3911961D01*
X4141492Y3898500D01*
X4016470Y3898500D01*
X4016081Y3902448D01*
X4012450Y3914418D01*
X4006554Y3925449D01*
X3998618Y3935118D01*
X3988949Y3943054D01*
X3977918Y3948950D01*
X3965948Y3952581D01*
X3953500Y3953807D01*
X3793500Y3953807D01*
X3781052Y3952581D01*
X3769082Y3948950D01*
X3758051Y3943054D01*
X3748381Y3935118D01*
X3740446Y3925449D01*
X3734550Y3914418D01*
X3730919Y3902448D01*
X3729693Y3890000D01*
X2302029Y3890000D01*
X2299946Y3891392D01*
X2270191Y3903717D01*
X2238603Y3910000D01*
X2206397Y3910000D01*
X2187848Y3906310D01*
X2034153Y4060004D01*
X2031382Y4063382D01*
X2017906Y4074441D01*
X2002531Y4082659D01*
X1985849Y4087719D01*
X1972848Y4089000D01*
X1972847Y4089000D01*
X1968500Y4089428D01*
X1964153Y4089000D01*
X1768767Y4089000D01*
X1770191Y4089283D01*
X1799946Y4101608D01*
X1826725Y4119501D01*
X1849499Y4142275D01*
X1867392Y4169054D01*
X1879717Y4198809D01*
X1886000Y4230397D01*
X1886000Y4262603D01*
X1882310Y4281153D01*
X1939628Y4338470D01*
X2087313Y4338470D01*
X2077608Y4323946D01*
X2065283Y4294191D01*
X2059000Y4262603D01*
X2059000Y4230397D01*
X2065283Y4198809D01*
X2077608Y4169054D01*
X2095501Y4142275D01*
X2118275Y4119501D01*
X2145054Y4101608D01*
X2174809Y4089283D01*
X2206397Y4083000D01*
X2238603Y4083000D01*
X2257153Y4086690D01*
X2288547Y4055295D01*
X2291318Y4051918D01*
X2294695Y4049147D01*
X2294695Y4049147D01*
X2297081Y4047189D01*
X2304794Y4040859D01*
X2320169Y4032641D01*
X2336851Y4027580D01*
X2349852Y4026300D01*
X2349853Y4026300D01*
X2354200Y4025872D01*
X2358547Y4026300D01*
X2840453Y4026300D01*
X2844800Y4025872D01*
X2849147Y4026300D01*
X2849148Y4026300D01*
X2862149Y4027580D01*
X2878831Y4032641D01*
X2894206Y4040859D01*
X2907682Y4051918D01*
X2910453Y4055296D01*
X3094170Y4239013D01*
X3104451Y4238000D01*
X3118549Y4238000D01*
X3139631Y4240076D01*
X3166681Y4248282D01*
X3191610Y4261607D01*
X3213461Y4279539D01*
X3231393Y4301390D01*
X3233483Y4305300D01*
X4258000Y4305300D01*
X4258000Y4265300D01*
X4262851Y4241450D01*
X4272261Y4219005D01*
X4285869Y4198828D01*
X4303153Y4181692D01*
X4323447Y4168258D01*
X4345972Y4159041D01*
X4349739Y4158654D01*
X4368800Y4171127D01*
X4368800Y4305300D01*
X4394200Y4305300D01*
X4394200Y4171127D01*
X4413261Y4158654D01*
X4417028Y4159041D01*
X4439553Y4168258D01*
X4459847Y4181692D01*
X4477131Y4198828D01*
X4490739Y4219005D01*
X4500149Y4241450D01*
X4505000Y4265300D01*
X4505000Y4305300D01*
X4394200Y4305300D01*
X4368800Y4305300D01*
X4258000Y4305300D01*
X3233483Y4305300D01*
X3244718Y4326319D01*
X3252924Y4353369D01*
X3254630Y4370700D01*
X4258000Y4370700D01*
X4258000Y4330700D01*
X4368800Y4330700D01*
X4368800Y4464873D01*
X4394200Y4464873D01*
X4394200Y4330700D01*
X4505000Y4330700D01*
X4505000Y4364066D01*
X4512000Y4364066D01*
X4512000Y4271934D01*
X4513787Y4253790D01*
X4520849Y4230510D01*
X4532317Y4209055D01*
X4547000Y4191163D01*
X4547000Y4032878D01*
X4546572Y4028530D01*
X4548281Y4011181D01*
X4553341Y3994499D01*
X4561559Y3979124D01*
X4569847Y3969025D01*
X4569847Y3969025D01*
X4572618Y3965648D01*
X4575995Y3962877D01*
X4591545Y3947327D01*
X4583551Y3943054D01*
X4573882Y3935118D01*
X4565946Y3925449D01*
X4560050Y3914418D01*
X4556419Y3902448D01*
X4555193Y3890000D01*
X4555193Y3730000D01*
X4556419Y3717552D01*
X4560050Y3705582D01*
X4565946Y3694551D01*
X4573882Y3684881D01*
X4583551Y3676946D01*
X4594582Y3671050D01*
X4606552Y3667419D01*
X4619000Y3666193D01*
X4779000Y3666193D01*
X4791448Y3667419D01*
X4803418Y3671050D01*
X4814449Y3676946D01*
X4824119Y3684881D01*
X4832054Y3694551D01*
X4837950Y3705582D01*
X4841581Y3717552D01*
X4842807Y3730000D01*
X4842807Y3890000D01*
X4841581Y3902448D01*
X4837950Y3914418D01*
X4832054Y3925449D01*
X4824119Y3935118D01*
X4814449Y3943054D01*
X4803418Y3948950D01*
X4791448Y3952581D01*
X4787500Y3952970D01*
X4787500Y3960683D01*
X4787928Y3965030D01*
X4787500Y3969377D01*
X4787500Y3969378D01*
X4786220Y3982379D01*
X4781159Y3999061D01*
X4781159Y3999061D01*
X4772941Y4014436D01*
X4764653Y4024535D01*
X4764653Y4024535D01*
X4761882Y4027912D01*
X4758505Y4030683D01*
X4724000Y4065188D01*
X4724000Y4191163D01*
X4738683Y4209055D01*
X4750151Y4230510D01*
X4757213Y4253790D01*
X4759000Y4271934D01*
X4759000Y4364066D01*
X4766000Y4364066D01*
X4766000Y4271934D01*
X4767787Y4253790D01*
X4774849Y4230510D01*
X4786317Y4209055D01*
X4801000Y4191163D01*
X4801000Y4147318D01*
X4800572Y4142970D01*
X4802281Y4125621D01*
X4807341Y4108939D01*
X4815559Y4093564D01*
X4823847Y4083465D01*
X4823847Y4083465D01*
X4826618Y4080088D01*
X4829995Y4077317D01*
X5055000Y3852312D01*
X5055000Y3415452D01*
X5052024Y3413464D01*
X5032036Y3393476D01*
X5016332Y3369973D01*
X5005515Y3343857D01*
X5000000Y3316133D01*
X5000000Y3287866D01*
X5005515Y3260143D01*
X5016332Y3234027D01*
X5032036Y3210524D01*
X5052024Y3190536D01*
X5075527Y3174832D01*
X5101643Y3164015D01*
X5129367Y3158500D01*
X5157634Y3158500D01*
X5185357Y3164015D01*
X5211473Y3174832D01*
X5234976Y3190536D01*
X5254964Y3210524D01*
X5270668Y3234027D01*
X5281485Y3260143D01*
X5287000Y3287866D01*
X5287000Y3316133D01*
X5281485Y3343857D01*
X5270668Y3369973D01*
X5254964Y3393476D01*
X5234976Y3413464D01*
X5232000Y3415452D01*
X5232000Y3884623D01*
X5232428Y3888970D01*
X5232000Y3893317D01*
X5232000Y3893318D01*
X5230720Y3906319D01*
X5225659Y3923001D01*
X5217441Y3938376D01*
X5210880Y3946371D01*
X5209153Y3948475D01*
X5209153Y3948475D01*
X5206382Y3951852D01*
X5203005Y3954623D01*
X4978000Y4179628D01*
X4978000Y4191163D01*
X4992683Y4209055D01*
X5004151Y4230510D01*
X5011213Y4253790D01*
X5013000Y4271934D01*
X5013000Y4364066D01*
X5020000Y4364066D01*
X5020000Y4271934D01*
X5021787Y4253790D01*
X5028849Y4230510D01*
X5040317Y4209055D01*
X5055000Y4191163D01*
X5055000Y4147318D01*
X5054572Y4142970D01*
X5056281Y4125621D01*
X5061341Y4108939D01*
X5069559Y4093564D01*
X5077847Y4083465D01*
X5077847Y4083465D01*
X5080618Y4080088D01*
X5083995Y4077317D01*
X5511265Y3650047D01*
X5508000Y3633633D01*
X5508000Y3605366D01*
X5513515Y3577643D01*
X5524332Y3551527D01*
X5540036Y3528024D01*
X5560024Y3508036D01*
X5583527Y3492332D01*
X5609643Y3481515D01*
X5637366Y3476000D01*
X5665633Y3476000D01*
X5693357Y3481515D01*
X5719473Y3492332D01*
X5742976Y3508036D01*
X5762964Y3528024D01*
X5778668Y3551527D01*
X5789485Y3577643D01*
X5795000Y3605366D01*
X5795000Y3633633D01*
X5789485Y3661357D01*
X5778668Y3687473D01*
X5762964Y3710976D01*
X5742976Y3730964D01*
X5719473Y3746668D01*
X5693357Y3757485D01*
X5665633Y3763000D01*
X5648628Y3763000D01*
X5232000Y4179628D01*
X5232000Y4191163D01*
X5246683Y4209055D01*
X5258151Y4230510D01*
X5265213Y4253790D01*
X5267000Y4271934D01*
X5267000Y4364067D01*
X5265213Y4382210D01*
X5258151Y4405490D01*
X5246683Y4426945D01*
X5231250Y4445750D01*
X5212445Y4461183D01*
X5190990Y4472651D01*
X5167710Y4479713D01*
X5143500Y4482098D01*
X5119290Y4479713D01*
X5096010Y4472651D01*
X5074555Y4461183D01*
X5055750Y4445750D01*
X5040317Y4426945D01*
X5028849Y4405490D01*
X5021787Y4382210D01*
X5020000Y4364066D01*
X5013000Y4364066D01*
X5013000Y4364067D01*
X5011213Y4382210D01*
X5004151Y4405490D01*
X4992683Y4426945D01*
X4977250Y4445750D01*
X4958445Y4461183D01*
X4936990Y4472651D01*
X4913710Y4479713D01*
X4889500Y4482098D01*
X4865290Y4479713D01*
X4842010Y4472651D01*
X4820555Y4461183D01*
X4801750Y4445750D01*
X4786317Y4426945D01*
X4774849Y4405490D01*
X4767787Y4382210D01*
X4766000Y4364066D01*
X4759000Y4364066D01*
X4759000Y4364067D01*
X4757213Y4382210D01*
X4750151Y4405490D01*
X4738683Y4426945D01*
X4723250Y4445750D01*
X4704445Y4461183D01*
X4682990Y4472651D01*
X4659710Y4479713D01*
X4635500Y4482098D01*
X4611290Y4479713D01*
X4588010Y4472651D01*
X4566555Y4461183D01*
X4547750Y4445750D01*
X4532317Y4426945D01*
X4520849Y4405490D01*
X4513787Y4382210D01*
X4512000Y4364066D01*
X4505000Y4364066D01*
X4505000Y4370700D01*
X4500149Y4394550D01*
X4490739Y4416995D01*
X4477131Y4437173D01*
X4459847Y4454308D01*
X4439553Y4467742D01*
X4417028Y4476959D01*
X4413261Y4477346D01*
X4394200Y4464873D01*
X4368800Y4464873D01*
X4349739Y4477346D01*
X4345972Y4476959D01*
X4323447Y4467742D01*
X4303153Y4454308D01*
X4285869Y4437173D01*
X4272261Y4416995D01*
X4262851Y4394550D01*
X4258000Y4370700D01*
X3254630Y4370700D01*
X3255694Y4381500D01*
X3252924Y4409631D01*
X3244718Y4436681D01*
X3231393Y4461610D01*
X3213461Y4483461D01*
X3191610Y4501393D01*
X3166681Y4514718D01*
X3139631Y4522924D01*
X3118549Y4525000D01*
X3104451Y4525000D01*
X3083369Y4522924D01*
X3056319Y4514718D01*
X3031390Y4501393D01*
X3009539Y4483461D01*
X2991607Y4461610D01*
X2984500Y4448314D01*
X2977393Y4461610D01*
X2959461Y4483461D01*
X2937610Y4501393D01*
X2912681Y4514718D01*
X2885631Y4522924D01*
X2864549Y4525000D01*
X2850451Y4525000D01*
X2829369Y4522924D01*
X2802319Y4514718D01*
X2777390Y4501393D01*
X2755539Y4483461D01*
X2744492Y4470000D01*
X2739128Y4470000D01*
X2722653Y4486474D01*
X2719882Y4489852D01*
X2706406Y4500911D01*
X2691031Y4509129D01*
X2674349Y4514190D01*
X2661348Y4515470D01*
X2661347Y4515470D01*
X2657000Y4515898D01*
X2652653Y4515470D01*
X1907316Y4515470D01*
X1902970Y4515898D01*
X1898623Y4515470D01*
X1898622Y4515470D01*
X1885621Y4514190D01*
X1868939Y4509129D01*
X1853564Y4500911D01*
X1853564Y4500911D01*
X1853564Y4500911D01*
X1843465Y4492623D01*
X1843465Y4492623D01*
X1840088Y4489852D01*
X1837317Y4486475D01*
X1757152Y4406310D01*
X1738603Y4410000D01*
X1706397Y4410000D01*
X1674809Y4403717D01*
X1645054Y4391392D01*
X1618275Y4373499D01*
X1595501Y4350725D01*
X1577608Y4323946D01*
X1565283Y4294191D01*
X1559000Y4262603D01*
X1559000Y4230397D01*
X1565283Y4198809D01*
X1577608Y4169054D01*
X1595501Y4142275D01*
X1618275Y4119501D01*
X1645054Y4101608D01*
X1674809Y4089283D01*
X1676232Y4089000D01*
X680382Y4089000D01*
X680012Y4089553D01*
X660554Y4109012D01*
X637673Y4124300D01*
X612249Y4134831D01*
X585259Y4140200D01*
X557741Y4140200D01*
X530751Y4134831D01*
X505327Y4124300D01*
X482446Y4109012D01*
X462988Y4089553D01*
X447699Y4066673D01*
X437169Y4041249D01*
X431800Y4014259D01*
X229501Y4014259D01*
X229501Y4596499D01*
X970283Y4596499D01*
X955699Y4574673D01*
X955699Y4574673D01*
G37*
X955699Y4574673D02*
X945169Y4549249D01*
X939800Y4522259D01*
X939800Y4494741D01*
X945169Y4467751D01*
X955699Y4442327D01*
X970988Y4419447D01*
X990446Y4399988D01*
X1013327Y4384700D01*
X1021051Y4381500D01*
X1013327Y4378301D01*
X990446Y4363012D01*
X970988Y4343554D01*
X955699Y4320673D01*
X945169Y4295249D01*
X939800Y4268259D01*
X939800Y4240741D01*
X945169Y4213751D01*
X955699Y4188327D01*
X970988Y4165446D01*
X990446Y4145988D01*
X1013327Y4130699D01*
X1038751Y4120169D01*
X1065741Y4114800D01*
X1093259Y4114800D01*
X1120249Y4120169D01*
X1145673Y4130699D01*
X1168554Y4145988D01*
X1188012Y4165446D01*
X1203301Y4188327D01*
X1213831Y4213751D01*
X1219200Y4240741D01*
X1219200Y4268259D01*
X1213831Y4295249D01*
X1203301Y4320673D01*
X1188012Y4343554D01*
X1168554Y4363012D01*
X1145673Y4378301D01*
X1137949Y4381500D01*
X1145673Y4384700D01*
X1168554Y4399988D01*
X1188012Y4419447D01*
X1203301Y4442327D01*
X1213831Y4467751D01*
X1219200Y4494741D01*
X1219200Y4522259D01*
X1213831Y4549249D01*
X1203301Y4574673D01*
X1188717Y4596499D01*
X8546199Y4596499D01*
X8546199Y2212948D01*
X8542213Y2217805D01*
X8542213Y2217805D01*
X8539442Y2221182D01*
X8536065Y2223953D01*
X7941973Y2818044D01*
X7939202Y2821422D01*
X7925726Y2832481D01*
X7910351Y2840699D01*
X7893669Y2845759D01*
X7880668Y2847040D01*
X7880667Y2847040D01*
X7876320Y2847468D01*
X7871973Y2847040D01*
X7667857Y2847040D01*
X7663510Y2847468D01*
X7659163Y2847040D01*
X7659162Y2847040D01*
X7646161Y2845759D01*
X7629479Y2840699D01*
X7614104Y2832481D01*
X7604005Y2824193D01*
X7604005Y2824193D01*
X7600628Y2821422D01*
X7597857Y2818045D01*
X7175500Y2395688D01*
X7038030Y2533158D01*
X7038030Y2599152D01*
X7038458Y2603500D01*
X7036749Y2620849D01*
X7031689Y2637531D01*
X7023471Y2652906D01*
X7012412Y2666382D01*
X6998936Y2677441D01*
X6983561Y2685659D01*
X6966879Y2690720D01*
X6953878Y2692000D01*
X6953878Y2692000D01*
X6949530Y2692428D01*
X6945182Y2692000D01*
X6907508Y2692000D01*
X6896461Y2705461D01*
X6874610Y2723393D01*
X6849681Y2736718D01*
X6822631Y2744924D01*
X6801549Y2747000D01*
X6787451Y2747000D01*
X6777170Y2745988D01*
X6600923Y2922234D01*
X6598152Y2925612D01*
X6584676Y2936671D01*
X6569301Y2944889D01*
X6552619Y2949949D01*
X6539618Y2951230D01*
X6539617Y2951230D01*
X6535270Y2951658D01*
X6530923Y2951230D01*
X6517746Y2951230D01*
X6507239Y2966955D01*
X6484465Y2989729D01*
X6457686Y3007622D01*
X6427931Y3019947D01*
X6396343Y3026230D01*
X6364137Y3026230D01*
X6332549Y3019947D01*
X6302794Y3007622D01*
X6276015Y2989729D01*
X6253241Y2966955D01*
X6235348Y2940176D01*
X6223023Y2910421D01*
X6216740Y2878833D01*
X6216740Y2846627D01*
X6223023Y2815039D01*
X6235348Y2785284D01*
X6253241Y2758505D01*
X6276015Y2735731D01*
X6302794Y2717838D01*
X6332549Y2705513D01*
X6364137Y2699230D01*
X6396343Y2699230D01*
X6427931Y2705513D01*
X6457686Y2717838D01*
X6484465Y2735731D01*
X6507239Y2758505D01*
X6510082Y2762760D01*
X6652012Y2620830D01*
X6650306Y2603500D01*
X6653076Y2575369D01*
X6661282Y2548319D01*
X6674607Y2523390D01*
X6692539Y2501539D01*
X6714390Y2483607D01*
X6739319Y2470282D01*
X6766369Y2462076D01*
X6787451Y2460000D01*
X6801549Y2460000D01*
X6822631Y2462076D01*
X6849681Y2470282D01*
X6862863Y2477328D01*
X6867371Y2462469D01*
X6875589Y2447094D01*
X6883877Y2436995D01*
X6883877Y2436995D01*
X6886648Y2433618D01*
X6890025Y2430847D01*
X7087000Y2233872D01*
X7087000Y2222337D01*
X7072317Y2204445D01*
X7060849Y2182990D01*
X7053787Y2159710D01*
X7052000Y2141566D01*
X7052000Y2049433D01*
X7053787Y2031290D01*
X7060558Y2008970D01*
X7035965Y2008970D01*
X7040149Y2018950D01*
X7045000Y2042800D01*
X7045000Y2082800D01*
X6934200Y2082800D01*
X6934200Y2080800D01*
X6908800Y2080800D01*
X6908800Y2082800D01*
X6798000Y2082800D01*
X6798000Y2042800D01*
X6802851Y2018950D01*
X6807035Y2008970D01*
X6675988Y2008970D01*
X6536758Y2148200D01*
X6798000Y2148200D01*
X6798000Y2108200D01*
X6908800Y2108200D01*
X6908800Y2242373D01*
X6934200Y2242373D01*
X6934200Y2108200D01*
X7045000Y2108200D01*
X7045000Y2148200D01*
X7040149Y2172050D01*
X7030739Y2194495D01*
X7017131Y2214673D01*
X6999847Y2231808D01*
X6979553Y2245242D01*
X6957028Y2254459D01*
X6953261Y2254846D01*
X6934200Y2242373D01*
X6908800Y2242373D01*
X6889739Y2254846D01*
X6885972Y2254459D01*
X6863447Y2245242D01*
X6843153Y2231808D01*
X6825869Y2214673D01*
X6812261Y2194495D01*
X6802851Y2172050D01*
X6798000Y2148200D01*
X6536758Y2148200D01*
X5766873Y2918084D01*
X5764102Y2921462D01*
X5750626Y2932521D01*
X5735251Y2940739D01*
X5718569Y2945799D01*
X5705568Y2947080D01*
X5705567Y2947080D01*
X5701220Y2947508D01*
X5696873Y2947080D01*
X4801815Y2947080D01*
X4818893Y2967890D01*
X4832218Y2992819D01*
X4840424Y3019869D01*
X4843194Y3048000D01*
X4840424Y3076131D01*
X4832218Y3103181D01*
X4818893Y3128110D01*
X4800961Y3149961D01*
X4779110Y3167893D01*
X4754181Y3181218D01*
X4727131Y3189424D01*
X4706049Y3191500D01*
X4691951Y3191500D01*
X4670869Y3189424D01*
X4643819Y3181218D01*
X4618890Y3167893D01*
X4597039Y3149961D01*
X4585992Y3136500D01*
X4397470Y3136500D01*
X4397081Y3140448D01*
X4393450Y3152418D01*
X4387554Y3163449D01*
X4379619Y3173118D01*
X4369949Y3181054D01*
X4358918Y3186950D01*
X4346948Y3190581D01*
X4334500Y3191807D01*
X4174500Y3191807D01*
X4162052Y3190581D01*
X4150082Y3186950D01*
X4139051Y3181054D01*
X4129381Y3173118D01*
X4121446Y3163449D01*
X4115550Y3152418D01*
X4111919Y3140448D01*
X4110693Y3128000D01*
X4110693Y2968000D01*
X4111919Y2955552D01*
X4115550Y2943582D01*
X4121446Y2932551D01*
X4129381Y2922881D01*
X4139051Y2914946D01*
X4150082Y2909050D01*
X4162052Y2905419D01*
X4174500Y2904193D01*
X4334500Y2904193D01*
X4346948Y2905419D01*
X4358918Y2909050D01*
X4369949Y2914946D01*
X4379619Y2922881D01*
X4387554Y2932551D01*
X4393450Y2943582D01*
X4397081Y2955552D01*
X4397470Y2959500D01*
X4585992Y2959500D01*
X4596185Y2947080D01*
X4486347Y2947080D01*
X4482000Y2947508D01*
X4477653Y2947080D01*
X4477652Y2947080D01*
X4464651Y2945799D01*
X4447969Y2940739D01*
X4432594Y2932521D01*
X4422495Y2924233D01*
X4422495Y2924233D01*
X4419118Y2921462D01*
X4416347Y2918085D01*
X3758337Y2260075D01*
X3757485Y2264357D01*
X3746668Y2290473D01*
X3730964Y2313976D01*
X3710976Y2333964D01*
X3687473Y2349668D01*
X3661357Y2360485D01*
X3633633Y2366000D01*
X3605366Y2366000D01*
X3577643Y2360485D01*
X3551527Y2349668D01*
X3528024Y2333964D01*
X3508036Y2313976D01*
X3492332Y2290473D01*
X3489220Y2282960D01*
X3238117Y2282960D01*
X3241207Y2288112D01*
X3250691Y2314596D01*
X3238562Y2336800D01*
X3124200Y2336800D01*
X3124200Y2334800D01*
X3098800Y2334800D01*
X3098800Y2336800D01*
X3096800Y2336800D01*
X3096800Y2362200D01*
X3098800Y2362200D01*
X3098800Y2476492D01*
X3124200Y2476492D01*
X3124200Y2362200D01*
X3238562Y2362200D01*
X3250691Y2384404D01*
X3241207Y2410888D01*
X3226738Y2435013D01*
X3207841Y2455852D01*
X3185242Y2472604D01*
X3159809Y2484625D01*
X3146404Y2488690D01*
X3124200Y2476492D01*
X3098800Y2476492D01*
X3076596Y2488690D01*
X3063191Y2484625D01*
X3037758Y2472604D01*
X3015159Y2455852D01*
X3000323Y2439492D01*
X3000081Y2441948D01*
X2996450Y2453918D01*
X2990554Y2464949D01*
X2982618Y2474619D01*
X2972949Y2482554D01*
X2961918Y2488450D01*
X2949948Y2492081D01*
X2937500Y2493307D01*
X2777500Y2493307D01*
X2765052Y2492081D01*
X2753082Y2488450D01*
X2742051Y2482554D01*
X2732382Y2474619D01*
X2724446Y2464949D01*
X2718550Y2453918D01*
X2714919Y2441948D01*
X2713693Y2429500D01*
X2713693Y2270151D01*
X2710494Y2268441D01*
X2700395Y2260153D01*
X2700395Y2260153D01*
X2697018Y2257382D01*
X2694247Y2254005D01*
X2543995Y2103753D01*
X2540618Y2100982D01*
X2537847Y2097605D01*
X2537847Y2097605D01*
X2529559Y2087506D01*
X2521341Y2072131D01*
X2516281Y2055449D01*
X2514572Y2038100D01*
X2515000Y2033752D01*
X2515000Y1954952D01*
X2512024Y1952964D01*
X2492036Y1932976D01*
X2476500Y1909724D01*
X2460964Y1932976D01*
X2440976Y1952964D01*
X2417473Y1968668D01*
X2391357Y1979485D01*
X2363634Y1985000D01*
X2335367Y1985000D01*
X2307643Y1979485D01*
X2281527Y1968668D01*
X2258024Y1952964D01*
X2238036Y1932976D01*
X2222500Y1909724D01*
X2206964Y1932976D01*
X2186976Y1952964D01*
X2163473Y1968668D01*
X2159300Y1970396D01*
X2175419Y1973602D01*
X2200624Y1984043D01*
X2223309Y1999200D01*
X2242600Y2018491D01*
X2257757Y2041176D01*
X2268198Y2066381D01*
X2273520Y2093139D01*
X2273520Y2120421D01*
X2268198Y2147179D01*
X2257757Y2172384D01*
X2242600Y2195069D01*
X2223309Y2214360D01*
X2200624Y2229517D01*
X2175419Y2239958D01*
X2148661Y2245280D01*
X2121379Y2245280D01*
X2094621Y2239958D01*
X2069416Y2229517D01*
X2046731Y2214360D01*
X2027440Y2195069D01*
X2012283Y2172384D01*
X2001842Y2147179D01*
X1996520Y2120421D01*
X1996520Y2093438D01*
X1988082Y2085000D01*
X1238847Y2085000D01*
X1234500Y2085428D01*
X1230153Y2085000D01*
X1230152Y2085000D01*
X1217151Y2083720D01*
X1200469Y2078659D01*
X1185094Y2070441D01*
X1185094Y2070441D01*
X1185094Y2070441D01*
X1174995Y2062153D01*
X1174995Y2062153D01*
X1171618Y2059382D01*
X1168847Y2056005D01*
X1097144Y1984302D01*
X1093634Y1985000D01*
X1065367Y1985000D01*
X1037643Y1979485D01*
X1011527Y1968668D01*
X988024Y1952964D01*
X968036Y1932976D01*
X952500Y1909724D01*
X936964Y1932976D01*
X916976Y1952964D01*
X893473Y1968668D01*
X867357Y1979485D01*
X839633Y1985000D01*
X811366Y1985000D01*
X783643Y1979485D01*
X757527Y1968668D01*
X734024Y1952964D01*
X714036Y1932976D01*
X698409Y1909587D01*
X695167Y1915651D01*
X670770Y1922810D01*
X589461Y1841500D01*
X670770Y1760190D01*
X695167Y1767349D01*
X698219Y1773799D01*
X698332Y1773527D01*
X714036Y1750024D01*
X734024Y1730036D01*
X757527Y1714332D01*
X783643Y1703515D01*
X811366Y1698000D01*
X839633Y1698000D01*
X867357Y1703515D01*
X893473Y1714332D01*
X916976Y1730036D01*
X936964Y1750024D01*
X952500Y1773276D01*
X968036Y1750024D01*
X988024Y1730036D01*
X991000Y1728048D01*
X991000Y1464847D01*
X990572Y1460500D01*
X991000Y1456153D01*
X991000Y1456152D01*
X991685Y1449194D01*
X992280Y1443151D01*
X992678Y1441841D01*
X997341Y1426469D01*
X1005559Y1411094D01*
X1016618Y1397618D01*
X1019995Y1394847D01*
X1190698Y1224144D01*
X1190000Y1220634D01*
X1190000Y1192367D01*
X1195515Y1164643D01*
X1206332Y1138527D01*
X1222036Y1115024D01*
X1242024Y1095036D01*
X1245000Y1093048D01*
X1245000Y938952D01*
X1242024Y936964D01*
X1222036Y916976D01*
X1206332Y893473D01*
X1195515Y867357D01*
X1190000Y839633D01*
X1190000Y811366D01*
X1195515Y783643D01*
X1206332Y757527D01*
X1222036Y734024D01*
X1242024Y714036D01*
X1265527Y698332D01*
X1291643Y687515D01*
X1319367Y682000D01*
X1344242Y682000D01*
X1273995Y611753D01*
X1270618Y608982D01*
X1267847Y605605D01*
X1267847Y605605D01*
X1259559Y595506D01*
X1251341Y580131D01*
X1246281Y563449D01*
X1244572Y546100D01*
X1245000Y541752D01*
X1245000Y430952D01*
X1242024Y428964D01*
X1222036Y408976D01*
X1206409Y385587D01*
X1203167Y391651D01*
X1178770Y398810D01*
X1097461Y317500D01*
X1098875Y316086D01*
X1080914Y298125D01*
X1079500Y299540D01*
X1078086Y298125D01*
X1060125Y316086D01*
X1061540Y317500D01*
X980230Y398810D01*
X955833Y391651D01*
X952703Y385036D01*
X949167Y391651D01*
X924770Y398810D01*
X843460Y317500D01*
X844875Y316086D01*
X826914Y298125D01*
X825500Y299540D01*
X824086Y298125D01*
X806125Y316086D01*
X807539Y317500D01*
X726230Y398810D01*
X701833Y391651D01*
X698781Y385201D01*
X698668Y385473D01*
X682964Y408976D01*
X675169Y416770D01*
X744190Y416770D01*
X825500Y335461D01*
X906810Y416770D01*
X998190Y416770D01*
X1079500Y335461D01*
X1160810Y416770D01*
X1153651Y441167D01*
X1128100Y453257D01*
X1100682Y460130D01*
X1072449Y461522D01*
X1044487Y457379D01*
X1017871Y447860D01*
X1005349Y441167D01*
X998190Y416770D01*
X906810Y416770D01*
X899651Y441167D01*
X874100Y453257D01*
X846682Y460130D01*
X818449Y461522D01*
X790487Y457379D01*
X763871Y447860D01*
X751349Y441167D01*
X744190Y416770D01*
X675169Y416770D01*
X662976Y428964D01*
X639473Y444668D01*
X613357Y455485D01*
X585634Y461000D01*
X557367Y461000D01*
X529643Y455485D01*
X503527Y444668D01*
X480024Y428964D01*
X460164Y409104D01*
X460081Y409948D01*
X456450Y421918D01*
X450554Y432949D01*
X442618Y442618D01*
X432949Y450554D01*
X421918Y456450D01*
X409948Y460081D01*
X397500Y461307D01*
X237500Y461307D01*
X229501Y460519D01*
X229501Y1727713D01*
X249527Y1714332D01*
X275643Y1703515D01*
X303367Y1698000D01*
X331634Y1698000D01*
X359357Y1703515D01*
X385473Y1714332D01*
X408976Y1730036D01*
X421169Y1742230D01*
X490190Y1742230D01*
X497349Y1717833D01*
X522900Y1705743D01*
X550318Y1698870D01*
X578551Y1697478D01*
X606513Y1701621D01*
X633129Y1711140D01*
X645651Y1717833D01*
X652810Y1742230D01*
X571500Y1823539D01*
X490190Y1742230D01*
X421169Y1742230D01*
X428964Y1750024D01*
X444591Y1773413D01*
X447833Y1767349D01*
X472230Y1760190D01*
X553540Y1841500D01*
X472230Y1922810D01*
X447833Y1915651D01*
X444781Y1909201D01*
X444668Y1909473D01*
X428964Y1932976D01*
X421169Y1940770D01*
X490190Y1940770D01*
X571500Y1859460D01*
X652810Y1940770D01*
X645651Y1965167D01*
X620100Y1977257D01*
X592682Y1984130D01*
X564449Y1985522D01*
X536487Y1981379D01*
X509871Y1971860D01*
X497349Y1965167D01*
X490190Y1940770D01*
X421169Y1940770D01*
X408976Y1952964D01*
X385473Y1968668D01*
X359357Y1979485D01*
X331634Y1985000D01*
X303367Y1985000D01*
X275643Y1979485D01*
X249527Y1968668D01*
X229501Y1955287D01*
X229501Y2744259D01*
X431800Y2744259D01*
X431800Y2716741D01*
X437169Y2689751D01*
X447699Y2664327D01*
X462988Y2641447D01*
X482446Y2621988D01*
X505327Y2606700D01*
X530751Y2596169D01*
X557741Y2590800D01*
X585259Y2590800D01*
X612249Y2596169D01*
X637673Y2606700D01*
X660554Y2621988D01*
X680012Y2641447D01*
X680382Y2642000D01*
X1668232Y2642000D01*
X1666809Y2641717D01*
X1637054Y2629392D01*
X1610275Y2611499D01*
X1587501Y2588725D01*
X1576994Y2573000D01*
X1345847Y2573000D01*
X1341500Y2573428D01*
X1337153Y2573000D01*
X1337152Y2573000D01*
X1324151Y2571720D01*
X1307469Y2566659D01*
X1292094Y2558441D01*
X1281995Y2550153D01*
X1281995Y2550153D01*
X1278618Y2547382D01*
X1275847Y2544005D01*
X1219200Y2487358D01*
X1219200Y2490259D01*
X1213831Y2517249D01*
X1203301Y2542673D01*
X1188012Y2565554D01*
X1168554Y2585012D01*
X1145673Y2600301D01*
X1120249Y2610831D01*
X1093259Y2616200D01*
X1065741Y2616200D01*
X1038751Y2610831D01*
X1013327Y2600301D01*
X990446Y2585012D01*
X970988Y2565554D01*
X955699Y2542673D01*
X945169Y2517249D01*
X939800Y2490259D01*
X939800Y2462741D01*
X945169Y2435751D01*
X955699Y2410327D01*
X970988Y2387447D01*
X990446Y2367988D01*
X1013327Y2352700D01*
X1021051Y2349500D01*
X1013327Y2346301D01*
X990446Y2331012D01*
X970988Y2311554D01*
X955699Y2288673D01*
X945169Y2263249D01*
X939800Y2236259D01*
X939800Y2208741D01*
X945169Y2181751D01*
X955699Y2156327D01*
X970988Y2133447D01*
X990446Y2113988D01*
X1013327Y2098700D01*
X1038751Y2088169D01*
X1065741Y2082800D01*
X1093259Y2082800D01*
X1120249Y2088169D01*
X1145673Y2098700D01*
X1168554Y2113988D01*
X1188012Y2133447D01*
X1203301Y2156327D01*
X1213831Y2181751D01*
X1219200Y2208741D01*
X1219200Y2236259D01*
X1219070Y2236912D01*
X1378158Y2396000D01*
X1576994Y2396000D01*
X1587501Y2380275D01*
X1610275Y2357501D01*
X1637054Y2339608D01*
X1666809Y2327283D01*
X1698397Y2321000D01*
X1730603Y2321000D01*
X1762191Y2327283D01*
X1791946Y2339608D01*
X1818725Y2357501D01*
X1841499Y2380275D01*
X1859392Y2407054D01*
X1871717Y2436809D01*
X1878000Y2468397D01*
X1878000Y2500603D01*
X1871717Y2532191D01*
X1859392Y2561946D01*
X1841499Y2588725D01*
X1818725Y2611499D01*
X1791946Y2629392D01*
X1762191Y2641717D01*
X1760767Y2642000D01*
X1931842Y2642000D01*
X2054690Y2519153D01*
X2051000Y2500603D01*
X2051000Y2468397D01*
X2057283Y2436809D01*
X2069608Y2407054D01*
X2087501Y2380275D01*
X2110275Y2357501D01*
X2137054Y2339608D01*
X2166809Y2327283D01*
X2198397Y2321000D01*
X2230603Y2321000D01*
X2262191Y2327283D01*
X2291946Y2339608D01*
X2318725Y2357501D01*
X2341499Y2380275D01*
X2359392Y2407054D01*
X2371717Y2436809D01*
X2378000Y2468397D01*
X2378000Y2500603D01*
X2371717Y2532191D01*
X2359392Y2561946D01*
X2341499Y2588725D01*
X2318725Y2611499D01*
X2291946Y2629392D01*
X2262191Y2641717D01*
X2230603Y2648000D01*
X2198397Y2648000D01*
X2179848Y2644310D01*
X2034153Y2790004D01*
X2031382Y2793382D01*
X2017906Y2804441D01*
X2002531Y2812659D01*
X1985849Y2817719D01*
X1972848Y2819000D01*
X1972847Y2819000D01*
X1968500Y2819428D01*
X1964153Y2819000D01*
X680382Y2819000D01*
X680012Y2819553D01*
X660554Y2839012D01*
X637673Y2854300D01*
X612249Y2864831D01*
X585259Y2870200D01*
X557741Y2870200D01*
X530751Y2864831D01*
X505327Y2854300D01*
X482446Y2839012D01*
X462988Y2819553D01*
X447699Y2796673D01*
X437169Y2771249D01*
X431800Y2744259D01*
X229501Y2744259D01*
X229501Y3760259D01*
X939800Y3760259D01*
X939800Y3732741D01*
X945169Y3705751D01*
X955699Y3680327D01*
X970988Y3657446D01*
X990446Y3637988D01*
X1013327Y3622699D01*
X1021051Y3619500D01*
X1013327Y3616300D01*
X990446Y3601012D01*
X970988Y3581553D01*
X955699Y3558673D01*
X945169Y3533249D01*
X939800Y3506259D01*
X939800Y3478741D01*
X945169Y3451751D01*
X955699Y3426327D01*
X970988Y3403446D01*
X990446Y3383988D01*
X1013327Y3368699D01*
X1021051Y3365500D01*
X1013327Y3362300D01*
X990446Y3347012D01*
X970988Y3327553D01*
X955699Y3304673D01*
X945169Y3279249D01*
X939800Y3252259D01*
X939800Y3224741D01*
X945169Y3197751D01*
X955699Y3172327D01*
X970988Y3149446D01*
X990446Y3129988D01*
X1013327Y3114699D01*
X1021051Y3111500D01*
X1013327Y3108300D01*
X990446Y3093012D01*
X970988Y3073553D01*
X955699Y3050673D01*
X945169Y3025249D01*
X939800Y2998259D01*
X939800Y2970741D01*
X945169Y2943751D01*
X955699Y2918327D01*
X970988Y2895446D01*
X990446Y2875988D01*
X1013327Y2860699D01*
X1038751Y2850169D01*
X1065741Y2844800D01*
X1093259Y2844800D01*
X1120249Y2850169D01*
X1145673Y2860699D01*
X1168554Y2875988D01*
X1188012Y2895446D01*
X1203301Y2918327D01*
X1213831Y2943751D01*
X1219200Y2970741D01*
X1219200Y2998259D01*
X1218734Y3000603D01*
X1551000Y3000603D01*
X1551000Y2968397D01*
X1557283Y2936809D01*
X1569608Y2907054D01*
X1587501Y2880275D01*
X1610275Y2857501D01*
X1637054Y2839608D01*
X1666809Y2827283D01*
X1698397Y2821000D01*
X1730603Y2821000D01*
X1762191Y2827283D01*
X1791946Y2839608D01*
X1818725Y2857501D01*
X1841499Y2880275D01*
X1859392Y2907054D01*
X1871717Y2936809D01*
X1878000Y2968397D01*
X1878000Y3000603D01*
X1874310Y3019152D01*
X1932418Y3077260D01*
X2079840Y3077260D01*
X2069608Y3061946D01*
X2057283Y3032191D01*
X2051000Y3000603D01*
X2051000Y2968397D01*
X2057283Y2936809D01*
X2069608Y2907054D01*
X2087501Y2880275D01*
X2110275Y2857501D01*
X2137054Y2839608D01*
X2166809Y2827283D01*
X2198397Y2821000D01*
X2230603Y2821000D01*
X2262191Y2827283D01*
X2291946Y2839608D01*
X2318725Y2857501D01*
X2326154Y2864930D01*
X2949083Y2864930D01*
X2953430Y2864502D01*
X2957777Y2864930D01*
X2957778Y2864930D01*
X2970779Y2866210D01*
X2987461Y2871271D01*
X3002836Y2879489D01*
X3016312Y2890548D01*
X3019083Y2893926D01*
X3094170Y2969012D01*
X3104451Y2968000D01*
X3118549Y2968000D01*
X3139631Y2970076D01*
X3166681Y2978282D01*
X3191610Y2991607D01*
X3213461Y3009539D01*
X3231393Y3031390D01*
X3244718Y3056319D01*
X3249777Y3072995D01*
X3289700Y3033072D01*
X3289700Y2798347D01*
X3289272Y2794000D01*
X3289700Y2789653D01*
X3289700Y2789652D01*
X3290130Y2785284D01*
X3290980Y2776651D01*
X3291212Y2775889D01*
X3296041Y2759969D01*
X3304259Y2744594D01*
X3315318Y2731118D01*
X3318696Y2728347D01*
X3480550Y2566492D01*
X3481515Y2561643D01*
X3492332Y2535527D01*
X3508036Y2512024D01*
X3528024Y2492036D01*
X3551527Y2476332D01*
X3577643Y2465515D01*
X3605366Y2460000D01*
X3633633Y2460000D01*
X3661357Y2465515D01*
X3687473Y2476332D01*
X3710976Y2492036D01*
X3730964Y2512024D01*
X3746668Y2535527D01*
X3757485Y2561643D01*
X3763000Y2589367D01*
X3763000Y2617634D01*
X3757485Y2645357D01*
X3746668Y2671473D01*
X3730964Y2694976D01*
X3710976Y2714964D01*
X3687473Y2730668D01*
X3661357Y2741485D01*
X3633633Y2747000D01*
X3605366Y2747000D01*
X3577643Y2741485D01*
X3562249Y2735109D01*
X3466700Y2830658D01*
X3466700Y3048000D01*
X3729306Y3048000D01*
X3732076Y3019869D01*
X3740282Y2992819D01*
X3753607Y2967890D01*
X3771539Y2946039D01*
X3793390Y2928107D01*
X3818319Y2914782D01*
X3845369Y2906576D01*
X3866451Y2904500D01*
X3880549Y2904500D01*
X3901631Y2906576D01*
X3928681Y2914782D01*
X3953610Y2928107D01*
X3975461Y2946039D01*
X3993393Y2967890D01*
X4006718Y2992819D01*
X4014924Y3019869D01*
X4017694Y3048000D01*
X4014924Y3076131D01*
X4006718Y3103181D01*
X3993393Y3128110D01*
X3977881Y3147012D01*
X3993780Y3162911D01*
X4008937Y3185596D01*
X4019377Y3210801D01*
X4024700Y3237559D01*
X4024700Y3264841D01*
X4019377Y3291599D01*
X4008937Y3316804D01*
X3993780Y3339489D01*
X3974489Y3358780D01*
X3951804Y3373937D01*
X3926599Y3384377D01*
X3899841Y3389700D01*
X3872559Y3389700D01*
X3845801Y3384377D01*
X3820596Y3373937D01*
X3797911Y3358780D01*
X3778620Y3339489D01*
X3763463Y3316804D01*
X3753022Y3291599D01*
X3747700Y3264841D01*
X3747700Y3237559D01*
X3753022Y3210801D01*
X3763463Y3185596D01*
X3778620Y3162911D01*
X3782541Y3158990D01*
X3771539Y3149961D01*
X3753607Y3128110D01*
X3740282Y3103181D01*
X3732076Y3076131D01*
X3729306Y3048000D01*
X3466700Y3048000D01*
X3466700Y3065383D01*
X3467128Y3069730D01*
X3466700Y3074077D01*
X3466700Y3074078D01*
X3465419Y3087079D01*
X3464920Y3088725D01*
X3460359Y3103761D01*
X3452141Y3119136D01*
X3443853Y3129235D01*
X3443853Y3129235D01*
X3441082Y3132612D01*
X3437705Y3135383D01*
X3087040Y3486048D01*
X3098800Y3492508D01*
X3098800Y3606800D01*
X3124200Y3606800D01*
X3124200Y3492508D01*
X3146404Y3480310D01*
X3159809Y3484375D01*
X3185242Y3496396D01*
X3207841Y3513148D01*
X3226738Y3533987D01*
X3241207Y3558112D01*
X3250691Y3584596D01*
X3238562Y3606800D01*
X3124200Y3606800D01*
X3098800Y3606800D01*
X3096800Y3606800D01*
X3096800Y3632200D01*
X3098800Y3632200D01*
X3098800Y3746491D01*
X3124200Y3746491D01*
X3124200Y3632200D01*
X3238562Y3632200D01*
X3250691Y3654404D01*
X3241207Y3680888D01*
X3226738Y3705013D01*
X3207841Y3725852D01*
X3185242Y3742604D01*
X3159809Y3754625D01*
X3146404Y3758690D01*
X3124200Y3746491D01*
X3098800Y3746491D01*
X3076596Y3758690D01*
X3063191Y3754625D01*
X3037758Y3742604D01*
X3015159Y3725852D01*
X3000323Y3709492D01*
X3000081Y3711948D01*
X2996450Y3723918D01*
X2990554Y3734949D01*
X2982618Y3744618D01*
X2972949Y3752554D01*
X2961918Y3758450D01*
X2949948Y3762081D01*
X2937500Y3763307D01*
X2777500Y3763307D01*
X2765052Y3762081D01*
X2753082Y3758450D01*
X2742051Y3752554D01*
X2732382Y3744618D01*
X2724446Y3734949D01*
X2718550Y3723918D01*
X2714919Y3711948D01*
X2713693Y3699500D01*
X2713693Y3539500D01*
X2714919Y3527052D01*
X2718550Y3515082D01*
X2724446Y3504051D01*
X2732382Y3494381D01*
X2742051Y3486446D01*
X2753082Y3480550D01*
X2765052Y3476919D01*
X2769000Y3476530D01*
X2769000Y3468818D01*
X2768572Y3464470D01*
X2770281Y3447121D01*
X2775341Y3430439D01*
X2783559Y3415064D01*
X2791588Y3405280D01*
X2794618Y3401588D01*
X2808094Y3390529D01*
X2823469Y3382311D01*
X2840151Y3377250D01*
X2857500Y3375542D01*
X2861848Y3375970D01*
X2946802Y3375970D01*
X3072995Y3249777D01*
X3056319Y3244718D01*
X3031390Y3231393D01*
X3009539Y3213461D01*
X2991607Y3191610D01*
X2984500Y3178314D01*
X2977393Y3191610D01*
X2959461Y3213461D01*
X2937610Y3231393D01*
X2912681Y3244718D01*
X2885631Y3252924D01*
X2864549Y3255000D01*
X2850451Y3255000D01*
X2829369Y3252924D01*
X2802319Y3244718D01*
X2777390Y3231393D01*
X2755539Y3213461D01*
X2744492Y3200000D01*
X2739128Y3200000D01*
X2713863Y3225264D01*
X2711092Y3228642D01*
X2697616Y3239701D01*
X2682241Y3247919D01*
X2665559Y3252979D01*
X2652558Y3254260D01*
X2652557Y3254260D01*
X2648210Y3254688D01*
X2643863Y3254260D01*
X1900107Y3254260D01*
X1895760Y3254688D01*
X1891413Y3254260D01*
X1891412Y3254260D01*
X1878411Y3252979D01*
X1861729Y3247919D01*
X1846354Y3239701D01*
X1836255Y3231413D01*
X1836255Y3231413D01*
X1832878Y3228642D01*
X1830107Y3225265D01*
X1749152Y3144310D01*
X1730603Y3148000D01*
X1698397Y3148000D01*
X1666809Y3141717D01*
X1637054Y3129392D01*
X1610275Y3111499D01*
X1587501Y3088725D01*
X1569608Y3061946D01*
X1557283Y3032191D01*
X1551000Y3000603D01*
X1218734Y3000603D01*
X1213831Y3025249D01*
X1203301Y3050673D01*
X1188012Y3073553D01*
X1168554Y3093012D01*
X1145673Y3108300D01*
X1137949Y3111500D01*
X1145673Y3114699D01*
X1168554Y3129988D01*
X1188012Y3149446D01*
X1203301Y3172327D01*
X1213831Y3197751D01*
X1219200Y3224741D01*
X1219200Y3252259D01*
X1213831Y3279249D01*
X1203301Y3304673D01*
X1188012Y3327553D01*
X1168554Y3347012D01*
X1145673Y3362300D01*
X1137949Y3365500D01*
X1145673Y3368699D01*
X1168554Y3383988D01*
X1188012Y3403446D01*
X1203301Y3426327D01*
X1213831Y3451751D01*
X1219200Y3478741D01*
X1219200Y3506259D01*
X1219070Y3506912D01*
X1370158Y3658000D01*
X1584994Y3658000D01*
X1595501Y3642275D01*
X1618275Y3619501D01*
X1645054Y3601608D01*
X1674809Y3589283D01*
X1706397Y3583000D01*
X1738603Y3583000D01*
X1770191Y3589283D01*
X1799946Y3601608D01*
X1826725Y3619501D01*
X1849499Y3642275D01*
X1867392Y3669054D01*
X1879717Y3698809D01*
X1886000Y3730397D01*
X1886000Y3762603D01*
X1879717Y3794191D01*
X1867392Y3823946D01*
X1849499Y3850725D01*
X1826725Y3873499D01*
X1799946Y3891392D01*
X1770191Y3903717D01*
X1738603Y3910000D01*
X1706397Y3910000D01*
X1674809Y3903717D01*
X1645054Y3891392D01*
X1618275Y3873499D01*
X1595501Y3850725D01*
X1584994Y3835000D01*
X1337847Y3835000D01*
X1333500Y3835428D01*
X1329153Y3835000D01*
X1329152Y3835000D01*
X1316151Y3833719D01*
X1299469Y3828659D01*
X1284094Y3820441D01*
X1284094Y3820441D01*
X1284094Y3820441D01*
X1273995Y3812153D01*
X1273995Y3812153D01*
X1270618Y3809382D01*
X1267847Y3806005D01*
X1219200Y3757358D01*
X1219200Y3760259D01*
X1213831Y3787249D01*
X1203301Y3812673D01*
X1188012Y3835553D01*
X1168554Y3855012D01*
X1145673Y3870300D01*
X1120249Y3880831D01*
X1093259Y3886200D01*
X1065741Y3886200D01*
X1038751Y3880831D01*
X1013327Y3870300D01*
X990446Y3855012D01*
X970988Y3835553D01*
X955699Y3812673D01*
X945169Y3787249D01*
X939800Y3760259D01*
X229501Y3760259D01*
X229501Y4014259D01*
X431800Y4014259D01*
X431800Y3986741D01*
X437169Y3959751D01*
X447699Y3934327D01*
X462988Y3911446D01*
X482446Y3891988D01*
X505327Y3876699D01*
X530751Y3866169D01*
X557741Y3860800D01*
X585259Y3860800D01*
X612249Y3866169D01*
X637673Y3876699D01*
X660554Y3891988D01*
X680012Y3911446D01*
X680382Y3912000D01*
X1931842Y3912000D01*
X2062690Y3781152D01*
X2059000Y3762603D01*
X2059000Y3730397D01*
X2065283Y3698809D01*
X2077608Y3669054D01*
X2095501Y3642275D01*
X2118275Y3619501D01*
X2145054Y3601608D01*
X2174809Y3589283D01*
X2206397Y3583000D01*
X2238603Y3583000D01*
X2270191Y3589283D01*
X2299946Y3601608D01*
X2326725Y3619501D01*
X2349499Y3642275D01*
X2367392Y3669054D01*
X2379717Y3698809D01*
X2386000Y3730397D01*
X2386000Y3762603D01*
X2379717Y3794191D01*
X2367392Y3823946D01*
X2349499Y3850725D01*
X2326725Y3873499D01*
X2302029Y3890000D01*
X3729693Y3890000D01*
X3729693Y3730000D01*
X3730919Y3717552D01*
X3734550Y3705582D01*
X3740446Y3694551D01*
X3748381Y3684881D01*
X3758051Y3676946D01*
X3769082Y3671050D01*
X3781052Y3667419D01*
X3793500Y3666193D01*
X3953500Y3666193D01*
X3965948Y3667419D01*
X3977918Y3671050D01*
X3988949Y3676946D01*
X3998618Y3684881D01*
X4006554Y3694551D01*
X4012450Y3705582D01*
X4016081Y3717552D01*
X4016470Y3721500D01*
X4141492Y3721500D01*
X4152539Y3708039D01*
X4174390Y3690107D01*
X4199319Y3676782D01*
X4226369Y3668576D01*
X4247451Y3666500D01*
X4261549Y3666500D01*
X4282631Y3668576D01*
X4309681Y3676782D01*
X4334610Y3690107D01*
X4356461Y3708039D01*
X4374393Y3729890D01*
X4387718Y3754819D01*
X4395924Y3781869D01*
X4398694Y3810000D01*
X4395924Y3838131D01*
X4387718Y3865181D01*
X4374393Y3890110D01*
X4356461Y3911961D01*
X4334610Y3929893D01*
X4309681Y3943218D01*
X4282631Y3951424D01*
X4261549Y3953500D01*
X4247451Y3953500D01*
X4226369Y3951424D01*
X4199319Y3943218D01*
X4174390Y3929893D01*
X4152539Y3911961D01*
X4141492Y3898500D01*
X4016470Y3898500D01*
X4016081Y3902448D01*
X4012450Y3914418D01*
X4006554Y3925449D01*
X3998618Y3935118D01*
X3988949Y3943054D01*
X3977918Y3948950D01*
X3965948Y3952581D01*
X3953500Y3953807D01*
X3793500Y3953807D01*
X3781052Y3952581D01*
X3769082Y3948950D01*
X3758051Y3943054D01*
X3748381Y3935118D01*
X3740446Y3925449D01*
X3734550Y3914418D01*
X3730919Y3902448D01*
X3729693Y3890000D01*
X2302029Y3890000D01*
X2299946Y3891392D01*
X2270191Y3903717D01*
X2238603Y3910000D01*
X2206397Y3910000D01*
X2187848Y3906310D01*
X2034153Y4060004D01*
X2031382Y4063382D01*
X2017906Y4074441D01*
X2002531Y4082659D01*
X1985849Y4087719D01*
X1972848Y4089000D01*
X1972847Y4089000D01*
X1968500Y4089428D01*
X1964153Y4089000D01*
X1768767Y4089000D01*
X1770191Y4089283D01*
X1799946Y4101608D01*
X1826725Y4119501D01*
X1849499Y4142275D01*
X1867392Y4169054D01*
X1879717Y4198809D01*
X1886000Y4230397D01*
X1886000Y4262603D01*
X1882310Y4281153D01*
X1939628Y4338470D01*
X2087313Y4338470D01*
X2077608Y4323946D01*
X2065283Y4294191D01*
X2059000Y4262603D01*
X2059000Y4230397D01*
X2065283Y4198809D01*
X2077608Y4169054D01*
X2095501Y4142275D01*
X2118275Y4119501D01*
X2145054Y4101608D01*
X2174809Y4089283D01*
X2206397Y4083000D01*
X2238603Y4083000D01*
X2257153Y4086690D01*
X2288547Y4055295D01*
X2291318Y4051918D01*
X2294695Y4049147D01*
X2294695Y4049147D01*
X2297081Y4047189D01*
X2304794Y4040859D01*
X2320169Y4032641D01*
X2336851Y4027580D01*
X2349852Y4026300D01*
X2349853Y4026300D01*
X2354200Y4025872D01*
X2358547Y4026300D01*
X2840453Y4026300D01*
X2844800Y4025872D01*
X2849147Y4026300D01*
X2849148Y4026300D01*
X2862149Y4027580D01*
X2878831Y4032641D01*
X2894206Y4040859D01*
X2907682Y4051918D01*
X2910453Y4055296D01*
X3094170Y4239013D01*
X3104451Y4238000D01*
X3118549Y4238000D01*
X3139631Y4240076D01*
X3166681Y4248282D01*
X3191610Y4261607D01*
X3213461Y4279539D01*
X3231393Y4301390D01*
X3233483Y4305300D01*
X4258000Y4305300D01*
X4258000Y4265300D01*
X4262851Y4241450D01*
X4272261Y4219005D01*
X4285869Y4198828D01*
X4303153Y4181692D01*
X4323447Y4168258D01*
X4345972Y4159041D01*
X4349739Y4158654D01*
X4368800Y4171127D01*
X4368800Y4305300D01*
X4394200Y4305300D01*
X4394200Y4171127D01*
X4413261Y4158654D01*
X4417028Y4159041D01*
X4439553Y4168258D01*
X4459847Y4181692D01*
X4477131Y4198828D01*
X4490739Y4219005D01*
X4500149Y4241450D01*
X4505000Y4265300D01*
X4505000Y4305300D01*
X4394200Y4305300D01*
X4368800Y4305300D01*
X4258000Y4305300D01*
X3233483Y4305300D01*
X3244718Y4326319D01*
X3252924Y4353369D01*
X3254630Y4370700D01*
X4258000Y4370700D01*
X4258000Y4330700D01*
X4368800Y4330700D01*
X4368800Y4464873D01*
X4394200Y4464873D01*
X4394200Y4330700D01*
X4505000Y4330700D01*
X4505000Y4364066D01*
X4512000Y4364066D01*
X4512000Y4271934D01*
X4513787Y4253790D01*
X4520849Y4230510D01*
X4532317Y4209055D01*
X4547000Y4191163D01*
X4547000Y4032878D01*
X4546572Y4028530D01*
X4548281Y4011181D01*
X4553341Y3994499D01*
X4561559Y3979124D01*
X4569847Y3969025D01*
X4569847Y3969025D01*
X4572618Y3965648D01*
X4575995Y3962877D01*
X4591545Y3947327D01*
X4583551Y3943054D01*
X4573882Y3935118D01*
X4565946Y3925449D01*
X4560050Y3914418D01*
X4556419Y3902448D01*
X4555193Y3890000D01*
X4555193Y3730000D01*
X4556419Y3717552D01*
X4560050Y3705582D01*
X4565946Y3694551D01*
X4573882Y3684881D01*
X4583551Y3676946D01*
X4594582Y3671050D01*
X4606552Y3667419D01*
X4619000Y3666193D01*
X4779000Y3666193D01*
X4791448Y3667419D01*
X4803418Y3671050D01*
X4814449Y3676946D01*
X4824119Y3684881D01*
X4832054Y3694551D01*
X4837950Y3705582D01*
X4841581Y3717552D01*
X4842807Y3730000D01*
X4842807Y3890000D01*
X4841581Y3902448D01*
X4837950Y3914418D01*
X4832054Y3925449D01*
X4824119Y3935118D01*
X4814449Y3943054D01*
X4803418Y3948950D01*
X4791448Y3952581D01*
X4787500Y3952970D01*
X4787500Y3960683D01*
X4787928Y3965030D01*
X4787500Y3969377D01*
X4787500Y3969378D01*
X4786220Y3982379D01*
X4781159Y3999061D01*
X4781159Y3999061D01*
X4772941Y4014436D01*
X4764653Y4024535D01*
X4764653Y4024535D01*
X4761882Y4027912D01*
X4758505Y4030683D01*
X4724000Y4065188D01*
X4724000Y4191163D01*
X4738683Y4209055D01*
X4750151Y4230510D01*
X4757213Y4253790D01*
X4759000Y4271934D01*
X4759000Y4364066D01*
X4766000Y4364066D01*
X4766000Y4271934D01*
X4767787Y4253790D01*
X4774849Y4230510D01*
X4786317Y4209055D01*
X4801000Y4191163D01*
X4801000Y4147318D01*
X4800572Y4142970D01*
X4802281Y4125621D01*
X4807341Y4108939D01*
X4815559Y4093564D01*
X4823847Y4083465D01*
X4823847Y4083465D01*
X4826618Y4080088D01*
X4829995Y4077317D01*
X5055000Y3852312D01*
X5055000Y3415452D01*
X5052024Y3413464D01*
X5032036Y3393476D01*
X5016332Y3369973D01*
X5005515Y3343857D01*
X5000000Y3316133D01*
X5000000Y3287866D01*
X5005515Y3260143D01*
X5016332Y3234027D01*
X5032036Y3210524D01*
X5052024Y3190536D01*
X5075527Y3174832D01*
X5101643Y3164015D01*
X5129367Y3158500D01*
X5157634Y3158500D01*
X5185357Y3164015D01*
X5211473Y3174832D01*
X5234976Y3190536D01*
X5254964Y3210524D01*
X5270668Y3234027D01*
X5281485Y3260143D01*
X5287000Y3287866D01*
X5287000Y3316133D01*
X5281485Y3343857D01*
X5270668Y3369973D01*
X5254964Y3393476D01*
X5234976Y3413464D01*
X5232000Y3415452D01*
X5232000Y3884623D01*
X5232428Y3888970D01*
X5232000Y3893317D01*
X5232000Y3893318D01*
X5230720Y3906319D01*
X5225659Y3923001D01*
X5217441Y3938376D01*
X5210880Y3946371D01*
X5209153Y3948475D01*
X5209153Y3948475D01*
X5206382Y3951852D01*
X5203005Y3954623D01*
X4978000Y4179628D01*
X4978000Y4191163D01*
X4992683Y4209055D01*
X5004151Y4230510D01*
X5011213Y4253790D01*
X5013000Y4271934D01*
X5013000Y4364066D01*
X5020000Y4364066D01*
X5020000Y4271934D01*
X5021787Y4253790D01*
X5028849Y4230510D01*
X5040317Y4209055D01*
X5055000Y4191163D01*
X5055000Y4147318D01*
X5054572Y4142970D01*
X5056281Y4125621D01*
X5061341Y4108939D01*
X5069559Y4093564D01*
X5077847Y4083465D01*
X5077847Y4083465D01*
X5080618Y4080088D01*
X5083995Y4077317D01*
X5511265Y3650047D01*
X5508000Y3633633D01*
X5508000Y3605366D01*
X5513515Y3577643D01*
X5524332Y3551527D01*
X5540036Y3528024D01*
X5560024Y3508036D01*
X5583527Y3492332D01*
X5609643Y3481515D01*
X5637366Y3476000D01*
X5665633Y3476000D01*
X5693357Y3481515D01*
X5719473Y3492332D01*
X5742976Y3508036D01*
X5762964Y3528024D01*
X5778668Y3551527D01*
X5789485Y3577643D01*
X5795000Y3605366D01*
X5795000Y3633633D01*
X5789485Y3661357D01*
X5778668Y3687473D01*
X5762964Y3710976D01*
X5742976Y3730964D01*
X5719473Y3746668D01*
X5693357Y3757485D01*
X5665633Y3763000D01*
X5648628Y3763000D01*
X5232000Y4179628D01*
X5232000Y4191163D01*
X5246683Y4209055D01*
X5258151Y4230510D01*
X5265213Y4253790D01*
X5267000Y4271934D01*
X5267000Y4364067D01*
X5265213Y4382210D01*
X5258151Y4405490D01*
X5246683Y4426945D01*
X5231250Y4445750D01*
X5212445Y4461183D01*
X5190990Y4472651D01*
X5167710Y4479713D01*
X5143500Y4482098D01*
X5119290Y4479713D01*
X5096010Y4472651D01*
X5074555Y4461183D01*
X5055750Y4445750D01*
X5040317Y4426945D01*
X5028849Y4405490D01*
X5021787Y4382210D01*
X5020000Y4364066D01*
X5013000Y4364066D01*
X5013000Y4364067D01*
X5011213Y4382210D01*
X5004151Y4405490D01*
X4992683Y4426945D01*
X4977250Y4445750D01*
X4958445Y4461183D01*
X4936990Y4472651D01*
X4913710Y4479713D01*
X4889500Y4482098D01*
X4865290Y4479713D01*
X4842010Y4472651D01*
X4820555Y4461183D01*
X4801750Y4445750D01*
X4786317Y4426945D01*
X4774849Y4405490D01*
X4767787Y4382210D01*
X4766000Y4364066D01*
X4759000Y4364066D01*
X4759000Y4364067D01*
X4757213Y4382210D01*
X4750151Y4405490D01*
X4738683Y4426945D01*
X4723250Y4445750D01*
X4704445Y4461183D01*
X4682990Y4472651D01*
X4659710Y4479713D01*
X4635500Y4482098D01*
X4611290Y4479713D01*
X4588010Y4472651D01*
X4566555Y4461183D01*
X4547750Y4445750D01*
X4532317Y4426945D01*
X4520849Y4405490D01*
X4513787Y4382210D01*
X4512000Y4364066D01*
X4505000Y4364066D01*
X4505000Y4370700D01*
X4500149Y4394550D01*
X4490739Y4416995D01*
X4477131Y4437173D01*
X4459847Y4454308D01*
X4439553Y4467742D01*
X4417028Y4476959D01*
X4413261Y4477346D01*
X4394200Y4464873D01*
X4368800Y4464873D01*
X4349739Y4477346D01*
X4345972Y4476959D01*
X4323447Y4467742D01*
X4303153Y4454308D01*
X4285869Y4437173D01*
X4272261Y4416995D01*
X4262851Y4394550D01*
X4258000Y4370700D01*
X3254630Y4370700D01*
X3255694Y4381500D01*
X3252924Y4409631D01*
X3244718Y4436681D01*
X3231393Y4461610D01*
X3213461Y4483461D01*
X3191610Y4501393D01*
X3166681Y4514718D01*
X3139631Y4522924D01*
X3118549Y4525000D01*
X3104451Y4525000D01*
X3083369Y4522924D01*
X3056319Y4514718D01*
X3031390Y4501393D01*
X3009539Y4483461D01*
X2991607Y4461610D01*
X2984500Y4448314D01*
X2977393Y4461610D01*
X2959461Y4483461D01*
X2937610Y4501393D01*
X2912681Y4514718D01*
X2885631Y4522924D01*
X2864549Y4525000D01*
X2850451Y4525000D01*
X2829369Y4522924D01*
X2802319Y4514718D01*
X2777390Y4501393D01*
X2755539Y4483461D01*
X2744492Y4470000D01*
X2739128Y4470000D01*
X2722653Y4486474D01*
X2719882Y4489852D01*
X2706406Y4500911D01*
X2691031Y4509129D01*
X2674349Y4514190D01*
X2661348Y4515470D01*
X2661347Y4515470D01*
X2657000Y4515898D01*
X2652653Y4515470D01*
X1907316Y4515470D01*
X1902970Y4515898D01*
X1898623Y4515470D01*
X1898622Y4515470D01*
X1885621Y4514190D01*
X1868939Y4509129D01*
X1853564Y4500911D01*
X1853564Y4500911D01*
X1853564Y4500911D01*
X1843465Y4492623D01*
X1843465Y4492623D01*
X1840088Y4489852D01*
X1837317Y4486475D01*
X1757152Y4406310D01*
X1738603Y4410000D01*
X1706397Y4410000D01*
X1674809Y4403717D01*
X1645054Y4391392D01*
X1618275Y4373499D01*
X1595501Y4350725D01*
X1577608Y4323946D01*
X1565283Y4294191D01*
X1559000Y4262603D01*
X1559000Y4230397D01*
X1565283Y4198809D01*
X1577608Y4169054D01*
X1595501Y4142275D01*
X1618275Y4119501D01*
X1645054Y4101608D01*
X1674809Y4089283D01*
X1676232Y4089000D01*
X680382Y4089000D01*
X680012Y4089553D01*
X660554Y4109012D01*
X637673Y4124300D01*
X612249Y4134831D01*
X585259Y4140200D01*
X557741Y4140200D01*
X530751Y4134831D01*
X505327Y4124300D01*
X482446Y4109012D01*
X462988Y4089553D01*
X447699Y4066673D01*
X437169Y4041249D01*
X431800Y4014259D01*
X229501Y4014259D01*
X229501Y4596499D01*
X970283Y4596499D01*
X955699Y4574673D01*
G36*
X8282630Y2227072D02*
G01*
X8256871Y2217860D01*
X8244349Y2211167D01*
X8237190Y2186770D01*
X8318500Y2105461D01*
X8319914Y2106875D01*
X8337875Y2088914D01*
X8336460Y2087500D01*
X8337875Y2086086D01*
X8319914Y2068125D01*
X8318500Y2069539D01*
X8237190Y1988230D01*
X8244349Y1963833D01*
X8269900Y1951743D01*
X8297318Y1944870D01*
X8325551Y1943478D01*
X8353513Y1947621D01*
X8380129Y1957140D01*
X8388060Y1961379D01*
X8388060Y1713607D01*
X8386473Y1714668D01*
X8360357Y1725485D01*
X8332633Y1731000D01*
X8304366Y1731000D01*
X8276643Y1725485D01*
X8250527Y1714668D01*
X8227024Y1698964D01*
X8207036Y1678976D01*
X8191332Y1655473D01*
X8180515Y1629357D01*
X8175000Y1601633D01*
X8175000Y1573366D01*
X8180515Y1545643D01*
X8191332Y1519527D01*
X8197729Y1509954D01*
X8183063Y1488004D01*
X8172622Y1462799D01*
X8167300Y1436041D01*
X8167300Y1408759D01*
X8172622Y1382001D01*
X8183063Y1356796D01*
X8198220Y1334111D01*
X8203309Y1329023D01*
X8198390Y1326393D01*
X8176539Y1308461D01*
X8158607Y1286610D01*
X8145282Y1261681D01*
X8137076Y1234631D01*
X8134306Y1206500D01*
X8137076Y1178369D01*
X8139815Y1169342D01*
X8030245Y1059773D01*
X8026868Y1057002D01*
X8024097Y1053625D01*
X8024097Y1053625D01*
X8015809Y1043526D01*
X8007591Y1028151D01*
X8002530Y1011469D01*
X8000822Y994120D01*
X8001250Y989772D01*
X8001250Y819378D01*
X7714872Y533000D01*
X7709508Y533000D01*
X7698461Y546461D01*
X7676610Y564393D01*
X7663314Y571500D01*
X7676610Y578607D01*
X7698461Y596539D01*
X7709508Y610000D01*
X7747182Y610000D01*
X7751530Y609572D01*
X7768879Y611281D01*
X7785561Y616341D01*
X7800936Y624559D01*
X7814412Y635618D01*
X7825471Y649094D01*
X7833689Y664469D01*
X7838749Y681151D01*
X7840030Y694152D01*
X7840030Y694152D01*
X7840458Y698500D01*
X7840030Y702848D01*
X7840030Y1150892D01*
X8144295Y1455157D01*
X8147672Y1457928D01*
X8151669Y1462799D01*
X8158731Y1471404D01*
X8158731Y1471404D01*
X8166949Y1486779D01*
X8172009Y1503461D01*
X8173290Y1516462D01*
X8173290Y1516463D01*
X8173718Y1520810D01*
X8173290Y1525156D01*
X8173290Y2080449D01*
X8174478Y2080449D01*
X8178621Y2052487D01*
X8188140Y2025871D01*
X8194833Y2013349D01*
X8219230Y2006190D01*
X8300539Y2087500D01*
X8219230Y2168810D01*
X8194833Y2161651D01*
X8182743Y2136100D01*
X8175870Y2108682D01*
X8174478Y2080449D01*
X8173290Y2080449D01*
X8173290Y2324864D01*
X8173718Y2329210D01*
X8173290Y2333557D01*
X8173290Y2333558D01*
X8172978Y2336724D01*
X8282630Y2227072D01*
X8282630Y2227072D01*
G37*
X8282630Y2227072D02*
X8256871Y2217860D01*
X8244349Y2211167D01*
X8237190Y2186770D01*
X8318500Y2105461D01*
X8319914Y2106875D01*
X8337875Y2088914D01*
X8336460Y2087500D01*
X8337875Y2086086D01*
X8319914Y2068125D01*
X8318500Y2069539D01*
X8237190Y1988230D01*
X8244349Y1963833D01*
X8269900Y1951743D01*
X8297318Y1944870D01*
X8325551Y1943478D01*
X8353513Y1947621D01*
X8380129Y1957140D01*
X8388060Y1961379D01*
X8388060Y1713607D01*
X8386473Y1714668D01*
X8360357Y1725485D01*
X8332633Y1731000D01*
X8304366Y1731000D01*
X8276643Y1725485D01*
X8250527Y1714668D01*
X8227024Y1698964D01*
X8207036Y1678976D01*
X8191332Y1655473D01*
X8180515Y1629357D01*
X8175000Y1601633D01*
X8175000Y1573366D01*
X8180515Y1545643D01*
X8191332Y1519527D01*
X8197729Y1509954D01*
X8183063Y1488004D01*
X8172622Y1462799D01*
X8167300Y1436041D01*
X8167300Y1408759D01*
X8172622Y1382001D01*
X8183063Y1356796D01*
X8198220Y1334111D01*
X8203309Y1329023D01*
X8198390Y1326393D01*
X8176539Y1308461D01*
X8158607Y1286610D01*
X8145282Y1261681D01*
X8137076Y1234631D01*
X8134306Y1206500D01*
X8137076Y1178369D01*
X8139815Y1169342D01*
X8030245Y1059773D01*
X8026868Y1057002D01*
X8024097Y1053625D01*
X8024097Y1053625D01*
X8015809Y1043526D01*
X8007591Y1028151D01*
X8002530Y1011469D01*
X8000822Y994120D01*
X8001250Y989772D01*
X8001250Y819378D01*
X7714872Y533000D01*
X7709508Y533000D01*
X7698461Y546461D01*
X7676610Y564393D01*
X7663314Y571500D01*
X7676610Y578607D01*
X7698461Y596539D01*
X7709508Y610000D01*
X7747182Y610000D01*
X7751530Y609572D01*
X7768879Y611281D01*
X7785561Y616341D01*
X7800936Y624559D01*
X7814412Y635618D01*
X7825471Y649094D01*
X7833689Y664469D01*
X7838749Y681151D01*
X7840030Y694152D01*
X7840030Y694152D01*
X7840458Y698500D01*
X7840030Y702848D01*
X7840030Y1150892D01*
X8144295Y1455157D01*
X8147672Y1457928D01*
X8151669Y1462799D01*
X8158731Y1471404D01*
X8158731Y1471404D01*
X8166949Y1486779D01*
X8172009Y1503461D01*
X8173290Y1516462D01*
X8173290Y1516463D01*
X8173718Y1520810D01*
X8173290Y1525156D01*
X8173290Y2080449D01*
X8174478Y2080449D01*
X8178621Y2052487D01*
X8188140Y2025871D01*
X8194833Y2013349D01*
X8219230Y2006190D01*
X8300539Y2087500D01*
X8219230Y2168810D01*
X8194833Y2161651D01*
X8182743Y2136100D01*
X8175870Y2108682D01*
X8174478Y2080449D01*
X8173290Y2080449D01*
X8173290Y2324864D01*
X8173718Y2329210D01*
X8173290Y2333557D01*
X8173290Y2333558D01*
X8172978Y2336724D01*
X8282630Y2227072D01*
G36*
X7996290Y1714650D02*
G01*
X7978100Y1723257D01*
X7950682Y1730130D01*
X7922449Y1731522D01*
X7894487Y1727379D01*
X7867871Y1717860D01*
X7855349Y1711167D01*
X7848190Y1686770D01*
X7929500Y1605460D01*
X7930914Y1606875D01*
X7948875Y1588914D01*
X7947460Y1587500D01*
X7948875Y1586086D01*
X7930914Y1568125D01*
X7929500Y1569539D01*
X7848190Y1488230D01*
X7855349Y1463833D01*
X7880900Y1451743D01*
X7888628Y1449806D01*
X7719542Y1280720D01*
X7716393Y1286610D01*
X7698461Y1308461D01*
X7676610Y1326393D01*
X7651681Y1339718D01*
X7624631Y1347924D01*
X7603549Y1350000D01*
X7509451Y1350000D01*
X7488369Y1347924D01*
X7461319Y1339718D01*
X7449970Y1333652D01*
X7449970Y1445260D01*
X7471357Y1449515D01*
X7497473Y1460332D01*
X7520976Y1476036D01*
X7540964Y1496024D01*
X7556668Y1519527D01*
X7567485Y1545643D01*
X7573000Y1573366D01*
X7573000Y1580449D01*
X7785478Y1580449D01*
X7789621Y1552487D01*
X7799140Y1525871D01*
X7805833Y1513349D01*
X7830230Y1506190D01*
X7911539Y1587500D01*
X7830230Y1668810D01*
X7805833Y1661651D01*
X7793743Y1636100D01*
X7786870Y1608682D01*
X7785478Y1580449D01*
X7573000Y1580449D01*
X7573000Y1601633D01*
X7567485Y1629357D01*
X7556668Y1655473D01*
X7540964Y1678976D01*
X7520976Y1698964D01*
X7497473Y1714668D01*
X7471357Y1725485D01*
X7462435Y1727260D01*
X7678813Y1727260D01*
X7683160Y1726832D01*
X7687507Y1727260D01*
X7687508Y1727260D01*
X7700509Y1728540D01*
X7717191Y1733601D01*
X7732566Y1741819D01*
X7746042Y1752878D01*
X7748813Y1756256D01*
X7925174Y1932616D01*
X7937500Y1931402D01*
X7961710Y1933787D01*
X7984990Y1940849D01*
X7996290Y1946889D01*
X7996290Y1714650D01*
X7996290Y1714650D01*
G37*
X7996290Y1714650D02*
X7978100Y1723257D01*
X7950682Y1730130D01*
X7922449Y1731522D01*
X7894487Y1727379D01*
X7867871Y1717860D01*
X7855349Y1711167D01*
X7848190Y1686770D01*
X7929500Y1605460D01*
X7930914Y1606875D01*
X7948875Y1588914D01*
X7947460Y1587500D01*
X7948875Y1586086D01*
X7930914Y1568125D01*
X7929500Y1569539D01*
X7848190Y1488230D01*
X7855349Y1463833D01*
X7880900Y1451743D01*
X7888628Y1449806D01*
X7719542Y1280720D01*
X7716393Y1286610D01*
X7698461Y1308461D01*
X7676610Y1326393D01*
X7651681Y1339718D01*
X7624631Y1347924D01*
X7603549Y1350000D01*
X7509451Y1350000D01*
X7488369Y1347924D01*
X7461319Y1339718D01*
X7449970Y1333652D01*
X7449970Y1445260D01*
X7471357Y1449515D01*
X7497473Y1460332D01*
X7520976Y1476036D01*
X7540964Y1496024D01*
X7556668Y1519527D01*
X7567485Y1545643D01*
X7573000Y1573366D01*
X7573000Y1580449D01*
X7785478Y1580449D01*
X7789621Y1552487D01*
X7799140Y1525871D01*
X7805833Y1513349D01*
X7830230Y1506190D01*
X7911539Y1587500D01*
X7830230Y1668810D01*
X7805833Y1661651D01*
X7793743Y1636100D01*
X7786870Y1608682D01*
X7785478Y1580449D01*
X7573000Y1580449D01*
X7573000Y1601633D01*
X7567485Y1629357D01*
X7556668Y1655473D01*
X7540964Y1678976D01*
X7520976Y1698964D01*
X7497473Y1714668D01*
X7471357Y1725485D01*
X7462435Y1727260D01*
X7678813Y1727260D01*
X7683160Y1726832D01*
X7687507Y1727260D01*
X7687508Y1727260D01*
X7700509Y1728540D01*
X7717191Y1733601D01*
X7732566Y1741819D01*
X7746042Y1752878D01*
X7748813Y1756256D01*
X7925174Y1932616D01*
X7937500Y1931402D01*
X7961710Y1933787D01*
X7984990Y1940849D01*
X7996290Y1946889D01*
X7996290Y1714650D01*
M02*
