G04 #@! TF.GenerationSoftware,KiCad,Pcbnew,5.1.2-f72e74a~84~ubuntu18.04.1*
G04 #@! TF.CreationDate,2019-05-23T00:02:26+03:00*
G04 #@! TF.ProjectId,manipulyator-v3 (3),6d616e69-7075-46c7-9961-746f722d7633,rev?*
G04 #@! TF.SameCoordinates,Original*
G04 #@! TF.FileFunction,Copper,L1,Top*
G04 #@! TF.FilePolarity,Positive*
%FSLAX45Y45*%
G04 Gerber Fmt 4.5, Leading zero omitted, Abs format (unit mm)*
G04 Created by KiCad (PCBNEW 5.1.2-f72e74a~84~ubuntu18.04.1) date 2019-05-23 00:02:26*
%MOMM*%
%LPD*%
G04 APERTURE LIST*
%ADD10R,2.400000X1.600000*%
%ADD11O,2.400000X1.600000*%
%ADD12O,1.200000X2.000000*%
%ADD13R,1.600000X1.600000*%
%ADD14C,1.600000*%
%ADD15O,1.600000X1.600000*%
%ADD16C,1.524000*%
%ADD17C,2.000000*%
%ADD18C,2.340000*%
%ADD19C,1.500000*%
%ADD20R,1.500000X1.500000*%
%ADD21C,0.500000*%
%ADD22C,0.254000*%
G04 APERTURE END LIST*
D10*
X8318500Y444500D03*
D11*
X7556500Y1206500D03*
X8318500Y698500D03*
X7556500Y952500D03*
X8318500Y952500D03*
X7556500Y698500D03*
X8318500Y1206500D03*
X7556500Y444500D03*
D12*
X6921500Y2095500D03*
X7175500Y2095500D03*
X7429500Y2095500D03*
X7683500Y2095500D03*
X7937500Y2095500D03*
D13*
X317500Y317500D03*
D14*
X571500Y317500D03*
X825500Y317500D03*
X1079500Y317500D03*
X1333500Y317500D03*
X1587500Y317500D03*
X1841500Y317500D03*
X2095500Y317500D03*
X2349500Y317500D03*
X2603500Y317500D03*
X2857500Y317500D03*
X3111500Y317500D03*
X3111500Y1841500D03*
X2857500Y1841500D03*
X2603500Y1841500D03*
X2349500Y1841500D03*
X2095500Y1841500D03*
X1841500Y1841500D03*
X1587500Y1841500D03*
X1333500Y1841500D03*
X1079500Y1841500D03*
X825500Y1841500D03*
X571500Y1841500D03*
X317500Y1841500D03*
D15*
X2857500Y3111500D03*
X3111500Y2349500D03*
X3111500Y3111500D03*
D13*
X2857500Y2349500D03*
D15*
X2857500Y4381500D03*
X3111500Y3619500D03*
X3111500Y4381500D03*
D13*
X2857500Y3619500D03*
D15*
X4635500Y2222500D03*
D14*
X3619500Y2222500D03*
D15*
X4635500Y2603500D03*
D14*
X3619500Y2603500D03*
D16*
X571500Y2730500D03*
X1079500Y3238500D03*
X1079500Y2984500D03*
X1079500Y2476500D03*
X1079500Y2222500D03*
X571500Y4000500D03*
X1079500Y4508500D03*
X1079500Y4254500D03*
X1079500Y3746500D03*
X1079500Y3492500D03*
X5397500Y571500D03*
X4889500Y1079500D03*
X5143500Y1079500D03*
X5651500Y1079500D03*
X5905500Y1079500D03*
D17*
X1714500Y2484500D03*
X2214500Y2484500D03*
X2214500Y2984500D03*
X1714500Y2984500D03*
X1722500Y3746500D03*
X2222500Y3746500D03*
X2222500Y4246500D03*
X1722500Y4246500D03*
D16*
X4508500Y1079500D03*
X4254500Y1079500D03*
X3746500Y1079500D03*
X3492500Y1079500D03*
X4000500Y571500D03*
D18*
X6413500Y1460500D03*
X6663500Y460500D03*
X6913500Y1460500D03*
D15*
X2349500Y1206500D03*
D14*
X1333500Y1206500D03*
D13*
X4699000Y3810000D03*
D15*
X4699000Y3048000D03*
D12*
X4381500Y4318000D03*
X4635500Y4318000D03*
X4889500Y4318000D03*
X5143500Y4318000D03*
D14*
X7929500Y1587500D03*
X7429500Y1587500D03*
X8318500Y1587500D03*
X8318500Y2087500D03*
D13*
X3873500Y3810000D03*
D15*
X3873500Y3048000D03*
X4254500Y3810000D03*
D13*
X4254500Y3048000D03*
D19*
X5080000Y1524000D03*
X4826000Y1778000D03*
D20*
X5334000Y1778000D03*
D15*
X2349500Y825500D03*
D14*
X1333500Y825500D03*
X5143500Y3302000D03*
D15*
X5143500Y2286000D03*
X5651500Y2603500D03*
D14*
X5651500Y3619500D03*
X4508500Y1587500D03*
D15*
X3492500Y1587500D03*
D14*
X7810500Y2603500D03*
D15*
X6794500Y2603500D03*
D13*
X5969000Y1651000D03*
D14*
X5719000Y1651000D03*
D19*
X7645400Y2336800D03*
X2819400Y2032000D03*
X6477000Y1828800D03*
X3327400Y1900910D03*
X2463800Y558800D03*
X2717800Y863600D03*
X2717800Y1168400D03*
X3969544Y2558256D03*
X8305800Y1828800D03*
X7934790Y1828800D03*
X6684666Y2087266D03*
X5003800Y2032000D03*
X8305800Y1422400D03*
X8584700Y914400D03*
D17*
X6380240Y2862730D03*
D19*
X3886200Y3251200D03*
X2135020Y2106780D03*
X2717800Y1422400D03*
X2108200Y558800D03*
D21*
X2701950Y2464500D02*
X3000140Y2762690D01*
X3000140Y2762690D02*
X6188650Y2762690D01*
X6188650Y2762690D02*
X6680810Y2270530D01*
X6747080Y2336800D02*
X6680810Y2270530D01*
X7645400Y2336800D02*
X6747080Y2336800D01*
X2702500Y2463950D02*
X2701950Y2464500D01*
X2702500Y2148900D02*
X2702500Y2463950D01*
X2819400Y2032000D02*
X2702500Y2148900D01*
X5654740Y1828800D02*
X6477000Y1828800D01*
X5196130Y1627960D02*
X5446520Y1627960D01*
X4420220Y1900910D02*
X4697090Y1624040D01*
X3327400Y1900910D02*
X4420220Y1900910D01*
X4697090Y1624040D02*
X4926040Y1624040D01*
X4926040Y1624040D02*
X4976040Y1674040D01*
X4976040Y1674040D02*
X5150050Y1674040D01*
X5651050Y1832490D02*
X5654740Y1828800D01*
X5446520Y1627960D02*
X5651050Y1832490D01*
X5150050Y1674040D02*
X5196130Y1627960D01*
X2589600Y633800D02*
X2717800Y762000D01*
X2717800Y863600D02*
X2717800Y1168400D01*
X2463800Y558800D02*
X2538800Y633800D01*
X2717800Y762000D02*
X2717800Y863600D01*
X2538800Y633800D02*
X2589600Y633800D01*
X8305800Y1828800D02*
X7934790Y1828800D01*
X7934790Y1828800D02*
X6943132Y1828800D01*
X6943132Y1828800D02*
X6684666Y2087266D01*
X4897734Y2032000D02*
X5003800Y2032000D01*
X6684666Y2087266D02*
X5059066Y2087266D01*
X4596600Y2032000D02*
X4897734Y2032000D01*
X4146550Y2381250D02*
X4247350Y2381250D01*
X5059066Y2087266D02*
X5003800Y2032000D01*
X3969544Y2558256D02*
X4146550Y2381250D01*
X4247350Y2381250D02*
X4596600Y2032000D01*
X7589250Y952500D02*
X7556500Y952500D01*
X8584700Y1249566D02*
X8584700Y914400D01*
X8305800Y1422400D02*
X8411866Y1422400D01*
X8411866Y1422400D02*
X8584700Y1249566D01*
X6380240Y2862730D02*
X6380240Y2862730D01*
X6380240Y2862730D02*
X4173650Y2862730D01*
X3626940Y2956470D02*
X2984710Y2956470D01*
X3626940Y3098006D02*
X3626940Y2956470D01*
X3780134Y3251200D02*
X3626940Y3098006D01*
X3886200Y3251200D02*
X3780134Y3251200D01*
X4173650Y2862730D02*
X4038600Y2997780D01*
X4038600Y3098800D02*
X3886200Y3251200D01*
X4038600Y2997780D02*
X4038600Y3098800D01*
X2984710Y2956470D02*
X2135020Y2106780D01*
X2135020Y2106780D02*
X2099500Y2071260D01*
X2095500Y1176330D02*
X2095500Y1181900D01*
X2336000Y1422400D02*
X2717800Y1422400D01*
X2095500Y1181900D02*
X2336000Y1422400D01*
X2108200Y1169200D02*
X2095500Y1181900D01*
X2108200Y558800D02*
X2108200Y1169200D01*
D22*
G36*
X8646200Y1313582D02*
G01*
X8644205Y1315219D01*
X8477519Y1481904D01*
X8474748Y1485282D01*
X8461272Y1496341D01*
X8445897Y1504559D01*
X8437391Y1507139D01*
X8445668Y1519527D01*
X8456485Y1545643D01*
X8462000Y1573366D01*
X8462000Y1601633D01*
X8456485Y1629357D01*
X8445668Y1655473D01*
X8429964Y1678976D01*
X8409976Y1698964D01*
X8386473Y1714668D01*
X8360357Y1725485D01*
X8332633Y1731000D01*
X8304366Y1731000D01*
X8276643Y1725485D01*
X8250527Y1714668D01*
X8227024Y1698964D01*
X8207036Y1678976D01*
X8191332Y1655473D01*
X8180515Y1629357D01*
X8175000Y1601633D01*
X8175000Y1573366D01*
X8180515Y1545643D01*
X8191332Y1519527D01*
X8197729Y1509954D01*
X8183063Y1488004D01*
X8172622Y1462799D01*
X8167300Y1436041D01*
X8167300Y1408759D01*
X8172622Y1382001D01*
X8183063Y1356796D01*
X8198220Y1334111D01*
X8203309Y1329023D01*
X8198390Y1326393D01*
X8176539Y1308461D01*
X8158607Y1286610D01*
X8145282Y1261681D01*
X8137076Y1234631D01*
X8134306Y1206500D01*
X8137076Y1178369D01*
X8145282Y1151319D01*
X8158607Y1126390D01*
X8176539Y1104539D01*
X8198390Y1086607D01*
X8211686Y1079500D01*
X8198390Y1072393D01*
X8176539Y1054461D01*
X8158607Y1032610D01*
X8145282Y1007681D01*
X8137076Y980631D01*
X8134306Y952500D01*
X8137076Y924369D01*
X8145282Y897319D01*
X8158607Y872390D01*
X8176539Y850539D01*
X8198390Y832607D01*
X8211686Y825500D01*
X8198390Y818393D01*
X8176539Y800461D01*
X8158607Y778610D01*
X8145282Y753681D01*
X8137076Y726631D01*
X8134306Y698500D01*
X8137076Y670369D01*
X8145282Y643319D01*
X8158607Y618390D01*
X8176539Y596539D01*
X8187848Y587258D01*
X8186052Y587081D01*
X8174082Y583450D01*
X8163051Y577554D01*
X8153381Y569619D01*
X8145446Y559949D01*
X8139550Y548918D01*
X8135919Y536948D01*
X8134693Y524500D01*
X8134693Y364500D01*
X8135919Y352052D01*
X8139550Y340082D01*
X8145446Y329051D01*
X8153381Y319382D01*
X8163051Y311446D01*
X8174082Y305550D01*
X8186052Y301919D01*
X8198500Y300693D01*
X8438500Y300693D01*
X8450948Y301919D01*
X8462918Y305550D01*
X8473949Y311446D01*
X8483619Y319382D01*
X8491554Y329051D01*
X8497450Y340082D01*
X8501081Y352052D01*
X8502307Y364500D01*
X8502307Y524500D01*
X8501081Y536948D01*
X8497450Y548918D01*
X8491554Y559949D01*
X8483619Y569619D01*
X8473949Y577554D01*
X8462918Y583450D01*
X8450948Y587081D01*
X8449152Y587258D01*
X8460461Y596539D01*
X8478393Y618390D01*
X8491718Y643319D01*
X8499924Y670369D01*
X8502694Y698500D01*
X8499924Y726631D01*
X8491718Y753681D01*
X8478393Y778610D01*
X8460461Y800461D01*
X8438610Y818393D01*
X8425314Y825500D01*
X8438610Y832607D01*
X8460461Y850539D01*
X8460979Y851171D01*
X8461963Y848796D01*
X8477120Y826111D01*
X8496411Y806820D01*
X8519096Y791663D01*
X8544301Y781222D01*
X8571059Y775900D01*
X8598341Y775900D01*
X8625099Y781222D01*
X8646200Y789963D01*
X8646200Y129500D01*
X129500Y129500D01*
X129500Y397500D01*
X173693Y397500D01*
X173693Y237500D01*
X174919Y225052D01*
X178550Y213082D01*
X184446Y202051D01*
X192381Y192381D01*
X202051Y184446D01*
X213082Y178550D01*
X225052Y174919D01*
X237500Y173693D01*
X397500Y173693D01*
X409948Y174919D01*
X421918Y178550D01*
X432949Y184446D01*
X442618Y192381D01*
X450554Y202051D01*
X456450Y213082D01*
X460081Y225052D01*
X460164Y225896D01*
X480024Y206036D01*
X503527Y190332D01*
X529643Y179515D01*
X557367Y174000D01*
X585634Y174000D01*
X613357Y179515D01*
X639473Y190332D01*
X662976Y206036D01*
X675169Y218230D01*
X744190Y218230D01*
X751349Y193833D01*
X776900Y181743D01*
X804318Y174870D01*
X832551Y173478D01*
X860513Y177621D01*
X887129Y187140D01*
X899651Y193833D01*
X906810Y218230D01*
X998190Y218230D01*
X1005349Y193833D01*
X1030900Y181743D01*
X1058318Y174870D01*
X1086551Y173478D01*
X1114513Y177621D01*
X1141129Y187140D01*
X1153651Y193833D01*
X1160810Y218230D01*
X1079500Y299540D01*
X998190Y218230D01*
X906810Y218230D01*
X825500Y299540D01*
X744190Y218230D01*
X675169Y218230D01*
X682964Y226024D01*
X698592Y249413D01*
X701833Y243349D01*
X726230Y236190D01*
X807539Y317500D01*
X843460Y317500D01*
X924770Y236190D01*
X949167Y243349D01*
X952297Y249964D01*
X955833Y243349D01*
X980230Y236190D01*
X1061540Y317500D01*
X1097461Y317500D01*
X1178770Y236190D01*
X1203167Y243349D01*
X1206219Y249799D01*
X1206332Y249527D01*
X1222036Y226024D01*
X1242024Y206036D01*
X1265527Y190332D01*
X1291643Y179515D01*
X1319367Y174000D01*
X1347634Y174000D01*
X1375357Y179515D01*
X1401473Y190332D01*
X1424976Y206036D01*
X1444964Y226024D01*
X1460500Y249276D01*
X1476036Y226024D01*
X1496024Y206036D01*
X1519527Y190332D01*
X1545643Y179515D01*
X1573366Y174000D01*
X1601633Y174000D01*
X1629357Y179515D01*
X1655473Y190332D01*
X1678976Y206036D01*
X1698964Y226024D01*
X1714500Y249276D01*
X1730036Y226024D01*
X1750024Y206036D01*
X1773527Y190332D01*
X1799643Y179515D01*
X1827366Y174000D01*
X1855633Y174000D01*
X1883357Y179515D01*
X1909473Y190332D01*
X1932976Y206036D01*
X1952964Y226024D01*
X1968500Y249276D01*
X1984036Y226024D01*
X2004024Y206036D01*
X2027527Y190332D01*
X2053643Y179515D01*
X2081366Y174000D01*
X2109634Y174000D01*
X2137357Y179515D01*
X2163473Y190332D01*
X2186976Y206036D01*
X2206964Y226024D01*
X2222500Y249276D01*
X2238036Y226024D01*
X2258024Y206036D01*
X2281527Y190332D01*
X2307643Y179515D01*
X2335367Y174000D01*
X2363634Y174000D01*
X2391357Y179515D01*
X2417473Y190332D01*
X2440976Y206036D01*
X2460964Y226024D01*
X2476500Y249276D01*
X2492036Y226024D01*
X2512024Y206036D01*
X2535527Y190332D01*
X2561643Y179515D01*
X2589367Y174000D01*
X2617634Y174000D01*
X2645357Y179515D01*
X2671473Y190332D01*
X2694976Y206036D01*
X2714964Y226024D01*
X2730500Y249276D01*
X2746036Y226024D01*
X2766024Y206036D01*
X2789527Y190332D01*
X2815643Y179515D01*
X2843366Y174000D01*
X2871633Y174000D01*
X2899357Y179515D01*
X2925473Y190332D01*
X2948976Y206036D01*
X2968964Y226024D01*
X2984500Y249276D01*
X3000036Y226024D01*
X3020024Y206036D01*
X3043527Y190332D01*
X3069643Y179515D01*
X3097366Y174000D01*
X3125633Y174000D01*
X3153357Y179515D01*
X3179473Y190332D01*
X3202976Y206036D01*
X3222964Y226024D01*
X3238668Y249527D01*
X3249485Y275643D01*
X3255000Y303367D01*
X3255000Y331634D01*
X3249485Y359357D01*
X3238668Y385473D01*
X3222964Y408976D01*
X3202976Y428964D01*
X3179473Y444668D01*
X3153357Y455485D01*
X3125633Y461000D01*
X3097366Y461000D01*
X3069643Y455485D01*
X3043527Y444668D01*
X3020024Y428964D01*
X3000036Y408976D01*
X2984500Y385724D01*
X2968964Y408976D01*
X2948976Y428964D01*
X2925473Y444668D01*
X2899357Y455485D01*
X2871633Y461000D01*
X2843366Y461000D01*
X2815643Y455485D01*
X2789527Y444668D01*
X2766024Y428964D01*
X2746036Y408976D01*
X2730500Y385724D01*
X2714964Y408976D01*
X2694976Y428964D01*
X2671473Y444668D01*
X2645357Y455485D01*
X2617634Y461000D01*
X2589367Y461000D01*
X2561643Y455485D01*
X2552614Y451746D01*
X2571380Y470511D01*
X2574341Y474943D01*
X3921904Y474943D01*
X3928602Y450934D01*
X3953505Y439224D01*
X3980213Y432598D01*
X4007702Y431309D01*
X4034913Y435408D01*
X4060802Y444736D01*
X4072398Y450934D01*
X4079096Y474943D01*
X5318904Y474943D01*
X5325602Y450934D01*
X5350505Y439224D01*
X5377214Y432598D01*
X5404702Y431309D01*
X5431913Y435408D01*
X5457802Y444736D01*
X5469398Y450934D01*
X5476096Y474943D01*
X5472762Y478278D01*
X6483000Y478278D01*
X6483000Y442722D01*
X6489936Y407850D01*
X6503543Y375001D01*
X6523296Y345438D01*
X6548438Y320297D01*
X6578001Y300543D01*
X6610850Y286937D01*
X6645722Y280000D01*
X6681278Y280000D01*
X6716150Y286937D01*
X6748999Y300543D01*
X6778562Y320297D01*
X6803703Y345438D01*
X6823457Y375001D01*
X6837063Y407850D01*
X6844000Y442722D01*
X6844000Y478278D01*
X6837063Y513150D01*
X6823457Y545999D01*
X6803703Y575562D01*
X6778562Y600704D01*
X6748999Y620457D01*
X6716150Y634064D01*
X6681278Y641000D01*
X6645722Y641000D01*
X6610850Y634064D01*
X6578001Y620457D01*
X6548438Y600704D01*
X6523296Y575562D01*
X6503543Y545999D01*
X6489936Y513150D01*
X6483000Y478278D01*
X5472762Y478278D01*
X5397500Y553540D01*
X5318904Y474943D01*
X4079096Y474943D01*
X4000500Y553540D01*
X3921904Y474943D01*
X2574341Y474943D01*
X2586537Y493196D01*
X2596978Y518401D01*
X2602300Y545159D01*
X2602300Y546123D01*
X2606949Y546580D01*
X2623631Y551641D01*
X2639006Y559859D01*
X2644415Y564298D01*
X3860309Y564298D01*
X3864408Y537087D01*
X3873736Y511198D01*
X3879934Y499602D01*
X3903943Y492904D01*
X3982539Y571500D01*
X4018460Y571500D01*
X4097056Y492904D01*
X4121066Y499602D01*
X4132776Y524505D01*
X4139402Y551214D01*
X4140016Y564298D01*
X5257309Y564298D01*
X5261408Y537087D01*
X5270736Y511198D01*
X5276934Y499602D01*
X5300944Y492904D01*
X5379540Y571500D01*
X5415461Y571500D01*
X5494057Y492904D01*
X5518066Y499602D01*
X5529776Y524505D01*
X5536402Y551214D01*
X5537691Y578702D01*
X5533592Y605913D01*
X5524264Y631802D01*
X5518066Y643398D01*
X5494057Y650096D01*
X5415461Y571500D01*
X5379540Y571500D01*
X5300944Y650096D01*
X5276934Y643398D01*
X5265224Y618495D01*
X5258598Y591787D01*
X5257309Y564298D01*
X4140016Y564298D01*
X4140691Y578702D01*
X4136592Y605913D01*
X4127264Y631802D01*
X4121066Y643398D01*
X4097056Y650096D01*
X4018460Y571500D01*
X3982539Y571500D01*
X3903943Y650096D01*
X3879934Y643398D01*
X3868224Y618495D01*
X3861598Y591787D01*
X3860309Y564298D01*
X2644415Y564298D01*
X2652482Y570918D01*
X2655253Y574296D01*
X2749014Y668057D01*
X3921904Y668057D01*
X4000500Y589461D01*
X4079096Y668057D01*
X5318904Y668057D01*
X5397500Y589461D01*
X5476096Y668057D01*
X5469398Y692066D01*
X5444495Y703776D01*
X5417787Y710402D01*
X5390298Y711691D01*
X5363087Y707592D01*
X5337198Y698264D01*
X5325602Y692066D01*
X5318904Y668057D01*
X4079096Y668057D01*
X4072398Y692066D01*
X4047495Y703776D01*
X4020786Y710402D01*
X3993298Y711691D01*
X3966087Y707592D01*
X3940198Y698264D01*
X3928602Y692066D01*
X3921904Y668057D01*
X2749014Y668057D01*
X2777305Y696347D01*
X2780682Y699118D01*
X2791741Y712594D01*
X2799959Y727969D01*
X2805019Y744651D01*
X2806145Y756076D01*
X2825380Y775311D01*
X2840537Y797996D01*
X2850977Y823201D01*
X2856300Y849959D01*
X2856300Y877241D01*
X2850977Y903999D01*
X2840537Y929204D01*
X2825380Y951889D01*
X2806300Y970968D01*
X2806300Y1061032D01*
X2825380Y1080111D01*
X2834165Y1093259D01*
X3352800Y1093259D01*
X3352800Y1065741D01*
X3358169Y1038751D01*
X3368699Y1013327D01*
X3383988Y990446D01*
X3403446Y970988D01*
X3426327Y955699D01*
X3451751Y945169D01*
X3478741Y939800D01*
X3506259Y939800D01*
X3533249Y945169D01*
X3558673Y955699D01*
X3581553Y970988D01*
X3601012Y990446D01*
X3616300Y1013327D01*
X3619500Y1021051D01*
X3622699Y1013327D01*
X3637988Y990446D01*
X3657446Y970988D01*
X3680327Y955699D01*
X3705751Y945169D01*
X3732741Y939800D01*
X3760259Y939800D01*
X3787249Y945169D01*
X3812673Y955699D01*
X3835553Y970988D01*
X3855012Y990446D01*
X3870300Y1013327D01*
X3880831Y1038751D01*
X3886200Y1065741D01*
X3886200Y1093259D01*
X4114800Y1093259D01*
X4114800Y1065741D01*
X4120169Y1038751D01*
X4130699Y1013327D01*
X4145988Y990446D01*
X4165446Y970988D01*
X4188327Y955699D01*
X4213751Y945169D01*
X4240741Y939800D01*
X4268259Y939800D01*
X4295249Y945169D01*
X4320673Y955699D01*
X4343554Y970988D01*
X4363012Y990446D01*
X4378301Y1013327D01*
X4381500Y1021051D01*
X4384700Y1013327D01*
X4399988Y990446D01*
X4419447Y970988D01*
X4442327Y955699D01*
X4467751Y945169D01*
X4494741Y939800D01*
X4522259Y939800D01*
X4549249Y945169D01*
X4574673Y955699D01*
X4597554Y970988D01*
X4617012Y990446D01*
X4632301Y1013327D01*
X4642831Y1038751D01*
X4648200Y1065741D01*
X4648200Y1093259D01*
X4749800Y1093259D01*
X4749800Y1065741D01*
X4755169Y1038751D01*
X4765700Y1013327D01*
X4780988Y990446D01*
X4800447Y970988D01*
X4823327Y955699D01*
X4848751Y945169D01*
X4875741Y939800D01*
X4903259Y939800D01*
X4930249Y945169D01*
X4955673Y955699D01*
X4978554Y970988D01*
X4998012Y990446D01*
X5013301Y1013327D01*
X5016500Y1021051D01*
X5019700Y1013327D01*
X5034988Y990446D01*
X5054447Y970988D01*
X5077327Y955699D01*
X5102751Y945169D01*
X5129741Y939800D01*
X5157259Y939800D01*
X5184249Y945169D01*
X5209673Y955699D01*
X5232554Y970988D01*
X5252012Y990446D01*
X5267301Y1013327D01*
X5277831Y1038751D01*
X5283200Y1065741D01*
X5283200Y1093259D01*
X5511800Y1093259D01*
X5511800Y1065741D01*
X5517169Y1038751D01*
X5527700Y1013327D01*
X5542988Y990446D01*
X5562447Y970988D01*
X5585327Y955699D01*
X5610751Y945169D01*
X5637741Y939800D01*
X5665259Y939800D01*
X5692249Y945169D01*
X5717673Y955699D01*
X5740553Y970988D01*
X5760012Y990446D01*
X5775300Y1013327D01*
X5778500Y1021051D01*
X5781699Y1013327D01*
X5796988Y990446D01*
X5816446Y970988D01*
X5839327Y955699D01*
X5864751Y945169D01*
X5891741Y939800D01*
X5919259Y939800D01*
X5946249Y945169D01*
X5971673Y955699D01*
X5994553Y970988D01*
X6014012Y990446D01*
X6029300Y1013327D01*
X6039831Y1038751D01*
X6045200Y1065741D01*
X6045200Y1093259D01*
X6039831Y1120249D01*
X6029300Y1145673D01*
X6014012Y1168554D01*
X5994553Y1188012D01*
X5971673Y1203301D01*
X5963948Y1206500D01*
X7372306Y1206500D01*
X7375076Y1178369D01*
X7383282Y1151319D01*
X7396607Y1126390D01*
X7414539Y1104539D01*
X7436390Y1086607D01*
X7449686Y1079500D01*
X7436390Y1072393D01*
X7414539Y1054461D01*
X7396607Y1032610D01*
X7383282Y1007681D01*
X7375076Y980631D01*
X7372306Y952500D01*
X7375076Y924369D01*
X7383282Y897319D01*
X7396607Y872390D01*
X7414539Y850539D01*
X7436390Y832607D01*
X7449686Y825500D01*
X7436390Y818393D01*
X7414539Y800461D01*
X7396607Y778610D01*
X7383282Y753681D01*
X7375076Y726631D01*
X7372306Y698500D01*
X7375076Y670369D01*
X7383282Y643319D01*
X7396607Y618390D01*
X7414539Y596539D01*
X7436390Y578607D01*
X7449686Y571500D01*
X7436390Y564393D01*
X7414539Y546461D01*
X7396607Y524610D01*
X7383282Y499681D01*
X7375076Y472631D01*
X7372306Y444500D01*
X7375076Y416369D01*
X7383282Y389319D01*
X7396607Y364390D01*
X7414539Y342539D01*
X7436390Y324607D01*
X7461319Y311282D01*
X7488369Y303076D01*
X7509451Y301000D01*
X7603549Y301000D01*
X7624631Y303076D01*
X7651681Y311282D01*
X7676610Y324607D01*
X7698461Y342539D01*
X7716393Y364390D01*
X7729718Y389319D01*
X7737924Y416369D01*
X7740694Y444500D01*
X7737924Y472631D01*
X7729718Y499681D01*
X7716393Y524610D01*
X7698461Y546461D01*
X7676610Y564393D01*
X7663314Y571500D01*
X7676610Y578607D01*
X7698461Y596539D01*
X7716393Y618390D01*
X7729718Y643319D01*
X7737924Y670369D01*
X7740694Y698500D01*
X7737924Y726631D01*
X7729718Y753681D01*
X7716393Y778610D01*
X7698461Y800461D01*
X7676610Y818393D01*
X7663314Y825500D01*
X7676610Y832607D01*
X7698461Y850539D01*
X7716393Y872390D01*
X7729718Y897319D01*
X7737924Y924369D01*
X7740694Y952500D01*
X7737924Y980631D01*
X7729718Y1007681D01*
X7716393Y1032610D01*
X7698461Y1054461D01*
X7676610Y1072393D01*
X7663314Y1079500D01*
X7676610Y1086607D01*
X7698461Y1104539D01*
X7716393Y1126390D01*
X7729718Y1151319D01*
X7737924Y1178369D01*
X7740694Y1206500D01*
X7737924Y1234631D01*
X7729718Y1261681D01*
X7716393Y1286610D01*
X7698461Y1308461D01*
X7676610Y1326393D01*
X7651681Y1339718D01*
X7624631Y1347924D01*
X7603549Y1350000D01*
X7509451Y1350000D01*
X7488369Y1347924D01*
X7461319Y1339718D01*
X7436390Y1326393D01*
X7414539Y1308461D01*
X7396607Y1286610D01*
X7383282Y1261681D01*
X7375076Y1234631D01*
X7372306Y1206500D01*
X5963948Y1206500D01*
X5946249Y1213831D01*
X5919259Y1219200D01*
X5891741Y1219200D01*
X5864751Y1213831D01*
X5839327Y1203301D01*
X5816446Y1188012D01*
X5796988Y1168554D01*
X5781699Y1145673D01*
X5778500Y1137949D01*
X5775300Y1145673D01*
X5760012Y1168554D01*
X5740553Y1188012D01*
X5717673Y1203301D01*
X5692249Y1213831D01*
X5665259Y1219200D01*
X5637741Y1219200D01*
X5610751Y1213831D01*
X5585327Y1203301D01*
X5562447Y1188012D01*
X5542988Y1168554D01*
X5527700Y1145673D01*
X5517169Y1120249D01*
X5511800Y1093259D01*
X5283200Y1093259D01*
X5277831Y1120249D01*
X5267301Y1145673D01*
X5252012Y1168554D01*
X5232554Y1188012D01*
X5209673Y1203301D01*
X5184249Y1213831D01*
X5157259Y1219200D01*
X5129741Y1219200D01*
X5102751Y1213831D01*
X5077327Y1203301D01*
X5054447Y1188012D01*
X5034988Y1168554D01*
X5019700Y1145673D01*
X5016500Y1137949D01*
X5013301Y1145673D01*
X4998012Y1168554D01*
X4978554Y1188012D01*
X4955673Y1203301D01*
X4930249Y1213831D01*
X4903259Y1219200D01*
X4875741Y1219200D01*
X4848751Y1213831D01*
X4823327Y1203301D01*
X4800447Y1188012D01*
X4780988Y1168554D01*
X4765700Y1145673D01*
X4755169Y1120249D01*
X4749800Y1093259D01*
X4648200Y1093259D01*
X4642831Y1120249D01*
X4632301Y1145673D01*
X4617012Y1168554D01*
X4597554Y1188012D01*
X4574673Y1203301D01*
X4549249Y1213831D01*
X4522259Y1219200D01*
X4494741Y1219200D01*
X4467751Y1213831D01*
X4442327Y1203301D01*
X4419447Y1188012D01*
X4399988Y1168554D01*
X4384700Y1145673D01*
X4381500Y1137949D01*
X4378301Y1145673D01*
X4363012Y1168554D01*
X4343554Y1188012D01*
X4320673Y1203301D01*
X4295249Y1213831D01*
X4268259Y1219200D01*
X4240741Y1219200D01*
X4213751Y1213831D01*
X4188327Y1203301D01*
X4165446Y1188012D01*
X4145988Y1168554D01*
X4130699Y1145673D01*
X4120169Y1120249D01*
X4114800Y1093259D01*
X3886200Y1093259D01*
X3880831Y1120249D01*
X3870300Y1145673D01*
X3855012Y1168554D01*
X3835553Y1188012D01*
X3812673Y1203301D01*
X3787249Y1213831D01*
X3760259Y1219200D01*
X3732741Y1219200D01*
X3705751Y1213831D01*
X3680327Y1203301D01*
X3657446Y1188012D01*
X3637988Y1168554D01*
X3622699Y1145673D01*
X3619500Y1137949D01*
X3616300Y1145673D01*
X3601012Y1168554D01*
X3581553Y1188012D01*
X3558673Y1203301D01*
X3533249Y1213831D01*
X3506259Y1219200D01*
X3478741Y1219200D01*
X3451751Y1213831D01*
X3426327Y1203301D01*
X3403446Y1188012D01*
X3383988Y1168554D01*
X3368699Y1145673D01*
X3358169Y1120249D01*
X3352800Y1093259D01*
X2834165Y1093259D01*
X2840537Y1102796D01*
X2850977Y1128001D01*
X2856300Y1154759D01*
X2856300Y1182041D01*
X2850977Y1208799D01*
X2840537Y1234004D01*
X2825380Y1256689D01*
X2806089Y1275980D01*
X2783404Y1291137D01*
X2773113Y1295400D01*
X2783404Y1299663D01*
X2806089Y1314820D01*
X2825380Y1334111D01*
X2840537Y1356796D01*
X2850977Y1382001D01*
X2856300Y1408759D01*
X2856300Y1436041D01*
X2850977Y1462799D01*
X2840537Y1488004D01*
X2825380Y1510689D01*
X2806089Y1529980D01*
X2783404Y1545137D01*
X2758199Y1555577D01*
X2731441Y1560900D01*
X2704159Y1560900D01*
X2677401Y1555577D01*
X2652196Y1545137D01*
X2629511Y1529980D01*
X2610432Y1510900D01*
X2340347Y1510900D01*
X2336000Y1511328D01*
X2331653Y1510900D01*
X2331652Y1510900D01*
X2318651Y1509619D01*
X2301969Y1504559D01*
X2286594Y1496341D01*
X2276495Y1488053D01*
X2276495Y1488053D01*
X2273118Y1485282D01*
X2270347Y1481905D01*
X2035995Y1247554D01*
X2032618Y1244782D01*
X2021559Y1231306D01*
X2013341Y1215932D01*
X2008280Y1199249D01*
X2007000Y1186248D01*
X2007000Y1186247D01*
X2006572Y1181900D01*
X2007000Y1177553D01*
X2007000Y1171982D01*
X2008280Y1158981D01*
X2013341Y1142299D01*
X2019700Y1130402D01*
X2019700Y666169D01*
X2000620Y647089D01*
X1985463Y624404D01*
X1975022Y599199D01*
X1969700Y572441D01*
X1969700Y545159D01*
X1975022Y518401D01*
X1985463Y493196D01*
X2000620Y470511D01*
X2019911Y451220D01*
X2028879Y445228D01*
X2027527Y444668D01*
X2004024Y428964D01*
X1984036Y408976D01*
X1968500Y385724D01*
X1952964Y408976D01*
X1932976Y428964D01*
X1909473Y444668D01*
X1883357Y455485D01*
X1855633Y461000D01*
X1827366Y461000D01*
X1799643Y455485D01*
X1773527Y444668D01*
X1750024Y428964D01*
X1730036Y408976D01*
X1714500Y385724D01*
X1698964Y408976D01*
X1678976Y428964D01*
X1655473Y444668D01*
X1629357Y455485D01*
X1601633Y461000D01*
X1573366Y461000D01*
X1545643Y455485D01*
X1519527Y444668D01*
X1496024Y428964D01*
X1476036Y408976D01*
X1460500Y385724D01*
X1444964Y408976D01*
X1424976Y428964D01*
X1401473Y444668D01*
X1375357Y455485D01*
X1347634Y461000D01*
X1319367Y461000D01*
X1291643Y455485D01*
X1265527Y444668D01*
X1242024Y428964D01*
X1222036Y408976D01*
X1206409Y385587D01*
X1203167Y391651D01*
X1178770Y398810D01*
X1097461Y317500D01*
X1061540Y317500D01*
X980230Y398810D01*
X955833Y391651D01*
X952703Y385036D01*
X949167Y391651D01*
X924770Y398810D01*
X843460Y317500D01*
X807539Y317500D01*
X726230Y398810D01*
X701833Y391651D01*
X698781Y385201D01*
X698668Y385473D01*
X682964Y408976D01*
X675169Y416770D01*
X744190Y416770D01*
X825500Y335461D01*
X906810Y416770D01*
X998190Y416770D01*
X1079500Y335461D01*
X1160810Y416770D01*
X1153651Y441167D01*
X1128100Y453257D01*
X1100682Y460130D01*
X1072449Y461522D01*
X1044487Y457379D01*
X1017871Y447860D01*
X1005349Y441167D01*
X998190Y416770D01*
X906810Y416770D01*
X899651Y441167D01*
X874100Y453257D01*
X846682Y460130D01*
X818449Y461522D01*
X790487Y457379D01*
X763871Y447860D01*
X751349Y441167D01*
X744190Y416770D01*
X675169Y416770D01*
X662976Y428964D01*
X639473Y444668D01*
X613357Y455485D01*
X585634Y461000D01*
X557367Y461000D01*
X529643Y455485D01*
X503527Y444668D01*
X480024Y428964D01*
X460164Y409104D01*
X460081Y409948D01*
X456450Y421918D01*
X450554Y432949D01*
X442618Y442618D01*
X432949Y450554D01*
X421918Y456450D01*
X409948Y460081D01*
X397500Y461307D01*
X237500Y461307D01*
X225052Y460081D01*
X213082Y456450D01*
X202051Y450554D01*
X192381Y442618D01*
X184446Y432949D01*
X178550Y421918D01*
X174919Y409948D01*
X173693Y397500D01*
X129500Y397500D01*
X129500Y839633D01*
X1190000Y839633D01*
X1190000Y811366D01*
X1195515Y783643D01*
X1206332Y757527D01*
X1222036Y734024D01*
X1242024Y714036D01*
X1265527Y698332D01*
X1291643Y687515D01*
X1319367Y682000D01*
X1347634Y682000D01*
X1375357Y687515D01*
X1401473Y698332D01*
X1424976Y714036D01*
X1444964Y734024D01*
X1460668Y757527D01*
X1471485Y783643D01*
X1477000Y811366D01*
X1477000Y839633D01*
X1471485Y867357D01*
X1460668Y893473D01*
X1444964Y916976D01*
X1424976Y936964D01*
X1401473Y952668D01*
X1375357Y963485D01*
X1347634Y969000D01*
X1319367Y969000D01*
X1291643Y963485D01*
X1265527Y952668D01*
X1242024Y936964D01*
X1222036Y916976D01*
X1206332Y893473D01*
X1195515Y867357D01*
X1190000Y839633D01*
X129500Y839633D01*
X129500Y1220634D01*
X1190000Y1220634D01*
X1190000Y1192367D01*
X1195515Y1164643D01*
X1206332Y1138527D01*
X1222036Y1115024D01*
X1242024Y1095036D01*
X1265527Y1079332D01*
X1291643Y1068515D01*
X1319367Y1063000D01*
X1347634Y1063000D01*
X1375357Y1068515D01*
X1401473Y1079332D01*
X1424976Y1095036D01*
X1444964Y1115024D01*
X1460668Y1138527D01*
X1471485Y1164643D01*
X1477000Y1192367D01*
X1477000Y1220634D01*
X1471485Y1248357D01*
X1460668Y1274473D01*
X1444964Y1297976D01*
X1424976Y1317964D01*
X1401473Y1333668D01*
X1375357Y1344485D01*
X1347634Y1350000D01*
X1319367Y1350000D01*
X1291643Y1344485D01*
X1265527Y1333668D01*
X1242024Y1317964D01*
X1222036Y1297976D01*
X1206332Y1274473D01*
X1195515Y1248357D01*
X1190000Y1220634D01*
X129500Y1220634D01*
X129500Y1587500D01*
X3348306Y1587500D01*
X3351076Y1559369D01*
X3359282Y1532319D01*
X3372607Y1507390D01*
X3390539Y1485539D01*
X3412390Y1467607D01*
X3437319Y1454282D01*
X3464369Y1446076D01*
X3485451Y1444000D01*
X3499549Y1444000D01*
X3520631Y1446076D01*
X3547681Y1454282D01*
X3572610Y1467607D01*
X3594461Y1485539D01*
X3612393Y1507390D01*
X3625718Y1532319D01*
X3633924Y1559369D01*
X3636694Y1587500D01*
X3633924Y1615631D01*
X3625718Y1642681D01*
X3612393Y1667610D01*
X3594461Y1689461D01*
X3572610Y1707393D01*
X3547681Y1720718D01*
X3520631Y1728924D01*
X3499549Y1731000D01*
X3485451Y1731000D01*
X3464369Y1728924D01*
X3437319Y1720718D01*
X3412390Y1707393D01*
X3390539Y1689461D01*
X3372607Y1667610D01*
X3359282Y1642681D01*
X3351076Y1615631D01*
X3348306Y1587500D01*
X129500Y1587500D01*
X129500Y1855633D01*
X174000Y1855633D01*
X174000Y1827366D01*
X179515Y1799643D01*
X190332Y1773527D01*
X206036Y1750024D01*
X226024Y1730036D01*
X249527Y1714332D01*
X275643Y1703515D01*
X303367Y1698000D01*
X331634Y1698000D01*
X359357Y1703515D01*
X385473Y1714332D01*
X408976Y1730036D01*
X421169Y1742230D01*
X490190Y1742230D01*
X497349Y1717833D01*
X522900Y1705743D01*
X550318Y1698870D01*
X578551Y1697478D01*
X606513Y1701621D01*
X633129Y1711140D01*
X645651Y1717833D01*
X652810Y1742230D01*
X571500Y1823539D01*
X490190Y1742230D01*
X421169Y1742230D01*
X428964Y1750024D01*
X444591Y1773413D01*
X447833Y1767349D01*
X472230Y1760190D01*
X553540Y1841500D01*
X589461Y1841500D01*
X670770Y1760190D01*
X695167Y1767349D01*
X698219Y1773799D01*
X698332Y1773527D01*
X714036Y1750024D01*
X734024Y1730036D01*
X757527Y1714332D01*
X783643Y1703515D01*
X811366Y1698000D01*
X839633Y1698000D01*
X867357Y1703515D01*
X893473Y1714332D01*
X916976Y1730036D01*
X936964Y1750024D01*
X952500Y1773276D01*
X968036Y1750024D01*
X988024Y1730036D01*
X1011527Y1714332D01*
X1037643Y1703515D01*
X1065367Y1698000D01*
X1093634Y1698000D01*
X1121357Y1703515D01*
X1147473Y1714332D01*
X1170976Y1730036D01*
X1190964Y1750024D01*
X1206500Y1773276D01*
X1222036Y1750024D01*
X1242024Y1730036D01*
X1265527Y1714332D01*
X1291643Y1703515D01*
X1319367Y1698000D01*
X1347634Y1698000D01*
X1375357Y1703515D01*
X1401473Y1714332D01*
X1424976Y1730036D01*
X1444964Y1750024D01*
X1460500Y1773276D01*
X1476036Y1750024D01*
X1496024Y1730036D01*
X1519527Y1714332D01*
X1545643Y1703515D01*
X1573366Y1698000D01*
X1601633Y1698000D01*
X1629357Y1703515D01*
X1655473Y1714332D01*
X1678976Y1730036D01*
X1698964Y1750024D01*
X1714500Y1773276D01*
X1730036Y1750024D01*
X1750024Y1730036D01*
X1773527Y1714332D01*
X1799643Y1703515D01*
X1827366Y1698000D01*
X1855633Y1698000D01*
X1883357Y1703515D01*
X1909473Y1714332D01*
X1932976Y1730036D01*
X1952964Y1750024D01*
X1968500Y1773276D01*
X1984036Y1750024D01*
X2004024Y1730036D01*
X2027527Y1714332D01*
X2053643Y1703515D01*
X2081366Y1698000D01*
X2109634Y1698000D01*
X2137357Y1703515D01*
X2163473Y1714332D01*
X2186976Y1730036D01*
X2206964Y1750024D01*
X2222500Y1773276D01*
X2238036Y1750024D01*
X2258024Y1730036D01*
X2281527Y1714332D01*
X2307643Y1703515D01*
X2335367Y1698000D01*
X2363634Y1698000D01*
X2391357Y1703515D01*
X2417473Y1714332D01*
X2440976Y1730036D01*
X2460964Y1750024D01*
X2476500Y1773276D01*
X2492036Y1750024D01*
X2512024Y1730036D01*
X2535527Y1714332D01*
X2561643Y1703515D01*
X2589367Y1698000D01*
X2617634Y1698000D01*
X2645357Y1703515D01*
X2671473Y1714332D01*
X2694976Y1730036D01*
X2714964Y1750024D01*
X2730500Y1773276D01*
X2746036Y1750024D01*
X2766024Y1730036D01*
X2789527Y1714332D01*
X2815643Y1703515D01*
X2843366Y1698000D01*
X2871633Y1698000D01*
X2899357Y1703515D01*
X2925473Y1714332D01*
X2948976Y1730036D01*
X2968964Y1750024D01*
X2984500Y1773276D01*
X3000036Y1750024D01*
X3020024Y1730036D01*
X3043527Y1714332D01*
X3069643Y1703515D01*
X3097366Y1698000D01*
X3125633Y1698000D01*
X3153357Y1703515D01*
X3179473Y1714332D01*
X3202976Y1730036D01*
X3222964Y1750024D01*
X3238668Y1773527D01*
X3245189Y1789269D01*
X3261796Y1778173D01*
X3287001Y1767732D01*
X3313759Y1762410D01*
X3341041Y1762410D01*
X3367799Y1767732D01*
X3393004Y1778173D01*
X3415689Y1793330D01*
X3434768Y1812410D01*
X4383562Y1812410D01*
X4469849Y1726123D01*
X4466643Y1725485D01*
X4440527Y1714668D01*
X4417024Y1698964D01*
X4397036Y1678976D01*
X4381332Y1655473D01*
X4370515Y1629357D01*
X4365000Y1601633D01*
X4365000Y1573366D01*
X4370515Y1545643D01*
X4381332Y1519527D01*
X4397036Y1496024D01*
X4417024Y1476036D01*
X4440527Y1460332D01*
X4466643Y1449515D01*
X4494367Y1444000D01*
X4522634Y1444000D01*
X4550357Y1449515D01*
X4576473Y1460332D01*
X4599976Y1476036D01*
X4619964Y1496024D01*
X4635668Y1519527D01*
X4646485Y1545643D01*
X4647416Y1550319D01*
X4647684Y1550099D01*
X4663059Y1541881D01*
X4679741Y1536820D01*
X4692742Y1535540D01*
X4692743Y1535540D01*
X4697090Y1535112D01*
X4701437Y1535540D01*
X4921693Y1535540D01*
X4926040Y1535112D01*
X4930387Y1535540D01*
X4930388Y1535540D01*
X4941500Y1536634D01*
X4941500Y1510359D01*
X4946823Y1483601D01*
X4957263Y1458396D01*
X4972420Y1435711D01*
X4991711Y1416420D01*
X5014396Y1401263D01*
X5039601Y1390823D01*
X5066359Y1385500D01*
X5093641Y1385500D01*
X5120399Y1390823D01*
X5145604Y1401263D01*
X5168289Y1416420D01*
X5187580Y1435711D01*
X5202737Y1458396D01*
X5210972Y1478278D01*
X6233000Y1478278D01*
X6233000Y1442722D01*
X6239936Y1407850D01*
X6253543Y1375001D01*
X6273296Y1345438D01*
X6298438Y1320297D01*
X6328001Y1300543D01*
X6360850Y1286937D01*
X6395722Y1280000D01*
X6431278Y1280000D01*
X6466150Y1286937D01*
X6498999Y1300543D01*
X6528562Y1320297D01*
X6553703Y1345438D01*
X6573457Y1375001D01*
X6587063Y1407850D01*
X6594000Y1442722D01*
X6594000Y1478278D01*
X6733000Y1478278D01*
X6733000Y1442722D01*
X6739936Y1407850D01*
X6753543Y1375001D01*
X6773296Y1345438D01*
X6798438Y1320297D01*
X6828001Y1300543D01*
X6860850Y1286937D01*
X6895722Y1280000D01*
X6931278Y1280000D01*
X6966150Y1286937D01*
X6998999Y1300543D01*
X7028562Y1320297D01*
X7053703Y1345438D01*
X7073457Y1375001D01*
X7087063Y1407850D01*
X7094000Y1442722D01*
X7094000Y1478278D01*
X7087063Y1513150D01*
X7073457Y1545999D01*
X7053703Y1575562D01*
X7028562Y1600703D01*
X7027170Y1601633D01*
X7286000Y1601633D01*
X7286000Y1573366D01*
X7291515Y1545643D01*
X7302332Y1519527D01*
X7318036Y1496024D01*
X7338024Y1476036D01*
X7361527Y1460332D01*
X7387643Y1449515D01*
X7415366Y1444000D01*
X7443633Y1444000D01*
X7471357Y1449515D01*
X7497473Y1460332D01*
X7520976Y1476036D01*
X7533169Y1488230D01*
X7848190Y1488230D01*
X7855349Y1463833D01*
X7880900Y1451743D01*
X7908318Y1444870D01*
X7936551Y1443478D01*
X7964513Y1447621D01*
X7991129Y1457140D01*
X8003651Y1463833D01*
X8010810Y1488230D01*
X7929500Y1569539D01*
X7848190Y1488230D01*
X7533169Y1488230D01*
X7540964Y1496024D01*
X7556668Y1519527D01*
X7567485Y1545643D01*
X7573000Y1573366D01*
X7573000Y1580449D01*
X7785478Y1580449D01*
X7789621Y1552487D01*
X7799140Y1525871D01*
X7805833Y1513349D01*
X7830230Y1506190D01*
X7911539Y1587500D01*
X7947460Y1587500D01*
X8028770Y1506190D01*
X8053167Y1513349D01*
X8065257Y1538900D01*
X8072130Y1566318D01*
X8073522Y1594551D01*
X8069379Y1622513D01*
X8059860Y1649129D01*
X8053167Y1661651D01*
X8028770Y1668810D01*
X7947460Y1587500D01*
X7911539Y1587500D01*
X7830230Y1668810D01*
X7805833Y1661651D01*
X7793743Y1636100D01*
X7786870Y1608682D01*
X7785478Y1580449D01*
X7573000Y1580449D01*
X7573000Y1601633D01*
X7567485Y1629357D01*
X7556668Y1655473D01*
X7540964Y1678976D01*
X7533169Y1686770D01*
X7848190Y1686770D01*
X7929500Y1605460D01*
X8010810Y1686770D01*
X8003651Y1711167D01*
X7978100Y1723257D01*
X7950682Y1730130D01*
X7922449Y1731522D01*
X7894487Y1727379D01*
X7867871Y1717860D01*
X7855349Y1711167D01*
X7848190Y1686770D01*
X7533169Y1686770D01*
X7520976Y1698964D01*
X7497473Y1714668D01*
X7471357Y1725485D01*
X7443633Y1731000D01*
X7415366Y1731000D01*
X7387643Y1725485D01*
X7361527Y1714668D01*
X7338024Y1698964D01*
X7318036Y1678976D01*
X7302332Y1655473D01*
X7291515Y1629357D01*
X7286000Y1601633D01*
X7027170Y1601633D01*
X6998999Y1620457D01*
X6966150Y1634063D01*
X6931278Y1641000D01*
X6895722Y1641000D01*
X6860850Y1634063D01*
X6828001Y1620457D01*
X6798438Y1600703D01*
X6773296Y1575562D01*
X6753543Y1545999D01*
X6739936Y1513150D01*
X6733000Y1478278D01*
X6594000Y1478278D01*
X6587063Y1513150D01*
X6573457Y1545999D01*
X6553703Y1575562D01*
X6528562Y1600703D01*
X6498999Y1620457D01*
X6466150Y1634063D01*
X6431278Y1641000D01*
X6395722Y1641000D01*
X6360850Y1634063D01*
X6328001Y1620457D01*
X6298438Y1600703D01*
X6273296Y1575562D01*
X6253543Y1545999D01*
X6239936Y1513150D01*
X6233000Y1478278D01*
X5210972Y1478278D01*
X5213178Y1483601D01*
X5218500Y1510359D01*
X5218500Y1537641D01*
X5218138Y1539460D01*
X5442173Y1539460D01*
X5446520Y1539032D01*
X5450867Y1539460D01*
X5450868Y1539460D01*
X5463869Y1540740D01*
X5480551Y1545801D01*
X5495926Y1554019D01*
X5509402Y1565078D01*
X5512173Y1568456D01*
X5576344Y1632626D01*
X5581015Y1609143D01*
X5591832Y1583027D01*
X5607536Y1559524D01*
X5627524Y1539536D01*
X5651027Y1523832D01*
X5677143Y1513015D01*
X5704866Y1507500D01*
X5733133Y1507500D01*
X5760857Y1513015D01*
X5786973Y1523832D01*
X5810476Y1539536D01*
X5827134Y1556194D01*
X5830050Y1546582D01*
X5835946Y1535551D01*
X5843881Y1525881D01*
X5853551Y1517946D01*
X5864582Y1512050D01*
X5876552Y1508419D01*
X5889000Y1507193D01*
X6049000Y1507193D01*
X6061448Y1508419D01*
X6073418Y1512050D01*
X6084449Y1517946D01*
X6094118Y1525881D01*
X6102054Y1535551D01*
X6107950Y1546582D01*
X6111581Y1558552D01*
X6112807Y1571000D01*
X6112807Y1731000D01*
X6111891Y1740300D01*
X6369631Y1740300D01*
X6388711Y1721220D01*
X6411396Y1706063D01*
X6436601Y1695622D01*
X6463359Y1690300D01*
X6490641Y1690300D01*
X6517399Y1695622D01*
X6542604Y1706063D01*
X6565289Y1721220D01*
X6584580Y1740511D01*
X6599737Y1763196D01*
X6610177Y1788401D01*
X6615500Y1815159D01*
X6615500Y1842441D01*
X6610177Y1869199D01*
X6599737Y1894404D01*
X6584580Y1917089D01*
X6565289Y1936380D01*
X6542604Y1951537D01*
X6517399Y1961977D01*
X6490641Y1967300D01*
X6463359Y1967300D01*
X6436601Y1961977D01*
X6411396Y1951537D01*
X6388711Y1936380D01*
X6369631Y1917300D01*
X5676342Y1917300D01*
X5668399Y1919709D01*
X5651050Y1921418D01*
X5633701Y1919709D01*
X5617019Y1914649D01*
X5601644Y1906431D01*
X5591545Y1898143D01*
X5591545Y1898143D01*
X5588168Y1895372D01*
X5585397Y1891995D01*
X5472807Y1779405D01*
X5472807Y1853000D01*
X5471581Y1865448D01*
X5467950Y1877418D01*
X5462054Y1888449D01*
X5454119Y1898118D01*
X5444449Y1906054D01*
X5433418Y1911950D01*
X5421448Y1915581D01*
X5409000Y1916807D01*
X5259000Y1916807D01*
X5246552Y1915581D01*
X5234582Y1911950D01*
X5223551Y1906054D01*
X5213882Y1898118D01*
X5205946Y1888449D01*
X5200050Y1877418D01*
X5196419Y1865448D01*
X5195193Y1853000D01*
X5195193Y1750260D01*
X5184081Y1756199D01*
X5167399Y1761259D01*
X5154398Y1762540D01*
X5154397Y1762540D01*
X5150050Y1762968D01*
X5145703Y1762540D01*
X4980387Y1762540D01*
X4976040Y1762968D01*
X4971693Y1762540D01*
X4971692Y1762540D01*
X4963899Y1761772D01*
X4964981Y1785249D01*
X4960897Y1812224D01*
X4951628Y1837883D01*
X4945586Y1849186D01*
X4921699Y1855739D01*
X4843961Y1778000D01*
X4845375Y1776586D01*
X4827414Y1758625D01*
X4826000Y1760039D01*
X4824586Y1758625D01*
X4806625Y1776586D01*
X4808040Y1778000D01*
X4730301Y1855739D01*
X4706414Y1849186D01*
X4694824Y1824488D01*
X4688275Y1798004D01*
X4687019Y1770751D01*
X4689068Y1757220D01*
X4572589Y1873699D01*
X4748261Y1873699D01*
X4826000Y1795960D01*
X4903739Y1873699D01*
X4897186Y1897586D01*
X4872488Y1909176D01*
X4846004Y1915725D01*
X4818751Y1916981D01*
X4791776Y1912896D01*
X4766117Y1903628D01*
X4754814Y1897586D01*
X4748261Y1873699D01*
X4572589Y1873699D01*
X4485873Y1960414D01*
X4483102Y1963792D01*
X4469626Y1974851D01*
X4454251Y1983069D01*
X4437569Y1988129D01*
X4424568Y1989410D01*
X4424567Y1989410D01*
X4420220Y1989838D01*
X4415873Y1989410D01*
X3434768Y1989410D01*
X3415689Y2008490D01*
X3393004Y2023647D01*
X3367799Y2034087D01*
X3341041Y2039410D01*
X3313759Y2039410D01*
X3287001Y2034087D01*
X3261796Y2023647D01*
X3239111Y2008490D01*
X3219820Y1989199D01*
X3204663Y1966514D01*
X3199901Y1955018D01*
X3179473Y1968668D01*
X3153357Y1979485D01*
X3125633Y1985000D01*
X3097366Y1985000D01*
X3069643Y1979485D01*
X3043527Y1968668D01*
X3020024Y1952964D01*
X3000036Y1932976D01*
X2984500Y1909724D01*
X2968964Y1932976D01*
X2948976Y1952964D01*
X2938043Y1960269D01*
X2942137Y1966396D01*
X2952577Y1991601D01*
X2957900Y2018359D01*
X2957900Y2045641D01*
X2952577Y2072399D01*
X2942137Y2097604D01*
X2926980Y2120289D01*
X2907689Y2139580D01*
X2885004Y2154737D01*
X2859799Y2165178D01*
X2833041Y2170500D01*
X2806058Y2170500D01*
X2791000Y2185558D01*
X2791000Y2205693D01*
X2937500Y2205693D01*
X2949948Y2206919D01*
X2961918Y2210550D01*
X2972949Y2216446D01*
X2982618Y2224382D01*
X2990554Y2234051D01*
X2996450Y2245082D01*
X3000081Y2257052D01*
X3000323Y2259508D01*
X3015159Y2243148D01*
X3037758Y2226396D01*
X3063191Y2214375D01*
X3076596Y2210310D01*
X3098800Y2222509D01*
X3098800Y2336800D01*
X3124200Y2336800D01*
X3124200Y2222509D01*
X3146404Y2210310D01*
X3159809Y2214375D01*
X3185242Y2226396D01*
X3199053Y2236634D01*
X3476000Y2236634D01*
X3476000Y2208367D01*
X3481515Y2180643D01*
X3492332Y2154527D01*
X3508036Y2131024D01*
X3528024Y2111036D01*
X3551527Y2095332D01*
X3577643Y2084515D01*
X3605366Y2079000D01*
X3633633Y2079000D01*
X3661357Y2084515D01*
X3687473Y2095332D01*
X3710976Y2111036D01*
X3730964Y2131024D01*
X3746668Y2154527D01*
X3757485Y2180643D01*
X3763000Y2208367D01*
X3763000Y2222500D01*
X4491306Y2222500D01*
X4494076Y2194369D01*
X4502282Y2167319D01*
X4515607Y2142390D01*
X4533539Y2120539D01*
X4555390Y2102607D01*
X4580319Y2089282D01*
X4607369Y2081076D01*
X4628451Y2079000D01*
X4642549Y2079000D01*
X4663631Y2081076D01*
X4669313Y2082800D01*
X6798000Y2082800D01*
X6798000Y2042800D01*
X6802851Y2018950D01*
X6812261Y1996505D01*
X6825869Y1976327D01*
X6843153Y1959192D01*
X6863447Y1945758D01*
X6885972Y1936541D01*
X6889739Y1936154D01*
X6908800Y1948627D01*
X6908800Y2082800D01*
X6934200Y2082800D01*
X6934200Y1948627D01*
X6953261Y1936154D01*
X6957028Y1936541D01*
X6979553Y1945758D01*
X6999847Y1959192D01*
X7017131Y1976327D01*
X7030739Y1996505D01*
X7040149Y2018950D01*
X7045000Y2042800D01*
X7045000Y2082800D01*
X6934200Y2082800D01*
X6908800Y2082800D01*
X6798000Y2082800D01*
X4669313Y2082800D01*
X4690681Y2089282D01*
X4715610Y2102607D01*
X4737461Y2120539D01*
X4755393Y2142390D01*
X4768718Y2167319D01*
X4776924Y2194369D01*
X4779694Y2222500D01*
X4776924Y2250631D01*
X4768718Y2277681D01*
X4764272Y2286000D01*
X4999306Y2286000D01*
X5002076Y2257869D01*
X5010282Y2230819D01*
X5023607Y2205890D01*
X5041539Y2184039D01*
X5063390Y2166107D01*
X5088319Y2152782D01*
X5115369Y2144576D01*
X5136451Y2142500D01*
X5150549Y2142500D01*
X5171631Y2144576D01*
X5198681Y2152782D01*
X5223610Y2166107D01*
X5245461Y2184039D01*
X5263393Y2205890D01*
X5276718Y2230819D01*
X5284924Y2257869D01*
X5287694Y2286000D01*
X5284924Y2314131D01*
X5276718Y2341181D01*
X5263393Y2366110D01*
X5245461Y2387961D01*
X5223610Y2405893D01*
X5198681Y2419218D01*
X5171631Y2427424D01*
X5150549Y2429500D01*
X5136451Y2429500D01*
X5115369Y2427424D01*
X5088319Y2419218D01*
X5063390Y2405893D01*
X5041539Y2387961D01*
X5023607Y2366110D01*
X5010282Y2341181D01*
X5002076Y2314131D01*
X4999306Y2286000D01*
X4764272Y2286000D01*
X4755393Y2302610D01*
X4737461Y2324461D01*
X4715610Y2342393D01*
X4690681Y2355718D01*
X4663631Y2363924D01*
X4642549Y2366000D01*
X4628451Y2366000D01*
X4607369Y2363924D01*
X4580319Y2355718D01*
X4555390Y2342393D01*
X4533539Y2324461D01*
X4515607Y2302610D01*
X4502282Y2277681D01*
X4494076Y2250631D01*
X4491306Y2222500D01*
X3763000Y2222500D01*
X3763000Y2236634D01*
X3757485Y2264357D01*
X3746668Y2290473D01*
X3730964Y2313976D01*
X3710976Y2333964D01*
X3687473Y2349668D01*
X3661357Y2360485D01*
X3633633Y2366000D01*
X3605366Y2366000D01*
X3577643Y2360485D01*
X3551527Y2349668D01*
X3528024Y2333964D01*
X3508036Y2313976D01*
X3492332Y2290473D01*
X3481515Y2264357D01*
X3476000Y2236634D01*
X3199053Y2236634D01*
X3207841Y2243148D01*
X3226738Y2263987D01*
X3241207Y2288112D01*
X3250691Y2314596D01*
X3238562Y2336800D01*
X3124200Y2336800D01*
X3098800Y2336800D01*
X3096800Y2336800D01*
X3096800Y2362200D01*
X3098800Y2362200D01*
X3098800Y2476492D01*
X3124200Y2476492D01*
X3124200Y2362200D01*
X3238562Y2362200D01*
X3250691Y2384404D01*
X3241207Y2410888D01*
X3226738Y2435013D01*
X3207841Y2455852D01*
X3185242Y2472604D01*
X3159809Y2484625D01*
X3146404Y2488690D01*
X3124200Y2476492D01*
X3098800Y2476492D01*
X3076596Y2488690D01*
X3063191Y2484625D01*
X3037758Y2472604D01*
X3015159Y2455852D01*
X3000323Y2439492D01*
X3000081Y2441948D01*
X2996450Y2453918D01*
X2990554Y2464949D01*
X2982618Y2474619D01*
X2972949Y2482554D01*
X2961918Y2488450D01*
X2949948Y2492081D01*
X2937500Y2493307D01*
X2855915Y2493307D01*
X3036798Y2674190D01*
X3494148Y2674190D01*
X3492332Y2671473D01*
X3481515Y2645357D01*
X3476000Y2617634D01*
X3476000Y2589367D01*
X3481515Y2561643D01*
X3492332Y2535527D01*
X3508036Y2512024D01*
X3528024Y2492036D01*
X3551527Y2476332D01*
X3577643Y2465515D01*
X3605366Y2460000D01*
X3633633Y2460000D01*
X3661357Y2465515D01*
X3687473Y2476332D01*
X3710976Y2492036D01*
X3730964Y2512024D01*
X3746668Y2535527D01*
X3757485Y2561643D01*
X3763000Y2589367D01*
X3763000Y2617634D01*
X3757485Y2645357D01*
X3746668Y2671473D01*
X3744852Y2674190D01*
X4510572Y2674190D01*
X4502282Y2658681D01*
X4494076Y2631631D01*
X4491306Y2603500D01*
X4494076Y2575369D01*
X4502282Y2548319D01*
X4515607Y2523390D01*
X4533539Y2501539D01*
X4555390Y2483607D01*
X4580319Y2470282D01*
X4607369Y2462076D01*
X4628451Y2460000D01*
X4642549Y2460000D01*
X4663631Y2462076D01*
X4690681Y2470282D01*
X4715610Y2483607D01*
X4737461Y2501539D01*
X4755393Y2523390D01*
X4768718Y2548319D01*
X4776924Y2575369D01*
X4779694Y2603500D01*
X4776924Y2631631D01*
X4768718Y2658681D01*
X4760428Y2674190D01*
X5526572Y2674190D01*
X5518282Y2658681D01*
X5510076Y2631631D01*
X5507306Y2603500D01*
X5510076Y2575369D01*
X5518282Y2548319D01*
X5531607Y2523390D01*
X5549539Y2501539D01*
X5571390Y2483607D01*
X5596319Y2470282D01*
X5623369Y2462076D01*
X5644451Y2460000D01*
X5658549Y2460000D01*
X5679631Y2462076D01*
X5706681Y2470282D01*
X5731610Y2483607D01*
X5753461Y2501539D01*
X5771393Y2523390D01*
X5784718Y2548319D01*
X5792924Y2575369D01*
X5795694Y2603500D01*
X5792924Y2631631D01*
X5784718Y2658681D01*
X5776428Y2674190D01*
X6151992Y2674190D01*
X6615157Y2211025D01*
X6617928Y2207648D01*
X6621305Y2204877D01*
X6621305Y2204877D01*
X6631404Y2196589D01*
X6646779Y2188371D01*
X6651839Y2186836D01*
X6663461Y2183311D01*
X6679101Y2181770D01*
X6680810Y2181602D01*
X6680810Y2181602D01*
X6698159Y2183311D01*
X6714841Y2188371D01*
X6730216Y2196589D01*
X6740315Y2204877D01*
X6743692Y2207648D01*
X6746463Y2211025D01*
X6783738Y2248300D01*
X6870920Y2248300D01*
X6863447Y2245242D01*
X6843153Y2231808D01*
X6825869Y2214673D01*
X6812261Y2194495D01*
X6802851Y2172050D01*
X6798000Y2148200D01*
X6798000Y2108200D01*
X6908800Y2108200D01*
X6908800Y2110200D01*
X6934200Y2110200D01*
X6934200Y2108200D01*
X7045000Y2108200D01*
X7045000Y2148200D01*
X7040149Y2172050D01*
X7030739Y2194495D01*
X7017131Y2214673D01*
X6999847Y2231808D01*
X6979553Y2245242D01*
X6972080Y2248300D01*
X7124547Y2248300D01*
X7106555Y2238683D01*
X7087750Y2223250D01*
X7072317Y2204445D01*
X7060849Y2182990D01*
X7053787Y2159710D01*
X7052000Y2141566D01*
X7052000Y2049433D01*
X7053787Y2031290D01*
X7060849Y2008010D01*
X7072317Y1986555D01*
X7087750Y1967750D01*
X7106555Y1952317D01*
X7128010Y1940849D01*
X7151290Y1933787D01*
X7175500Y1931402D01*
X7199710Y1933787D01*
X7222990Y1940849D01*
X7244445Y1952317D01*
X7263250Y1967750D01*
X7278683Y1986555D01*
X7290151Y2008010D01*
X7297213Y2031290D01*
X7299000Y2049434D01*
X7299000Y2141567D01*
X7297213Y2159710D01*
X7290151Y2182990D01*
X7278683Y2204445D01*
X7263250Y2223250D01*
X7244445Y2238683D01*
X7226453Y2248300D01*
X7378547Y2248300D01*
X7360555Y2238683D01*
X7341750Y2223250D01*
X7326317Y2204445D01*
X7314849Y2182990D01*
X7307787Y2159710D01*
X7306000Y2141566D01*
X7306000Y2049433D01*
X7307787Y2031290D01*
X7314849Y2008010D01*
X7326317Y1986555D01*
X7341750Y1967750D01*
X7360555Y1952317D01*
X7382010Y1940849D01*
X7405290Y1933787D01*
X7429500Y1931402D01*
X7453710Y1933787D01*
X7476990Y1940849D01*
X7498445Y1952317D01*
X7517250Y1967750D01*
X7532683Y1986555D01*
X7544151Y2008010D01*
X7551213Y2031290D01*
X7553000Y2049434D01*
X7553000Y2141567D01*
X7551213Y2159710D01*
X7544151Y2182990D01*
X7532683Y2204445D01*
X7517250Y2223250D01*
X7498445Y2238683D01*
X7480453Y2248300D01*
X7538031Y2248300D01*
X7557111Y2229220D01*
X7579796Y2214063D01*
X7586075Y2211462D01*
X7580317Y2204445D01*
X7568849Y2182990D01*
X7561787Y2159710D01*
X7560000Y2141566D01*
X7560000Y2049433D01*
X7561787Y2031290D01*
X7568849Y2008010D01*
X7580317Y1986555D01*
X7595750Y1967750D01*
X7614555Y1952317D01*
X7636010Y1940849D01*
X7659290Y1933787D01*
X7683500Y1931402D01*
X7707710Y1933787D01*
X7730990Y1940849D01*
X7752445Y1952317D01*
X7771250Y1967750D01*
X7786683Y1986555D01*
X7798151Y2008010D01*
X7805213Y2031290D01*
X7807000Y2049434D01*
X7807000Y2141566D01*
X7814000Y2141566D01*
X7814000Y2049433D01*
X7815787Y2031290D01*
X7822849Y2008010D01*
X7834317Y1986555D01*
X7849750Y1967750D01*
X7868555Y1952317D01*
X7890010Y1940849D01*
X7913290Y1933787D01*
X7937500Y1931402D01*
X7961710Y1933787D01*
X7984990Y1940849D01*
X8006445Y1952317D01*
X8025250Y1967750D01*
X8040683Y1986555D01*
X8041578Y1988230D01*
X8237190Y1988230D01*
X8244349Y1963833D01*
X8269900Y1951743D01*
X8297318Y1944870D01*
X8325551Y1943478D01*
X8353513Y1947621D01*
X8380129Y1957140D01*
X8392651Y1963833D01*
X8399810Y1988230D01*
X8318500Y2069539D01*
X8237190Y1988230D01*
X8041578Y1988230D01*
X8052151Y2008010D01*
X8059213Y2031290D01*
X8061000Y2049434D01*
X8061000Y2080449D01*
X8174478Y2080449D01*
X8178621Y2052487D01*
X8188140Y2025871D01*
X8194833Y2013349D01*
X8219230Y2006190D01*
X8300539Y2087500D01*
X8336460Y2087500D01*
X8417770Y2006190D01*
X8442167Y2013349D01*
X8454257Y2038900D01*
X8461130Y2066318D01*
X8462522Y2094551D01*
X8458379Y2122513D01*
X8448860Y2149129D01*
X8442167Y2161651D01*
X8417770Y2168810D01*
X8336460Y2087500D01*
X8300539Y2087500D01*
X8219230Y2168810D01*
X8194833Y2161651D01*
X8182743Y2136100D01*
X8175870Y2108682D01*
X8174478Y2080449D01*
X8061000Y2080449D01*
X8061000Y2141567D01*
X8059213Y2159710D01*
X8052151Y2182990D01*
X8050131Y2186770D01*
X8237190Y2186770D01*
X8318500Y2105461D01*
X8399810Y2186770D01*
X8392651Y2211167D01*
X8367100Y2223257D01*
X8339682Y2230130D01*
X8311449Y2231522D01*
X8283487Y2227379D01*
X8256871Y2217860D01*
X8244349Y2211167D01*
X8237190Y2186770D01*
X8050131Y2186770D01*
X8040683Y2204445D01*
X8025250Y2223250D01*
X8006445Y2238683D01*
X7984990Y2250151D01*
X7961710Y2257213D01*
X7937500Y2259598D01*
X7913290Y2257213D01*
X7890010Y2250151D01*
X7868555Y2238683D01*
X7849750Y2223250D01*
X7834317Y2204445D01*
X7822849Y2182990D01*
X7815787Y2159710D01*
X7814000Y2141566D01*
X7807000Y2141566D01*
X7807000Y2141567D01*
X7805213Y2159710D01*
X7798151Y2182990D01*
X7786683Y2204445D01*
X7771250Y2223250D01*
X7752445Y2238683D01*
X7746389Y2241920D01*
X7752980Y2248511D01*
X7768137Y2271196D01*
X7778577Y2296401D01*
X7783900Y2323159D01*
X7783900Y2350441D01*
X7778577Y2377199D01*
X7768137Y2402404D01*
X7752980Y2425089D01*
X7733689Y2444380D01*
X7711004Y2459537D01*
X7685799Y2469978D01*
X7659041Y2475300D01*
X7631759Y2475300D01*
X7605001Y2469978D01*
X7579796Y2459537D01*
X7557111Y2444380D01*
X7538031Y2425300D01*
X6751426Y2425300D01*
X6747080Y2425728D01*
X6742733Y2425300D01*
X6742732Y2425300D01*
X6729731Y2424020D01*
X6713049Y2418959D01*
X6697674Y2410741D01*
X6697674Y2410741D01*
X6697674Y2410741D01*
X6687575Y2402453D01*
X6687575Y2402453D01*
X6684198Y2399682D01*
X6681427Y2396305D01*
X6680810Y2395688D01*
X6472998Y2603500D01*
X6650306Y2603500D01*
X6653076Y2575369D01*
X6661282Y2548319D01*
X6674607Y2523390D01*
X6692539Y2501539D01*
X6714390Y2483607D01*
X6739319Y2470282D01*
X6766369Y2462076D01*
X6787451Y2460000D01*
X6801549Y2460000D01*
X6822631Y2462076D01*
X6849681Y2470282D01*
X6874610Y2483607D01*
X6896461Y2501539D01*
X6914393Y2523390D01*
X6927718Y2548319D01*
X6935924Y2575369D01*
X6938694Y2603500D01*
X6937302Y2617634D01*
X7667000Y2617634D01*
X7667000Y2589367D01*
X7672515Y2561643D01*
X7683332Y2535527D01*
X7699036Y2512024D01*
X7719024Y2492036D01*
X7742527Y2476332D01*
X7768643Y2465515D01*
X7796366Y2460000D01*
X7824633Y2460000D01*
X7852357Y2465515D01*
X7878473Y2476332D01*
X7901976Y2492036D01*
X7921964Y2512024D01*
X7937668Y2535527D01*
X7948485Y2561643D01*
X7954000Y2589367D01*
X7954000Y2617634D01*
X7948485Y2645357D01*
X7937668Y2671473D01*
X7921964Y2694976D01*
X7901976Y2714964D01*
X7878473Y2730668D01*
X7852357Y2741485D01*
X7824633Y2747000D01*
X7796366Y2747000D01*
X7768643Y2741485D01*
X7742527Y2730668D01*
X7719024Y2714964D01*
X7699036Y2694976D01*
X7683332Y2671473D01*
X7672515Y2645357D01*
X7667000Y2617634D01*
X6937302Y2617634D01*
X6935924Y2631631D01*
X6927718Y2658681D01*
X6914393Y2683610D01*
X6896461Y2705461D01*
X6874610Y2723393D01*
X6849681Y2736718D01*
X6822631Y2744924D01*
X6801549Y2747000D01*
X6787451Y2747000D01*
X6766369Y2744924D01*
X6739319Y2736718D01*
X6714390Y2723393D01*
X6692539Y2705461D01*
X6674607Y2683610D01*
X6661282Y2658681D01*
X6653076Y2631631D01*
X6650306Y2603500D01*
X6472998Y2603500D01*
X6377268Y2699230D01*
X6396343Y2699230D01*
X6427931Y2705513D01*
X6457686Y2717838D01*
X6484465Y2735731D01*
X6507239Y2758505D01*
X6525132Y2785284D01*
X6537457Y2815039D01*
X6543740Y2846627D01*
X6543740Y2878833D01*
X6537457Y2910421D01*
X6525132Y2940176D01*
X6507239Y2966955D01*
X6484465Y2989729D01*
X6457686Y3007622D01*
X6427931Y3019947D01*
X6396343Y3026230D01*
X6364137Y3026230D01*
X6332549Y3019947D01*
X6302794Y3007622D01*
X6276015Y2989729D01*
X6253241Y2966955D01*
X6242734Y2951230D01*
X4805221Y2951230D01*
X4818893Y2967890D01*
X4832218Y2992819D01*
X4840424Y3019869D01*
X4843194Y3048000D01*
X4840424Y3076131D01*
X4832218Y3103181D01*
X4818893Y3128110D01*
X4800961Y3149961D01*
X4779110Y3167893D01*
X4754181Y3181218D01*
X4727131Y3189424D01*
X4706049Y3191500D01*
X4691951Y3191500D01*
X4670869Y3189424D01*
X4643819Y3181218D01*
X4618890Y3167893D01*
X4597039Y3149961D01*
X4579107Y3128110D01*
X4565782Y3103181D01*
X4557576Y3076131D01*
X4554806Y3048000D01*
X4557576Y3019869D01*
X4565782Y2992819D01*
X4579107Y2967890D01*
X4592779Y2951230D01*
X4395770Y2951230D01*
X4397081Y2955552D01*
X4398307Y2968000D01*
X4398307Y3128000D01*
X4397081Y3140448D01*
X4393450Y3152418D01*
X4387554Y3163449D01*
X4379619Y3173118D01*
X4369949Y3181054D01*
X4358918Y3186950D01*
X4346948Y3190581D01*
X4334500Y3191807D01*
X4174500Y3191807D01*
X4162052Y3190581D01*
X4150082Y3186950D01*
X4139051Y3181054D01*
X4129381Y3173118D01*
X4121446Y3163449D01*
X4115550Y3152418D01*
X4113645Y3146140D01*
X4112541Y3148206D01*
X4101482Y3161682D01*
X4098105Y3164453D01*
X4024700Y3237858D01*
X4024700Y3264841D01*
X4019377Y3291599D01*
X4009215Y3316133D01*
X5000000Y3316133D01*
X5000000Y3287866D01*
X5005515Y3260143D01*
X5016332Y3234027D01*
X5032036Y3210524D01*
X5052024Y3190536D01*
X5075527Y3174832D01*
X5101643Y3164015D01*
X5129367Y3158500D01*
X5157634Y3158500D01*
X5185357Y3164015D01*
X5211473Y3174832D01*
X5234976Y3190536D01*
X5254964Y3210524D01*
X5270668Y3234027D01*
X5281485Y3260143D01*
X5287000Y3287866D01*
X5287000Y3316133D01*
X5281485Y3343857D01*
X5270668Y3369973D01*
X5254964Y3393476D01*
X5234976Y3413464D01*
X5211473Y3429168D01*
X5185357Y3439985D01*
X5157634Y3445500D01*
X5129367Y3445500D01*
X5101643Y3439985D01*
X5075527Y3429168D01*
X5052024Y3413464D01*
X5032036Y3393476D01*
X5016332Y3369973D01*
X5005515Y3343857D01*
X5000000Y3316133D01*
X4009215Y3316133D01*
X4008937Y3316804D01*
X3993780Y3339489D01*
X3974489Y3358780D01*
X3951804Y3373937D01*
X3926599Y3384377D01*
X3899841Y3389700D01*
X3872559Y3389700D01*
X3845801Y3384377D01*
X3820596Y3373937D01*
X3797911Y3358780D01*
X3779164Y3340033D01*
X3775787Y3339700D01*
X3775786Y3339700D01*
X3762785Y3338419D01*
X3746103Y3333359D01*
X3730728Y3325141D01*
X3730728Y3325141D01*
X3730728Y3325141D01*
X3720629Y3316853D01*
X3720629Y3316853D01*
X3717252Y3314082D01*
X3714481Y3310705D01*
X3567436Y3163659D01*
X3564058Y3160888D01*
X3552999Y3147412D01*
X3544781Y3132037D01*
X3539720Y3115355D01*
X3538440Y3102354D01*
X3538440Y3102353D01*
X3538012Y3098006D01*
X3538440Y3093659D01*
X3538440Y3044970D01*
X3238652Y3044970D01*
X3244718Y3056319D01*
X3252924Y3083369D01*
X3255694Y3111500D01*
X3252924Y3139631D01*
X3244718Y3166681D01*
X3231393Y3191610D01*
X3213461Y3213461D01*
X3191610Y3231393D01*
X3166681Y3244718D01*
X3139631Y3252924D01*
X3118549Y3255000D01*
X3104451Y3255000D01*
X3083369Y3252924D01*
X3056319Y3244718D01*
X3031390Y3231393D01*
X3009539Y3213461D01*
X2991607Y3191610D01*
X2984500Y3178314D01*
X2977393Y3191610D01*
X2959461Y3213461D01*
X2937610Y3231393D01*
X2912681Y3244718D01*
X2885631Y3252924D01*
X2864549Y3255000D01*
X2850451Y3255000D01*
X2829369Y3252924D01*
X2802319Y3244718D01*
X2777390Y3231393D01*
X2755539Y3213461D01*
X2737607Y3191610D01*
X2724282Y3166681D01*
X2716076Y3139631D01*
X2713306Y3111500D01*
X2716076Y3083369D01*
X2724282Y3056319D01*
X2737607Y3031390D01*
X2755539Y3009539D01*
X2777390Y2991607D01*
X2802319Y2978282D01*
X2829369Y2970076D01*
X2850451Y2968000D01*
X2864549Y2968000D01*
X2871796Y2968714D01*
X2378000Y2474918D01*
X2378000Y2500603D01*
X2371717Y2532191D01*
X2359392Y2561946D01*
X2341499Y2588725D01*
X2318725Y2611499D01*
X2291946Y2629392D01*
X2262191Y2641717D01*
X2230603Y2648000D01*
X2198397Y2648000D01*
X2166809Y2641717D01*
X2137054Y2629392D01*
X2110275Y2611499D01*
X2087501Y2588725D01*
X2069608Y2561946D01*
X2057283Y2532191D01*
X2051000Y2500603D01*
X2051000Y2468397D01*
X2057283Y2436809D01*
X2069608Y2407054D01*
X2087501Y2380275D01*
X2110275Y2357501D01*
X2137054Y2339608D01*
X2166809Y2327283D01*
X2198397Y2321000D01*
X2224082Y2321000D01*
X2148362Y2245280D01*
X2121379Y2245280D01*
X2094621Y2239958D01*
X2069416Y2229517D01*
X2046731Y2214360D01*
X2027440Y2195069D01*
X2012283Y2172384D01*
X2001842Y2147179D01*
X1996520Y2120421D01*
X1996520Y2093139D01*
X2001842Y2066381D01*
X2012283Y2041176D01*
X2027440Y2018491D01*
X2032340Y2013592D01*
X2036618Y2008378D01*
X2041832Y2004100D01*
X2046731Y1999200D01*
X2069416Y1984043D01*
X2071732Y1983083D01*
X2053643Y1979485D01*
X2027527Y1968668D01*
X2004024Y1952964D01*
X1984036Y1932976D01*
X1968500Y1909724D01*
X1952964Y1932976D01*
X1932976Y1952964D01*
X1909473Y1968668D01*
X1883357Y1979485D01*
X1855633Y1985000D01*
X1827366Y1985000D01*
X1799643Y1979485D01*
X1773527Y1968668D01*
X1750024Y1952964D01*
X1730036Y1932976D01*
X1714500Y1909724D01*
X1698964Y1932976D01*
X1678976Y1952964D01*
X1655473Y1968668D01*
X1629357Y1979485D01*
X1601633Y1985000D01*
X1573366Y1985000D01*
X1545643Y1979485D01*
X1519527Y1968668D01*
X1496024Y1952964D01*
X1476036Y1932976D01*
X1460500Y1909724D01*
X1444964Y1932976D01*
X1424976Y1952964D01*
X1401473Y1968668D01*
X1375357Y1979485D01*
X1347634Y1985000D01*
X1319367Y1985000D01*
X1291643Y1979485D01*
X1265527Y1968668D01*
X1242024Y1952964D01*
X1222036Y1932976D01*
X1206500Y1909724D01*
X1190964Y1932976D01*
X1170976Y1952964D01*
X1147473Y1968668D01*
X1121357Y1979485D01*
X1093634Y1985000D01*
X1065367Y1985000D01*
X1037643Y1979485D01*
X1011527Y1968668D01*
X988024Y1952964D01*
X968036Y1932976D01*
X952500Y1909724D01*
X936964Y1932976D01*
X916976Y1952964D01*
X893473Y1968668D01*
X867357Y1979485D01*
X839633Y1985000D01*
X811366Y1985000D01*
X783643Y1979485D01*
X757527Y1968668D01*
X734024Y1952964D01*
X714036Y1932976D01*
X698409Y1909587D01*
X695167Y1915651D01*
X670770Y1922810D01*
X589461Y1841500D01*
X553540Y1841500D01*
X472230Y1922810D01*
X447833Y1915651D01*
X444781Y1909201D01*
X444668Y1909473D01*
X428964Y1932976D01*
X421169Y1940770D01*
X490190Y1940770D01*
X571500Y1859460D01*
X652810Y1940770D01*
X645651Y1965167D01*
X620100Y1977257D01*
X592682Y1984130D01*
X564449Y1985522D01*
X536487Y1981379D01*
X509871Y1971860D01*
X497349Y1965167D01*
X490190Y1940770D01*
X421169Y1940770D01*
X408976Y1952964D01*
X385473Y1968668D01*
X359357Y1979485D01*
X331634Y1985000D01*
X303367Y1985000D01*
X275643Y1979485D01*
X249527Y1968668D01*
X226024Y1952964D01*
X206036Y1932976D01*
X190332Y1909473D01*
X179515Y1883357D01*
X174000Y1855633D01*
X129500Y1855633D01*
X129500Y2490259D01*
X939800Y2490259D01*
X939800Y2462741D01*
X945169Y2435751D01*
X955699Y2410327D01*
X970988Y2387447D01*
X990446Y2367988D01*
X1013327Y2352700D01*
X1021051Y2349500D01*
X1013327Y2346301D01*
X990446Y2331012D01*
X970988Y2311554D01*
X955699Y2288673D01*
X945169Y2263249D01*
X939800Y2236259D01*
X939800Y2208741D01*
X945169Y2181751D01*
X955699Y2156327D01*
X970988Y2133447D01*
X990446Y2113988D01*
X1013327Y2098700D01*
X1038751Y2088169D01*
X1065741Y2082800D01*
X1093259Y2082800D01*
X1120249Y2088169D01*
X1145673Y2098700D01*
X1168554Y2113988D01*
X1188012Y2133447D01*
X1203301Y2156327D01*
X1213831Y2181751D01*
X1219200Y2208741D01*
X1219200Y2236259D01*
X1213831Y2263249D01*
X1203301Y2288673D01*
X1188012Y2311554D01*
X1168554Y2331012D01*
X1145673Y2346301D01*
X1137949Y2349500D01*
X1145673Y2352700D01*
X1168554Y2367988D01*
X1188012Y2387447D01*
X1203301Y2410327D01*
X1213831Y2435751D01*
X1219200Y2462741D01*
X1219200Y2490259D01*
X1217143Y2500603D01*
X1551000Y2500603D01*
X1551000Y2468397D01*
X1557283Y2436809D01*
X1569608Y2407054D01*
X1587501Y2380275D01*
X1610275Y2357501D01*
X1637054Y2339608D01*
X1666809Y2327283D01*
X1698397Y2321000D01*
X1730603Y2321000D01*
X1762191Y2327283D01*
X1791946Y2339608D01*
X1818725Y2357501D01*
X1841499Y2380275D01*
X1859392Y2407054D01*
X1871717Y2436809D01*
X1878000Y2468397D01*
X1878000Y2500603D01*
X1871717Y2532191D01*
X1859392Y2561946D01*
X1841499Y2588725D01*
X1818725Y2611499D01*
X1791946Y2629392D01*
X1762191Y2641717D01*
X1730603Y2648000D01*
X1698397Y2648000D01*
X1666809Y2641717D01*
X1637054Y2629392D01*
X1610275Y2611499D01*
X1587501Y2588725D01*
X1569608Y2561946D01*
X1557283Y2532191D01*
X1551000Y2500603D01*
X1217143Y2500603D01*
X1213831Y2517249D01*
X1203301Y2542673D01*
X1188012Y2565554D01*
X1168554Y2585012D01*
X1145673Y2600301D01*
X1120249Y2610831D01*
X1093259Y2616200D01*
X1065741Y2616200D01*
X1038751Y2610831D01*
X1013327Y2600301D01*
X990446Y2585012D01*
X970988Y2565554D01*
X955699Y2542673D01*
X945169Y2517249D01*
X939800Y2490259D01*
X129500Y2490259D01*
X129500Y2744259D01*
X431800Y2744259D01*
X431800Y2716741D01*
X437169Y2689751D01*
X447699Y2664327D01*
X462988Y2641447D01*
X482446Y2621988D01*
X505327Y2606700D01*
X530751Y2596169D01*
X557741Y2590800D01*
X585259Y2590800D01*
X612249Y2596169D01*
X637673Y2606700D01*
X660554Y2621988D01*
X680012Y2641447D01*
X695301Y2664327D01*
X705831Y2689751D01*
X711200Y2716741D01*
X711200Y2744259D01*
X705831Y2771249D01*
X695301Y2796673D01*
X680012Y2819553D01*
X660554Y2839012D01*
X637673Y2854300D01*
X612249Y2864831D01*
X585259Y2870200D01*
X557741Y2870200D01*
X530751Y2864831D01*
X505327Y2854300D01*
X482446Y2839012D01*
X462988Y2819553D01*
X447699Y2796673D01*
X437169Y2771249D01*
X431800Y2744259D01*
X129500Y2744259D01*
X129500Y3760259D01*
X939800Y3760259D01*
X939800Y3732741D01*
X945169Y3705751D01*
X955699Y3680327D01*
X970988Y3657446D01*
X990446Y3637988D01*
X1013327Y3622699D01*
X1021051Y3619500D01*
X1013327Y3616300D01*
X990446Y3601012D01*
X970988Y3581553D01*
X955699Y3558673D01*
X945169Y3533249D01*
X939800Y3506259D01*
X939800Y3478741D01*
X945169Y3451751D01*
X955699Y3426327D01*
X970988Y3403446D01*
X990446Y3383988D01*
X1013327Y3368699D01*
X1021051Y3365500D01*
X1013327Y3362300D01*
X990446Y3347012D01*
X970988Y3327553D01*
X955699Y3304673D01*
X945169Y3279249D01*
X939800Y3252259D01*
X939800Y3224741D01*
X945169Y3197751D01*
X955699Y3172327D01*
X970988Y3149446D01*
X990446Y3129988D01*
X1013327Y3114699D01*
X1021051Y3111500D01*
X1013327Y3108300D01*
X990446Y3093012D01*
X970988Y3073553D01*
X955699Y3050673D01*
X945169Y3025249D01*
X939800Y2998259D01*
X939800Y2970741D01*
X945169Y2943751D01*
X955699Y2918327D01*
X970988Y2895446D01*
X990446Y2875988D01*
X1013327Y2860699D01*
X1038751Y2850169D01*
X1065741Y2844800D01*
X1093259Y2844800D01*
X1120249Y2850169D01*
X1145673Y2860699D01*
X1168554Y2875988D01*
X1188012Y2895446D01*
X1203301Y2918327D01*
X1213831Y2943751D01*
X1219200Y2970741D01*
X1219200Y2998259D01*
X1218734Y3000603D01*
X1551000Y3000603D01*
X1551000Y2968397D01*
X1557283Y2936809D01*
X1569608Y2907054D01*
X1587501Y2880275D01*
X1610275Y2857501D01*
X1637054Y2839608D01*
X1666809Y2827283D01*
X1698397Y2821000D01*
X1730603Y2821000D01*
X1762191Y2827283D01*
X1791946Y2839608D01*
X1818725Y2857501D01*
X1841499Y2880275D01*
X1859392Y2907054D01*
X1871717Y2936809D01*
X1878000Y2968397D01*
X1878000Y3000603D01*
X2051000Y3000603D01*
X2051000Y2968397D01*
X2057283Y2936809D01*
X2069608Y2907054D01*
X2087501Y2880275D01*
X2110275Y2857501D01*
X2137054Y2839608D01*
X2166809Y2827283D01*
X2198397Y2821000D01*
X2230603Y2821000D01*
X2262191Y2827283D01*
X2291946Y2839608D01*
X2318725Y2857501D01*
X2341499Y2880275D01*
X2359392Y2907054D01*
X2371717Y2936809D01*
X2378000Y2968397D01*
X2378000Y3000603D01*
X2371717Y3032191D01*
X2359392Y3061946D01*
X2341499Y3088725D01*
X2318725Y3111499D01*
X2291946Y3129392D01*
X2262191Y3141717D01*
X2230603Y3148000D01*
X2198397Y3148000D01*
X2166809Y3141717D01*
X2137054Y3129392D01*
X2110275Y3111499D01*
X2087501Y3088725D01*
X2069608Y3061946D01*
X2057283Y3032191D01*
X2051000Y3000603D01*
X1878000Y3000603D01*
X1871717Y3032191D01*
X1859392Y3061946D01*
X1841499Y3088725D01*
X1818725Y3111499D01*
X1791946Y3129392D01*
X1762191Y3141717D01*
X1730603Y3148000D01*
X1698397Y3148000D01*
X1666809Y3141717D01*
X1637054Y3129392D01*
X1610275Y3111499D01*
X1587501Y3088725D01*
X1569608Y3061946D01*
X1557283Y3032191D01*
X1551000Y3000603D01*
X1218734Y3000603D01*
X1213831Y3025249D01*
X1203301Y3050673D01*
X1188012Y3073553D01*
X1168554Y3093012D01*
X1145673Y3108300D01*
X1137949Y3111500D01*
X1145673Y3114699D01*
X1168554Y3129988D01*
X1188012Y3149446D01*
X1203301Y3172327D01*
X1213831Y3197751D01*
X1219200Y3224741D01*
X1219200Y3252259D01*
X1213831Y3279249D01*
X1203301Y3304673D01*
X1188012Y3327553D01*
X1168554Y3347012D01*
X1145673Y3362300D01*
X1137949Y3365500D01*
X1145673Y3368699D01*
X1168554Y3383988D01*
X1188012Y3403446D01*
X1203301Y3426327D01*
X1213831Y3451751D01*
X1219200Y3478741D01*
X1219200Y3506259D01*
X1213831Y3533249D01*
X1203301Y3558673D01*
X1188012Y3581553D01*
X1168554Y3601012D01*
X1145673Y3616300D01*
X1137949Y3619500D01*
X1145673Y3622699D01*
X1168554Y3637988D01*
X1188012Y3657446D01*
X1203301Y3680327D01*
X1213831Y3705751D01*
X1219200Y3732741D01*
X1219200Y3760259D01*
X1218734Y3762603D01*
X1559000Y3762603D01*
X1559000Y3730397D01*
X1565283Y3698809D01*
X1577608Y3669054D01*
X1595501Y3642275D01*
X1618275Y3619501D01*
X1645054Y3601608D01*
X1674809Y3589283D01*
X1706397Y3583000D01*
X1738603Y3583000D01*
X1770191Y3589283D01*
X1799946Y3601608D01*
X1826725Y3619501D01*
X1849499Y3642275D01*
X1867392Y3669054D01*
X1879717Y3698809D01*
X1886000Y3730397D01*
X1886000Y3762603D01*
X2059000Y3762603D01*
X2059000Y3730397D01*
X2065283Y3698809D01*
X2077608Y3669054D01*
X2095501Y3642275D01*
X2118275Y3619501D01*
X2145054Y3601608D01*
X2174809Y3589283D01*
X2206397Y3583000D01*
X2238603Y3583000D01*
X2270191Y3589283D01*
X2299946Y3601608D01*
X2326725Y3619501D01*
X2349499Y3642275D01*
X2367392Y3669054D01*
X2379717Y3698809D01*
X2379854Y3699500D01*
X2713693Y3699500D01*
X2713693Y3539500D01*
X2714919Y3527052D01*
X2718550Y3515082D01*
X2724446Y3504051D01*
X2732382Y3494381D01*
X2742051Y3486446D01*
X2753082Y3480550D01*
X2765052Y3476919D01*
X2777500Y3475693D01*
X2937500Y3475693D01*
X2949948Y3476919D01*
X2961918Y3480550D01*
X2972949Y3486446D01*
X2982618Y3494381D01*
X2990554Y3504051D01*
X2996450Y3515082D01*
X3000081Y3527052D01*
X3000323Y3529508D01*
X3015159Y3513148D01*
X3037758Y3496396D01*
X3063191Y3484375D01*
X3076596Y3480310D01*
X3098800Y3492508D01*
X3098800Y3606800D01*
X3124200Y3606800D01*
X3124200Y3492508D01*
X3146404Y3480310D01*
X3159809Y3484375D01*
X3185242Y3496396D01*
X3207841Y3513148D01*
X3226738Y3533987D01*
X3241207Y3558112D01*
X3250691Y3584596D01*
X3238562Y3606800D01*
X3124200Y3606800D01*
X3098800Y3606800D01*
X3096800Y3606800D01*
X3096800Y3632200D01*
X3098800Y3632200D01*
X3098800Y3746491D01*
X3124200Y3746491D01*
X3124200Y3632200D01*
X3238562Y3632200D01*
X3239345Y3633633D01*
X5508000Y3633633D01*
X5508000Y3605366D01*
X5513515Y3577643D01*
X5524332Y3551527D01*
X5540036Y3528024D01*
X5560024Y3508036D01*
X5583527Y3492332D01*
X5609643Y3481515D01*
X5637366Y3476000D01*
X5665633Y3476000D01*
X5693357Y3481515D01*
X5719473Y3492332D01*
X5742976Y3508036D01*
X5762964Y3528024D01*
X5778668Y3551527D01*
X5789485Y3577643D01*
X5795000Y3605366D01*
X5795000Y3633633D01*
X5789485Y3661357D01*
X5778668Y3687473D01*
X5762964Y3710976D01*
X5742976Y3730964D01*
X5719473Y3746668D01*
X5693357Y3757485D01*
X5665633Y3763000D01*
X5637366Y3763000D01*
X5609643Y3757485D01*
X5583527Y3746668D01*
X5560024Y3730964D01*
X5540036Y3710976D01*
X5524332Y3687473D01*
X5513515Y3661357D01*
X5508000Y3633633D01*
X3239345Y3633633D01*
X3250691Y3654404D01*
X3241207Y3680888D01*
X3226738Y3705013D01*
X3207841Y3725852D01*
X3185242Y3742604D01*
X3159809Y3754625D01*
X3146404Y3758690D01*
X3124200Y3746491D01*
X3098800Y3746491D01*
X3076596Y3758690D01*
X3063191Y3754625D01*
X3037758Y3742604D01*
X3015159Y3725852D01*
X3000323Y3709492D01*
X3000081Y3711948D01*
X2996450Y3723918D01*
X2990554Y3734949D01*
X2982618Y3744618D01*
X2972949Y3752554D01*
X2961918Y3758450D01*
X2949948Y3762081D01*
X2937500Y3763307D01*
X2777500Y3763307D01*
X2765052Y3762081D01*
X2753082Y3758450D01*
X2742051Y3752554D01*
X2732382Y3744618D01*
X2724446Y3734949D01*
X2718550Y3723918D01*
X2714919Y3711948D01*
X2713693Y3699500D01*
X2379854Y3699500D01*
X2386000Y3730397D01*
X2386000Y3762603D01*
X2379717Y3794191D01*
X2367392Y3823946D01*
X2349499Y3850725D01*
X2326725Y3873499D01*
X2302029Y3890000D01*
X3729693Y3890000D01*
X3729693Y3730000D01*
X3730919Y3717552D01*
X3734550Y3705582D01*
X3740446Y3694551D01*
X3748381Y3684881D01*
X3758051Y3676946D01*
X3769082Y3671050D01*
X3781052Y3667419D01*
X3793500Y3666193D01*
X3953500Y3666193D01*
X3965948Y3667419D01*
X3977918Y3671050D01*
X3988949Y3676946D01*
X3998618Y3684881D01*
X4006554Y3694551D01*
X4012450Y3705582D01*
X4016081Y3717552D01*
X4017307Y3730000D01*
X4017307Y3810000D01*
X4110306Y3810000D01*
X4113076Y3781869D01*
X4121282Y3754819D01*
X4134607Y3729890D01*
X4152539Y3708039D01*
X4174390Y3690107D01*
X4199319Y3676782D01*
X4226369Y3668576D01*
X4247451Y3666500D01*
X4261549Y3666500D01*
X4282631Y3668576D01*
X4309681Y3676782D01*
X4334610Y3690107D01*
X4356461Y3708039D01*
X4374393Y3729890D01*
X4387718Y3754819D01*
X4395924Y3781869D01*
X4398694Y3810000D01*
X4395924Y3838131D01*
X4387718Y3865181D01*
X4374452Y3890000D01*
X4555193Y3890000D01*
X4555193Y3730000D01*
X4556419Y3717552D01*
X4560050Y3705582D01*
X4565946Y3694551D01*
X4573882Y3684881D01*
X4583551Y3676946D01*
X4594582Y3671050D01*
X4606552Y3667419D01*
X4619000Y3666193D01*
X4779000Y3666193D01*
X4791448Y3667419D01*
X4803418Y3671050D01*
X4814449Y3676946D01*
X4824119Y3684881D01*
X4832054Y3694551D01*
X4837950Y3705582D01*
X4841581Y3717552D01*
X4842807Y3730000D01*
X4842807Y3890000D01*
X4841581Y3902448D01*
X4837950Y3914418D01*
X4832054Y3925449D01*
X4824119Y3935118D01*
X4814449Y3943054D01*
X4803418Y3948950D01*
X4791448Y3952581D01*
X4779000Y3953807D01*
X4619000Y3953807D01*
X4606552Y3952581D01*
X4594582Y3948950D01*
X4583551Y3943054D01*
X4573882Y3935118D01*
X4565946Y3925449D01*
X4560050Y3914418D01*
X4556419Y3902448D01*
X4555193Y3890000D01*
X4374452Y3890000D01*
X4374393Y3890110D01*
X4356461Y3911961D01*
X4334610Y3929893D01*
X4309681Y3943218D01*
X4282631Y3951424D01*
X4261549Y3953500D01*
X4247451Y3953500D01*
X4226369Y3951424D01*
X4199319Y3943218D01*
X4174390Y3929893D01*
X4152539Y3911961D01*
X4134607Y3890110D01*
X4121282Y3865181D01*
X4113076Y3838131D01*
X4110306Y3810000D01*
X4017307Y3810000D01*
X4017307Y3890000D01*
X4016081Y3902448D01*
X4012450Y3914418D01*
X4006554Y3925449D01*
X3998618Y3935118D01*
X3988949Y3943054D01*
X3977918Y3948950D01*
X3965948Y3952581D01*
X3953500Y3953807D01*
X3793500Y3953807D01*
X3781052Y3952581D01*
X3769082Y3948950D01*
X3758051Y3943054D01*
X3748381Y3935118D01*
X3740446Y3925449D01*
X3734550Y3914418D01*
X3730919Y3902448D01*
X3729693Y3890000D01*
X2302029Y3890000D01*
X2299946Y3891392D01*
X2270191Y3903717D01*
X2238603Y3910000D01*
X2206397Y3910000D01*
X2174809Y3903717D01*
X2145054Y3891392D01*
X2118275Y3873499D01*
X2095501Y3850725D01*
X2077608Y3823946D01*
X2065283Y3794191D01*
X2059000Y3762603D01*
X1886000Y3762603D01*
X1879717Y3794191D01*
X1867392Y3823946D01*
X1849499Y3850725D01*
X1826725Y3873499D01*
X1799946Y3891392D01*
X1770191Y3903717D01*
X1738603Y3910000D01*
X1706397Y3910000D01*
X1674809Y3903717D01*
X1645054Y3891392D01*
X1618275Y3873499D01*
X1595501Y3850725D01*
X1577608Y3823946D01*
X1565283Y3794191D01*
X1559000Y3762603D01*
X1218734Y3762603D01*
X1213831Y3787249D01*
X1203301Y3812673D01*
X1188012Y3835553D01*
X1168554Y3855012D01*
X1145673Y3870300D01*
X1120249Y3880831D01*
X1093259Y3886200D01*
X1065741Y3886200D01*
X1038751Y3880831D01*
X1013327Y3870300D01*
X990446Y3855012D01*
X970988Y3835553D01*
X955699Y3812673D01*
X945169Y3787249D01*
X939800Y3760259D01*
X129500Y3760259D01*
X129500Y4014259D01*
X431800Y4014259D01*
X431800Y3986741D01*
X437169Y3959751D01*
X447699Y3934327D01*
X462988Y3911446D01*
X482446Y3891988D01*
X505327Y3876699D01*
X530751Y3866169D01*
X557741Y3860800D01*
X585259Y3860800D01*
X612249Y3866169D01*
X637673Y3876699D01*
X660554Y3891988D01*
X680012Y3911446D01*
X695301Y3934327D01*
X705831Y3959751D01*
X711200Y3986741D01*
X711200Y4014259D01*
X705831Y4041249D01*
X695301Y4066673D01*
X680012Y4089553D01*
X660554Y4109012D01*
X637673Y4124300D01*
X612249Y4134831D01*
X585259Y4140200D01*
X557741Y4140200D01*
X530751Y4134831D01*
X505327Y4124300D01*
X482446Y4109012D01*
X462988Y4089553D01*
X447699Y4066673D01*
X437169Y4041249D01*
X431800Y4014259D01*
X129500Y4014259D01*
X129500Y4522259D01*
X939800Y4522259D01*
X939800Y4494741D01*
X945169Y4467751D01*
X955699Y4442327D01*
X970988Y4419447D01*
X990446Y4399988D01*
X1013327Y4384700D01*
X1021051Y4381500D01*
X1013327Y4378301D01*
X990446Y4363012D01*
X970988Y4343554D01*
X955699Y4320673D01*
X945169Y4295249D01*
X939800Y4268259D01*
X939800Y4240741D01*
X945169Y4213751D01*
X955699Y4188327D01*
X970988Y4165446D01*
X990446Y4145988D01*
X1013327Y4130699D01*
X1038751Y4120169D01*
X1065741Y4114800D01*
X1093259Y4114800D01*
X1120249Y4120169D01*
X1145673Y4130699D01*
X1168554Y4145988D01*
X1188012Y4165446D01*
X1203301Y4188327D01*
X1213831Y4213751D01*
X1219200Y4240741D01*
X1219200Y4262603D01*
X1559000Y4262603D01*
X1559000Y4230397D01*
X1565283Y4198809D01*
X1577608Y4169054D01*
X1595501Y4142275D01*
X1618275Y4119501D01*
X1645054Y4101608D01*
X1674809Y4089283D01*
X1706397Y4083000D01*
X1738603Y4083000D01*
X1770191Y4089283D01*
X1799946Y4101608D01*
X1826725Y4119501D01*
X1849499Y4142275D01*
X1867392Y4169054D01*
X1879717Y4198809D01*
X1886000Y4230397D01*
X1886000Y4262603D01*
X2059000Y4262603D01*
X2059000Y4230397D01*
X2065283Y4198809D01*
X2077608Y4169054D01*
X2095501Y4142275D01*
X2118275Y4119501D01*
X2145054Y4101608D01*
X2174809Y4089283D01*
X2206397Y4083000D01*
X2238603Y4083000D01*
X2270191Y4089283D01*
X2299946Y4101608D01*
X2326725Y4119501D01*
X2349499Y4142275D01*
X2367392Y4169054D01*
X2379717Y4198809D01*
X2386000Y4230397D01*
X2386000Y4262603D01*
X2379717Y4294191D01*
X2367392Y4323946D01*
X2349499Y4350725D01*
X2326725Y4373499D01*
X2314751Y4381500D01*
X2713306Y4381500D01*
X2716076Y4353369D01*
X2724282Y4326319D01*
X2737607Y4301390D01*
X2755539Y4279539D01*
X2777390Y4261607D01*
X2802319Y4248282D01*
X2829369Y4240076D01*
X2850451Y4238000D01*
X2864549Y4238000D01*
X2885631Y4240076D01*
X2912681Y4248282D01*
X2937610Y4261607D01*
X2959461Y4279539D01*
X2977393Y4301390D01*
X2984500Y4314686D01*
X2991607Y4301390D01*
X3009539Y4279539D01*
X3031390Y4261607D01*
X3056319Y4248282D01*
X3083369Y4240076D01*
X3104451Y4238000D01*
X3118549Y4238000D01*
X3139631Y4240076D01*
X3166681Y4248282D01*
X3191610Y4261607D01*
X3213461Y4279539D01*
X3231393Y4301390D01*
X3233483Y4305300D01*
X4258000Y4305300D01*
X4258000Y4265300D01*
X4262851Y4241450D01*
X4272261Y4219005D01*
X4285869Y4198828D01*
X4303153Y4181692D01*
X4323447Y4168258D01*
X4345972Y4159041D01*
X4349739Y4158654D01*
X4368800Y4171127D01*
X4368800Y4305300D01*
X4394200Y4305300D01*
X4394200Y4171127D01*
X4413261Y4158654D01*
X4417028Y4159041D01*
X4439553Y4168258D01*
X4459847Y4181692D01*
X4477131Y4198828D01*
X4490739Y4219005D01*
X4500149Y4241450D01*
X4505000Y4265300D01*
X4505000Y4305300D01*
X4394200Y4305300D01*
X4368800Y4305300D01*
X4258000Y4305300D01*
X3233483Y4305300D01*
X3244718Y4326319D01*
X3252924Y4353369D01*
X3254630Y4370700D01*
X4258000Y4370700D01*
X4258000Y4330700D01*
X4368800Y4330700D01*
X4368800Y4464873D01*
X4394200Y4464873D01*
X4394200Y4330700D01*
X4505000Y4330700D01*
X4505000Y4364066D01*
X4512000Y4364066D01*
X4512000Y4271934D01*
X4513787Y4253790D01*
X4520849Y4230510D01*
X4532317Y4209055D01*
X4547750Y4190250D01*
X4566555Y4174817D01*
X4588010Y4163349D01*
X4611290Y4156287D01*
X4635500Y4153902D01*
X4659710Y4156287D01*
X4682990Y4163349D01*
X4704445Y4174817D01*
X4723250Y4190250D01*
X4738683Y4209055D01*
X4750151Y4230510D01*
X4757213Y4253790D01*
X4759000Y4271934D01*
X4759000Y4364066D01*
X4766000Y4364066D01*
X4766000Y4271934D01*
X4767787Y4253790D01*
X4774849Y4230510D01*
X4786317Y4209055D01*
X4801750Y4190250D01*
X4820555Y4174817D01*
X4842010Y4163349D01*
X4865290Y4156287D01*
X4889500Y4153902D01*
X4913710Y4156287D01*
X4936990Y4163349D01*
X4958445Y4174817D01*
X4977250Y4190250D01*
X4992683Y4209055D01*
X5004151Y4230510D01*
X5011213Y4253790D01*
X5013000Y4271934D01*
X5013000Y4364066D01*
X5020000Y4364066D01*
X5020000Y4271934D01*
X5021787Y4253790D01*
X5028849Y4230510D01*
X5040317Y4209055D01*
X5055750Y4190250D01*
X5074555Y4174817D01*
X5096010Y4163349D01*
X5119290Y4156287D01*
X5143500Y4153902D01*
X5167710Y4156287D01*
X5190990Y4163349D01*
X5212445Y4174817D01*
X5231250Y4190250D01*
X5246683Y4209055D01*
X5258151Y4230510D01*
X5265213Y4253790D01*
X5267000Y4271934D01*
X5267000Y4364067D01*
X5265213Y4382210D01*
X5258151Y4405490D01*
X5246683Y4426945D01*
X5231250Y4445750D01*
X5212445Y4461183D01*
X5190990Y4472651D01*
X5167710Y4479713D01*
X5143500Y4482098D01*
X5119290Y4479713D01*
X5096010Y4472651D01*
X5074555Y4461183D01*
X5055750Y4445750D01*
X5040317Y4426945D01*
X5028849Y4405490D01*
X5021787Y4382210D01*
X5020000Y4364066D01*
X5013000Y4364066D01*
X5013000Y4364067D01*
X5011213Y4382210D01*
X5004151Y4405490D01*
X4992683Y4426945D01*
X4977250Y4445750D01*
X4958445Y4461183D01*
X4936990Y4472651D01*
X4913710Y4479713D01*
X4889500Y4482098D01*
X4865290Y4479713D01*
X4842010Y4472651D01*
X4820555Y4461183D01*
X4801750Y4445750D01*
X4786317Y4426945D01*
X4774849Y4405490D01*
X4767787Y4382210D01*
X4766000Y4364066D01*
X4759000Y4364066D01*
X4759000Y4364067D01*
X4757213Y4382210D01*
X4750151Y4405490D01*
X4738683Y4426945D01*
X4723250Y4445750D01*
X4704445Y4461183D01*
X4682990Y4472651D01*
X4659710Y4479713D01*
X4635500Y4482098D01*
X4611290Y4479713D01*
X4588010Y4472651D01*
X4566555Y4461183D01*
X4547750Y4445750D01*
X4532317Y4426945D01*
X4520849Y4405490D01*
X4513787Y4382210D01*
X4512000Y4364066D01*
X4505000Y4364066D01*
X4505000Y4370700D01*
X4500149Y4394550D01*
X4490739Y4416995D01*
X4477131Y4437173D01*
X4459847Y4454308D01*
X4439553Y4467742D01*
X4417028Y4476959D01*
X4413261Y4477346D01*
X4394200Y4464873D01*
X4368800Y4464873D01*
X4349739Y4477346D01*
X4345972Y4476959D01*
X4323447Y4467742D01*
X4303153Y4454308D01*
X4285869Y4437173D01*
X4272261Y4416995D01*
X4262851Y4394550D01*
X4258000Y4370700D01*
X3254630Y4370700D01*
X3255694Y4381500D01*
X3252924Y4409631D01*
X3244718Y4436681D01*
X3231393Y4461610D01*
X3213461Y4483461D01*
X3191610Y4501393D01*
X3166681Y4514718D01*
X3139631Y4522924D01*
X3118549Y4525000D01*
X3104451Y4525000D01*
X3083369Y4522924D01*
X3056319Y4514718D01*
X3031390Y4501393D01*
X3009539Y4483461D01*
X2991607Y4461610D01*
X2984500Y4448314D01*
X2977393Y4461610D01*
X2959461Y4483461D01*
X2937610Y4501393D01*
X2912681Y4514718D01*
X2885631Y4522924D01*
X2864549Y4525000D01*
X2850451Y4525000D01*
X2829369Y4522924D01*
X2802319Y4514718D01*
X2777390Y4501393D01*
X2755539Y4483461D01*
X2737607Y4461610D01*
X2724282Y4436681D01*
X2716076Y4409631D01*
X2713306Y4381500D01*
X2314751Y4381500D01*
X2299946Y4391392D01*
X2270191Y4403717D01*
X2238603Y4410000D01*
X2206397Y4410000D01*
X2174809Y4403717D01*
X2145054Y4391392D01*
X2118275Y4373499D01*
X2095501Y4350725D01*
X2077608Y4323946D01*
X2065283Y4294191D01*
X2059000Y4262603D01*
X1886000Y4262603D01*
X1879717Y4294191D01*
X1867392Y4323946D01*
X1849499Y4350725D01*
X1826725Y4373499D01*
X1799946Y4391392D01*
X1770191Y4403717D01*
X1738603Y4410000D01*
X1706397Y4410000D01*
X1674809Y4403717D01*
X1645054Y4391392D01*
X1618275Y4373499D01*
X1595501Y4350725D01*
X1577608Y4323946D01*
X1565283Y4294191D01*
X1559000Y4262603D01*
X1219200Y4262603D01*
X1219200Y4268259D01*
X1213831Y4295249D01*
X1203301Y4320673D01*
X1188012Y4343554D01*
X1168554Y4363012D01*
X1145673Y4378301D01*
X1137949Y4381500D01*
X1145673Y4384700D01*
X1168554Y4399988D01*
X1188012Y4419447D01*
X1203301Y4442327D01*
X1213831Y4467751D01*
X1219200Y4494741D01*
X1219200Y4522259D01*
X1213831Y4549249D01*
X1203301Y4574673D01*
X1188012Y4597554D01*
X1168554Y4617012D01*
X1145673Y4632301D01*
X1120249Y4642831D01*
X1093259Y4648200D01*
X1065741Y4648200D01*
X1038751Y4642831D01*
X1013327Y4632301D01*
X990446Y4617012D01*
X970988Y4597554D01*
X955699Y4574673D01*
X945169Y4549249D01*
X939800Y4522259D01*
X129500Y4522259D01*
X129500Y4696500D01*
X8646200Y4696500D01*
X8646200Y1313582D01*
X8646200Y1313582D01*
G37*
X8646200Y1313582D02*
X8644205Y1315219D01*
X8477519Y1481904D01*
X8474748Y1485282D01*
X8461272Y1496341D01*
X8445897Y1504559D01*
X8437391Y1507139D01*
X8445668Y1519527D01*
X8456485Y1545643D01*
X8462000Y1573366D01*
X8462000Y1601633D01*
X8456485Y1629357D01*
X8445668Y1655473D01*
X8429964Y1678976D01*
X8409976Y1698964D01*
X8386473Y1714668D01*
X8360357Y1725485D01*
X8332633Y1731000D01*
X8304366Y1731000D01*
X8276643Y1725485D01*
X8250527Y1714668D01*
X8227024Y1698964D01*
X8207036Y1678976D01*
X8191332Y1655473D01*
X8180515Y1629357D01*
X8175000Y1601633D01*
X8175000Y1573366D01*
X8180515Y1545643D01*
X8191332Y1519527D01*
X8197729Y1509954D01*
X8183063Y1488004D01*
X8172622Y1462799D01*
X8167300Y1436041D01*
X8167300Y1408759D01*
X8172622Y1382001D01*
X8183063Y1356796D01*
X8198220Y1334111D01*
X8203309Y1329023D01*
X8198390Y1326393D01*
X8176539Y1308461D01*
X8158607Y1286610D01*
X8145282Y1261681D01*
X8137076Y1234631D01*
X8134306Y1206500D01*
X8137076Y1178369D01*
X8145282Y1151319D01*
X8158607Y1126390D01*
X8176539Y1104539D01*
X8198390Y1086607D01*
X8211686Y1079500D01*
X8198390Y1072393D01*
X8176539Y1054461D01*
X8158607Y1032610D01*
X8145282Y1007681D01*
X8137076Y980631D01*
X8134306Y952500D01*
X8137076Y924369D01*
X8145282Y897319D01*
X8158607Y872390D01*
X8176539Y850539D01*
X8198390Y832607D01*
X8211686Y825500D01*
X8198390Y818393D01*
X8176539Y800461D01*
X8158607Y778610D01*
X8145282Y753681D01*
X8137076Y726631D01*
X8134306Y698500D01*
X8137076Y670369D01*
X8145282Y643319D01*
X8158607Y618390D01*
X8176539Y596539D01*
X8187848Y587258D01*
X8186052Y587081D01*
X8174082Y583450D01*
X8163051Y577554D01*
X8153381Y569619D01*
X8145446Y559949D01*
X8139550Y548918D01*
X8135919Y536948D01*
X8134693Y524500D01*
X8134693Y364500D01*
X8135919Y352052D01*
X8139550Y340082D01*
X8145446Y329051D01*
X8153381Y319382D01*
X8163051Y311446D01*
X8174082Y305550D01*
X8186052Y301919D01*
X8198500Y300693D01*
X8438500Y300693D01*
X8450948Y301919D01*
X8462918Y305550D01*
X8473949Y311446D01*
X8483619Y319382D01*
X8491554Y329051D01*
X8497450Y340082D01*
X8501081Y352052D01*
X8502307Y364500D01*
X8502307Y524500D01*
X8501081Y536948D01*
X8497450Y548918D01*
X8491554Y559949D01*
X8483619Y569619D01*
X8473949Y577554D01*
X8462918Y583450D01*
X8450948Y587081D01*
X8449152Y587258D01*
X8460461Y596539D01*
X8478393Y618390D01*
X8491718Y643319D01*
X8499924Y670369D01*
X8502694Y698500D01*
X8499924Y726631D01*
X8491718Y753681D01*
X8478393Y778610D01*
X8460461Y800461D01*
X8438610Y818393D01*
X8425314Y825500D01*
X8438610Y832607D01*
X8460461Y850539D01*
X8460979Y851171D01*
X8461963Y848796D01*
X8477120Y826111D01*
X8496411Y806820D01*
X8519096Y791663D01*
X8544301Y781222D01*
X8571059Y775900D01*
X8598341Y775900D01*
X8625099Y781222D01*
X8646200Y789963D01*
X8646200Y129500D01*
X129500Y129500D01*
X129500Y397500D01*
X173693Y397500D01*
X173693Y237500D01*
X174919Y225052D01*
X178550Y213082D01*
X184446Y202051D01*
X192381Y192381D01*
X202051Y184446D01*
X213082Y178550D01*
X225052Y174919D01*
X237500Y173693D01*
X397500Y173693D01*
X409948Y174919D01*
X421918Y178550D01*
X432949Y184446D01*
X442618Y192381D01*
X450554Y202051D01*
X456450Y213082D01*
X460081Y225052D01*
X460164Y225896D01*
X480024Y206036D01*
X503527Y190332D01*
X529643Y179515D01*
X557367Y174000D01*
X585634Y174000D01*
X613357Y179515D01*
X639473Y190332D01*
X662976Y206036D01*
X675169Y218230D01*
X744190Y218230D01*
X751349Y193833D01*
X776900Y181743D01*
X804318Y174870D01*
X832551Y173478D01*
X860513Y177621D01*
X887129Y187140D01*
X899651Y193833D01*
X906810Y218230D01*
X998190Y218230D01*
X1005349Y193833D01*
X1030900Y181743D01*
X1058318Y174870D01*
X1086551Y173478D01*
X1114513Y177621D01*
X1141129Y187140D01*
X1153651Y193833D01*
X1160810Y218230D01*
X1079500Y299540D01*
X998190Y218230D01*
X906810Y218230D01*
X825500Y299540D01*
X744190Y218230D01*
X675169Y218230D01*
X682964Y226024D01*
X698592Y249413D01*
X701833Y243349D01*
X726230Y236190D01*
X807539Y317500D01*
X843460Y317500D01*
X924770Y236190D01*
X949167Y243349D01*
X952297Y249964D01*
X955833Y243349D01*
X980230Y236190D01*
X1061540Y317500D01*
X1097461Y317500D01*
X1178770Y236190D01*
X1203167Y243349D01*
X1206219Y249799D01*
X1206332Y249527D01*
X1222036Y226024D01*
X1242024Y206036D01*
X1265527Y190332D01*
X1291643Y179515D01*
X1319367Y174000D01*
X1347634Y174000D01*
X1375357Y179515D01*
X1401473Y190332D01*
X1424976Y206036D01*
X1444964Y226024D01*
X1460500Y249276D01*
X1476036Y226024D01*
X1496024Y206036D01*
X1519527Y190332D01*
X1545643Y179515D01*
X1573366Y174000D01*
X1601633Y174000D01*
X1629357Y179515D01*
X1655473Y190332D01*
X1678976Y206036D01*
X1698964Y226024D01*
X1714500Y249276D01*
X1730036Y226024D01*
X1750024Y206036D01*
X1773527Y190332D01*
X1799643Y179515D01*
X1827366Y174000D01*
X1855633Y174000D01*
X1883357Y179515D01*
X1909473Y190332D01*
X1932976Y206036D01*
X1952964Y226024D01*
X1968500Y249276D01*
X1984036Y226024D01*
X2004024Y206036D01*
X2027527Y190332D01*
X2053643Y179515D01*
X2081366Y174000D01*
X2109634Y174000D01*
X2137357Y179515D01*
X2163473Y190332D01*
X2186976Y206036D01*
X2206964Y226024D01*
X2222500Y249276D01*
X2238036Y226024D01*
X2258024Y206036D01*
X2281527Y190332D01*
X2307643Y179515D01*
X2335367Y174000D01*
X2363634Y174000D01*
X2391357Y179515D01*
X2417473Y190332D01*
X2440976Y206036D01*
X2460964Y226024D01*
X2476500Y249276D01*
X2492036Y226024D01*
X2512024Y206036D01*
X2535527Y190332D01*
X2561643Y179515D01*
X2589367Y174000D01*
X2617634Y174000D01*
X2645357Y179515D01*
X2671473Y190332D01*
X2694976Y206036D01*
X2714964Y226024D01*
X2730500Y249276D01*
X2746036Y226024D01*
X2766024Y206036D01*
X2789527Y190332D01*
X2815643Y179515D01*
X2843366Y174000D01*
X2871633Y174000D01*
X2899357Y179515D01*
X2925473Y190332D01*
X2948976Y206036D01*
X2968964Y226024D01*
X2984500Y249276D01*
X3000036Y226024D01*
X3020024Y206036D01*
X3043527Y190332D01*
X3069643Y179515D01*
X3097366Y174000D01*
X3125633Y174000D01*
X3153357Y179515D01*
X3179473Y190332D01*
X3202976Y206036D01*
X3222964Y226024D01*
X3238668Y249527D01*
X3249485Y275643D01*
X3255000Y303367D01*
X3255000Y331634D01*
X3249485Y359357D01*
X3238668Y385473D01*
X3222964Y408976D01*
X3202976Y428964D01*
X3179473Y444668D01*
X3153357Y455485D01*
X3125633Y461000D01*
X3097366Y461000D01*
X3069643Y455485D01*
X3043527Y444668D01*
X3020024Y428964D01*
X3000036Y408976D01*
X2984500Y385724D01*
X2968964Y408976D01*
X2948976Y428964D01*
X2925473Y444668D01*
X2899357Y455485D01*
X2871633Y461000D01*
X2843366Y461000D01*
X2815643Y455485D01*
X2789527Y444668D01*
X2766024Y428964D01*
X2746036Y408976D01*
X2730500Y385724D01*
X2714964Y408976D01*
X2694976Y428964D01*
X2671473Y444668D01*
X2645357Y455485D01*
X2617634Y461000D01*
X2589367Y461000D01*
X2561643Y455485D01*
X2552614Y451746D01*
X2571380Y470511D01*
X2574341Y474943D01*
X3921904Y474943D01*
X3928602Y450934D01*
X3953505Y439224D01*
X3980213Y432598D01*
X4007702Y431309D01*
X4034913Y435408D01*
X4060802Y444736D01*
X4072398Y450934D01*
X4079096Y474943D01*
X5318904Y474943D01*
X5325602Y450934D01*
X5350505Y439224D01*
X5377214Y432598D01*
X5404702Y431309D01*
X5431913Y435408D01*
X5457802Y444736D01*
X5469398Y450934D01*
X5476096Y474943D01*
X5472762Y478278D01*
X6483000Y478278D01*
X6483000Y442722D01*
X6489936Y407850D01*
X6503543Y375001D01*
X6523296Y345438D01*
X6548438Y320297D01*
X6578001Y300543D01*
X6610850Y286937D01*
X6645722Y280000D01*
X6681278Y280000D01*
X6716150Y286937D01*
X6748999Y300543D01*
X6778562Y320297D01*
X6803703Y345438D01*
X6823457Y375001D01*
X6837063Y407850D01*
X6844000Y442722D01*
X6844000Y478278D01*
X6837063Y513150D01*
X6823457Y545999D01*
X6803703Y575562D01*
X6778562Y600704D01*
X6748999Y620457D01*
X6716150Y634064D01*
X6681278Y641000D01*
X6645722Y641000D01*
X6610850Y634064D01*
X6578001Y620457D01*
X6548438Y600704D01*
X6523296Y575562D01*
X6503543Y545999D01*
X6489936Y513150D01*
X6483000Y478278D01*
X5472762Y478278D01*
X5397500Y553540D01*
X5318904Y474943D01*
X4079096Y474943D01*
X4000500Y553540D01*
X3921904Y474943D01*
X2574341Y474943D01*
X2586537Y493196D01*
X2596978Y518401D01*
X2602300Y545159D01*
X2602300Y546123D01*
X2606949Y546580D01*
X2623631Y551641D01*
X2639006Y559859D01*
X2644415Y564298D01*
X3860309Y564298D01*
X3864408Y537087D01*
X3873736Y511198D01*
X3879934Y499602D01*
X3903943Y492904D01*
X3982539Y571500D01*
X4018460Y571500D01*
X4097056Y492904D01*
X4121066Y499602D01*
X4132776Y524505D01*
X4139402Y551214D01*
X4140016Y564298D01*
X5257309Y564298D01*
X5261408Y537087D01*
X5270736Y511198D01*
X5276934Y499602D01*
X5300944Y492904D01*
X5379540Y571500D01*
X5415461Y571500D01*
X5494057Y492904D01*
X5518066Y499602D01*
X5529776Y524505D01*
X5536402Y551214D01*
X5537691Y578702D01*
X5533592Y605913D01*
X5524264Y631802D01*
X5518066Y643398D01*
X5494057Y650096D01*
X5415461Y571500D01*
X5379540Y571500D01*
X5300944Y650096D01*
X5276934Y643398D01*
X5265224Y618495D01*
X5258598Y591787D01*
X5257309Y564298D01*
X4140016Y564298D01*
X4140691Y578702D01*
X4136592Y605913D01*
X4127264Y631802D01*
X4121066Y643398D01*
X4097056Y650096D01*
X4018460Y571500D01*
X3982539Y571500D01*
X3903943Y650096D01*
X3879934Y643398D01*
X3868224Y618495D01*
X3861598Y591787D01*
X3860309Y564298D01*
X2644415Y564298D01*
X2652482Y570918D01*
X2655253Y574296D01*
X2749014Y668057D01*
X3921904Y668057D01*
X4000500Y589461D01*
X4079096Y668057D01*
X5318904Y668057D01*
X5397500Y589461D01*
X5476096Y668057D01*
X5469398Y692066D01*
X5444495Y703776D01*
X5417787Y710402D01*
X5390298Y711691D01*
X5363087Y707592D01*
X5337198Y698264D01*
X5325602Y692066D01*
X5318904Y668057D01*
X4079096Y668057D01*
X4072398Y692066D01*
X4047495Y703776D01*
X4020786Y710402D01*
X3993298Y711691D01*
X3966087Y707592D01*
X3940198Y698264D01*
X3928602Y692066D01*
X3921904Y668057D01*
X2749014Y668057D01*
X2777305Y696347D01*
X2780682Y699118D01*
X2791741Y712594D01*
X2799959Y727969D01*
X2805019Y744651D01*
X2806145Y756076D01*
X2825380Y775311D01*
X2840537Y797996D01*
X2850977Y823201D01*
X2856300Y849959D01*
X2856300Y877241D01*
X2850977Y903999D01*
X2840537Y929204D01*
X2825380Y951889D01*
X2806300Y970968D01*
X2806300Y1061032D01*
X2825380Y1080111D01*
X2834165Y1093259D01*
X3352800Y1093259D01*
X3352800Y1065741D01*
X3358169Y1038751D01*
X3368699Y1013327D01*
X3383988Y990446D01*
X3403446Y970988D01*
X3426327Y955699D01*
X3451751Y945169D01*
X3478741Y939800D01*
X3506259Y939800D01*
X3533249Y945169D01*
X3558673Y955699D01*
X3581553Y970988D01*
X3601012Y990446D01*
X3616300Y1013327D01*
X3619500Y1021051D01*
X3622699Y1013327D01*
X3637988Y990446D01*
X3657446Y970988D01*
X3680327Y955699D01*
X3705751Y945169D01*
X3732741Y939800D01*
X3760259Y939800D01*
X3787249Y945169D01*
X3812673Y955699D01*
X3835553Y970988D01*
X3855012Y990446D01*
X3870300Y1013327D01*
X3880831Y1038751D01*
X3886200Y1065741D01*
X3886200Y1093259D01*
X4114800Y1093259D01*
X4114800Y1065741D01*
X4120169Y1038751D01*
X4130699Y1013327D01*
X4145988Y990446D01*
X4165446Y970988D01*
X4188327Y955699D01*
X4213751Y945169D01*
X4240741Y939800D01*
X4268259Y939800D01*
X4295249Y945169D01*
X4320673Y955699D01*
X4343554Y970988D01*
X4363012Y990446D01*
X4378301Y1013327D01*
X4381500Y1021051D01*
X4384700Y1013327D01*
X4399988Y990446D01*
X4419447Y970988D01*
X4442327Y955699D01*
X4467751Y945169D01*
X4494741Y939800D01*
X4522259Y939800D01*
X4549249Y945169D01*
X4574673Y955699D01*
X4597554Y970988D01*
X4617012Y990446D01*
X4632301Y1013327D01*
X4642831Y1038751D01*
X4648200Y1065741D01*
X4648200Y1093259D01*
X4749800Y1093259D01*
X4749800Y1065741D01*
X4755169Y1038751D01*
X4765700Y1013327D01*
X4780988Y990446D01*
X4800447Y970988D01*
X4823327Y955699D01*
X4848751Y945169D01*
X4875741Y939800D01*
X4903259Y939800D01*
X4930249Y945169D01*
X4955673Y955699D01*
X4978554Y970988D01*
X4998012Y990446D01*
X5013301Y1013327D01*
X5016500Y1021051D01*
X5019700Y1013327D01*
X5034988Y990446D01*
X5054447Y970988D01*
X5077327Y955699D01*
X5102751Y945169D01*
X5129741Y939800D01*
X5157259Y939800D01*
X5184249Y945169D01*
X5209673Y955699D01*
X5232554Y970988D01*
X5252012Y990446D01*
X5267301Y1013327D01*
X5277831Y1038751D01*
X5283200Y1065741D01*
X5283200Y1093259D01*
X5511800Y1093259D01*
X5511800Y1065741D01*
X5517169Y1038751D01*
X5527700Y1013327D01*
X5542988Y990446D01*
X5562447Y970988D01*
X5585327Y955699D01*
X5610751Y945169D01*
X5637741Y939800D01*
X5665259Y939800D01*
X5692249Y945169D01*
X5717673Y955699D01*
X5740553Y970988D01*
X5760012Y990446D01*
X5775300Y1013327D01*
X5778500Y1021051D01*
X5781699Y1013327D01*
X5796988Y990446D01*
X5816446Y970988D01*
X5839327Y955699D01*
X5864751Y945169D01*
X5891741Y939800D01*
X5919259Y939800D01*
X5946249Y945169D01*
X5971673Y955699D01*
X5994553Y970988D01*
X6014012Y990446D01*
X6029300Y1013327D01*
X6039831Y1038751D01*
X6045200Y1065741D01*
X6045200Y1093259D01*
X6039831Y1120249D01*
X6029300Y1145673D01*
X6014012Y1168554D01*
X5994553Y1188012D01*
X5971673Y1203301D01*
X5963948Y1206500D01*
X7372306Y1206500D01*
X7375076Y1178369D01*
X7383282Y1151319D01*
X7396607Y1126390D01*
X7414539Y1104539D01*
X7436390Y1086607D01*
X7449686Y1079500D01*
X7436390Y1072393D01*
X7414539Y1054461D01*
X7396607Y1032610D01*
X7383282Y1007681D01*
X7375076Y980631D01*
X7372306Y952500D01*
X7375076Y924369D01*
X7383282Y897319D01*
X7396607Y872390D01*
X7414539Y850539D01*
X7436390Y832607D01*
X7449686Y825500D01*
X7436390Y818393D01*
X7414539Y800461D01*
X7396607Y778610D01*
X7383282Y753681D01*
X7375076Y726631D01*
X7372306Y698500D01*
X7375076Y670369D01*
X7383282Y643319D01*
X7396607Y618390D01*
X7414539Y596539D01*
X7436390Y578607D01*
X7449686Y571500D01*
X7436390Y564393D01*
X7414539Y546461D01*
X7396607Y524610D01*
X7383282Y499681D01*
X7375076Y472631D01*
X7372306Y444500D01*
X7375076Y416369D01*
X7383282Y389319D01*
X7396607Y364390D01*
X7414539Y342539D01*
X7436390Y324607D01*
X7461319Y311282D01*
X7488369Y303076D01*
X7509451Y301000D01*
X7603549Y301000D01*
X7624631Y303076D01*
X7651681Y311282D01*
X7676610Y324607D01*
X7698461Y342539D01*
X7716393Y364390D01*
X7729718Y389319D01*
X7737924Y416369D01*
X7740694Y444500D01*
X7737924Y472631D01*
X7729718Y499681D01*
X7716393Y524610D01*
X7698461Y546461D01*
X7676610Y564393D01*
X7663314Y571500D01*
X7676610Y578607D01*
X7698461Y596539D01*
X7716393Y618390D01*
X7729718Y643319D01*
X7737924Y670369D01*
X7740694Y698500D01*
X7737924Y726631D01*
X7729718Y753681D01*
X7716393Y778610D01*
X7698461Y800461D01*
X7676610Y818393D01*
X7663314Y825500D01*
X7676610Y832607D01*
X7698461Y850539D01*
X7716393Y872390D01*
X7729718Y897319D01*
X7737924Y924369D01*
X7740694Y952500D01*
X7737924Y980631D01*
X7729718Y1007681D01*
X7716393Y1032610D01*
X7698461Y1054461D01*
X7676610Y1072393D01*
X7663314Y1079500D01*
X7676610Y1086607D01*
X7698461Y1104539D01*
X7716393Y1126390D01*
X7729718Y1151319D01*
X7737924Y1178369D01*
X7740694Y1206500D01*
X7737924Y1234631D01*
X7729718Y1261681D01*
X7716393Y1286610D01*
X7698461Y1308461D01*
X7676610Y1326393D01*
X7651681Y1339718D01*
X7624631Y1347924D01*
X7603549Y1350000D01*
X7509451Y1350000D01*
X7488369Y1347924D01*
X7461319Y1339718D01*
X7436390Y1326393D01*
X7414539Y1308461D01*
X7396607Y1286610D01*
X7383282Y1261681D01*
X7375076Y1234631D01*
X7372306Y1206500D01*
X5963948Y1206500D01*
X5946249Y1213831D01*
X5919259Y1219200D01*
X5891741Y1219200D01*
X5864751Y1213831D01*
X5839327Y1203301D01*
X5816446Y1188012D01*
X5796988Y1168554D01*
X5781699Y1145673D01*
X5778500Y1137949D01*
X5775300Y1145673D01*
X5760012Y1168554D01*
X5740553Y1188012D01*
X5717673Y1203301D01*
X5692249Y1213831D01*
X5665259Y1219200D01*
X5637741Y1219200D01*
X5610751Y1213831D01*
X5585327Y1203301D01*
X5562447Y1188012D01*
X5542988Y1168554D01*
X5527700Y1145673D01*
X5517169Y1120249D01*
X5511800Y1093259D01*
X5283200Y1093259D01*
X5277831Y1120249D01*
X5267301Y1145673D01*
X5252012Y1168554D01*
X5232554Y1188012D01*
X5209673Y1203301D01*
X5184249Y1213831D01*
X5157259Y1219200D01*
X5129741Y1219200D01*
X5102751Y1213831D01*
X5077327Y1203301D01*
X5054447Y1188012D01*
X5034988Y1168554D01*
X5019700Y1145673D01*
X5016500Y1137949D01*
X5013301Y1145673D01*
X4998012Y1168554D01*
X4978554Y1188012D01*
X4955673Y1203301D01*
X4930249Y1213831D01*
X4903259Y1219200D01*
X4875741Y1219200D01*
X4848751Y1213831D01*
X4823327Y1203301D01*
X4800447Y1188012D01*
X4780988Y1168554D01*
X4765700Y1145673D01*
X4755169Y1120249D01*
X4749800Y1093259D01*
X4648200Y1093259D01*
X4642831Y1120249D01*
X4632301Y1145673D01*
X4617012Y1168554D01*
X4597554Y1188012D01*
X4574673Y1203301D01*
X4549249Y1213831D01*
X4522259Y1219200D01*
X4494741Y1219200D01*
X4467751Y1213831D01*
X4442327Y1203301D01*
X4419447Y1188012D01*
X4399988Y1168554D01*
X4384700Y1145673D01*
X4381500Y1137949D01*
X4378301Y1145673D01*
X4363012Y1168554D01*
X4343554Y1188012D01*
X4320673Y1203301D01*
X4295249Y1213831D01*
X4268259Y1219200D01*
X4240741Y1219200D01*
X4213751Y1213831D01*
X4188327Y1203301D01*
X4165446Y1188012D01*
X4145988Y1168554D01*
X4130699Y1145673D01*
X4120169Y1120249D01*
X4114800Y1093259D01*
X3886200Y1093259D01*
X3880831Y1120249D01*
X3870300Y1145673D01*
X3855012Y1168554D01*
X3835553Y1188012D01*
X3812673Y1203301D01*
X3787249Y1213831D01*
X3760259Y1219200D01*
X3732741Y1219200D01*
X3705751Y1213831D01*
X3680327Y1203301D01*
X3657446Y1188012D01*
X3637988Y1168554D01*
X3622699Y1145673D01*
X3619500Y1137949D01*
X3616300Y1145673D01*
X3601012Y1168554D01*
X3581553Y1188012D01*
X3558673Y1203301D01*
X3533249Y1213831D01*
X3506259Y1219200D01*
X3478741Y1219200D01*
X3451751Y1213831D01*
X3426327Y1203301D01*
X3403446Y1188012D01*
X3383988Y1168554D01*
X3368699Y1145673D01*
X3358169Y1120249D01*
X3352800Y1093259D01*
X2834165Y1093259D01*
X2840537Y1102796D01*
X2850977Y1128001D01*
X2856300Y1154759D01*
X2856300Y1182041D01*
X2850977Y1208799D01*
X2840537Y1234004D01*
X2825380Y1256689D01*
X2806089Y1275980D01*
X2783404Y1291137D01*
X2773113Y1295400D01*
X2783404Y1299663D01*
X2806089Y1314820D01*
X2825380Y1334111D01*
X2840537Y1356796D01*
X2850977Y1382001D01*
X2856300Y1408759D01*
X2856300Y1436041D01*
X2850977Y1462799D01*
X2840537Y1488004D01*
X2825380Y1510689D01*
X2806089Y1529980D01*
X2783404Y1545137D01*
X2758199Y1555577D01*
X2731441Y1560900D01*
X2704159Y1560900D01*
X2677401Y1555577D01*
X2652196Y1545137D01*
X2629511Y1529980D01*
X2610432Y1510900D01*
X2340347Y1510900D01*
X2336000Y1511328D01*
X2331653Y1510900D01*
X2331652Y1510900D01*
X2318651Y1509619D01*
X2301969Y1504559D01*
X2286594Y1496341D01*
X2276495Y1488053D01*
X2276495Y1488053D01*
X2273118Y1485282D01*
X2270347Y1481905D01*
X2035995Y1247554D01*
X2032618Y1244782D01*
X2021559Y1231306D01*
X2013341Y1215932D01*
X2008280Y1199249D01*
X2007000Y1186248D01*
X2007000Y1186247D01*
X2006572Y1181900D01*
X2007000Y1177553D01*
X2007000Y1171982D01*
X2008280Y1158981D01*
X2013341Y1142299D01*
X2019700Y1130402D01*
X2019700Y666169D01*
X2000620Y647089D01*
X1985463Y624404D01*
X1975022Y599199D01*
X1969700Y572441D01*
X1969700Y545159D01*
X1975022Y518401D01*
X1985463Y493196D01*
X2000620Y470511D01*
X2019911Y451220D01*
X2028879Y445228D01*
X2027527Y444668D01*
X2004024Y428964D01*
X1984036Y408976D01*
X1968500Y385724D01*
X1952964Y408976D01*
X1932976Y428964D01*
X1909473Y444668D01*
X1883357Y455485D01*
X1855633Y461000D01*
X1827366Y461000D01*
X1799643Y455485D01*
X1773527Y444668D01*
X1750024Y428964D01*
X1730036Y408976D01*
X1714500Y385724D01*
X1698964Y408976D01*
X1678976Y428964D01*
X1655473Y444668D01*
X1629357Y455485D01*
X1601633Y461000D01*
X1573366Y461000D01*
X1545643Y455485D01*
X1519527Y444668D01*
X1496024Y428964D01*
X1476036Y408976D01*
X1460500Y385724D01*
X1444964Y408976D01*
X1424976Y428964D01*
X1401473Y444668D01*
X1375357Y455485D01*
X1347634Y461000D01*
X1319367Y461000D01*
X1291643Y455485D01*
X1265527Y444668D01*
X1242024Y428964D01*
X1222036Y408976D01*
X1206409Y385587D01*
X1203167Y391651D01*
X1178770Y398810D01*
X1097461Y317500D01*
X1061540Y317500D01*
X980230Y398810D01*
X955833Y391651D01*
X952703Y385036D01*
X949167Y391651D01*
X924770Y398810D01*
X843460Y317500D01*
X807539Y317500D01*
X726230Y398810D01*
X701833Y391651D01*
X698781Y385201D01*
X698668Y385473D01*
X682964Y408976D01*
X675169Y416770D01*
X744190Y416770D01*
X825500Y335461D01*
X906810Y416770D01*
X998190Y416770D01*
X1079500Y335461D01*
X1160810Y416770D01*
X1153651Y441167D01*
X1128100Y453257D01*
X1100682Y460130D01*
X1072449Y461522D01*
X1044487Y457379D01*
X1017871Y447860D01*
X1005349Y441167D01*
X998190Y416770D01*
X906810Y416770D01*
X899651Y441167D01*
X874100Y453257D01*
X846682Y460130D01*
X818449Y461522D01*
X790487Y457379D01*
X763871Y447860D01*
X751349Y441167D01*
X744190Y416770D01*
X675169Y416770D01*
X662976Y428964D01*
X639473Y444668D01*
X613357Y455485D01*
X585634Y461000D01*
X557367Y461000D01*
X529643Y455485D01*
X503527Y444668D01*
X480024Y428964D01*
X460164Y409104D01*
X460081Y409948D01*
X456450Y421918D01*
X450554Y432949D01*
X442618Y442618D01*
X432949Y450554D01*
X421918Y456450D01*
X409948Y460081D01*
X397500Y461307D01*
X237500Y461307D01*
X225052Y460081D01*
X213082Y456450D01*
X202051Y450554D01*
X192381Y442618D01*
X184446Y432949D01*
X178550Y421918D01*
X174919Y409948D01*
X173693Y397500D01*
X129500Y397500D01*
X129500Y839633D01*
X1190000Y839633D01*
X1190000Y811366D01*
X1195515Y783643D01*
X1206332Y757527D01*
X1222036Y734024D01*
X1242024Y714036D01*
X1265527Y698332D01*
X1291643Y687515D01*
X1319367Y682000D01*
X1347634Y682000D01*
X1375357Y687515D01*
X1401473Y698332D01*
X1424976Y714036D01*
X1444964Y734024D01*
X1460668Y757527D01*
X1471485Y783643D01*
X1477000Y811366D01*
X1477000Y839633D01*
X1471485Y867357D01*
X1460668Y893473D01*
X1444964Y916976D01*
X1424976Y936964D01*
X1401473Y952668D01*
X1375357Y963485D01*
X1347634Y969000D01*
X1319367Y969000D01*
X1291643Y963485D01*
X1265527Y952668D01*
X1242024Y936964D01*
X1222036Y916976D01*
X1206332Y893473D01*
X1195515Y867357D01*
X1190000Y839633D01*
X129500Y839633D01*
X129500Y1220634D01*
X1190000Y1220634D01*
X1190000Y1192367D01*
X1195515Y1164643D01*
X1206332Y1138527D01*
X1222036Y1115024D01*
X1242024Y1095036D01*
X1265527Y1079332D01*
X1291643Y1068515D01*
X1319367Y1063000D01*
X1347634Y1063000D01*
X1375357Y1068515D01*
X1401473Y1079332D01*
X1424976Y1095036D01*
X1444964Y1115024D01*
X1460668Y1138527D01*
X1471485Y1164643D01*
X1477000Y1192367D01*
X1477000Y1220634D01*
X1471485Y1248357D01*
X1460668Y1274473D01*
X1444964Y1297976D01*
X1424976Y1317964D01*
X1401473Y1333668D01*
X1375357Y1344485D01*
X1347634Y1350000D01*
X1319367Y1350000D01*
X1291643Y1344485D01*
X1265527Y1333668D01*
X1242024Y1317964D01*
X1222036Y1297976D01*
X1206332Y1274473D01*
X1195515Y1248357D01*
X1190000Y1220634D01*
X129500Y1220634D01*
X129500Y1587500D01*
X3348306Y1587500D01*
X3351076Y1559369D01*
X3359282Y1532319D01*
X3372607Y1507390D01*
X3390539Y1485539D01*
X3412390Y1467607D01*
X3437319Y1454282D01*
X3464369Y1446076D01*
X3485451Y1444000D01*
X3499549Y1444000D01*
X3520631Y1446076D01*
X3547681Y1454282D01*
X3572610Y1467607D01*
X3594461Y1485539D01*
X3612393Y1507390D01*
X3625718Y1532319D01*
X3633924Y1559369D01*
X3636694Y1587500D01*
X3633924Y1615631D01*
X3625718Y1642681D01*
X3612393Y1667610D01*
X3594461Y1689461D01*
X3572610Y1707393D01*
X3547681Y1720718D01*
X3520631Y1728924D01*
X3499549Y1731000D01*
X3485451Y1731000D01*
X3464369Y1728924D01*
X3437319Y1720718D01*
X3412390Y1707393D01*
X3390539Y1689461D01*
X3372607Y1667610D01*
X3359282Y1642681D01*
X3351076Y1615631D01*
X3348306Y1587500D01*
X129500Y1587500D01*
X129500Y1855633D01*
X174000Y1855633D01*
X174000Y1827366D01*
X179515Y1799643D01*
X190332Y1773527D01*
X206036Y1750024D01*
X226024Y1730036D01*
X249527Y1714332D01*
X275643Y1703515D01*
X303367Y1698000D01*
X331634Y1698000D01*
X359357Y1703515D01*
X385473Y1714332D01*
X408976Y1730036D01*
X421169Y1742230D01*
X490190Y1742230D01*
X497349Y1717833D01*
X522900Y1705743D01*
X550318Y1698870D01*
X578551Y1697478D01*
X606513Y1701621D01*
X633129Y1711140D01*
X645651Y1717833D01*
X652810Y1742230D01*
X571500Y1823539D01*
X490190Y1742230D01*
X421169Y1742230D01*
X428964Y1750024D01*
X444591Y1773413D01*
X447833Y1767349D01*
X472230Y1760190D01*
X553540Y1841500D01*
X589461Y1841500D01*
X670770Y1760190D01*
X695167Y1767349D01*
X698219Y1773799D01*
X698332Y1773527D01*
X714036Y1750024D01*
X734024Y1730036D01*
X757527Y1714332D01*
X783643Y1703515D01*
X811366Y1698000D01*
X839633Y1698000D01*
X867357Y1703515D01*
X893473Y1714332D01*
X916976Y1730036D01*
X936964Y1750024D01*
X952500Y1773276D01*
X968036Y1750024D01*
X988024Y1730036D01*
X1011527Y1714332D01*
X1037643Y1703515D01*
X1065367Y1698000D01*
X1093634Y1698000D01*
X1121357Y1703515D01*
X1147473Y1714332D01*
X1170976Y1730036D01*
X1190964Y1750024D01*
X1206500Y1773276D01*
X1222036Y1750024D01*
X1242024Y1730036D01*
X1265527Y1714332D01*
X1291643Y1703515D01*
X1319367Y1698000D01*
X1347634Y1698000D01*
X1375357Y1703515D01*
X1401473Y1714332D01*
X1424976Y1730036D01*
X1444964Y1750024D01*
X1460500Y1773276D01*
X1476036Y1750024D01*
X1496024Y1730036D01*
X1519527Y1714332D01*
X1545643Y1703515D01*
X1573366Y1698000D01*
X1601633Y1698000D01*
X1629357Y1703515D01*
X1655473Y1714332D01*
X1678976Y1730036D01*
X1698964Y1750024D01*
X1714500Y1773276D01*
X1730036Y1750024D01*
X1750024Y1730036D01*
X1773527Y1714332D01*
X1799643Y1703515D01*
X1827366Y1698000D01*
X1855633Y1698000D01*
X1883357Y1703515D01*
X1909473Y1714332D01*
X1932976Y1730036D01*
X1952964Y1750024D01*
X1968500Y1773276D01*
X1984036Y1750024D01*
X2004024Y1730036D01*
X2027527Y1714332D01*
X2053643Y1703515D01*
X2081366Y1698000D01*
X2109634Y1698000D01*
X2137357Y1703515D01*
X2163473Y1714332D01*
X2186976Y1730036D01*
X2206964Y1750024D01*
X2222500Y1773276D01*
X2238036Y1750024D01*
X2258024Y1730036D01*
X2281527Y1714332D01*
X2307643Y1703515D01*
X2335367Y1698000D01*
X2363634Y1698000D01*
X2391357Y1703515D01*
X2417473Y1714332D01*
X2440976Y1730036D01*
X2460964Y1750024D01*
X2476500Y1773276D01*
X2492036Y1750024D01*
X2512024Y1730036D01*
X2535527Y1714332D01*
X2561643Y1703515D01*
X2589367Y1698000D01*
X2617634Y1698000D01*
X2645357Y1703515D01*
X2671473Y1714332D01*
X2694976Y1730036D01*
X2714964Y1750024D01*
X2730500Y1773276D01*
X2746036Y1750024D01*
X2766024Y1730036D01*
X2789527Y1714332D01*
X2815643Y1703515D01*
X2843366Y1698000D01*
X2871633Y1698000D01*
X2899357Y1703515D01*
X2925473Y1714332D01*
X2948976Y1730036D01*
X2968964Y1750024D01*
X2984500Y1773276D01*
X3000036Y1750024D01*
X3020024Y1730036D01*
X3043527Y1714332D01*
X3069643Y1703515D01*
X3097366Y1698000D01*
X3125633Y1698000D01*
X3153357Y1703515D01*
X3179473Y1714332D01*
X3202976Y1730036D01*
X3222964Y1750024D01*
X3238668Y1773527D01*
X3245189Y1789269D01*
X3261796Y1778173D01*
X3287001Y1767732D01*
X3313759Y1762410D01*
X3341041Y1762410D01*
X3367799Y1767732D01*
X3393004Y1778173D01*
X3415689Y1793330D01*
X3434768Y1812410D01*
X4383562Y1812410D01*
X4469849Y1726123D01*
X4466643Y1725485D01*
X4440527Y1714668D01*
X4417024Y1698964D01*
X4397036Y1678976D01*
X4381332Y1655473D01*
X4370515Y1629357D01*
X4365000Y1601633D01*
X4365000Y1573366D01*
X4370515Y1545643D01*
X4381332Y1519527D01*
X4397036Y1496024D01*
X4417024Y1476036D01*
X4440527Y1460332D01*
X4466643Y1449515D01*
X4494367Y1444000D01*
X4522634Y1444000D01*
X4550357Y1449515D01*
X4576473Y1460332D01*
X4599976Y1476036D01*
X4619964Y1496024D01*
X4635668Y1519527D01*
X4646485Y1545643D01*
X4647416Y1550319D01*
X4647684Y1550099D01*
X4663059Y1541881D01*
X4679741Y1536820D01*
X4692742Y1535540D01*
X4692743Y1535540D01*
X4697090Y1535112D01*
X4701437Y1535540D01*
X4921693Y1535540D01*
X4926040Y1535112D01*
X4930387Y1535540D01*
X4930388Y1535540D01*
X4941500Y1536634D01*
X4941500Y1510359D01*
X4946823Y1483601D01*
X4957263Y1458396D01*
X4972420Y1435711D01*
X4991711Y1416420D01*
X5014396Y1401263D01*
X5039601Y1390823D01*
X5066359Y1385500D01*
X5093641Y1385500D01*
X5120399Y1390823D01*
X5145604Y1401263D01*
X5168289Y1416420D01*
X5187580Y1435711D01*
X5202737Y1458396D01*
X5210972Y1478278D01*
X6233000Y1478278D01*
X6233000Y1442722D01*
X6239936Y1407850D01*
X6253543Y1375001D01*
X6273296Y1345438D01*
X6298438Y1320297D01*
X6328001Y1300543D01*
X6360850Y1286937D01*
X6395722Y1280000D01*
X6431278Y1280000D01*
X6466150Y1286937D01*
X6498999Y1300543D01*
X6528562Y1320297D01*
X6553703Y1345438D01*
X6573457Y1375001D01*
X6587063Y1407850D01*
X6594000Y1442722D01*
X6594000Y1478278D01*
X6733000Y1478278D01*
X6733000Y1442722D01*
X6739936Y1407850D01*
X6753543Y1375001D01*
X6773296Y1345438D01*
X6798438Y1320297D01*
X6828001Y1300543D01*
X6860850Y1286937D01*
X6895722Y1280000D01*
X6931278Y1280000D01*
X6966150Y1286937D01*
X6998999Y1300543D01*
X7028562Y1320297D01*
X7053703Y1345438D01*
X7073457Y1375001D01*
X7087063Y1407850D01*
X7094000Y1442722D01*
X7094000Y1478278D01*
X7087063Y1513150D01*
X7073457Y1545999D01*
X7053703Y1575562D01*
X7028562Y1600703D01*
X7027170Y1601633D01*
X7286000Y1601633D01*
X7286000Y1573366D01*
X7291515Y1545643D01*
X7302332Y1519527D01*
X7318036Y1496024D01*
X7338024Y1476036D01*
X7361527Y1460332D01*
X7387643Y1449515D01*
X7415366Y1444000D01*
X7443633Y1444000D01*
X7471357Y1449515D01*
X7497473Y1460332D01*
X7520976Y1476036D01*
X7533169Y1488230D01*
X7848190Y1488230D01*
X7855349Y1463833D01*
X7880900Y1451743D01*
X7908318Y1444870D01*
X7936551Y1443478D01*
X7964513Y1447621D01*
X7991129Y1457140D01*
X8003651Y1463833D01*
X8010810Y1488230D01*
X7929500Y1569539D01*
X7848190Y1488230D01*
X7533169Y1488230D01*
X7540964Y1496024D01*
X7556668Y1519527D01*
X7567485Y1545643D01*
X7573000Y1573366D01*
X7573000Y1580449D01*
X7785478Y1580449D01*
X7789621Y1552487D01*
X7799140Y1525871D01*
X7805833Y1513349D01*
X7830230Y1506190D01*
X7911539Y1587500D01*
X7947460Y1587500D01*
X8028770Y1506190D01*
X8053167Y1513349D01*
X8065257Y1538900D01*
X8072130Y1566318D01*
X8073522Y1594551D01*
X8069379Y1622513D01*
X8059860Y1649129D01*
X8053167Y1661651D01*
X8028770Y1668810D01*
X7947460Y1587500D01*
X7911539Y1587500D01*
X7830230Y1668810D01*
X7805833Y1661651D01*
X7793743Y1636100D01*
X7786870Y1608682D01*
X7785478Y1580449D01*
X7573000Y1580449D01*
X7573000Y1601633D01*
X7567485Y1629357D01*
X7556668Y1655473D01*
X7540964Y1678976D01*
X7533169Y1686770D01*
X7848190Y1686770D01*
X7929500Y1605460D01*
X8010810Y1686770D01*
X8003651Y1711167D01*
X7978100Y1723257D01*
X7950682Y1730130D01*
X7922449Y1731522D01*
X7894487Y1727379D01*
X7867871Y1717860D01*
X7855349Y1711167D01*
X7848190Y1686770D01*
X7533169Y1686770D01*
X7520976Y1698964D01*
X7497473Y1714668D01*
X7471357Y1725485D01*
X7443633Y1731000D01*
X7415366Y1731000D01*
X7387643Y1725485D01*
X7361527Y1714668D01*
X7338024Y1698964D01*
X7318036Y1678976D01*
X7302332Y1655473D01*
X7291515Y1629357D01*
X7286000Y1601633D01*
X7027170Y1601633D01*
X6998999Y1620457D01*
X6966150Y1634063D01*
X6931278Y1641000D01*
X6895722Y1641000D01*
X6860850Y1634063D01*
X6828001Y1620457D01*
X6798438Y1600703D01*
X6773296Y1575562D01*
X6753543Y1545999D01*
X6739936Y1513150D01*
X6733000Y1478278D01*
X6594000Y1478278D01*
X6587063Y1513150D01*
X6573457Y1545999D01*
X6553703Y1575562D01*
X6528562Y1600703D01*
X6498999Y1620457D01*
X6466150Y1634063D01*
X6431278Y1641000D01*
X6395722Y1641000D01*
X6360850Y1634063D01*
X6328001Y1620457D01*
X6298438Y1600703D01*
X6273296Y1575562D01*
X6253543Y1545999D01*
X6239936Y1513150D01*
X6233000Y1478278D01*
X5210972Y1478278D01*
X5213178Y1483601D01*
X5218500Y1510359D01*
X5218500Y1537641D01*
X5218138Y1539460D01*
X5442173Y1539460D01*
X5446520Y1539032D01*
X5450867Y1539460D01*
X5450868Y1539460D01*
X5463869Y1540740D01*
X5480551Y1545801D01*
X5495926Y1554019D01*
X5509402Y1565078D01*
X5512173Y1568456D01*
X5576344Y1632626D01*
X5581015Y1609143D01*
X5591832Y1583027D01*
X5607536Y1559524D01*
X5627524Y1539536D01*
X5651027Y1523832D01*
X5677143Y1513015D01*
X5704866Y1507500D01*
X5733133Y1507500D01*
X5760857Y1513015D01*
X5786973Y1523832D01*
X5810476Y1539536D01*
X5827134Y1556194D01*
X5830050Y1546582D01*
X5835946Y1535551D01*
X5843881Y1525881D01*
X5853551Y1517946D01*
X5864582Y1512050D01*
X5876552Y1508419D01*
X5889000Y1507193D01*
X6049000Y1507193D01*
X6061448Y1508419D01*
X6073418Y1512050D01*
X6084449Y1517946D01*
X6094118Y1525881D01*
X6102054Y1535551D01*
X6107950Y1546582D01*
X6111581Y1558552D01*
X6112807Y1571000D01*
X6112807Y1731000D01*
X6111891Y1740300D01*
X6369631Y1740300D01*
X6388711Y1721220D01*
X6411396Y1706063D01*
X6436601Y1695622D01*
X6463359Y1690300D01*
X6490641Y1690300D01*
X6517399Y1695622D01*
X6542604Y1706063D01*
X6565289Y1721220D01*
X6584580Y1740511D01*
X6599737Y1763196D01*
X6610177Y1788401D01*
X6615500Y1815159D01*
X6615500Y1842441D01*
X6610177Y1869199D01*
X6599737Y1894404D01*
X6584580Y1917089D01*
X6565289Y1936380D01*
X6542604Y1951537D01*
X6517399Y1961977D01*
X6490641Y1967300D01*
X6463359Y1967300D01*
X6436601Y1961977D01*
X6411396Y1951537D01*
X6388711Y1936380D01*
X6369631Y1917300D01*
X5676342Y1917300D01*
X5668399Y1919709D01*
X5651050Y1921418D01*
X5633701Y1919709D01*
X5617019Y1914649D01*
X5601644Y1906431D01*
X5591545Y1898143D01*
X5591545Y1898143D01*
X5588168Y1895372D01*
X5585397Y1891995D01*
X5472807Y1779405D01*
X5472807Y1853000D01*
X5471581Y1865448D01*
X5467950Y1877418D01*
X5462054Y1888449D01*
X5454119Y1898118D01*
X5444449Y1906054D01*
X5433418Y1911950D01*
X5421448Y1915581D01*
X5409000Y1916807D01*
X5259000Y1916807D01*
X5246552Y1915581D01*
X5234582Y1911950D01*
X5223551Y1906054D01*
X5213882Y1898118D01*
X5205946Y1888449D01*
X5200050Y1877418D01*
X5196419Y1865448D01*
X5195193Y1853000D01*
X5195193Y1750260D01*
X5184081Y1756199D01*
X5167399Y1761259D01*
X5154398Y1762540D01*
X5154397Y1762540D01*
X5150050Y1762968D01*
X5145703Y1762540D01*
X4980387Y1762540D01*
X4976040Y1762968D01*
X4971693Y1762540D01*
X4971692Y1762540D01*
X4963899Y1761772D01*
X4964981Y1785249D01*
X4960897Y1812224D01*
X4951628Y1837883D01*
X4945586Y1849186D01*
X4921699Y1855739D01*
X4843961Y1778000D01*
X4845375Y1776586D01*
X4827414Y1758625D01*
X4826000Y1760039D01*
X4824586Y1758625D01*
X4806625Y1776586D01*
X4808040Y1778000D01*
X4730301Y1855739D01*
X4706414Y1849186D01*
X4694824Y1824488D01*
X4688275Y1798004D01*
X4687019Y1770751D01*
X4689068Y1757220D01*
X4572589Y1873699D01*
X4748261Y1873699D01*
X4826000Y1795960D01*
X4903739Y1873699D01*
X4897186Y1897586D01*
X4872488Y1909176D01*
X4846004Y1915725D01*
X4818751Y1916981D01*
X4791776Y1912896D01*
X4766117Y1903628D01*
X4754814Y1897586D01*
X4748261Y1873699D01*
X4572589Y1873699D01*
X4485873Y1960414D01*
X4483102Y1963792D01*
X4469626Y1974851D01*
X4454251Y1983069D01*
X4437569Y1988129D01*
X4424568Y1989410D01*
X4424567Y1989410D01*
X4420220Y1989838D01*
X4415873Y1989410D01*
X3434768Y1989410D01*
X3415689Y2008490D01*
X3393004Y2023647D01*
X3367799Y2034087D01*
X3341041Y2039410D01*
X3313759Y2039410D01*
X3287001Y2034087D01*
X3261796Y2023647D01*
X3239111Y2008490D01*
X3219820Y1989199D01*
X3204663Y1966514D01*
X3199901Y1955018D01*
X3179473Y1968668D01*
X3153357Y1979485D01*
X3125633Y1985000D01*
X3097366Y1985000D01*
X3069643Y1979485D01*
X3043527Y1968668D01*
X3020024Y1952964D01*
X3000036Y1932976D01*
X2984500Y1909724D01*
X2968964Y1932976D01*
X2948976Y1952964D01*
X2938043Y1960269D01*
X2942137Y1966396D01*
X2952577Y1991601D01*
X2957900Y2018359D01*
X2957900Y2045641D01*
X2952577Y2072399D01*
X2942137Y2097604D01*
X2926980Y2120289D01*
X2907689Y2139580D01*
X2885004Y2154737D01*
X2859799Y2165178D01*
X2833041Y2170500D01*
X2806058Y2170500D01*
X2791000Y2185558D01*
X2791000Y2205693D01*
X2937500Y2205693D01*
X2949948Y2206919D01*
X2961918Y2210550D01*
X2972949Y2216446D01*
X2982618Y2224382D01*
X2990554Y2234051D01*
X2996450Y2245082D01*
X3000081Y2257052D01*
X3000323Y2259508D01*
X3015159Y2243148D01*
X3037758Y2226396D01*
X3063191Y2214375D01*
X3076596Y2210310D01*
X3098800Y2222509D01*
X3098800Y2336800D01*
X3124200Y2336800D01*
X3124200Y2222509D01*
X3146404Y2210310D01*
X3159809Y2214375D01*
X3185242Y2226396D01*
X3199053Y2236634D01*
X3476000Y2236634D01*
X3476000Y2208367D01*
X3481515Y2180643D01*
X3492332Y2154527D01*
X3508036Y2131024D01*
X3528024Y2111036D01*
X3551527Y2095332D01*
X3577643Y2084515D01*
X3605366Y2079000D01*
X3633633Y2079000D01*
X3661357Y2084515D01*
X3687473Y2095332D01*
X3710976Y2111036D01*
X3730964Y2131024D01*
X3746668Y2154527D01*
X3757485Y2180643D01*
X3763000Y2208367D01*
X3763000Y2222500D01*
X4491306Y2222500D01*
X4494076Y2194369D01*
X4502282Y2167319D01*
X4515607Y2142390D01*
X4533539Y2120539D01*
X4555390Y2102607D01*
X4580319Y2089282D01*
X4607369Y2081076D01*
X4628451Y2079000D01*
X4642549Y2079000D01*
X4663631Y2081076D01*
X4669313Y2082800D01*
X6798000Y2082800D01*
X6798000Y2042800D01*
X6802851Y2018950D01*
X6812261Y1996505D01*
X6825869Y1976327D01*
X6843153Y1959192D01*
X6863447Y1945758D01*
X6885972Y1936541D01*
X6889739Y1936154D01*
X6908800Y1948627D01*
X6908800Y2082800D01*
X6934200Y2082800D01*
X6934200Y1948627D01*
X6953261Y1936154D01*
X6957028Y1936541D01*
X6979553Y1945758D01*
X6999847Y1959192D01*
X7017131Y1976327D01*
X7030739Y1996505D01*
X7040149Y2018950D01*
X7045000Y2042800D01*
X7045000Y2082800D01*
X6934200Y2082800D01*
X6908800Y2082800D01*
X6798000Y2082800D01*
X4669313Y2082800D01*
X4690681Y2089282D01*
X4715610Y2102607D01*
X4737461Y2120539D01*
X4755393Y2142390D01*
X4768718Y2167319D01*
X4776924Y2194369D01*
X4779694Y2222500D01*
X4776924Y2250631D01*
X4768718Y2277681D01*
X4764272Y2286000D01*
X4999306Y2286000D01*
X5002076Y2257869D01*
X5010282Y2230819D01*
X5023607Y2205890D01*
X5041539Y2184039D01*
X5063390Y2166107D01*
X5088319Y2152782D01*
X5115369Y2144576D01*
X5136451Y2142500D01*
X5150549Y2142500D01*
X5171631Y2144576D01*
X5198681Y2152782D01*
X5223610Y2166107D01*
X5245461Y2184039D01*
X5263393Y2205890D01*
X5276718Y2230819D01*
X5284924Y2257869D01*
X5287694Y2286000D01*
X5284924Y2314131D01*
X5276718Y2341181D01*
X5263393Y2366110D01*
X5245461Y2387961D01*
X5223610Y2405893D01*
X5198681Y2419218D01*
X5171631Y2427424D01*
X5150549Y2429500D01*
X5136451Y2429500D01*
X5115369Y2427424D01*
X5088319Y2419218D01*
X5063390Y2405893D01*
X5041539Y2387961D01*
X5023607Y2366110D01*
X5010282Y2341181D01*
X5002076Y2314131D01*
X4999306Y2286000D01*
X4764272Y2286000D01*
X4755393Y2302610D01*
X4737461Y2324461D01*
X4715610Y2342393D01*
X4690681Y2355718D01*
X4663631Y2363924D01*
X4642549Y2366000D01*
X4628451Y2366000D01*
X4607369Y2363924D01*
X4580319Y2355718D01*
X4555390Y2342393D01*
X4533539Y2324461D01*
X4515607Y2302610D01*
X4502282Y2277681D01*
X4494076Y2250631D01*
X4491306Y2222500D01*
X3763000Y2222500D01*
X3763000Y2236634D01*
X3757485Y2264357D01*
X3746668Y2290473D01*
X3730964Y2313976D01*
X3710976Y2333964D01*
X3687473Y2349668D01*
X3661357Y2360485D01*
X3633633Y2366000D01*
X3605366Y2366000D01*
X3577643Y2360485D01*
X3551527Y2349668D01*
X3528024Y2333964D01*
X3508036Y2313976D01*
X3492332Y2290473D01*
X3481515Y2264357D01*
X3476000Y2236634D01*
X3199053Y2236634D01*
X3207841Y2243148D01*
X3226738Y2263987D01*
X3241207Y2288112D01*
X3250691Y2314596D01*
X3238562Y2336800D01*
X3124200Y2336800D01*
X3098800Y2336800D01*
X3096800Y2336800D01*
X3096800Y2362200D01*
X3098800Y2362200D01*
X3098800Y2476492D01*
X3124200Y2476492D01*
X3124200Y2362200D01*
X3238562Y2362200D01*
X3250691Y2384404D01*
X3241207Y2410888D01*
X3226738Y2435013D01*
X3207841Y2455852D01*
X3185242Y2472604D01*
X3159809Y2484625D01*
X3146404Y2488690D01*
X3124200Y2476492D01*
X3098800Y2476492D01*
X3076596Y2488690D01*
X3063191Y2484625D01*
X3037758Y2472604D01*
X3015159Y2455852D01*
X3000323Y2439492D01*
X3000081Y2441948D01*
X2996450Y2453918D01*
X2990554Y2464949D01*
X2982618Y2474619D01*
X2972949Y2482554D01*
X2961918Y2488450D01*
X2949948Y2492081D01*
X2937500Y2493307D01*
X2855915Y2493307D01*
X3036798Y2674190D01*
X3494148Y2674190D01*
X3492332Y2671473D01*
X3481515Y2645357D01*
X3476000Y2617634D01*
X3476000Y2589367D01*
X3481515Y2561643D01*
X3492332Y2535527D01*
X3508036Y2512024D01*
X3528024Y2492036D01*
X3551527Y2476332D01*
X3577643Y2465515D01*
X3605366Y2460000D01*
X3633633Y2460000D01*
X3661357Y2465515D01*
X3687473Y2476332D01*
X3710976Y2492036D01*
X3730964Y2512024D01*
X3746668Y2535527D01*
X3757485Y2561643D01*
X3763000Y2589367D01*
X3763000Y2617634D01*
X3757485Y2645357D01*
X3746668Y2671473D01*
X3744852Y2674190D01*
X4510572Y2674190D01*
X4502282Y2658681D01*
X4494076Y2631631D01*
X4491306Y2603500D01*
X4494076Y2575369D01*
X4502282Y2548319D01*
X4515607Y2523390D01*
X4533539Y2501539D01*
X4555390Y2483607D01*
X4580319Y2470282D01*
X4607369Y2462076D01*
X4628451Y2460000D01*
X4642549Y2460000D01*
X4663631Y2462076D01*
X4690681Y2470282D01*
X4715610Y2483607D01*
X4737461Y2501539D01*
X4755393Y2523390D01*
X4768718Y2548319D01*
X4776924Y2575369D01*
X4779694Y2603500D01*
X4776924Y2631631D01*
X4768718Y2658681D01*
X4760428Y2674190D01*
X5526572Y2674190D01*
X5518282Y2658681D01*
X5510076Y2631631D01*
X5507306Y2603500D01*
X5510076Y2575369D01*
X5518282Y2548319D01*
X5531607Y2523390D01*
X5549539Y2501539D01*
X5571390Y2483607D01*
X5596319Y2470282D01*
X5623369Y2462076D01*
X5644451Y2460000D01*
X5658549Y2460000D01*
X5679631Y2462076D01*
X5706681Y2470282D01*
X5731610Y2483607D01*
X5753461Y2501539D01*
X5771393Y2523390D01*
X5784718Y2548319D01*
X5792924Y2575369D01*
X5795694Y2603500D01*
X5792924Y2631631D01*
X5784718Y2658681D01*
X5776428Y2674190D01*
X6151992Y2674190D01*
X6615157Y2211025D01*
X6617928Y2207648D01*
X6621305Y2204877D01*
X6621305Y2204877D01*
X6631404Y2196589D01*
X6646779Y2188371D01*
X6651839Y2186836D01*
X6663461Y2183311D01*
X6679101Y2181770D01*
X6680810Y2181602D01*
X6680810Y2181602D01*
X6698159Y2183311D01*
X6714841Y2188371D01*
X6730216Y2196589D01*
X6740315Y2204877D01*
X6743692Y2207648D01*
X6746463Y2211025D01*
X6783738Y2248300D01*
X6870920Y2248300D01*
X6863447Y2245242D01*
X6843153Y2231808D01*
X6825869Y2214673D01*
X6812261Y2194495D01*
X6802851Y2172050D01*
X6798000Y2148200D01*
X6798000Y2108200D01*
X6908800Y2108200D01*
X6908800Y2110200D01*
X6934200Y2110200D01*
X6934200Y2108200D01*
X7045000Y2108200D01*
X7045000Y2148200D01*
X7040149Y2172050D01*
X7030739Y2194495D01*
X7017131Y2214673D01*
X6999847Y2231808D01*
X6979553Y2245242D01*
X6972080Y2248300D01*
X7124547Y2248300D01*
X7106555Y2238683D01*
X7087750Y2223250D01*
X7072317Y2204445D01*
X7060849Y2182990D01*
X7053787Y2159710D01*
X7052000Y2141566D01*
X7052000Y2049433D01*
X7053787Y2031290D01*
X7060849Y2008010D01*
X7072317Y1986555D01*
X7087750Y1967750D01*
X7106555Y1952317D01*
X7128010Y1940849D01*
X7151290Y1933787D01*
X7175500Y1931402D01*
X7199710Y1933787D01*
X7222990Y1940849D01*
X7244445Y1952317D01*
X7263250Y1967750D01*
X7278683Y1986555D01*
X7290151Y2008010D01*
X7297213Y2031290D01*
X7299000Y2049434D01*
X7299000Y2141567D01*
X7297213Y2159710D01*
X7290151Y2182990D01*
X7278683Y2204445D01*
X7263250Y2223250D01*
X7244445Y2238683D01*
X7226453Y2248300D01*
X7378547Y2248300D01*
X7360555Y2238683D01*
X7341750Y2223250D01*
X7326317Y2204445D01*
X7314849Y2182990D01*
X7307787Y2159710D01*
X7306000Y2141566D01*
X7306000Y2049433D01*
X7307787Y2031290D01*
X7314849Y2008010D01*
X7326317Y1986555D01*
X7341750Y1967750D01*
X7360555Y1952317D01*
X7382010Y1940849D01*
X7405290Y1933787D01*
X7429500Y1931402D01*
X7453710Y1933787D01*
X7476990Y1940849D01*
X7498445Y1952317D01*
X7517250Y1967750D01*
X7532683Y1986555D01*
X7544151Y2008010D01*
X7551213Y2031290D01*
X7553000Y2049434D01*
X7553000Y2141567D01*
X7551213Y2159710D01*
X7544151Y2182990D01*
X7532683Y2204445D01*
X7517250Y2223250D01*
X7498445Y2238683D01*
X7480453Y2248300D01*
X7538031Y2248300D01*
X7557111Y2229220D01*
X7579796Y2214063D01*
X7586075Y2211462D01*
X7580317Y2204445D01*
X7568849Y2182990D01*
X7561787Y2159710D01*
X7560000Y2141566D01*
X7560000Y2049433D01*
X7561787Y2031290D01*
X7568849Y2008010D01*
X7580317Y1986555D01*
X7595750Y1967750D01*
X7614555Y1952317D01*
X7636010Y1940849D01*
X7659290Y1933787D01*
X7683500Y1931402D01*
X7707710Y1933787D01*
X7730990Y1940849D01*
X7752445Y1952317D01*
X7771250Y1967750D01*
X7786683Y1986555D01*
X7798151Y2008010D01*
X7805213Y2031290D01*
X7807000Y2049434D01*
X7807000Y2141566D01*
X7814000Y2141566D01*
X7814000Y2049433D01*
X7815787Y2031290D01*
X7822849Y2008010D01*
X7834317Y1986555D01*
X7849750Y1967750D01*
X7868555Y1952317D01*
X7890010Y1940849D01*
X7913290Y1933787D01*
X7937500Y1931402D01*
X7961710Y1933787D01*
X7984990Y1940849D01*
X8006445Y1952317D01*
X8025250Y1967750D01*
X8040683Y1986555D01*
X8041578Y1988230D01*
X8237190Y1988230D01*
X8244349Y1963833D01*
X8269900Y1951743D01*
X8297318Y1944870D01*
X8325551Y1943478D01*
X8353513Y1947621D01*
X8380129Y1957140D01*
X8392651Y1963833D01*
X8399810Y1988230D01*
X8318500Y2069539D01*
X8237190Y1988230D01*
X8041578Y1988230D01*
X8052151Y2008010D01*
X8059213Y2031290D01*
X8061000Y2049434D01*
X8061000Y2080449D01*
X8174478Y2080449D01*
X8178621Y2052487D01*
X8188140Y2025871D01*
X8194833Y2013349D01*
X8219230Y2006190D01*
X8300539Y2087500D01*
X8336460Y2087500D01*
X8417770Y2006190D01*
X8442167Y2013349D01*
X8454257Y2038900D01*
X8461130Y2066318D01*
X8462522Y2094551D01*
X8458379Y2122513D01*
X8448860Y2149129D01*
X8442167Y2161651D01*
X8417770Y2168810D01*
X8336460Y2087500D01*
X8300539Y2087500D01*
X8219230Y2168810D01*
X8194833Y2161651D01*
X8182743Y2136100D01*
X8175870Y2108682D01*
X8174478Y2080449D01*
X8061000Y2080449D01*
X8061000Y2141567D01*
X8059213Y2159710D01*
X8052151Y2182990D01*
X8050131Y2186770D01*
X8237190Y2186770D01*
X8318500Y2105461D01*
X8399810Y2186770D01*
X8392651Y2211167D01*
X8367100Y2223257D01*
X8339682Y2230130D01*
X8311449Y2231522D01*
X8283487Y2227379D01*
X8256871Y2217860D01*
X8244349Y2211167D01*
X8237190Y2186770D01*
X8050131Y2186770D01*
X8040683Y2204445D01*
X8025250Y2223250D01*
X8006445Y2238683D01*
X7984990Y2250151D01*
X7961710Y2257213D01*
X7937500Y2259598D01*
X7913290Y2257213D01*
X7890010Y2250151D01*
X7868555Y2238683D01*
X7849750Y2223250D01*
X7834317Y2204445D01*
X7822849Y2182990D01*
X7815787Y2159710D01*
X7814000Y2141566D01*
X7807000Y2141566D01*
X7807000Y2141567D01*
X7805213Y2159710D01*
X7798151Y2182990D01*
X7786683Y2204445D01*
X7771250Y2223250D01*
X7752445Y2238683D01*
X7746389Y2241920D01*
X7752980Y2248511D01*
X7768137Y2271196D01*
X7778577Y2296401D01*
X7783900Y2323159D01*
X7783900Y2350441D01*
X7778577Y2377199D01*
X7768137Y2402404D01*
X7752980Y2425089D01*
X7733689Y2444380D01*
X7711004Y2459537D01*
X7685799Y2469978D01*
X7659041Y2475300D01*
X7631759Y2475300D01*
X7605001Y2469978D01*
X7579796Y2459537D01*
X7557111Y2444380D01*
X7538031Y2425300D01*
X6751426Y2425300D01*
X6747080Y2425728D01*
X6742733Y2425300D01*
X6742732Y2425300D01*
X6729731Y2424020D01*
X6713049Y2418959D01*
X6697674Y2410741D01*
X6697674Y2410741D01*
X6697674Y2410741D01*
X6687575Y2402453D01*
X6687575Y2402453D01*
X6684198Y2399682D01*
X6681427Y2396305D01*
X6680810Y2395688D01*
X6472998Y2603500D01*
X6650306Y2603500D01*
X6653076Y2575369D01*
X6661282Y2548319D01*
X6674607Y2523390D01*
X6692539Y2501539D01*
X6714390Y2483607D01*
X6739319Y2470282D01*
X6766369Y2462076D01*
X6787451Y2460000D01*
X6801549Y2460000D01*
X6822631Y2462076D01*
X6849681Y2470282D01*
X6874610Y2483607D01*
X6896461Y2501539D01*
X6914393Y2523390D01*
X6927718Y2548319D01*
X6935924Y2575369D01*
X6938694Y2603500D01*
X6937302Y2617634D01*
X7667000Y2617634D01*
X7667000Y2589367D01*
X7672515Y2561643D01*
X7683332Y2535527D01*
X7699036Y2512024D01*
X7719024Y2492036D01*
X7742527Y2476332D01*
X7768643Y2465515D01*
X7796366Y2460000D01*
X7824633Y2460000D01*
X7852357Y2465515D01*
X7878473Y2476332D01*
X7901976Y2492036D01*
X7921964Y2512024D01*
X7937668Y2535527D01*
X7948485Y2561643D01*
X7954000Y2589367D01*
X7954000Y2617634D01*
X7948485Y2645357D01*
X7937668Y2671473D01*
X7921964Y2694976D01*
X7901976Y2714964D01*
X7878473Y2730668D01*
X7852357Y2741485D01*
X7824633Y2747000D01*
X7796366Y2747000D01*
X7768643Y2741485D01*
X7742527Y2730668D01*
X7719024Y2714964D01*
X7699036Y2694976D01*
X7683332Y2671473D01*
X7672515Y2645357D01*
X7667000Y2617634D01*
X6937302Y2617634D01*
X6935924Y2631631D01*
X6927718Y2658681D01*
X6914393Y2683610D01*
X6896461Y2705461D01*
X6874610Y2723393D01*
X6849681Y2736718D01*
X6822631Y2744924D01*
X6801549Y2747000D01*
X6787451Y2747000D01*
X6766369Y2744924D01*
X6739319Y2736718D01*
X6714390Y2723393D01*
X6692539Y2705461D01*
X6674607Y2683610D01*
X6661282Y2658681D01*
X6653076Y2631631D01*
X6650306Y2603500D01*
X6472998Y2603500D01*
X6377268Y2699230D01*
X6396343Y2699230D01*
X6427931Y2705513D01*
X6457686Y2717838D01*
X6484465Y2735731D01*
X6507239Y2758505D01*
X6525132Y2785284D01*
X6537457Y2815039D01*
X6543740Y2846627D01*
X6543740Y2878833D01*
X6537457Y2910421D01*
X6525132Y2940176D01*
X6507239Y2966955D01*
X6484465Y2989729D01*
X6457686Y3007622D01*
X6427931Y3019947D01*
X6396343Y3026230D01*
X6364137Y3026230D01*
X6332549Y3019947D01*
X6302794Y3007622D01*
X6276015Y2989729D01*
X6253241Y2966955D01*
X6242734Y2951230D01*
X4805221Y2951230D01*
X4818893Y2967890D01*
X4832218Y2992819D01*
X4840424Y3019869D01*
X4843194Y3048000D01*
X4840424Y3076131D01*
X4832218Y3103181D01*
X4818893Y3128110D01*
X4800961Y3149961D01*
X4779110Y3167893D01*
X4754181Y3181218D01*
X4727131Y3189424D01*
X4706049Y3191500D01*
X4691951Y3191500D01*
X4670869Y3189424D01*
X4643819Y3181218D01*
X4618890Y3167893D01*
X4597039Y3149961D01*
X4579107Y3128110D01*
X4565782Y3103181D01*
X4557576Y3076131D01*
X4554806Y3048000D01*
X4557576Y3019869D01*
X4565782Y2992819D01*
X4579107Y2967890D01*
X4592779Y2951230D01*
X4395770Y2951230D01*
X4397081Y2955552D01*
X4398307Y2968000D01*
X4398307Y3128000D01*
X4397081Y3140448D01*
X4393450Y3152418D01*
X4387554Y3163449D01*
X4379619Y3173118D01*
X4369949Y3181054D01*
X4358918Y3186950D01*
X4346948Y3190581D01*
X4334500Y3191807D01*
X4174500Y3191807D01*
X4162052Y3190581D01*
X4150082Y3186950D01*
X4139051Y3181054D01*
X4129381Y3173118D01*
X4121446Y3163449D01*
X4115550Y3152418D01*
X4113645Y3146140D01*
X4112541Y3148206D01*
X4101482Y3161682D01*
X4098105Y3164453D01*
X4024700Y3237858D01*
X4024700Y3264841D01*
X4019377Y3291599D01*
X4009215Y3316133D01*
X5000000Y3316133D01*
X5000000Y3287866D01*
X5005515Y3260143D01*
X5016332Y3234027D01*
X5032036Y3210524D01*
X5052024Y3190536D01*
X5075527Y3174832D01*
X5101643Y3164015D01*
X5129367Y3158500D01*
X5157634Y3158500D01*
X5185357Y3164015D01*
X5211473Y3174832D01*
X5234976Y3190536D01*
X5254964Y3210524D01*
X5270668Y3234027D01*
X5281485Y3260143D01*
X5287000Y3287866D01*
X5287000Y3316133D01*
X5281485Y3343857D01*
X5270668Y3369973D01*
X5254964Y3393476D01*
X5234976Y3413464D01*
X5211473Y3429168D01*
X5185357Y3439985D01*
X5157634Y3445500D01*
X5129367Y3445500D01*
X5101643Y3439985D01*
X5075527Y3429168D01*
X5052024Y3413464D01*
X5032036Y3393476D01*
X5016332Y3369973D01*
X5005515Y3343857D01*
X5000000Y3316133D01*
X4009215Y3316133D01*
X4008937Y3316804D01*
X3993780Y3339489D01*
X3974489Y3358780D01*
X3951804Y3373937D01*
X3926599Y3384377D01*
X3899841Y3389700D01*
X3872559Y3389700D01*
X3845801Y3384377D01*
X3820596Y3373937D01*
X3797911Y3358780D01*
X3779164Y3340033D01*
X3775787Y3339700D01*
X3775786Y3339700D01*
X3762785Y3338419D01*
X3746103Y3333359D01*
X3730728Y3325141D01*
X3730728Y3325141D01*
X3730728Y3325141D01*
X3720629Y3316853D01*
X3720629Y3316853D01*
X3717252Y3314082D01*
X3714481Y3310705D01*
X3567436Y3163659D01*
X3564058Y3160888D01*
X3552999Y3147412D01*
X3544781Y3132037D01*
X3539720Y3115355D01*
X3538440Y3102354D01*
X3538440Y3102353D01*
X3538012Y3098006D01*
X3538440Y3093659D01*
X3538440Y3044970D01*
X3238652Y3044970D01*
X3244718Y3056319D01*
X3252924Y3083369D01*
X3255694Y3111500D01*
X3252924Y3139631D01*
X3244718Y3166681D01*
X3231393Y3191610D01*
X3213461Y3213461D01*
X3191610Y3231393D01*
X3166681Y3244718D01*
X3139631Y3252924D01*
X3118549Y3255000D01*
X3104451Y3255000D01*
X3083369Y3252924D01*
X3056319Y3244718D01*
X3031390Y3231393D01*
X3009539Y3213461D01*
X2991607Y3191610D01*
X2984500Y3178314D01*
X2977393Y3191610D01*
X2959461Y3213461D01*
X2937610Y3231393D01*
X2912681Y3244718D01*
X2885631Y3252924D01*
X2864549Y3255000D01*
X2850451Y3255000D01*
X2829369Y3252924D01*
X2802319Y3244718D01*
X2777390Y3231393D01*
X2755539Y3213461D01*
X2737607Y3191610D01*
X2724282Y3166681D01*
X2716076Y3139631D01*
X2713306Y3111500D01*
X2716076Y3083369D01*
X2724282Y3056319D01*
X2737607Y3031390D01*
X2755539Y3009539D01*
X2777390Y2991607D01*
X2802319Y2978282D01*
X2829369Y2970076D01*
X2850451Y2968000D01*
X2864549Y2968000D01*
X2871796Y2968714D01*
X2378000Y2474918D01*
X2378000Y2500603D01*
X2371717Y2532191D01*
X2359392Y2561946D01*
X2341499Y2588725D01*
X2318725Y2611499D01*
X2291946Y2629392D01*
X2262191Y2641717D01*
X2230603Y2648000D01*
X2198397Y2648000D01*
X2166809Y2641717D01*
X2137054Y2629392D01*
X2110275Y2611499D01*
X2087501Y2588725D01*
X2069608Y2561946D01*
X2057283Y2532191D01*
X2051000Y2500603D01*
X2051000Y2468397D01*
X2057283Y2436809D01*
X2069608Y2407054D01*
X2087501Y2380275D01*
X2110275Y2357501D01*
X2137054Y2339608D01*
X2166809Y2327283D01*
X2198397Y2321000D01*
X2224082Y2321000D01*
X2148362Y2245280D01*
X2121379Y2245280D01*
X2094621Y2239958D01*
X2069416Y2229517D01*
X2046731Y2214360D01*
X2027440Y2195069D01*
X2012283Y2172384D01*
X2001842Y2147179D01*
X1996520Y2120421D01*
X1996520Y2093139D01*
X2001842Y2066381D01*
X2012283Y2041176D01*
X2027440Y2018491D01*
X2032340Y2013592D01*
X2036618Y2008378D01*
X2041832Y2004100D01*
X2046731Y1999200D01*
X2069416Y1984043D01*
X2071732Y1983083D01*
X2053643Y1979485D01*
X2027527Y1968668D01*
X2004024Y1952964D01*
X1984036Y1932976D01*
X1968500Y1909724D01*
X1952964Y1932976D01*
X1932976Y1952964D01*
X1909473Y1968668D01*
X1883357Y1979485D01*
X1855633Y1985000D01*
X1827366Y1985000D01*
X1799643Y1979485D01*
X1773527Y1968668D01*
X1750024Y1952964D01*
X1730036Y1932976D01*
X1714500Y1909724D01*
X1698964Y1932976D01*
X1678976Y1952964D01*
X1655473Y1968668D01*
X1629357Y1979485D01*
X1601633Y1985000D01*
X1573366Y1985000D01*
X1545643Y1979485D01*
X1519527Y1968668D01*
X1496024Y1952964D01*
X1476036Y1932976D01*
X1460500Y1909724D01*
X1444964Y1932976D01*
X1424976Y1952964D01*
X1401473Y1968668D01*
X1375357Y1979485D01*
X1347634Y1985000D01*
X1319367Y1985000D01*
X1291643Y1979485D01*
X1265527Y1968668D01*
X1242024Y1952964D01*
X1222036Y1932976D01*
X1206500Y1909724D01*
X1190964Y1932976D01*
X1170976Y1952964D01*
X1147473Y1968668D01*
X1121357Y1979485D01*
X1093634Y1985000D01*
X1065367Y1985000D01*
X1037643Y1979485D01*
X1011527Y1968668D01*
X988024Y1952964D01*
X968036Y1932976D01*
X952500Y1909724D01*
X936964Y1932976D01*
X916976Y1952964D01*
X893473Y1968668D01*
X867357Y1979485D01*
X839633Y1985000D01*
X811366Y1985000D01*
X783643Y1979485D01*
X757527Y1968668D01*
X734024Y1952964D01*
X714036Y1932976D01*
X698409Y1909587D01*
X695167Y1915651D01*
X670770Y1922810D01*
X589461Y1841500D01*
X553540Y1841500D01*
X472230Y1922810D01*
X447833Y1915651D01*
X444781Y1909201D01*
X444668Y1909473D01*
X428964Y1932976D01*
X421169Y1940770D01*
X490190Y1940770D01*
X571500Y1859460D01*
X652810Y1940770D01*
X645651Y1965167D01*
X620100Y1977257D01*
X592682Y1984130D01*
X564449Y1985522D01*
X536487Y1981379D01*
X509871Y1971860D01*
X497349Y1965167D01*
X490190Y1940770D01*
X421169Y1940770D01*
X408976Y1952964D01*
X385473Y1968668D01*
X359357Y1979485D01*
X331634Y1985000D01*
X303367Y1985000D01*
X275643Y1979485D01*
X249527Y1968668D01*
X226024Y1952964D01*
X206036Y1932976D01*
X190332Y1909473D01*
X179515Y1883357D01*
X174000Y1855633D01*
X129500Y1855633D01*
X129500Y2490259D01*
X939800Y2490259D01*
X939800Y2462741D01*
X945169Y2435751D01*
X955699Y2410327D01*
X970988Y2387447D01*
X990446Y2367988D01*
X1013327Y2352700D01*
X1021051Y2349500D01*
X1013327Y2346301D01*
X990446Y2331012D01*
X970988Y2311554D01*
X955699Y2288673D01*
X945169Y2263249D01*
X939800Y2236259D01*
X939800Y2208741D01*
X945169Y2181751D01*
X955699Y2156327D01*
X970988Y2133447D01*
X990446Y2113988D01*
X1013327Y2098700D01*
X1038751Y2088169D01*
X1065741Y2082800D01*
X1093259Y2082800D01*
X1120249Y2088169D01*
X1145673Y2098700D01*
X1168554Y2113988D01*
X1188012Y2133447D01*
X1203301Y2156327D01*
X1213831Y2181751D01*
X1219200Y2208741D01*
X1219200Y2236259D01*
X1213831Y2263249D01*
X1203301Y2288673D01*
X1188012Y2311554D01*
X1168554Y2331012D01*
X1145673Y2346301D01*
X1137949Y2349500D01*
X1145673Y2352700D01*
X1168554Y2367988D01*
X1188012Y2387447D01*
X1203301Y2410327D01*
X1213831Y2435751D01*
X1219200Y2462741D01*
X1219200Y2490259D01*
X1217143Y2500603D01*
X1551000Y2500603D01*
X1551000Y2468397D01*
X1557283Y2436809D01*
X1569608Y2407054D01*
X1587501Y2380275D01*
X1610275Y2357501D01*
X1637054Y2339608D01*
X1666809Y2327283D01*
X1698397Y2321000D01*
X1730603Y2321000D01*
X1762191Y2327283D01*
X1791946Y2339608D01*
X1818725Y2357501D01*
X1841499Y2380275D01*
X1859392Y2407054D01*
X1871717Y2436809D01*
X1878000Y2468397D01*
X1878000Y2500603D01*
X1871717Y2532191D01*
X1859392Y2561946D01*
X1841499Y2588725D01*
X1818725Y2611499D01*
X1791946Y2629392D01*
X1762191Y2641717D01*
X1730603Y2648000D01*
X1698397Y2648000D01*
X1666809Y2641717D01*
X1637054Y2629392D01*
X1610275Y2611499D01*
X1587501Y2588725D01*
X1569608Y2561946D01*
X1557283Y2532191D01*
X1551000Y2500603D01*
X1217143Y2500603D01*
X1213831Y2517249D01*
X1203301Y2542673D01*
X1188012Y2565554D01*
X1168554Y2585012D01*
X1145673Y2600301D01*
X1120249Y2610831D01*
X1093259Y2616200D01*
X1065741Y2616200D01*
X1038751Y2610831D01*
X1013327Y2600301D01*
X990446Y2585012D01*
X970988Y2565554D01*
X955699Y2542673D01*
X945169Y2517249D01*
X939800Y2490259D01*
X129500Y2490259D01*
X129500Y2744259D01*
X431800Y2744259D01*
X431800Y2716741D01*
X437169Y2689751D01*
X447699Y2664327D01*
X462988Y2641447D01*
X482446Y2621988D01*
X505327Y2606700D01*
X530751Y2596169D01*
X557741Y2590800D01*
X585259Y2590800D01*
X612249Y2596169D01*
X637673Y2606700D01*
X660554Y2621988D01*
X680012Y2641447D01*
X695301Y2664327D01*
X705831Y2689751D01*
X711200Y2716741D01*
X711200Y2744259D01*
X705831Y2771249D01*
X695301Y2796673D01*
X680012Y2819553D01*
X660554Y2839012D01*
X637673Y2854300D01*
X612249Y2864831D01*
X585259Y2870200D01*
X557741Y2870200D01*
X530751Y2864831D01*
X505327Y2854300D01*
X482446Y2839012D01*
X462988Y2819553D01*
X447699Y2796673D01*
X437169Y2771249D01*
X431800Y2744259D01*
X129500Y2744259D01*
X129500Y3760259D01*
X939800Y3760259D01*
X939800Y3732741D01*
X945169Y3705751D01*
X955699Y3680327D01*
X970988Y3657446D01*
X990446Y3637988D01*
X1013327Y3622699D01*
X1021051Y3619500D01*
X1013327Y3616300D01*
X990446Y3601012D01*
X970988Y3581553D01*
X955699Y3558673D01*
X945169Y3533249D01*
X939800Y3506259D01*
X939800Y3478741D01*
X945169Y3451751D01*
X955699Y3426327D01*
X970988Y3403446D01*
X990446Y3383988D01*
X1013327Y3368699D01*
X1021051Y3365500D01*
X1013327Y3362300D01*
X990446Y3347012D01*
X970988Y3327553D01*
X955699Y3304673D01*
X945169Y3279249D01*
X939800Y3252259D01*
X939800Y3224741D01*
X945169Y3197751D01*
X955699Y3172327D01*
X970988Y3149446D01*
X990446Y3129988D01*
X1013327Y3114699D01*
X1021051Y3111500D01*
X1013327Y3108300D01*
X990446Y3093012D01*
X970988Y3073553D01*
X955699Y3050673D01*
X945169Y3025249D01*
X939800Y2998259D01*
X939800Y2970741D01*
X945169Y2943751D01*
X955699Y2918327D01*
X970988Y2895446D01*
X990446Y2875988D01*
X1013327Y2860699D01*
X1038751Y2850169D01*
X1065741Y2844800D01*
X1093259Y2844800D01*
X1120249Y2850169D01*
X1145673Y2860699D01*
X1168554Y2875988D01*
X1188012Y2895446D01*
X1203301Y2918327D01*
X1213831Y2943751D01*
X1219200Y2970741D01*
X1219200Y2998259D01*
X1218734Y3000603D01*
X1551000Y3000603D01*
X1551000Y2968397D01*
X1557283Y2936809D01*
X1569608Y2907054D01*
X1587501Y2880275D01*
X1610275Y2857501D01*
X1637054Y2839608D01*
X1666809Y2827283D01*
X1698397Y2821000D01*
X1730603Y2821000D01*
X1762191Y2827283D01*
X1791946Y2839608D01*
X1818725Y2857501D01*
X1841499Y2880275D01*
X1859392Y2907054D01*
X1871717Y2936809D01*
X1878000Y2968397D01*
X1878000Y3000603D01*
X2051000Y3000603D01*
X2051000Y2968397D01*
X2057283Y2936809D01*
X2069608Y2907054D01*
X2087501Y2880275D01*
X2110275Y2857501D01*
X2137054Y2839608D01*
X2166809Y2827283D01*
X2198397Y2821000D01*
X2230603Y2821000D01*
X2262191Y2827283D01*
X2291946Y2839608D01*
X2318725Y2857501D01*
X2341499Y2880275D01*
X2359392Y2907054D01*
X2371717Y2936809D01*
X2378000Y2968397D01*
X2378000Y3000603D01*
X2371717Y3032191D01*
X2359392Y3061946D01*
X2341499Y3088725D01*
X2318725Y3111499D01*
X2291946Y3129392D01*
X2262191Y3141717D01*
X2230603Y3148000D01*
X2198397Y3148000D01*
X2166809Y3141717D01*
X2137054Y3129392D01*
X2110275Y3111499D01*
X2087501Y3088725D01*
X2069608Y3061946D01*
X2057283Y3032191D01*
X2051000Y3000603D01*
X1878000Y3000603D01*
X1871717Y3032191D01*
X1859392Y3061946D01*
X1841499Y3088725D01*
X1818725Y3111499D01*
X1791946Y3129392D01*
X1762191Y3141717D01*
X1730603Y3148000D01*
X1698397Y3148000D01*
X1666809Y3141717D01*
X1637054Y3129392D01*
X1610275Y3111499D01*
X1587501Y3088725D01*
X1569608Y3061946D01*
X1557283Y3032191D01*
X1551000Y3000603D01*
X1218734Y3000603D01*
X1213831Y3025249D01*
X1203301Y3050673D01*
X1188012Y3073553D01*
X1168554Y3093012D01*
X1145673Y3108300D01*
X1137949Y3111500D01*
X1145673Y3114699D01*
X1168554Y3129988D01*
X1188012Y3149446D01*
X1203301Y3172327D01*
X1213831Y3197751D01*
X1219200Y3224741D01*
X1219200Y3252259D01*
X1213831Y3279249D01*
X1203301Y3304673D01*
X1188012Y3327553D01*
X1168554Y3347012D01*
X1145673Y3362300D01*
X1137949Y3365500D01*
X1145673Y3368699D01*
X1168554Y3383988D01*
X1188012Y3403446D01*
X1203301Y3426327D01*
X1213831Y3451751D01*
X1219200Y3478741D01*
X1219200Y3506259D01*
X1213831Y3533249D01*
X1203301Y3558673D01*
X1188012Y3581553D01*
X1168554Y3601012D01*
X1145673Y3616300D01*
X1137949Y3619500D01*
X1145673Y3622699D01*
X1168554Y3637988D01*
X1188012Y3657446D01*
X1203301Y3680327D01*
X1213831Y3705751D01*
X1219200Y3732741D01*
X1219200Y3760259D01*
X1218734Y3762603D01*
X1559000Y3762603D01*
X1559000Y3730397D01*
X1565283Y3698809D01*
X1577608Y3669054D01*
X1595501Y3642275D01*
X1618275Y3619501D01*
X1645054Y3601608D01*
X1674809Y3589283D01*
X1706397Y3583000D01*
X1738603Y3583000D01*
X1770191Y3589283D01*
X1799946Y3601608D01*
X1826725Y3619501D01*
X1849499Y3642275D01*
X1867392Y3669054D01*
X1879717Y3698809D01*
X1886000Y3730397D01*
X1886000Y3762603D01*
X2059000Y3762603D01*
X2059000Y3730397D01*
X2065283Y3698809D01*
X2077608Y3669054D01*
X2095501Y3642275D01*
X2118275Y3619501D01*
X2145054Y3601608D01*
X2174809Y3589283D01*
X2206397Y3583000D01*
X2238603Y3583000D01*
X2270191Y3589283D01*
X2299946Y3601608D01*
X2326725Y3619501D01*
X2349499Y3642275D01*
X2367392Y3669054D01*
X2379717Y3698809D01*
X2379854Y3699500D01*
X2713693Y3699500D01*
X2713693Y3539500D01*
X2714919Y3527052D01*
X2718550Y3515082D01*
X2724446Y3504051D01*
X2732382Y3494381D01*
X2742051Y3486446D01*
X2753082Y3480550D01*
X2765052Y3476919D01*
X2777500Y3475693D01*
X2937500Y3475693D01*
X2949948Y3476919D01*
X2961918Y3480550D01*
X2972949Y3486446D01*
X2982618Y3494381D01*
X2990554Y3504051D01*
X2996450Y3515082D01*
X3000081Y3527052D01*
X3000323Y3529508D01*
X3015159Y3513148D01*
X3037758Y3496396D01*
X3063191Y3484375D01*
X3076596Y3480310D01*
X3098800Y3492508D01*
X3098800Y3606800D01*
X3124200Y3606800D01*
X3124200Y3492508D01*
X3146404Y3480310D01*
X3159809Y3484375D01*
X3185242Y3496396D01*
X3207841Y3513148D01*
X3226738Y3533987D01*
X3241207Y3558112D01*
X3250691Y3584596D01*
X3238562Y3606800D01*
X3124200Y3606800D01*
X3098800Y3606800D01*
X3096800Y3606800D01*
X3096800Y3632200D01*
X3098800Y3632200D01*
X3098800Y3746491D01*
X3124200Y3746491D01*
X3124200Y3632200D01*
X3238562Y3632200D01*
X3239345Y3633633D01*
X5508000Y3633633D01*
X5508000Y3605366D01*
X5513515Y3577643D01*
X5524332Y3551527D01*
X5540036Y3528024D01*
X5560024Y3508036D01*
X5583527Y3492332D01*
X5609643Y3481515D01*
X5637366Y3476000D01*
X5665633Y3476000D01*
X5693357Y3481515D01*
X5719473Y3492332D01*
X5742976Y3508036D01*
X5762964Y3528024D01*
X5778668Y3551527D01*
X5789485Y3577643D01*
X5795000Y3605366D01*
X5795000Y3633633D01*
X5789485Y3661357D01*
X5778668Y3687473D01*
X5762964Y3710976D01*
X5742976Y3730964D01*
X5719473Y3746668D01*
X5693357Y3757485D01*
X5665633Y3763000D01*
X5637366Y3763000D01*
X5609643Y3757485D01*
X5583527Y3746668D01*
X5560024Y3730964D01*
X5540036Y3710976D01*
X5524332Y3687473D01*
X5513515Y3661357D01*
X5508000Y3633633D01*
X3239345Y3633633D01*
X3250691Y3654404D01*
X3241207Y3680888D01*
X3226738Y3705013D01*
X3207841Y3725852D01*
X3185242Y3742604D01*
X3159809Y3754625D01*
X3146404Y3758690D01*
X3124200Y3746491D01*
X3098800Y3746491D01*
X3076596Y3758690D01*
X3063191Y3754625D01*
X3037758Y3742604D01*
X3015159Y3725852D01*
X3000323Y3709492D01*
X3000081Y3711948D01*
X2996450Y3723918D01*
X2990554Y3734949D01*
X2982618Y3744618D01*
X2972949Y3752554D01*
X2961918Y3758450D01*
X2949948Y3762081D01*
X2937500Y3763307D01*
X2777500Y3763307D01*
X2765052Y3762081D01*
X2753082Y3758450D01*
X2742051Y3752554D01*
X2732382Y3744618D01*
X2724446Y3734949D01*
X2718550Y3723918D01*
X2714919Y3711948D01*
X2713693Y3699500D01*
X2379854Y3699500D01*
X2386000Y3730397D01*
X2386000Y3762603D01*
X2379717Y3794191D01*
X2367392Y3823946D01*
X2349499Y3850725D01*
X2326725Y3873499D01*
X2302029Y3890000D01*
X3729693Y3890000D01*
X3729693Y3730000D01*
X3730919Y3717552D01*
X3734550Y3705582D01*
X3740446Y3694551D01*
X3748381Y3684881D01*
X3758051Y3676946D01*
X3769082Y3671050D01*
X3781052Y3667419D01*
X3793500Y3666193D01*
X3953500Y3666193D01*
X3965948Y3667419D01*
X3977918Y3671050D01*
X3988949Y3676946D01*
X3998618Y3684881D01*
X4006554Y3694551D01*
X4012450Y3705582D01*
X4016081Y3717552D01*
X4017307Y3730000D01*
X4017307Y3810000D01*
X4110306Y3810000D01*
X4113076Y3781869D01*
X4121282Y3754819D01*
X4134607Y3729890D01*
X4152539Y3708039D01*
X4174390Y3690107D01*
X4199319Y3676782D01*
X4226369Y3668576D01*
X4247451Y3666500D01*
X4261549Y3666500D01*
X4282631Y3668576D01*
X4309681Y3676782D01*
X4334610Y3690107D01*
X4356461Y3708039D01*
X4374393Y3729890D01*
X4387718Y3754819D01*
X4395924Y3781869D01*
X4398694Y3810000D01*
X4395924Y3838131D01*
X4387718Y3865181D01*
X4374452Y3890000D01*
X4555193Y3890000D01*
X4555193Y3730000D01*
X4556419Y3717552D01*
X4560050Y3705582D01*
X4565946Y3694551D01*
X4573882Y3684881D01*
X4583551Y3676946D01*
X4594582Y3671050D01*
X4606552Y3667419D01*
X4619000Y3666193D01*
X4779000Y3666193D01*
X4791448Y3667419D01*
X4803418Y3671050D01*
X4814449Y3676946D01*
X4824119Y3684881D01*
X4832054Y3694551D01*
X4837950Y3705582D01*
X4841581Y3717552D01*
X4842807Y3730000D01*
X4842807Y3890000D01*
X4841581Y3902448D01*
X4837950Y3914418D01*
X4832054Y3925449D01*
X4824119Y3935118D01*
X4814449Y3943054D01*
X4803418Y3948950D01*
X4791448Y3952581D01*
X4779000Y3953807D01*
X4619000Y3953807D01*
X4606552Y3952581D01*
X4594582Y3948950D01*
X4583551Y3943054D01*
X4573882Y3935118D01*
X4565946Y3925449D01*
X4560050Y3914418D01*
X4556419Y3902448D01*
X4555193Y3890000D01*
X4374452Y3890000D01*
X4374393Y3890110D01*
X4356461Y3911961D01*
X4334610Y3929893D01*
X4309681Y3943218D01*
X4282631Y3951424D01*
X4261549Y3953500D01*
X4247451Y3953500D01*
X4226369Y3951424D01*
X4199319Y3943218D01*
X4174390Y3929893D01*
X4152539Y3911961D01*
X4134607Y3890110D01*
X4121282Y3865181D01*
X4113076Y3838131D01*
X4110306Y3810000D01*
X4017307Y3810000D01*
X4017307Y3890000D01*
X4016081Y3902448D01*
X4012450Y3914418D01*
X4006554Y3925449D01*
X3998618Y3935118D01*
X3988949Y3943054D01*
X3977918Y3948950D01*
X3965948Y3952581D01*
X3953500Y3953807D01*
X3793500Y3953807D01*
X3781052Y3952581D01*
X3769082Y3948950D01*
X3758051Y3943054D01*
X3748381Y3935118D01*
X3740446Y3925449D01*
X3734550Y3914418D01*
X3730919Y3902448D01*
X3729693Y3890000D01*
X2302029Y3890000D01*
X2299946Y3891392D01*
X2270191Y3903717D01*
X2238603Y3910000D01*
X2206397Y3910000D01*
X2174809Y3903717D01*
X2145054Y3891392D01*
X2118275Y3873499D01*
X2095501Y3850725D01*
X2077608Y3823946D01*
X2065283Y3794191D01*
X2059000Y3762603D01*
X1886000Y3762603D01*
X1879717Y3794191D01*
X1867392Y3823946D01*
X1849499Y3850725D01*
X1826725Y3873499D01*
X1799946Y3891392D01*
X1770191Y3903717D01*
X1738603Y3910000D01*
X1706397Y3910000D01*
X1674809Y3903717D01*
X1645054Y3891392D01*
X1618275Y3873499D01*
X1595501Y3850725D01*
X1577608Y3823946D01*
X1565283Y3794191D01*
X1559000Y3762603D01*
X1218734Y3762603D01*
X1213831Y3787249D01*
X1203301Y3812673D01*
X1188012Y3835553D01*
X1168554Y3855012D01*
X1145673Y3870300D01*
X1120249Y3880831D01*
X1093259Y3886200D01*
X1065741Y3886200D01*
X1038751Y3880831D01*
X1013327Y3870300D01*
X990446Y3855012D01*
X970988Y3835553D01*
X955699Y3812673D01*
X945169Y3787249D01*
X939800Y3760259D01*
X129500Y3760259D01*
X129500Y4014259D01*
X431800Y4014259D01*
X431800Y3986741D01*
X437169Y3959751D01*
X447699Y3934327D01*
X462988Y3911446D01*
X482446Y3891988D01*
X505327Y3876699D01*
X530751Y3866169D01*
X557741Y3860800D01*
X585259Y3860800D01*
X612249Y3866169D01*
X637673Y3876699D01*
X660554Y3891988D01*
X680012Y3911446D01*
X695301Y3934327D01*
X705831Y3959751D01*
X711200Y3986741D01*
X711200Y4014259D01*
X705831Y4041249D01*
X695301Y4066673D01*
X680012Y4089553D01*
X660554Y4109012D01*
X637673Y4124300D01*
X612249Y4134831D01*
X585259Y4140200D01*
X557741Y4140200D01*
X530751Y4134831D01*
X505327Y4124300D01*
X482446Y4109012D01*
X462988Y4089553D01*
X447699Y4066673D01*
X437169Y4041249D01*
X431800Y4014259D01*
X129500Y4014259D01*
X129500Y4522259D01*
X939800Y4522259D01*
X939800Y4494741D01*
X945169Y4467751D01*
X955699Y4442327D01*
X970988Y4419447D01*
X990446Y4399988D01*
X1013327Y4384700D01*
X1021051Y4381500D01*
X1013327Y4378301D01*
X990446Y4363012D01*
X970988Y4343554D01*
X955699Y4320673D01*
X945169Y4295249D01*
X939800Y4268259D01*
X939800Y4240741D01*
X945169Y4213751D01*
X955699Y4188327D01*
X970988Y4165446D01*
X990446Y4145988D01*
X1013327Y4130699D01*
X1038751Y4120169D01*
X1065741Y4114800D01*
X1093259Y4114800D01*
X1120249Y4120169D01*
X1145673Y4130699D01*
X1168554Y4145988D01*
X1188012Y4165446D01*
X1203301Y4188327D01*
X1213831Y4213751D01*
X1219200Y4240741D01*
X1219200Y4262603D01*
X1559000Y4262603D01*
X1559000Y4230397D01*
X1565283Y4198809D01*
X1577608Y4169054D01*
X1595501Y4142275D01*
X1618275Y4119501D01*
X1645054Y4101608D01*
X1674809Y4089283D01*
X1706397Y4083000D01*
X1738603Y4083000D01*
X1770191Y4089283D01*
X1799946Y4101608D01*
X1826725Y4119501D01*
X1849499Y4142275D01*
X1867392Y4169054D01*
X1879717Y4198809D01*
X1886000Y4230397D01*
X1886000Y4262603D01*
X2059000Y4262603D01*
X2059000Y4230397D01*
X2065283Y4198809D01*
X2077608Y4169054D01*
X2095501Y4142275D01*
X2118275Y4119501D01*
X2145054Y4101608D01*
X2174809Y4089283D01*
X2206397Y4083000D01*
X2238603Y4083000D01*
X2270191Y4089283D01*
X2299946Y4101608D01*
X2326725Y4119501D01*
X2349499Y4142275D01*
X2367392Y4169054D01*
X2379717Y4198809D01*
X2386000Y4230397D01*
X2386000Y4262603D01*
X2379717Y4294191D01*
X2367392Y4323946D01*
X2349499Y4350725D01*
X2326725Y4373499D01*
X2314751Y4381500D01*
X2713306Y4381500D01*
X2716076Y4353369D01*
X2724282Y4326319D01*
X2737607Y4301390D01*
X2755539Y4279539D01*
X2777390Y4261607D01*
X2802319Y4248282D01*
X2829369Y4240076D01*
X2850451Y4238000D01*
X2864549Y4238000D01*
X2885631Y4240076D01*
X2912681Y4248282D01*
X2937610Y4261607D01*
X2959461Y4279539D01*
X2977393Y4301390D01*
X2984500Y4314686D01*
X2991607Y4301390D01*
X3009539Y4279539D01*
X3031390Y4261607D01*
X3056319Y4248282D01*
X3083369Y4240076D01*
X3104451Y4238000D01*
X3118549Y4238000D01*
X3139631Y4240076D01*
X3166681Y4248282D01*
X3191610Y4261607D01*
X3213461Y4279539D01*
X3231393Y4301390D01*
X3233483Y4305300D01*
X4258000Y4305300D01*
X4258000Y4265300D01*
X4262851Y4241450D01*
X4272261Y4219005D01*
X4285869Y4198828D01*
X4303153Y4181692D01*
X4323447Y4168258D01*
X4345972Y4159041D01*
X4349739Y4158654D01*
X4368800Y4171127D01*
X4368800Y4305300D01*
X4394200Y4305300D01*
X4394200Y4171127D01*
X4413261Y4158654D01*
X4417028Y4159041D01*
X4439553Y4168258D01*
X4459847Y4181692D01*
X4477131Y4198828D01*
X4490739Y4219005D01*
X4500149Y4241450D01*
X4505000Y4265300D01*
X4505000Y4305300D01*
X4394200Y4305300D01*
X4368800Y4305300D01*
X4258000Y4305300D01*
X3233483Y4305300D01*
X3244718Y4326319D01*
X3252924Y4353369D01*
X3254630Y4370700D01*
X4258000Y4370700D01*
X4258000Y4330700D01*
X4368800Y4330700D01*
X4368800Y4464873D01*
X4394200Y4464873D01*
X4394200Y4330700D01*
X4505000Y4330700D01*
X4505000Y4364066D01*
X4512000Y4364066D01*
X4512000Y4271934D01*
X4513787Y4253790D01*
X4520849Y4230510D01*
X4532317Y4209055D01*
X4547750Y4190250D01*
X4566555Y4174817D01*
X4588010Y4163349D01*
X4611290Y4156287D01*
X4635500Y4153902D01*
X4659710Y4156287D01*
X4682990Y4163349D01*
X4704445Y4174817D01*
X4723250Y4190250D01*
X4738683Y4209055D01*
X4750151Y4230510D01*
X4757213Y4253790D01*
X4759000Y4271934D01*
X4759000Y4364066D01*
X4766000Y4364066D01*
X4766000Y4271934D01*
X4767787Y4253790D01*
X4774849Y4230510D01*
X4786317Y4209055D01*
X4801750Y4190250D01*
X4820555Y4174817D01*
X4842010Y4163349D01*
X4865290Y4156287D01*
X4889500Y4153902D01*
X4913710Y4156287D01*
X4936990Y4163349D01*
X4958445Y4174817D01*
X4977250Y4190250D01*
X4992683Y4209055D01*
X5004151Y4230510D01*
X5011213Y4253790D01*
X5013000Y4271934D01*
X5013000Y4364066D01*
X5020000Y4364066D01*
X5020000Y4271934D01*
X5021787Y4253790D01*
X5028849Y4230510D01*
X5040317Y4209055D01*
X5055750Y4190250D01*
X5074555Y4174817D01*
X5096010Y4163349D01*
X5119290Y4156287D01*
X5143500Y4153902D01*
X5167710Y4156287D01*
X5190990Y4163349D01*
X5212445Y4174817D01*
X5231250Y4190250D01*
X5246683Y4209055D01*
X5258151Y4230510D01*
X5265213Y4253790D01*
X5267000Y4271934D01*
X5267000Y4364067D01*
X5265213Y4382210D01*
X5258151Y4405490D01*
X5246683Y4426945D01*
X5231250Y4445750D01*
X5212445Y4461183D01*
X5190990Y4472651D01*
X5167710Y4479713D01*
X5143500Y4482098D01*
X5119290Y4479713D01*
X5096010Y4472651D01*
X5074555Y4461183D01*
X5055750Y4445750D01*
X5040317Y4426945D01*
X5028849Y4405490D01*
X5021787Y4382210D01*
X5020000Y4364066D01*
X5013000Y4364066D01*
X5013000Y4364067D01*
X5011213Y4382210D01*
X5004151Y4405490D01*
X4992683Y4426945D01*
X4977250Y4445750D01*
X4958445Y4461183D01*
X4936990Y4472651D01*
X4913710Y4479713D01*
X4889500Y4482098D01*
X4865290Y4479713D01*
X4842010Y4472651D01*
X4820555Y4461183D01*
X4801750Y4445750D01*
X4786317Y4426945D01*
X4774849Y4405490D01*
X4767787Y4382210D01*
X4766000Y4364066D01*
X4759000Y4364066D01*
X4759000Y4364067D01*
X4757213Y4382210D01*
X4750151Y4405490D01*
X4738683Y4426945D01*
X4723250Y4445750D01*
X4704445Y4461183D01*
X4682990Y4472651D01*
X4659710Y4479713D01*
X4635500Y4482098D01*
X4611290Y4479713D01*
X4588010Y4472651D01*
X4566555Y4461183D01*
X4547750Y4445750D01*
X4532317Y4426945D01*
X4520849Y4405490D01*
X4513787Y4382210D01*
X4512000Y4364066D01*
X4505000Y4364066D01*
X4505000Y4370700D01*
X4500149Y4394550D01*
X4490739Y4416995D01*
X4477131Y4437173D01*
X4459847Y4454308D01*
X4439553Y4467742D01*
X4417028Y4476959D01*
X4413261Y4477346D01*
X4394200Y4464873D01*
X4368800Y4464873D01*
X4349739Y4477346D01*
X4345972Y4476959D01*
X4323447Y4467742D01*
X4303153Y4454308D01*
X4285869Y4437173D01*
X4272261Y4416995D01*
X4262851Y4394550D01*
X4258000Y4370700D01*
X3254630Y4370700D01*
X3255694Y4381500D01*
X3252924Y4409631D01*
X3244718Y4436681D01*
X3231393Y4461610D01*
X3213461Y4483461D01*
X3191610Y4501393D01*
X3166681Y4514718D01*
X3139631Y4522924D01*
X3118549Y4525000D01*
X3104451Y4525000D01*
X3083369Y4522924D01*
X3056319Y4514718D01*
X3031390Y4501393D01*
X3009539Y4483461D01*
X2991607Y4461610D01*
X2984500Y4448314D01*
X2977393Y4461610D01*
X2959461Y4483461D01*
X2937610Y4501393D01*
X2912681Y4514718D01*
X2885631Y4522924D01*
X2864549Y4525000D01*
X2850451Y4525000D01*
X2829369Y4522924D01*
X2802319Y4514718D01*
X2777390Y4501393D01*
X2755539Y4483461D01*
X2737607Y4461610D01*
X2724282Y4436681D01*
X2716076Y4409631D01*
X2713306Y4381500D01*
X2314751Y4381500D01*
X2299946Y4391392D01*
X2270191Y4403717D01*
X2238603Y4410000D01*
X2206397Y4410000D01*
X2174809Y4403717D01*
X2145054Y4391392D01*
X2118275Y4373499D01*
X2095501Y4350725D01*
X2077608Y4323946D01*
X2065283Y4294191D01*
X2059000Y4262603D01*
X1886000Y4262603D01*
X1879717Y4294191D01*
X1867392Y4323946D01*
X1849499Y4350725D01*
X1826725Y4373499D01*
X1799946Y4391392D01*
X1770191Y4403717D01*
X1738603Y4410000D01*
X1706397Y4410000D01*
X1674809Y4403717D01*
X1645054Y4391392D01*
X1618275Y4373499D01*
X1595501Y4350725D01*
X1577608Y4323946D01*
X1565283Y4294191D01*
X1559000Y4262603D01*
X1219200Y4262603D01*
X1219200Y4268259D01*
X1213831Y4295249D01*
X1203301Y4320673D01*
X1188012Y4343554D01*
X1168554Y4363012D01*
X1145673Y4378301D01*
X1137949Y4381500D01*
X1145673Y4384700D01*
X1168554Y4399988D01*
X1188012Y4419447D01*
X1203301Y4442327D01*
X1213831Y4467751D01*
X1219200Y4494741D01*
X1219200Y4522259D01*
X1213831Y4549249D01*
X1203301Y4574673D01*
X1188012Y4597554D01*
X1168554Y4617012D01*
X1145673Y4632301D01*
X1120249Y4642831D01*
X1093259Y4648200D01*
X1065741Y4648200D01*
X1038751Y4642831D01*
X1013327Y4632301D01*
X990446Y4617012D01*
X970988Y4597554D01*
X955699Y4574673D01*
X945169Y4549249D01*
X939800Y4522259D01*
X129500Y4522259D01*
X129500Y4696500D01*
X8646200Y4696500D01*
X8646200Y1313582D01*
M02*
