M48
; DRILL file {KiCad 5.1.2-f72e74a~84~ubuntu18.04.1} date Сб 25 мая 2019 17:51:19
; FORMAT={2:4/ absolute / inch / suppress leading zeros}
; #@! TF.CreationDate,2019-05-25T17:51:19+03:00
; #@! TF.GenerationSoftware,Kicad,Pcbnew,5.1.2-f72e74a~84~ubuntu18.04.1
FMAT,2
INCH,TZ
T1C0.0300
T2C0.0315
T3C0.0433
T4C0.0512
%
G90
G05
T1
X19250Y4250
X21250Y2250
X2250Y15750
X4250Y17750
X4250Y16750
X4250Y14750
X4250Y13750
X2250Y10750
X4250Y12750
X4250Y11750
X4250Y9750
X4250Y8750
X13750Y4250
X14750Y4250
X15750Y2250
X16750Y4250
X17750Y4250
X20250Y4250
X22250Y4250
X23250Y4250
T2
X8300Y2200
X8406Y8294
X9700Y2200
X10700Y5600
X10700Y4600
X10700Y3400
X11100Y8000
X13100Y7484
X15300Y12800
X15628Y10072
X19700Y8000
X25119Y11271
X25500Y7200
X26318Y8218
X30100Y9200
X31239Y7200
X32700Y7200
X32700Y5600
X33798Y3600
X11250Y17250
X11250Y14250
X12250Y17250
X12250Y14250
X11250Y12250
X11250Y9250
X12250Y12250
X12250Y9250
X32750Y8219
X32750Y6250
X13750Y6250
X17750Y6250
X5250Y3250
X9250Y3250
X22250Y14250
X22250Y10250
X17250Y17000
X18250Y17000
X19250Y17000
X20250Y17000
X19000Y7000
X20000Y6000
X21000Y7000
X15250Y15000
X15250Y12000
X22516Y6500
X23500Y6500
X14250Y8750
X18250Y8750
X29750Y4750
X29750Y3750
X29750Y2750
X29750Y1750
X32750Y4750
X32750Y3750
X32750Y2750
X32750Y1750
X20250Y13000
X20250Y9000
X26750Y10250
X30750Y10250
X16750Y15000
X16750Y12000
X29250Y6250
X31219Y6250
X18500Y15000
X18500Y12000
X5250Y4750
X9250Y4750
X14250Y10250
X18250Y10250
X27250Y8250
X28250Y8250
X29250Y8250
X30250Y8250
X31250Y8250
T3
X1250Y7250
X1250Y1250
X2250Y7250
X2250Y1250
X3250Y7250
X3250Y1250
X4250Y7250
X4250Y1250
X5250Y7250
X5250Y1250
X6250Y7250
X6250Y1250
X7250Y7250
X7250Y1250
X8250Y7250
X8250Y1250
X9250Y7250
X9250Y1250
X10250Y7250
X10250Y1250
X11250Y7250
X11250Y1250
X12250Y7250
X12250Y1250
X6750Y11750
X6750Y9781
X8719Y11750
X8719Y9781
X6781Y16719
X6781Y14750
X8750Y16719
X8750Y14750
T4
X25250Y5750
X26234Y1813
X27219Y5750
T0
M30
