G04 #@! TF.GenerationSoftware,KiCad,Pcbnew,5.1.0-060a0da~80~ubuntu18.04.1*
G04 #@! TF.CreationDate,2019-04-27T22:21:35+03:00*
G04 #@! TF.ProjectId,manipulyator-v3,6d616e69-7075-46c7-9961-746f722d7633,rev?*
G04 #@! TF.SameCoordinates,Original*
G04 #@! TF.FileFunction,Copper,L2,Bot*
G04 #@! TF.FilePolarity,Positive*
%FSLAX46Y46*%
G04 Gerber Fmt 4.6, Leading zero omitted, Abs format (unit mm)*
G04 Created by KiCad (PCBNEW 5.1.0-060a0da~80~ubuntu18.04.1) date 2019-04-27 22:21:35*
%MOMM*%
%LPD*%
G04 APERTURE LIST*
%ADD10O,1.200000X2.000000*%
%ADD11R,1.600000X1.600000*%
%ADD12C,1.600000*%
%ADD13O,1.600000X1.600000*%
%ADD14C,1.524000*%
%ADD15C,2.000000*%
%ADD16C,2.340000*%
%ADD17C,1.500000*%
%ADD18R,1.500000X1.500000*%
%ADD19R,2.400000X1.600000*%
%ADD20O,2.400000X1.600000*%
%ADD21C,0.500000*%
G04 APERTURE END LIST*
D10*
X189230000Y-68580000D03*
X191770000Y-68580000D03*
X194310000Y-68580000D03*
X196850000Y-68580000D03*
X199390000Y-68580000D03*
D11*
X123190000Y-86360000D03*
D12*
X125730000Y-86360000D03*
X128270000Y-86360000D03*
X130810000Y-86360000D03*
X133350000Y-86360000D03*
X135890000Y-86360000D03*
X138430000Y-86360000D03*
X140970000Y-86360000D03*
X143510000Y-86360000D03*
X146050000Y-86360000D03*
X148590000Y-86360000D03*
X151130000Y-86360000D03*
X151130000Y-71120000D03*
X148590000Y-71120000D03*
X146050000Y-71120000D03*
X143510000Y-71120000D03*
X140970000Y-71120000D03*
X138430000Y-71120000D03*
X135890000Y-71120000D03*
X133350000Y-71120000D03*
X130810000Y-71120000D03*
X128270000Y-71120000D03*
X125730000Y-71120000D03*
X123190000Y-71120000D03*
D13*
X148590000Y-58420000D03*
X151130000Y-66040000D03*
X151130000Y-58420000D03*
D11*
X148590000Y-66040000D03*
D13*
X148590000Y-45720000D03*
X151130000Y-53340000D03*
X151130000Y-45720000D03*
D11*
X148590000Y-53340000D03*
D13*
X166370000Y-67310000D03*
D12*
X156210000Y-67310000D03*
D13*
X166370000Y-63500000D03*
D12*
X156210000Y-63500000D03*
D14*
X125730000Y-62230000D03*
X130810000Y-57150000D03*
X130810000Y-59690000D03*
X130810000Y-64770000D03*
X130810000Y-67310000D03*
X125730000Y-49530000D03*
X130810000Y-44450000D03*
X130810000Y-46990000D03*
X130810000Y-52070000D03*
X130810000Y-54610000D03*
X173990000Y-83820000D03*
X168910000Y-78740000D03*
X171450000Y-78740000D03*
X176530000Y-78740000D03*
X179070000Y-78740000D03*
D15*
X137160000Y-64690000D03*
X142160000Y-64690000D03*
X142160000Y-59690000D03*
X137160000Y-59690000D03*
X137240000Y-52070000D03*
X142240000Y-52070000D03*
X142240000Y-47070000D03*
X137240000Y-47070000D03*
D14*
X165100000Y-78740000D03*
X162560000Y-78740000D03*
X157480000Y-78740000D03*
X154940000Y-78740000D03*
X160020000Y-83820000D03*
D16*
X184150000Y-74930000D03*
X186650000Y-84930000D03*
X189150000Y-74930000D03*
D13*
X143510000Y-77470000D03*
D12*
X133350000Y-77470000D03*
D11*
X167005000Y-51435000D03*
D13*
X167005000Y-59055000D03*
D10*
X163830000Y-46355000D03*
X166370000Y-46355000D03*
X168910000Y-46355000D03*
X171450000Y-46355000D03*
D12*
X199310000Y-73660000D03*
X194310000Y-73660000D03*
X203200000Y-73660000D03*
X203200000Y-68660000D03*
D11*
X158750000Y-51435000D03*
D13*
X158750000Y-59055000D03*
X162560000Y-51435000D03*
D11*
X162560000Y-59055000D03*
D17*
X173990000Y-74930000D03*
X171450000Y-72390000D03*
D18*
X176530000Y-72390000D03*
D13*
X143510000Y-81280000D03*
D12*
X133350000Y-81280000D03*
X171450000Y-56515000D03*
D13*
X171450000Y-66675000D03*
X176530000Y-63500000D03*
D12*
X176530000Y-53340000D03*
X165100000Y-73660000D03*
D13*
X154940000Y-73660000D03*
D12*
X198120000Y-63500000D03*
D13*
X187960000Y-63500000D03*
D19*
X203200000Y-85090000D03*
D20*
X195580000Y-77470000D03*
X203200000Y-82550000D03*
X195580000Y-80010000D03*
X203200000Y-80010000D03*
X195580000Y-82550000D03*
X203200000Y-77470000D03*
X195580000Y-85090000D03*
D12*
X194310000Y-66675000D03*
X144780000Y-67945000D03*
X196215000Y-65405000D03*
X149225000Y-69215000D03*
X185420000Y-58420000D03*
X185420000Y-63500000D03*
D21*
X167005000Y-51435000D02*
X167005000Y-50184700D01*
X166370000Y-46355000D02*
X166370000Y-49549700D01*
X166370000Y-49549700D02*
X167005000Y-50184700D01*
X162560000Y-59055000D02*
X167005000Y-59055000D01*
X194310000Y-68580000D02*
X194310000Y-66675000D01*
X144780000Y-69850000D02*
X146050000Y-71120000D01*
X144780000Y-67945000D02*
X144780000Y-69850000D01*
X196850000Y-68580000D02*
X196850000Y-66040000D01*
X196850000Y-66040000D02*
X196215000Y-65405000D01*
X149225000Y-70485000D02*
X148590000Y-71120000D01*
X149225000Y-69215000D02*
X149225000Y-70485000D01*
X199390000Y-68580000D02*
X199390000Y-62965200D01*
X199390000Y-62965200D02*
X197900800Y-61476000D01*
X197900800Y-61476000D02*
X164897500Y-61476000D01*
X164897500Y-61476000D02*
X155253500Y-71120000D01*
X155253500Y-71120000D02*
X151130000Y-71120000D01*
X171450000Y-53340000D02*
X171450000Y-56515000D01*
X168910000Y-46355000D02*
X168910000Y-50800000D01*
X168910000Y-50800000D02*
X171450000Y-53340000D01*
X176530000Y-53340000D02*
X176530000Y-52885300D01*
X176530000Y-52885300D02*
X171450000Y-47805300D01*
X171450000Y-46355000D02*
X171450000Y-47805300D01*
X143510000Y-81280000D02*
X143510000Y-79290100D01*
X143510000Y-79290100D02*
X142239900Y-78020000D01*
X142239900Y-78020000D02*
X142239900Y-76965000D01*
X142239900Y-76965000D02*
X142995200Y-76209700D01*
X142995200Y-76209700D02*
X145597700Y-76209700D01*
X145597700Y-76209700D02*
X146507900Y-77119900D01*
X146507900Y-77119900D02*
X155088400Y-77119900D01*
X155088400Y-77119900D02*
X156210000Y-78241500D01*
X156210000Y-78241500D02*
X156210000Y-79984500D01*
X156210000Y-79984500D02*
X152425500Y-79984500D01*
X152425500Y-79984500D02*
X146050000Y-86360000D01*
X165100000Y-78740000D02*
X163855500Y-79984500D01*
X163855500Y-79984500D02*
X156210000Y-79984500D01*
X148580200Y-81289800D02*
X151130000Y-78740000D01*
X151130000Y-78740000D02*
X154940000Y-78740000D01*
X143510000Y-86360000D02*
X148580200Y-81289800D01*
X148580200Y-81289800D02*
X144760300Y-77470000D01*
X143510000Y-77470000D02*
X144760300Y-77470000D01*
X203200000Y-68660000D02*
X203200000Y-64794100D01*
X203200000Y-64794100D02*
X183310600Y-44904700D01*
X183310600Y-44904700D02*
X163830000Y-44904700D01*
X174840100Y-72390000D02*
X175234600Y-72784500D01*
X175234600Y-72784500D02*
X175234600Y-82575400D01*
X175234600Y-82575400D02*
X173990000Y-83820000D01*
X171450000Y-72390000D02*
X174840100Y-72390000D01*
X189230000Y-68580000D02*
X178198300Y-68580000D01*
X178198300Y-68580000D02*
X174840100Y-71938200D01*
X174840100Y-71938200D02*
X174840100Y-72390000D01*
X199310000Y-73660000D02*
X203200000Y-69770000D01*
X203200000Y-69770000D02*
X203200000Y-68660000D01*
X163830000Y-46355000D02*
X163830000Y-44904700D01*
X152380300Y-53340000D02*
X159365300Y-46355000D01*
X159365300Y-46355000D02*
X163830000Y-46355000D01*
X151130000Y-65414800D02*
X156112200Y-65414800D01*
X156112200Y-65414800D02*
X157461700Y-64065300D01*
X157461700Y-64065300D02*
X157461700Y-58421400D01*
X157461700Y-58421400D02*
X152380300Y-53340000D01*
X151130000Y-65414800D02*
X151130000Y-64789700D01*
X151130000Y-66040000D02*
X151130000Y-65414800D01*
X151130000Y-53340000D02*
X152380300Y-53340000D01*
X170124600Y-83820000D02*
X173990000Y-83820000D01*
X160020000Y-83820000D02*
X170124600Y-83820000D01*
X170124600Y-83820000D02*
X170124600Y-78237900D01*
X170124600Y-78237900D02*
X169361000Y-77474300D01*
X169361000Y-77474300D02*
X168445900Y-77474300D01*
X168445900Y-77474300D02*
X164871900Y-81048300D01*
X164871900Y-81048300D02*
X159989800Y-81048300D01*
X159989800Y-81048300D02*
X152650300Y-88387800D01*
X152650300Y-88387800D02*
X132837800Y-88387800D01*
X132837800Y-88387800D02*
X130810000Y-86360000D01*
X128270000Y-86360000D02*
X128270000Y-73660000D01*
X128270000Y-73660000D02*
X125730000Y-71120000D01*
X130810000Y-86360000D02*
X128270000Y-86360000D01*
X136463999Y-61140001D02*
X141150001Y-61140001D01*
X136283998Y-60960000D02*
X136463999Y-61140001D01*
X125206238Y-60960000D02*
X136283998Y-60960000D01*
X124517999Y-61648239D02*
X125206238Y-60960000D01*
X125730000Y-71120000D02*
X124517999Y-69907999D01*
X124517999Y-69907999D02*
X124517999Y-61648239D01*
X141150001Y-61140001D02*
X144799700Y-64789700D01*
X151130000Y-64789700D02*
X144799700Y-64789700D01*
X144799700Y-64789700D02*
X144632100Y-64789700D01*
X193929700Y-77470000D02*
X193929700Y-74040300D01*
X193929700Y-74040300D02*
X194310000Y-73660000D01*
X195580000Y-77470000D02*
X193929700Y-77470000D01*
X196564200Y-83837400D02*
X193057400Y-83837400D01*
X193057400Y-83837400D02*
X184150000Y-74930000D01*
X197230300Y-80010000D02*
X198500300Y-78740000D01*
X198500300Y-78740000D02*
X204112800Y-78740000D01*
X197230300Y-80010000D02*
X197230300Y-83171300D01*
X197230300Y-83171300D02*
X196564200Y-83837400D01*
X186650000Y-84930000D02*
X188113900Y-86393900D01*
X188113900Y-86393900D02*
X196455600Y-86393900D01*
X196455600Y-86393900D02*
X197235900Y-85613600D01*
X197235900Y-85613600D02*
X197235900Y-84509100D01*
X197235900Y-84509100D02*
X196564200Y-83837400D01*
X204112800Y-78740000D02*
X204861300Y-77991500D01*
X204861300Y-77991500D02*
X204861300Y-75321300D01*
X204861300Y-75321300D02*
X203200000Y-73660000D01*
X195580000Y-80010000D02*
X197230300Y-80010000D01*
X203200000Y-82550000D02*
X204522300Y-82550000D01*
X204112800Y-78740000D02*
X204850300Y-79477500D01*
X204850300Y-79477500D02*
X204850300Y-82222000D01*
X204850300Y-82222000D02*
X204522300Y-82550000D01*
X203200000Y-77470000D02*
X201294500Y-77470000D01*
X201294500Y-77470000D02*
X197992200Y-74167700D01*
X197992200Y-74167700D02*
X197992200Y-71865800D01*
X197992200Y-71865800D02*
X200460900Y-69397100D01*
X200460900Y-69397100D02*
X200460900Y-63045600D01*
X200460900Y-63045600D02*
X198173900Y-60758600D01*
X158750000Y-60758600D02*
X158750000Y-66581600D01*
X158750000Y-66581600D02*
X155714100Y-69617500D01*
X132312500Y-69617500D02*
X130810000Y-71120000D01*
X191770000Y-70030200D02*
X191770000Y-70030300D01*
X186719100Y-70030300D02*
X191770000Y-70030300D01*
X182514300Y-74235100D02*
X186719100Y-70030300D01*
X182514300Y-75619300D02*
X182514300Y-74235100D01*
X191985000Y-85090000D02*
X182514300Y-75619300D01*
X195580000Y-85090000D02*
X191985000Y-85090000D01*
X191770000Y-68580000D02*
X191770000Y-70030200D01*
X158750000Y-59055000D02*
X158750000Y-60758600D01*
X191770000Y-67854800D02*
X191770000Y-66059700D01*
X191770000Y-66059700D02*
X189210300Y-63500000D01*
X191770000Y-68217400D02*
X191770000Y-68580000D01*
X133350000Y-77470000D02*
X133350000Y-81280000D01*
X133350000Y-77470000D02*
X130810000Y-74930000D01*
X130810000Y-74930000D02*
X130810000Y-71120000D01*
X187960000Y-63500000D02*
X188225200Y-63500000D01*
X191770000Y-68217400D02*
X191770000Y-67854800D01*
X188585200Y-63500000D02*
X189210300Y-63500000D01*
X188585200Y-63500000D02*
X188225200Y-63500000D01*
X132312500Y-69617500D02*
X132312500Y-68347500D01*
X132312500Y-68347500D02*
X133985000Y-66675000D01*
X133985000Y-66675000D02*
X146050000Y-66675000D01*
X146050000Y-66675000D02*
X147320000Y-67945000D01*
X150208337Y-67945000D02*
X150273347Y-68010010D01*
X147320000Y-67945000D02*
X150208337Y-67945000D01*
X154106610Y-68010010D02*
X155714100Y-69617500D01*
X150273347Y-68010010D02*
X154106610Y-68010010D01*
X185218600Y-58621400D02*
X185420000Y-58420000D01*
X185218600Y-60758600D02*
X185218600Y-58621400D01*
X185218600Y-60758600D02*
X158750000Y-60758600D01*
X198173900Y-60758600D02*
X185218600Y-60758600D01*
X185420000Y-63500000D02*
X187960000Y-63500000D01*
X162560000Y-51435000D02*
X158750000Y-51435000D01*
X165100000Y-73660000D02*
X172720000Y-73660000D01*
X172720000Y-73660000D02*
X173990000Y-74930000D01*
X176530000Y-72390000D02*
X176530000Y-73590300D01*
X203200000Y-85090000D02*
X201549700Y-85090000D01*
X201549700Y-85090000D02*
X199541500Y-87098200D01*
X199541500Y-87098200D02*
X186491200Y-87098200D01*
X186491200Y-87098200D02*
X181671200Y-82278200D01*
X181671200Y-82278200D02*
X181671200Y-78731500D01*
X181671200Y-78731500D02*
X176530000Y-73590300D01*
X160607300Y-75593000D02*
X146321400Y-75593000D01*
X146321400Y-75593000D02*
X146237800Y-75509400D01*
X146237800Y-75509400D02*
X142705000Y-75509400D01*
X142705000Y-75509400D02*
X141539600Y-76674800D01*
X141539600Y-76674800D02*
X141539600Y-78660500D01*
X141539600Y-78660500D02*
X142239900Y-79360800D01*
X142239900Y-79360800D02*
X142239900Y-86894900D01*
X142239900Y-86894900D02*
X141476000Y-87658800D01*
X141476000Y-87658800D02*
X137188800Y-87658800D01*
X137188800Y-87658800D02*
X135890000Y-86360000D01*
X168725301Y-67474999D02*
X160607300Y-75593000D01*
X170650001Y-67474999D02*
X168725301Y-67474999D01*
X171450000Y-66675000D02*
X170650001Y-67474999D01*
X176530000Y-63500000D02*
X175279700Y-63500000D01*
X175279700Y-63500000D02*
X173985900Y-62206200D01*
X173985900Y-62206200D02*
X165880300Y-62206200D01*
X165880300Y-62206200D02*
X155677300Y-72409200D01*
X155677300Y-72409200D02*
X143772400Y-72409200D01*
X143772400Y-72409200D02*
X134639600Y-81542000D01*
X134639600Y-81542000D02*
X134639600Y-85070400D01*
X134639600Y-85070400D02*
X133350000Y-86360000D01*
X140970000Y-86360000D02*
X140839300Y-86229300D01*
X140839300Y-86229300D02*
X140839300Y-76384600D01*
X140839300Y-76384600D02*
X142414800Y-74809100D01*
X142414800Y-74809100D02*
X154250500Y-74809100D01*
X154250500Y-74809100D02*
X154311500Y-74870100D01*
X154311500Y-74870100D02*
X154518500Y-74870100D01*
X154518500Y-74870100D02*
X155386000Y-74002600D01*
X155386000Y-74002600D02*
X156044000Y-74002600D01*
X156044000Y-74002600D02*
X156190300Y-73856300D01*
X156190300Y-73856300D02*
X156190300Y-73660000D01*
X165119700Y-67310000D02*
X162540300Y-67310000D01*
X162540300Y-67310000D02*
X156190300Y-73660000D01*
X166370000Y-67310000D02*
X166370000Y-63500000D01*
X165744900Y-67310000D02*
X166370000Y-67310000D01*
X155565200Y-73660000D02*
X154940000Y-73660000D01*
X165744900Y-67310000D02*
X165119700Y-67310000D01*
X155565200Y-73660000D02*
X156190300Y-73660000D01*
X189150000Y-74930000D02*
X193454000Y-70626000D01*
X193454000Y-70626000D02*
X196742300Y-70626000D01*
X196742300Y-70626000D02*
X198120000Y-69248300D01*
X198120000Y-69248300D02*
X198120000Y-63500000D01*
X193929700Y-82550000D02*
X189150000Y-77770300D01*
X189150000Y-77770300D02*
X189150000Y-74930000D01*
X195580000Y-82550000D02*
X193929700Y-82550000D01*
X137240000Y-52070000D02*
X134700000Y-54610000D01*
X134700000Y-54610000D02*
X130810000Y-54610000D01*
X142240000Y-52070000D02*
X139700000Y-49530000D01*
X139700000Y-49530000D02*
X125730000Y-49530000D01*
X149879700Y-45720000D02*
X149879700Y-46263900D01*
X149879700Y-46263900D02*
X149073600Y-47070000D01*
X149073600Y-47070000D02*
X142240000Y-47070000D01*
X151130000Y-45720000D02*
X149879700Y-45720000D01*
X137240000Y-47070000D02*
X138765400Y-45544600D01*
X138765400Y-45544600D02*
X147164300Y-45544600D01*
X147164300Y-45544600D02*
X147339700Y-45720000D01*
X148590000Y-45720000D02*
X147339700Y-45720000D01*
X130810000Y-67310000D02*
X133430000Y-64690000D01*
X133430000Y-64690000D02*
X137160000Y-64690000D01*
X142160000Y-64690000D02*
X139700000Y-62230000D01*
X139700000Y-62230000D02*
X125730000Y-62230000D01*
X151130000Y-58420000D02*
X149879700Y-58420000D01*
X142160000Y-59690000D02*
X149153600Y-59690000D01*
X149153600Y-59690000D02*
X149879700Y-58963900D01*
X149879700Y-58963900D02*
X149879700Y-58420000D01*
X137160000Y-59690000D02*
X138614400Y-58235600D01*
X138614400Y-58235600D02*
X147155300Y-58235600D01*
X147155300Y-58235600D02*
X147339700Y-58420000D01*
X148590000Y-58420000D02*
X147339700Y-58420000D01*
X179070000Y-80757100D02*
X174794800Y-85032300D01*
X174794800Y-85032300D02*
X159450300Y-85032300D01*
X159450300Y-85032300D02*
X158807500Y-84389500D01*
X158807500Y-84389500D02*
X158807500Y-83268500D01*
X158807500Y-83268500D02*
X159468400Y-82607600D01*
X159468400Y-82607600D02*
X165042400Y-82607600D01*
X165042400Y-82607600D02*
X168910000Y-78740000D01*
X179070000Y-78740000D02*
X179070000Y-80757100D01*
X179070000Y-80757100D02*
X186115700Y-87802800D01*
X186115700Y-87802800D02*
X203124200Y-87802800D01*
X203124200Y-87802800D02*
X204850400Y-86076600D01*
X204850400Y-86076600D02*
X204850400Y-84102100D01*
X204850400Y-84102100D02*
X204568300Y-83820000D01*
X204568300Y-83820000D02*
X202269800Y-83820000D01*
X202269800Y-83820000D02*
X201549700Y-83099900D01*
X201549700Y-83099900D02*
X201549700Y-80010000D01*
X203200000Y-80010000D02*
X201549700Y-80010000D01*
X148590000Y-53340000D02*
X148590000Y-54590300D01*
X156210000Y-63500000D02*
X156210000Y-61663300D01*
X156210000Y-61663300D02*
X149137000Y-54590300D01*
X149137000Y-54590300D02*
X148590000Y-54590300D01*
X148590000Y-66040000D02*
X149840300Y-66040000D01*
X156210000Y-67310000D02*
X150563300Y-67310000D01*
X150563300Y-67310000D02*
X149840300Y-66587000D01*
X149840300Y-66587000D02*
X149840300Y-66040000D01*
M02*
