G04 #@! TF.GenerationSoftware,KiCad,Pcbnew,5.1.2-f72e74a~84~ubuntu18.04.1*
G04 #@! TF.CreationDate,2019-05-03T13:28:02+03:00*
G04 #@! TF.ProjectId,manipulyator-v3,6d616e69-7075-46c7-9961-746f722d7633,rev?*
G04 #@! TF.SameCoordinates,Original*
G04 #@! TF.FileFunction,Copper,L2,Bot*
G04 #@! TF.FilePolarity,Positive*
%FSLAX45Y45*%
G04 Gerber Fmt 4.5, Leading zero omitted, Abs format (unit mm)*
G04 Created by KiCad (PCBNEW 5.1.2-f72e74a~84~ubuntu18.04.1) date 2019-05-03 13:28:02*
%MOMM*%
%LPD*%
G04 APERTURE LIST*
%ADD10O,1.200000X2.000000*%
%ADD11R,1.600000X1.600000*%
%ADD12C,1.600000*%
%ADD13O,1.600000X1.600000*%
%ADD14C,1.524000*%
%ADD15C,2.000000*%
%ADD16C,2.340000*%
%ADD17C,1.500000*%
%ADD18R,1.500000X1.500000*%
%ADD19R,2.400000X1.600000*%
%ADD20O,2.400000X1.600000*%
%ADD21C,0.500000*%
%ADD22C,0.254000*%
G04 APERTURE END LIST*
D10*
X18923000Y-6858000D03*
X19177000Y-6858000D03*
X19431000Y-6858000D03*
X19685000Y-6858000D03*
X19939000Y-6858000D03*
D11*
X12319000Y-8636000D03*
D12*
X12573000Y-8636000D03*
X12827000Y-8636000D03*
X13081000Y-8636000D03*
X13335000Y-8636000D03*
X13589000Y-8636000D03*
X13843000Y-8636000D03*
X14097000Y-8636000D03*
X14351000Y-8636000D03*
X14605000Y-8636000D03*
X14859000Y-8636000D03*
X15113000Y-8636000D03*
X15113000Y-7112000D03*
X14859000Y-7112000D03*
X14605000Y-7112000D03*
X14351000Y-7112000D03*
X14097000Y-7112000D03*
X13843000Y-7112000D03*
X13589000Y-7112000D03*
X13335000Y-7112000D03*
X13081000Y-7112000D03*
X12827000Y-7112000D03*
X12573000Y-7112000D03*
X12319000Y-7112000D03*
D13*
X14859000Y-5842000D03*
X15113000Y-6604000D03*
X15113000Y-5842000D03*
D11*
X14859000Y-6604000D03*
D13*
X14859000Y-4572000D03*
X15113000Y-5334000D03*
X15113000Y-4572000D03*
D11*
X14859000Y-5334000D03*
D13*
X16637000Y-6731000D03*
D12*
X15621000Y-6731000D03*
D13*
X16637000Y-6350000D03*
D12*
X15621000Y-6350000D03*
D14*
X12573000Y-6223000D03*
X13081000Y-5715000D03*
X13081000Y-5969000D03*
X13081000Y-6477000D03*
X13081000Y-6731000D03*
X12573000Y-4953000D03*
X13081000Y-4445000D03*
X13081000Y-4699000D03*
X13081000Y-5207000D03*
X13081000Y-5461000D03*
X17399000Y-8382000D03*
X16891000Y-7874000D03*
X17145000Y-7874000D03*
X17653000Y-7874000D03*
X17907000Y-7874000D03*
D15*
X13716000Y-6469000D03*
X14216000Y-6469000D03*
X14216000Y-5969000D03*
X13716000Y-5969000D03*
X13724000Y-5207000D03*
X14224000Y-5207000D03*
X14224000Y-4707000D03*
X13724000Y-4707000D03*
D14*
X16510000Y-7874000D03*
X16256000Y-7874000D03*
X15748000Y-7874000D03*
X15494000Y-7874000D03*
X16002000Y-8382000D03*
D16*
X18415000Y-7493000D03*
X18665000Y-8493000D03*
X18915000Y-7493000D03*
D13*
X14351000Y-7747000D03*
D12*
X13335000Y-7747000D03*
D11*
X16700500Y-5143500D03*
D13*
X16700500Y-5905500D03*
D10*
X16383000Y-4635500D03*
X16637000Y-4635500D03*
X16891000Y-4635500D03*
X17145000Y-4635500D03*
D12*
X19931000Y-7366000D03*
X19431000Y-7366000D03*
X20320000Y-7366000D03*
X20320000Y-6866000D03*
D11*
X15875000Y-5143500D03*
D13*
X15875000Y-5905500D03*
X16256000Y-5143500D03*
D11*
X16256000Y-5905500D03*
D17*
X17399000Y-7493000D03*
X17145000Y-7239000D03*
D18*
X17653000Y-7239000D03*
D13*
X14351000Y-8128000D03*
D12*
X13335000Y-8128000D03*
X17145000Y-5651500D03*
D13*
X17145000Y-6667500D03*
X17653000Y-6350000D03*
D12*
X17653000Y-5334000D03*
X16510000Y-7366000D03*
D13*
X15494000Y-7366000D03*
D12*
X19812000Y-6350000D03*
D13*
X18796000Y-6350000D03*
D19*
X20320000Y-8509000D03*
D20*
X19558000Y-7747000D03*
X20320000Y-8255000D03*
X19558000Y-8001000D03*
X20320000Y-8001000D03*
X19558000Y-8255000D03*
X20320000Y-7747000D03*
X19558000Y-8509000D03*
D12*
X19431000Y-6667500D03*
X14478000Y-6794500D03*
X19621500Y-6540500D03*
X14922500Y-6921500D03*
X18542000Y-5842000D03*
X18542000Y-6350000D03*
D21*
X16700500Y-5143500D02*
X16700500Y-5018470D01*
X16637000Y-4635500D02*
X16637000Y-4954970D01*
X16637000Y-4954970D02*
X16700500Y-5018470D01*
X16256000Y-5905500D02*
X16700500Y-5905500D01*
X19431000Y-6858000D02*
X19431000Y-6667500D01*
X14478000Y-6985000D02*
X14605000Y-7112000D01*
X14478000Y-6794500D02*
X14478000Y-6985000D01*
X19685000Y-6858000D02*
X19685000Y-6604000D01*
X19685000Y-6604000D02*
X19621500Y-6540500D01*
X14922500Y-7048500D02*
X14859000Y-7112000D01*
X14922500Y-6921500D02*
X14922500Y-7048500D01*
X19939000Y-6858000D02*
X19939000Y-6296520D01*
X19939000Y-6296520D02*
X19790080Y-6147600D01*
X19790080Y-6147600D02*
X16489750Y-6147600D01*
X16489750Y-6147600D02*
X15525350Y-7112000D01*
X15525350Y-7112000D02*
X15113000Y-7112000D01*
X17145000Y-5334000D02*
X17145000Y-5651500D01*
X16891000Y-4635500D02*
X16891000Y-5080000D01*
X16891000Y-5080000D02*
X17145000Y-5334000D01*
X17653000Y-5334000D02*
X17653000Y-5288530D01*
X17653000Y-5288530D02*
X17145000Y-4780530D01*
X17145000Y-4635500D02*
X17145000Y-4780530D01*
X14351000Y-8128000D02*
X14351000Y-7929010D01*
X14351000Y-7929010D02*
X14223990Y-7802000D01*
X14223990Y-7802000D02*
X14223990Y-7696500D01*
X14223990Y-7696500D02*
X14299520Y-7620970D01*
X14299520Y-7620970D02*
X14559770Y-7620970D01*
X14559770Y-7620970D02*
X14650790Y-7711990D01*
X14650790Y-7711990D02*
X15508840Y-7711990D01*
X15508840Y-7711990D02*
X15621000Y-7824150D01*
X15621000Y-7824150D02*
X15621000Y-7998450D01*
X15621000Y-7998450D02*
X15242550Y-7998450D01*
X15242550Y-7998450D02*
X14605000Y-8636000D01*
X16510000Y-7874000D02*
X16385550Y-7998450D01*
X16385550Y-7998450D02*
X15621000Y-7998450D01*
X14858020Y-8128980D02*
X15113000Y-7874000D01*
X15113000Y-7874000D02*
X15494000Y-7874000D01*
X14351000Y-8636000D02*
X14858020Y-8128980D01*
X14858020Y-8128980D02*
X14476030Y-7747000D01*
X14351000Y-7747000D02*
X14476030Y-7747000D01*
X20320000Y-6866000D02*
X20320000Y-6479410D01*
X20320000Y-6479410D02*
X18331060Y-4490470D01*
X18331060Y-4490470D02*
X16383000Y-4490470D01*
X17484010Y-7239000D02*
X17523460Y-7278450D01*
X17523460Y-7278450D02*
X17523460Y-8257540D01*
X17523460Y-8257540D02*
X17399000Y-8382000D01*
X17145000Y-7239000D02*
X17484010Y-7239000D01*
X18923000Y-6858000D02*
X17819830Y-6858000D01*
X17819830Y-6858000D02*
X17484010Y-7193820D01*
X17484010Y-7193820D02*
X17484010Y-7239000D01*
X19931000Y-7366000D02*
X20320000Y-6977000D01*
X20320000Y-6977000D02*
X20320000Y-6866000D01*
X16383000Y-4635500D02*
X16383000Y-4490470D01*
X15238030Y-5334000D02*
X15936530Y-4635500D01*
X15936530Y-4635500D02*
X16383000Y-4635500D01*
X15113000Y-6541480D02*
X15611220Y-6541480D01*
X15611220Y-6541480D02*
X15746170Y-6406530D01*
X15746170Y-6406530D02*
X15746170Y-5842140D01*
X15746170Y-5842140D02*
X15238030Y-5334000D01*
X15113000Y-6541480D02*
X15113000Y-6478970D01*
X15113000Y-6604000D02*
X15113000Y-6541480D01*
X15113000Y-5334000D02*
X15238030Y-5334000D01*
X17012460Y-8382000D02*
X17399000Y-8382000D01*
X16002000Y-8382000D02*
X17012460Y-8382000D01*
X17012460Y-8382000D02*
X17012460Y-7823790D01*
X17012460Y-7823790D02*
X16936100Y-7747430D01*
X16936100Y-7747430D02*
X16844590Y-7747430D01*
X16844590Y-7747430D02*
X16487190Y-8104830D01*
X16487190Y-8104830D02*
X15998980Y-8104830D01*
X15998980Y-8104830D02*
X15265030Y-8838780D01*
X15265030Y-8838780D02*
X13283780Y-8838780D01*
X13283780Y-8838780D02*
X13081000Y-8636000D01*
X12827000Y-8636000D02*
X12827000Y-7366000D01*
X12827000Y-7366000D02*
X12573000Y-7112000D01*
X13081000Y-8636000D02*
X12827000Y-8636000D01*
X13646400Y-6114000D02*
X14115000Y-6114000D01*
X13628400Y-6096000D02*
X13646400Y-6114000D01*
X12520624Y-6096000D02*
X13628400Y-6096000D01*
X12451800Y-6164824D02*
X12520624Y-6096000D01*
X12573000Y-7112000D02*
X12451800Y-6990800D01*
X12451800Y-6990800D02*
X12451800Y-6164824D01*
X14115000Y-6114000D02*
X14479970Y-6478970D01*
X15113000Y-6478970D02*
X14479970Y-6478970D01*
X14479970Y-6478970D02*
X14463210Y-6478970D01*
X19392970Y-7747000D02*
X19392970Y-7404030D01*
X19392970Y-7404030D02*
X19431000Y-7366000D01*
X19558000Y-7747000D02*
X19392970Y-7747000D01*
X19656420Y-8383740D02*
X19305740Y-8383740D01*
X19305740Y-8383740D02*
X18415000Y-7493000D01*
X19723030Y-8001000D02*
X19850030Y-7874000D01*
X19850030Y-7874000D02*
X20411280Y-7874000D01*
X19723030Y-8001000D02*
X19723030Y-8317130D01*
X19723030Y-8317130D02*
X19656420Y-8383740D01*
X18665000Y-8493000D02*
X18811390Y-8639390D01*
X18811390Y-8639390D02*
X19645560Y-8639390D01*
X19645560Y-8639390D02*
X19723590Y-8561360D01*
X19723590Y-8561360D02*
X19723590Y-8450910D01*
X19723590Y-8450910D02*
X19656420Y-8383740D01*
X20411280Y-7874000D02*
X20486130Y-7799150D01*
X20486130Y-7799150D02*
X20486130Y-7532130D01*
X20486130Y-7532130D02*
X20320000Y-7366000D01*
X19558000Y-8001000D02*
X19723030Y-8001000D01*
X20320000Y-8255000D02*
X20452230Y-8255000D01*
X20411280Y-7874000D02*
X20485030Y-7947750D01*
X20485030Y-7947750D02*
X20485030Y-8222200D01*
X20485030Y-8222200D02*
X20452230Y-8255000D01*
X20320000Y-7747000D02*
X20129450Y-7747000D01*
X20129450Y-7747000D02*
X19799220Y-7416770D01*
X19799220Y-7416770D02*
X19799220Y-7186580D01*
X19799220Y-7186580D02*
X20046090Y-6939710D01*
X20046090Y-6939710D02*
X20046090Y-6304560D01*
X20046090Y-6304560D02*
X19817390Y-6075860D01*
X15875000Y-6075860D02*
X15875000Y-6658160D01*
X15875000Y-6658160D02*
X15571410Y-6961750D01*
X13231250Y-6961750D02*
X13081000Y-7112000D01*
X19177000Y-7003020D02*
X19177000Y-7003030D01*
X18671910Y-7003030D02*
X19177000Y-7003030D01*
X18251430Y-7423510D02*
X18671910Y-7003030D01*
X18251430Y-7561930D02*
X18251430Y-7423510D01*
X19198500Y-8509000D02*
X18251430Y-7561930D01*
X19558000Y-8509000D02*
X19198500Y-8509000D01*
X19177000Y-6858000D02*
X19177000Y-7003020D01*
X15875000Y-5905500D02*
X15875000Y-6075860D01*
X19177000Y-6785480D02*
X19177000Y-6605970D01*
X19177000Y-6605970D02*
X18921030Y-6350000D01*
X19177000Y-6821740D02*
X19177000Y-6858000D01*
X13335000Y-7747000D02*
X13335000Y-8128000D01*
X13335000Y-7747000D02*
X13081000Y-7493000D01*
X13081000Y-7493000D02*
X13081000Y-7112000D01*
X18796000Y-6350000D02*
X18822520Y-6350000D01*
X19177000Y-6821740D02*
X19177000Y-6785480D01*
X18858520Y-6350000D02*
X18921030Y-6350000D01*
X18858520Y-6350000D02*
X18822520Y-6350000D01*
X13231250Y-6961750D02*
X13231250Y-6834750D01*
X13231250Y-6834750D02*
X13398500Y-6667500D01*
X13398500Y-6667500D02*
X14605000Y-6667500D01*
X14605000Y-6667500D02*
X14732000Y-6794500D01*
X15020834Y-6794500D02*
X15027335Y-6801001D01*
X14732000Y-6794500D02*
X15020834Y-6794500D01*
X15410661Y-6801001D02*
X15571410Y-6961750D01*
X15027335Y-6801001D02*
X15410661Y-6801001D01*
X18521860Y-5862140D02*
X18542000Y-5842000D01*
X18521860Y-6075860D02*
X18521860Y-5862140D01*
X18521860Y-6075860D02*
X15875000Y-6075860D01*
X19817390Y-6075860D02*
X18521860Y-6075860D01*
X18542000Y-6350000D02*
X18796000Y-6350000D01*
X16256000Y-5143500D02*
X15875000Y-5143500D01*
X16510000Y-7366000D02*
X17272000Y-7366000D01*
X17272000Y-7366000D02*
X17399000Y-7493000D01*
X17653000Y-7239000D02*
X17653000Y-7359030D01*
X20320000Y-8509000D02*
X20154970Y-8509000D01*
X20154970Y-8509000D02*
X19954150Y-8709820D01*
X19954150Y-8709820D02*
X18649120Y-8709820D01*
X18649120Y-8709820D02*
X18167120Y-8227820D01*
X18167120Y-8227820D02*
X18167120Y-7873150D01*
X18167120Y-7873150D02*
X17653000Y-7359030D01*
X16060730Y-7559300D02*
X14632140Y-7559300D01*
X14632140Y-7559300D02*
X14623780Y-7550940D01*
X14623780Y-7550940D02*
X14270500Y-7550940D01*
X14270500Y-7550940D02*
X14153960Y-7667480D01*
X14153960Y-7667480D02*
X14153960Y-7866050D01*
X14153960Y-7866050D02*
X14223990Y-7936080D01*
X14223990Y-7936080D02*
X14223990Y-8689490D01*
X14223990Y-8689490D02*
X14147600Y-8765880D01*
X14147600Y-8765880D02*
X13718880Y-8765880D01*
X13718880Y-8765880D02*
X13589000Y-8636000D01*
X16872530Y-6747500D02*
X16060730Y-7559300D01*
X17065000Y-6747500D02*
X16872530Y-6747500D01*
X17145000Y-6667500D02*
X17065000Y-6747500D01*
X17653000Y-6350000D02*
X17527970Y-6350000D01*
X17527970Y-6350000D02*
X17398590Y-6220620D01*
X17398590Y-6220620D02*
X16588030Y-6220620D01*
X16588030Y-6220620D02*
X15567730Y-7240920D01*
X15567730Y-7240920D02*
X14377240Y-7240920D01*
X14377240Y-7240920D02*
X13463960Y-8154200D01*
X13463960Y-8154200D02*
X13463960Y-8507040D01*
X13463960Y-8507040D02*
X13335000Y-8636000D01*
X14097000Y-8636000D02*
X14083930Y-8622930D01*
X14083930Y-8622930D02*
X14083930Y-7638460D01*
X14083930Y-7638460D02*
X14241480Y-7480910D01*
X14241480Y-7480910D02*
X15425050Y-7480910D01*
X15425050Y-7480910D02*
X15431150Y-7487010D01*
X15431150Y-7487010D02*
X15451850Y-7487010D01*
X15451850Y-7487010D02*
X15538600Y-7400260D01*
X15538600Y-7400260D02*
X15604400Y-7400260D01*
X15604400Y-7400260D02*
X15619030Y-7385630D01*
X15619030Y-7385630D02*
X15619030Y-7366000D01*
X16511970Y-6731000D02*
X16254030Y-6731000D01*
X16254030Y-6731000D02*
X15619030Y-7366000D01*
X16637000Y-6731000D02*
X16637000Y-6350000D01*
X16574490Y-6731000D02*
X16637000Y-6731000D01*
X15556520Y-7366000D02*
X15494000Y-7366000D01*
X16574490Y-6731000D02*
X16511970Y-6731000D01*
X15556520Y-7366000D02*
X15619030Y-7366000D01*
X18915000Y-7493000D02*
X19345400Y-7062600D01*
X19345400Y-7062600D02*
X19674230Y-7062600D01*
X19674230Y-7062600D02*
X19812000Y-6924830D01*
X19812000Y-6924830D02*
X19812000Y-6350000D01*
X19392970Y-8255000D02*
X18915000Y-7777030D01*
X18915000Y-7777030D02*
X18915000Y-7493000D01*
X19558000Y-8255000D02*
X19392970Y-8255000D01*
X13724000Y-5207000D02*
X13470000Y-5461000D01*
X13470000Y-5461000D02*
X13081000Y-5461000D01*
X14224000Y-5207000D02*
X13970000Y-4953000D01*
X13970000Y-4953000D02*
X12573000Y-4953000D01*
X14987970Y-4572000D02*
X14987970Y-4626390D01*
X14987970Y-4626390D02*
X14907360Y-4707000D01*
X14907360Y-4707000D02*
X14224000Y-4707000D01*
X15113000Y-4572000D02*
X14987970Y-4572000D01*
X13724000Y-4707000D02*
X13876540Y-4554460D01*
X13876540Y-4554460D02*
X14716430Y-4554460D01*
X14716430Y-4554460D02*
X14733970Y-4572000D01*
X14859000Y-4572000D02*
X14733970Y-4572000D01*
X13081000Y-6731000D02*
X13343000Y-6469000D01*
X13343000Y-6469000D02*
X13716000Y-6469000D01*
X14216000Y-6469000D02*
X13970000Y-6223000D01*
X13970000Y-6223000D02*
X12573000Y-6223000D01*
X15113000Y-5842000D02*
X14987970Y-5842000D01*
X14216000Y-5969000D02*
X14915360Y-5969000D01*
X14915360Y-5969000D02*
X14987970Y-5896390D01*
X14987970Y-5896390D02*
X14987970Y-5842000D01*
X13716000Y-5969000D02*
X13861440Y-5823560D01*
X13861440Y-5823560D02*
X14715530Y-5823560D01*
X14715530Y-5823560D02*
X14733970Y-5842000D01*
X14859000Y-5842000D02*
X14733970Y-5842000D01*
X17907000Y-8075710D02*
X17479480Y-8503230D01*
X17479480Y-8503230D02*
X15945030Y-8503230D01*
X15945030Y-8503230D02*
X15880750Y-8438950D01*
X15880750Y-8438950D02*
X15880750Y-8326850D01*
X15880750Y-8326850D02*
X15946840Y-8260760D01*
X15946840Y-8260760D02*
X16504240Y-8260760D01*
X16504240Y-8260760D02*
X16891000Y-7874000D01*
X17907000Y-7874000D02*
X17907000Y-8075710D01*
X17907000Y-8075710D02*
X18611570Y-8780280D01*
X18611570Y-8780280D02*
X20312420Y-8780280D01*
X20312420Y-8780280D02*
X20485040Y-8607660D01*
X20485040Y-8607660D02*
X20485040Y-8410210D01*
X20485040Y-8410210D02*
X20456830Y-8382000D01*
X20456830Y-8382000D02*
X20226980Y-8382000D01*
X20226980Y-8382000D02*
X20154970Y-8309990D01*
X20154970Y-8309990D02*
X20154970Y-8001000D01*
X20320000Y-8001000D02*
X20154970Y-8001000D01*
X14859000Y-5334000D02*
X14859000Y-5459030D01*
X15621000Y-6350000D02*
X15621000Y-6166330D01*
X15621000Y-6166330D02*
X14913700Y-5459030D01*
X14913700Y-5459030D02*
X14859000Y-5459030D01*
X14859000Y-6604000D02*
X14984030Y-6604000D01*
X15621000Y-6731000D02*
X15056330Y-6731000D01*
X15056330Y-6731000D02*
X14984030Y-6658700D01*
X14984030Y-6658700D02*
X14984030Y-6604000D01*
D22*
G36*
X20508000Y-7428842D02*
G01*
X20462802Y-7383644D01*
X20463500Y-7380133D01*
X20463500Y-7351866D01*
X20457985Y-7324143D01*
X20447168Y-7298027D01*
X20431464Y-7274524D01*
X20411476Y-7254536D01*
X20387973Y-7238832D01*
X20361857Y-7228015D01*
X20334134Y-7222500D01*
X20305867Y-7222500D01*
X20278143Y-7228015D01*
X20252027Y-7238832D01*
X20228524Y-7254536D01*
X20208536Y-7274524D01*
X20192832Y-7298027D01*
X20182015Y-7324143D01*
X20176500Y-7351866D01*
X20176500Y-7380133D01*
X20182015Y-7407857D01*
X20192832Y-7433973D01*
X20208536Y-7457476D01*
X20228524Y-7477464D01*
X20252027Y-7493168D01*
X20278143Y-7503985D01*
X20305867Y-7509500D01*
X20334134Y-7509500D01*
X20337644Y-7508802D01*
X20397630Y-7568788D01*
X20397630Y-7608458D01*
X20388131Y-7605576D01*
X20367049Y-7603500D01*
X20272951Y-7603500D01*
X20251869Y-7605576D01*
X20224819Y-7613782D01*
X20199890Y-7627107D01*
X20178039Y-7645039D01*
X20166992Y-7658500D01*
X20166108Y-7658500D01*
X20000019Y-7492411D01*
X20005151Y-7489667D01*
X20012310Y-7465270D01*
X19931000Y-7383960D01*
X19929586Y-7385375D01*
X19911625Y-7367414D01*
X19913040Y-7366000D01*
X19948961Y-7366000D01*
X20030270Y-7447310D01*
X20054667Y-7440151D01*
X20066757Y-7414600D01*
X20073630Y-7387182D01*
X20075022Y-7358949D01*
X20070879Y-7330987D01*
X20061360Y-7304371D01*
X20054667Y-7291849D01*
X20030270Y-7284690D01*
X19948961Y-7366000D01*
X19913040Y-7366000D01*
X19911625Y-7364586D01*
X19929586Y-7346625D01*
X19931000Y-7348039D01*
X20012310Y-7266730D01*
X20005151Y-7242333D01*
X19979600Y-7230243D01*
X19952182Y-7223370D01*
X19923949Y-7221978D01*
X19895987Y-7226121D01*
X19887720Y-7229078D01*
X19887720Y-7223238D01*
X20105595Y-7005363D01*
X20108972Y-7002592D01*
X20111842Y-6999094D01*
X20119738Y-6989473D01*
X20120031Y-6989116D01*
X20128249Y-6973741D01*
X20130819Y-6965270D01*
X20238690Y-6965270D01*
X20245849Y-6989667D01*
X20271400Y-7001757D01*
X20298818Y-7008630D01*
X20327051Y-7010022D01*
X20355013Y-7005879D01*
X20381629Y-6996360D01*
X20394151Y-6989667D01*
X20401310Y-6965270D01*
X20320000Y-6883960D01*
X20238690Y-6965270D01*
X20130819Y-6965270D01*
X20133310Y-6957059D01*
X20134590Y-6944058D01*
X20134590Y-6944057D01*
X20135018Y-6939710D01*
X20134590Y-6935363D01*
X20134590Y-6873051D01*
X20175978Y-6873051D01*
X20180121Y-6901013D01*
X20189640Y-6927629D01*
X20196333Y-6940151D01*
X20220730Y-6947310D01*
X20302040Y-6866000D01*
X20337961Y-6866000D01*
X20419270Y-6947310D01*
X20443667Y-6940151D01*
X20455757Y-6914600D01*
X20462630Y-6887182D01*
X20464022Y-6858949D01*
X20459879Y-6830987D01*
X20450360Y-6804371D01*
X20443667Y-6791849D01*
X20419270Y-6784690D01*
X20337961Y-6866000D01*
X20302040Y-6866000D01*
X20220730Y-6784690D01*
X20196333Y-6791849D01*
X20184243Y-6817400D01*
X20177370Y-6844818D01*
X20175978Y-6873051D01*
X20134590Y-6873051D01*
X20134590Y-6766730D01*
X20238690Y-6766730D01*
X20320000Y-6848039D01*
X20401310Y-6766730D01*
X20394151Y-6742333D01*
X20368600Y-6730243D01*
X20341182Y-6723370D01*
X20312949Y-6721978D01*
X20284987Y-6726121D01*
X20258371Y-6735640D01*
X20245849Y-6742333D01*
X20238690Y-6766730D01*
X20134590Y-6766730D01*
X20134590Y-6308906D01*
X20135018Y-6304560D01*
X20134590Y-6300213D01*
X20134590Y-6300212D01*
X20133310Y-6287211D01*
X20128249Y-6270529D01*
X20120031Y-6255154D01*
X20108972Y-6241678D01*
X20105595Y-6238907D01*
X19883043Y-6016356D01*
X19880272Y-6012978D01*
X19866796Y-6001919D01*
X19851421Y-5993701D01*
X19834739Y-5988640D01*
X19821738Y-5987360D01*
X19821737Y-5987360D01*
X19817390Y-5986932D01*
X19813043Y-5987360D01*
X18610360Y-5987360D01*
X18610360Y-5968909D01*
X18633476Y-5953464D01*
X18653464Y-5933476D01*
X18669168Y-5909973D01*
X18679985Y-5883857D01*
X18685500Y-5856133D01*
X18685500Y-5827866D01*
X18679985Y-5800143D01*
X18669168Y-5774027D01*
X18653464Y-5750524D01*
X18633476Y-5730536D01*
X18609973Y-5714832D01*
X18583857Y-5704015D01*
X18556134Y-5698500D01*
X18527867Y-5698500D01*
X18500143Y-5704015D01*
X18474027Y-5714832D01*
X18450524Y-5730536D01*
X18430536Y-5750524D01*
X18414832Y-5774027D01*
X18404015Y-5800143D01*
X18398500Y-5827866D01*
X18398500Y-5856133D01*
X18404015Y-5883857D01*
X18414832Y-5909973D01*
X18430536Y-5933476D01*
X18433360Y-5936300D01*
X18433360Y-5987360D01*
X16818957Y-5987360D01*
X16820393Y-5985610D01*
X16833718Y-5960681D01*
X16841924Y-5933631D01*
X16844694Y-5905500D01*
X16841924Y-5877369D01*
X16833718Y-5850319D01*
X16820393Y-5825390D01*
X16802461Y-5803539D01*
X16780610Y-5785607D01*
X16755681Y-5772282D01*
X16728631Y-5764076D01*
X16707549Y-5762000D01*
X16693451Y-5762000D01*
X16672369Y-5764076D01*
X16645319Y-5772282D01*
X16620390Y-5785607D01*
X16598539Y-5803539D01*
X16587492Y-5817000D01*
X16398970Y-5817000D01*
X16398581Y-5813052D01*
X16394950Y-5801082D01*
X16389054Y-5790051D01*
X16381118Y-5780381D01*
X16371449Y-5772446D01*
X16360418Y-5766550D01*
X16348448Y-5762919D01*
X16336000Y-5761693D01*
X16176000Y-5761693D01*
X16163552Y-5762919D01*
X16151582Y-5766550D01*
X16140551Y-5772446D01*
X16130881Y-5780381D01*
X16122946Y-5790051D01*
X16117050Y-5801082D01*
X16113419Y-5813052D01*
X16112193Y-5825500D01*
X16112193Y-5985500D01*
X16112376Y-5987360D01*
X15993457Y-5987360D01*
X15994893Y-5985610D01*
X16008218Y-5960681D01*
X16016424Y-5933631D01*
X16019194Y-5905500D01*
X16016424Y-5877369D01*
X16008218Y-5850319D01*
X15994893Y-5825390D01*
X15976961Y-5803539D01*
X15955110Y-5785607D01*
X15930181Y-5772282D01*
X15903131Y-5764076D01*
X15882049Y-5762000D01*
X15867951Y-5762000D01*
X15846869Y-5764076D01*
X15819819Y-5772282D01*
X15794890Y-5785607D01*
X15773039Y-5803539D01*
X15755107Y-5825390D01*
X15741782Y-5850319D01*
X15733576Y-5877369D01*
X15730806Y-5905500D01*
X15733576Y-5933631D01*
X15741782Y-5960681D01*
X15755107Y-5985610D01*
X15773039Y-6007461D01*
X15786500Y-6018508D01*
X15786500Y-6071511D01*
X15786072Y-6075860D01*
X15786500Y-6080208D01*
X15786500Y-6621502D01*
X15746889Y-6661113D01*
X15732464Y-6639524D01*
X15712476Y-6619536D01*
X15688973Y-6603832D01*
X15662857Y-6593015D01*
X15635133Y-6587500D01*
X15606866Y-6587500D01*
X15579143Y-6593015D01*
X15553027Y-6603832D01*
X15529524Y-6619536D01*
X15509536Y-6639524D01*
X15507548Y-6642500D01*
X15250903Y-6642500D01*
X15252191Y-6638904D01*
X15240062Y-6616700D01*
X15125700Y-6616700D01*
X15125700Y-6618700D01*
X15100300Y-6618700D01*
X15100300Y-6616700D01*
X15098300Y-6616700D01*
X15098300Y-6591300D01*
X15100300Y-6591300D01*
X15100300Y-6477008D01*
X15125700Y-6477008D01*
X15125700Y-6591300D01*
X15240062Y-6591300D01*
X15252191Y-6569096D01*
X15242707Y-6542612D01*
X15228238Y-6518487D01*
X15209341Y-6497648D01*
X15186742Y-6480896D01*
X15161309Y-6468875D01*
X15147904Y-6464810D01*
X15125700Y-6477008D01*
X15100300Y-6477008D01*
X15078096Y-6464810D01*
X15064691Y-6468875D01*
X15039258Y-6480896D01*
X15016659Y-6497648D01*
X15001823Y-6514008D01*
X15001581Y-6511552D01*
X14997950Y-6499582D01*
X14992054Y-6488551D01*
X14984118Y-6478881D01*
X14974449Y-6470946D01*
X14963418Y-6465050D01*
X14951448Y-6461419D01*
X14939000Y-6460193D01*
X14779000Y-6460193D01*
X14766552Y-6461419D01*
X14754582Y-6465050D01*
X14743551Y-6470946D01*
X14733881Y-6478881D01*
X14725946Y-6488551D01*
X14720050Y-6499582D01*
X14716419Y-6511552D01*
X14715193Y-6524000D01*
X14715193Y-6652535D01*
X14670653Y-6607996D01*
X14667882Y-6604618D01*
X14654406Y-6593559D01*
X14639031Y-6585341D01*
X14622349Y-6580280D01*
X14609348Y-6579000D01*
X14609347Y-6579000D01*
X14605000Y-6578572D01*
X14600653Y-6579000D01*
X14337224Y-6579000D01*
X14342999Y-6573225D01*
X14360892Y-6546446D01*
X14373217Y-6516691D01*
X14379500Y-6485103D01*
X14379500Y-6452897D01*
X14373217Y-6421309D01*
X14360892Y-6391554D01*
X14342999Y-6364775D01*
X14320225Y-6342001D01*
X14293446Y-6324108D01*
X14263691Y-6311783D01*
X14232103Y-6305500D01*
X14199897Y-6305500D01*
X14181347Y-6309190D01*
X14035653Y-6163496D01*
X14032882Y-6160118D01*
X14019406Y-6149059D01*
X14004031Y-6140841D01*
X13987349Y-6135780D01*
X13974348Y-6134500D01*
X13974347Y-6134500D01*
X13970000Y-6134072D01*
X13965653Y-6134500D01*
X12681882Y-6134500D01*
X12681512Y-6133946D01*
X12662053Y-6114488D01*
X12639173Y-6099199D01*
X12613749Y-6088669D01*
X12586759Y-6083300D01*
X12559241Y-6083300D01*
X12532251Y-6088669D01*
X12506827Y-6099199D01*
X12483946Y-6114488D01*
X12464488Y-6133946D01*
X12449199Y-6156827D01*
X12438669Y-6182251D01*
X12433300Y-6209241D01*
X12433300Y-6236759D01*
X12438669Y-6263749D01*
X12449199Y-6289173D01*
X12464488Y-6312053D01*
X12483946Y-6331512D01*
X12506827Y-6346800D01*
X12532251Y-6357331D01*
X12559241Y-6362700D01*
X12586759Y-6362700D01*
X12613749Y-6357331D01*
X12639173Y-6346800D01*
X12662053Y-6331512D01*
X12681512Y-6312053D01*
X12681882Y-6311500D01*
X13669732Y-6311500D01*
X13668309Y-6311783D01*
X13638554Y-6324108D01*
X13611775Y-6342001D01*
X13589001Y-6364775D01*
X13578494Y-6380500D01*
X13347347Y-6380500D01*
X13343000Y-6380072D01*
X13338653Y-6380500D01*
X13338652Y-6380500D01*
X13325651Y-6381780D01*
X13308969Y-6386841D01*
X13293594Y-6395059D01*
X13283495Y-6403347D01*
X13283495Y-6403347D01*
X13280118Y-6406118D01*
X13277347Y-6409495D01*
X13220700Y-6466142D01*
X13220700Y-6463241D01*
X13215331Y-6436251D01*
X13204800Y-6410827D01*
X13189512Y-6387946D01*
X13170053Y-6368488D01*
X13147173Y-6353199D01*
X13121749Y-6342669D01*
X13094759Y-6337300D01*
X13067241Y-6337300D01*
X13040251Y-6342669D01*
X13014827Y-6353199D01*
X12991946Y-6368488D01*
X12972488Y-6387946D01*
X12957199Y-6410827D01*
X12946669Y-6436251D01*
X12941300Y-6463241D01*
X12941300Y-6490759D01*
X12946669Y-6517749D01*
X12957199Y-6543173D01*
X12972488Y-6566053D01*
X12991946Y-6585512D01*
X13014827Y-6600800D01*
X13022551Y-6604000D01*
X13014827Y-6607199D01*
X12991946Y-6622488D01*
X12972488Y-6641946D01*
X12957199Y-6664827D01*
X12946669Y-6690251D01*
X12941300Y-6717241D01*
X12941300Y-6744759D01*
X12946669Y-6771749D01*
X12957199Y-6797173D01*
X12972488Y-6820053D01*
X12991946Y-6839512D01*
X13014827Y-6854800D01*
X13040251Y-6865331D01*
X13067241Y-6870700D01*
X13094759Y-6870700D01*
X13121749Y-6865331D01*
X13142750Y-6856632D01*
X13142750Y-6925092D01*
X13098644Y-6969198D01*
X13095133Y-6968500D01*
X13066866Y-6968500D01*
X13039143Y-6974015D01*
X13013027Y-6984832D01*
X12989524Y-7000536D01*
X12969536Y-7020524D01*
X12954000Y-7043776D01*
X12938464Y-7020524D01*
X12918476Y-7000536D01*
X12894973Y-6984832D01*
X12868857Y-6974015D01*
X12841133Y-6968500D01*
X12812866Y-6968500D01*
X12785143Y-6974015D01*
X12759027Y-6984832D01*
X12735524Y-7000536D01*
X12715536Y-7020524D01*
X12699908Y-7043913D01*
X12696667Y-7037849D01*
X12672270Y-7030690D01*
X12590960Y-7112000D01*
X12672270Y-7193310D01*
X12696667Y-7186151D01*
X12699719Y-7179701D01*
X12699832Y-7179973D01*
X12715536Y-7203476D01*
X12735524Y-7223464D01*
X12759027Y-7239168D01*
X12785143Y-7249985D01*
X12812866Y-7255500D01*
X12841133Y-7255500D01*
X12868857Y-7249985D01*
X12894973Y-7239168D01*
X12918476Y-7223464D01*
X12938464Y-7203476D01*
X12954000Y-7180224D01*
X12969536Y-7203476D01*
X12989524Y-7223464D01*
X12992500Y-7225452D01*
X12992500Y-7488653D01*
X12992072Y-7493000D01*
X12992500Y-7497347D01*
X12992500Y-7497348D01*
X12993154Y-7503989D01*
X12993780Y-7510349D01*
X12995125Y-7514781D01*
X12998841Y-7527031D01*
X13007059Y-7542406D01*
X13018118Y-7555882D01*
X13021495Y-7558653D01*
X13192198Y-7729356D01*
X13191500Y-7732866D01*
X13191500Y-7761133D01*
X13197015Y-7788857D01*
X13207832Y-7814973D01*
X13223536Y-7838476D01*
X13243524Y-7858464D01*
X13246500Y-7860452D01*
X13246500Y-8014548D01*
X13243524Y-8016536D01*
X13223536Y-8036524D01*
X13207832Y-8060027D01*
X13197015Y-8086143D01*
X13191500Y-8113866D01*
X13191500Y-8142133D01*
X13197015Y-8169857D01*
X13207832Y-8195973D01*
X13223536Y-8219476D01*
X13243524Y-8239464D01*
X13267027Y-8255168D01*
X13293143Y-8265985D01*
X13320866Y-8271500D01*
X13349133Y-8271500D01*
X13375460Y-8266263D01*
X13375460Y-8470382D01*
X13352644Y-8493198D01*
X13349133Y-8492500D01*
X13320866Y-8492500D01*
X13293143Y-8498015D01*
X13267027Y-8508832D01*
X13243524Y-8524536D01*
X13223536Y-8544524D01*
X13207908Y-8567913D01*
X13204667Y-8561849D01*
X13180270Y-8554690D01*
X13098960Y-8636000D01*
X13180270Y-8717310D01*
X13204667Y-8710151D01*
X13207719Y-8703701D01*
X13207832Y-8703973D01*
X13223536Y-8727476D01*
X13243524Y-8747464D01*
X13267027Y-8763168D01*
X13293143Y-8773985D01*
X13320866Y-8779500D01*
X13349133Y-8779500D01*
X13376857Y-8773985D01*
X13402973Y-8763168D01*
X13426476Y-8747464D01*
X13446464Y-8727476D01*
X13462000Y-8704224D01*
X13477536Y-8727476D01*
X13497524Y-8747464D01*
X13521027Y-8763168D01*
X13547143Y-8773985D01*
X13574866Y-8779500D01*
X13603133Y-8779500D01*
X13606644Y-8778802D01*
X13651842Y-8824000D01*
X12131000Y-8824000D01*
X12131000Y-8556000D01*
X12175193Y-8556000D01*
X12175193Y-8716000D01*
X12176419Y-8728448D01*
X12180050Y-8740418D01*
X12185946Y-8751449D01*
X12193881Y-8761119D01*
X12203551Y-8769054D01*
X12214582Y-8774950D01*
X12226552Y-8778581D01*
X12239000Y-8779807D01*
X12399000Y-8779807D01*
X12411448Y-8778581D01*
X12423418Y-8774950D01*
X12434449Y-8769054D01*
X12444118Y-8761119D01*
X12452054Y-8751449D01*
X12457950Y-8740418D01*
X12461581Y-8728448D01*
X12461664Y-8727604D01*
X12481524Y-8747464D01*
X12505027Y-8763168D01*
X12531143Y-8773985D01*
X12558866Y-8779500D01*
X12587133Y-8779500D01*
X12614857Y-8773985D01*
X12640973Y-8763168D01*
X12664476Y-8747464D01*
X12676669Y-8735270D01*
X12745690Y-8735270D01*
X12752849Y-8759667D01*
X12778400Y-8771757D01*
X12805818Y-8778630D01*
X12834051Y-8780022D01*
X12862013Y-8775879D01*
X12888629Y-8766360D01*
X12901151Y-8759667D01*
X12908310Y-8735270D01*
X12999690Y-8735270D01*
X13006849Y-8759667D01*
X13032400Y-8771757D01*
X13059818Y-8778630D01*
X13088051Y-8780022D01*
X13116013Y-8775879D01*
X13142629Y-8766360D01*
X13155151Y-8759667D01*
X13162310Y-8735270D01*
X13081000Y-8653961D01*
X12999690Y-8735270D01*
X12908310Y-8735270D01*
X12827000Y-8653961D01*
X12745690Y-8735270D01*
X12676669Y-8735270D01*
X12684464Y-8727476D01*
X12700091Y-8704087D01*
X12703333Y-8710151D01*
X12727730Y-8717310D01*
X12809039Y-8636000D01*
X12844960Y-8636000D01*
X12926270Y-8717310D01*
X12950667Y-8710151D01*
X12953797Y-8703536D01*
X12957333Y-8710151D01*
X12981730Y-8717310D01*
X13063039Y-8636000D01*
X12981730Y-8554690D01*
X12957333Y-8561849D01*
X12954203Y-8568464D01*
X12950667Y-8561849D01*
X12926270Y-8554690D01*
X12844960Y-8636000D01*
X12809039Y-8636000D01*
X12727730Y-8554690D01*
X12703333Y-8561849D01*
X12700281Y-8568299D01*
X12700168Y-8568027D01*
X12684464Y-8544524D01*
X12676669Y-8536730D01*
X12745690Y-8536730D01*
X12827000Y-8618040D01*
X12908310Y-8536730D01*
X12999690Y-8536730D01*
X13081000Y-8618040D01*
X13162310Y-8536730D01*
X13155151Y-8512333D01*
X13129600Y-8500243D01*
X13102182Y-8493370D01*
X13073949Y-8491978D01*
X13045987Y-8496121D01*
X13019371Y-8505640D01*
X13006849Y-8512333D01*
X12999690Y-8536730D01*
X12908310Y-8536730D01*
X12901151Y-8512333D01*
X12875600Y-8500243D01*
X12848182Y-8493370D01*
X12819949Y-8491978D01*
X12791987Y-8496121D01*
X12765371Y-8505640D01*
X12752849Y-8512333D01*
X12745690Y-8536730D01*
X12676669Y-8536730D01*
X12664476Y-8524536D01*
X12640973Y-8508832D01*
X12614857Y-8498015D01*
X12587133Y-8492500D01*
X12558866Y-8492500D01*
X12531143Y-8498015D01*
X12505027Y-8508832D01*
X12481524Y-8524536D01*
X12461664Y-8544396D01*
X12461581Y-8543552D01*
X12457950Y-8531582D01*
X12452054Y-8520551D01*
X12444118Y-8510882D01*
X12434449Y-8502946D01*
X12423418Y-8497050D01*
X12411448Y-8493419D01*
X12399000Y-8492193D01*
X12239000Y-8492193D01*
X12226552Y-8493419D01*
X12214582Y-8497050D01*
X12203551Y-8502946D01*
X12193881Y-8510882D01*
X12185946Y-8520551D01*
X12180050Y-8531582D01*
X12176419Y-8543552D01*
X12175193Y-8556000D01*
X12131000Y-8556000D01*
X12131000Y-7097866D01*
X12175500Y-7097866D01*
X12175500Y-7126133D01*
X12181015Y-7153857D01*
X12191832Y-7179973D01*
X12207536Y-7203476D01*
X12227524Y-7223464D01*
X12251027Y-7239168D01*
X12277143Y-7249985D01*
X12304866Y-7255500D01*
X12333133Y-7255500D01*
X12360857Y-7249985D01*
X12386973Y-7239168D01*
X12410476Y-7223464D01*
X12422669Y-7211270D01*
X12491690Y-7211270D01*
X12498849Y-7235667D01*
X12524400Y-7247757D01*
X12551818Y-7254630D01*
X12580051Y-7256022D01*
X12608013Y-7251879D01*
X12634629Y-7242360D01*
X12647151Y-7235667D01*
X12654310Y-7211270D01*
X12573000Y-7129960D01*
X12491690Y-7211270D01*
X12422669Y-7211270D01*
X12430464Y-7203476D01*
X12446091Y-7180087D01*
X12449333Y-7186151D01*
X12473730Y-7193310D01*
X12555039Y-7112000D01*
X12473730Y-7030690D01*
X12449333Y-7037849D01*
X12446281Y-7044299D01*
X12446168Y-7044027D01*
X12430464Y-7020524D01*
X12422669Y-7012730D01*
X12491690Y-7012730D01*
X12573000Y-7094039D01*
X12654310Y-7012730D01*
X12647151Y-6988333D01*
X12621600Y-6976243D01*
X12594182Y-6969370D01*
X12565949Y-6967978D01*
X12537987Y-6972121D01*
X12511371Y-6981640D01*
X12498849Y-6988333D01*
X12491690Y-7012730D01*
X12422669Y-7012730D01*
X12410476Y-7000536D01*
X12386973Y-6984832D01*
X12360857Y-6974015D01*
X12333133Y-6968500D01*
X12304866Y-6968500D01*
X12277143Y-6974015D01*
X12251027Y-6984832D01*
X12227524Y-7000536D01*
X12207536Y-7020524D01*
X12191832Y-7044027D01*
X12181015Y-7070143D01*
X12175500Y-7097866D01*
X12131000Y-7097866D01*
X12131000Y-5193241D01*
X12941300Y-5193241D01*
X12941300Y-5220759D01*
X12946669Y-5247749D01*
X12957199Y-5273173D01*
X12972488Y-5296054D01*
X12991946Y-5315512D01*
X13014827Y-5330801D01*
X13022551Y-5334000D01*
X13014827Y-5337200D01*
X12991946Y-5352488D01*
X12972488Y-5371947D01*
X12957199Y-5394827D01*
X12946669Y-5420251D01*
X12941300Y-5447241D01*
X12941300Y-5474759D01*
X12946669Y-5501749D01*
X12957199Y-5527173D01*
X12972488Y-5550054D01*
X12991946Y-5569512D01*
X13014827Y-5584801D01*
X13022551Y-5588000D01*
X13014827Y-5591200D01*
X12991946Y-5606488D01*
X12972488Y-5625946D01*
X12957199Y-5648827D01*
X12946669Y-5674251D01*
X12941300Y-5701241D01*
X12941300Y-5728759D01*
X12946669Y-5755749D01*
X12957199Y-5781173D01*
X12972488Y-5804053D01*
X12991946Y-5823512D01*
X13014827Y-5838800D01*
X13022551Y-5842000D01*
X13014827Y-5845199D01*
X12991946Y-5860488D01*
X12972488Y-5879946D01*
X12957199Y-5902827D01*
X12946669Y-5928251D01*
X12941300Y-5955241D01*
X12941300Y-5982759D01*
X12946669Y-6009749D01*
X12957199Y-6035173D01*
X12972488Y-6058053D01*
X12991946Y-6077512D01*
X13014827Y-6092800D01*
X13040251Y-6103331D01*
X13067241Y-6108700D01*
X13094759Y-6108700D01*
X13121749Y-6103331D01*
X13147173Y-6092800D01*
X13170053Y-6077512D01*
X13189512Y-6058053D01*
X13204800Y-6035173D01*
X13215331Y-6009749D01*
X13220700Y-5982759D01*
X13220700Y-5955241D01*
X13220234Y-5952897D01*
X13552500Y-5952897D01*
X13552500Y-5985103D01*
X13558783Y-6016691D01*
X13571108Y-6046446D01*
X13589001Y-6073225D01*
X13611775Y-6095999D01*
X13638554Y-6113892D01*
X13668309Y-6126217D01*
X13699897Y-6132500D01*
X13732103Y-6132500D01*
X13763691Y-6126217D01*
X13793446Y-6113892D01*
X13820225Y-6095999D01*
X13842999Y-6073225D01*
X13860892Y-6046446D01*
X13873217Y-6016691D01*
X13879500Y-5985103D01*
X13879500Y-5952897D01*
X13875810Y-5934347D01*
X13898098Y-5912060D01*
X14062614Y-5912060D01*
X14058783Y-5921309D01*
X14052500Y-5952897D01*
X14052500Y-5985103D01*
X14058783Y-6016691D01*
X14071108Y-6046446D01*
X14089001Y-6073225D01*
X14111775Y-6095999D01*
X14138554Y-6113892D01*
X14168309Y-6126217D01*
X14199897Y-6132500D01*
X14232103Y-6132500D01*
X14263691Y-6126217D01*
X14293446Y-6113892D01*
X14320225Y-6095999D01*
X14342999Y-6073225D01*
X14353506Y-6057500D01*
X14911013Y-6057500D01*
X14915360Y-6057928D01*
X14919707Y-6057500D01*
X14919708Y-6057500D01*
X14932709Y-6056219D01*
X14949391Y-6051159D01*
X14964766Y-6042941D01*
X14978242Y-6031882D01*
X14981013Y-6028504D01*
X15042492Y-5967026D01*
X15057819Y-5975218D01*
X15084869Y-5983424D01*
X15105951Y-5985500D01*
X15120049Y-5985500D01*
X15141131Y-5983424D01*
X15168181Y-5975218D01*
X15193110Y-5961893D01*
X15214961Y-5943961D01*
X15232893Y-5922110D01*
X15239417Y-5909905D01*
X15532500Y-6202988D01*
X15532500Y-6236548D01*
X15529524Y-6238536D01*
X15509536Y-6258524D01*
X15493832Y-6282027D01*
X15483015Y-6308143D01*
X15477500Y-6335866D01*
X15477500Y-6364133D01*
X15483015Y-6391857D01*
X15493832Y-6417973D01*
X15509536Y-6441476D01*
X15529524Y-6461464D01*
X15553027Y-6477168D01*
X15579143Y-6487985D01*
X15606866Y-6493500D01*
X15635133Y-6493500D01*
X15662857Y-6487985D01*
X15688973Y-6477168D01*
X15712476Y-6461464D01*
X15732464Y-6441476D01*
X15748168Y-6417973D01*
X15758985Y-6391857D01*
X15764500Y-6364133D01*
X15764500Y-6335866D01*
X15758985Y-6308143D01*
X15748168Y-6282027D01*
X15732464Y-6258524D01*
X15712476Y-6238536D01*
X15709500Y-6236548D01*
X15709500Y-6170677D01*
X15709928Y-6166330D01*
X15709500Y-6161983D01*
X15709500Y-6161982D01*
X15708219Y-6148981D01*
X15705750Y-6140841D01*
X15703159Y-6132299D01*
X15694941Y-6116924D01*
X15686653Y-6106825D01*
X15686653Y-6106825D01*
X15683882Y-6103448D01*
X15680505Y-6100677D01*
X15030267Y-5450439D01*
X15039258Y-5457104D01*
X15064691Y-5469125D01*
X15078096Y-5473190D01*
X15100300Y-5460992D01*
X15100300Y-5346700D01*
X15125700Y-5346700D01*
X15125700Y-5460992D01*
X15147904Y-5473190D01*
X15161309Y-5469125D01*
X15186742Y-5457104D01*
X15209341Y-5440352D01*
X15228238Y-5419513D01*
X15242707Y-5395388D01*
X15252191Y-5368904D01*
X15240062Y-5346700D01*
X15125700Y-5346700D01*
X15100300Y-5346700D01*
X15098300Y-5346700D01*
X15098300Y-5321300D01*
X15100300Y-5321300D01*
X15100300Y-5207009D01*
X15125700Y-5207009D01*
X15125700Y-5321300D01*
X15240062Y-5321300D01*
X15252191Y-5299096D01*
X15242707Y-5272612D01*
X15228238Y-5248487D01*
X15209341Y-5227648D01*
X15186742Y-5210896D01*
X15161309Y-5198875D01*
X15147904Y-5194810D01*
X15125700Y-5207009D01*
X15100300Y-5207009D01*
X15078096Y-5194810D01*
X15064691Y-5198875D01*
X15039258Y-5210896D01*
X15016659Y-5227648D01*
X15001823Y-5244008D01*
X15001581Y-5241552D01*
X14997950Y-5229582D01*
X14992054Y-5218551D01*
X14984118Y-5208882D01*
X14974449Y-5200946D01*
X14963418Y-5195050D01*
X14951448Y-5191419D01*
X14939000Y-5190193D01*
X14779000Y-5190193D01*
X14766552Y-5191419D01*
X14754582Y-5195050D01*
X14743551Y-5200946D01*
X14733881Y-5208882D01*
X14725946Y-5218551D01*
X14720050Y-5229582D01*
X14716419Y-5241552D01*
X14715193Y-5254000D01*
X14715193Y-5414000D01*
X14716419Y-5426448D01*
X14720050Y-5438418D01*
X14725946Y-5449449D01*
X14733881Y-5459119D01*
X14743551Y-5467054D01*
X14754582Y-5472950D01*
X14766552Y-5476581D01*
X14772005Y-5477118D01*
X14776841Y-5493061D01*
X14785059Y-5508436D01*
X14796118Y-5521912D01*
X14809594Y-5532971D01*
X14824969Y-5541189D01*
X14841651Y-5546250D01*
X14854652Y-5547530D01*
X14854652Y-5547530D01*
X14859000Y-5547958D01*
X14863348Y-5547530D01*
X14877042Y-5547530D01*
X15045095Y-5715583D01*
X15032890Y-5722107D01*
X15011039Y-5740039D01*
X14999992Y-5753500D01*
X14992318Y-5753500D01*
X14987970Y-5753072D01*
X14983622Y-5753500D01*
X14983622Y-5753500D01*
X14972876Y-5754558D01*
X14960961Y-5740039D01*
X14939110Y-5722107D01*
X14914181Y-5708782D01*
X14887131Y-5700576D01*
X14866049Y-5698500D01*
X14851951Y-5698500D01*
X14830869Y-5700576D01*
X14803819Y-5708782D01*
X14778890Y-5722107D01*
X14757039Y-5740039D01*
X14753982Y-5743764D01*
X14749561Y-5741401D01*
X14732879Y-5736340D01*
X14719878Y-5735060D01*
X14719877Y-5735060D01*
X14715530Y-5734632D01*
X14711183Y-5735060D01*
X13865786Y-5735060D01*
X13861440Y-5734632D01*
X13857093Y-5735060D01*
X13857092Y-5735060D01*
X13844091Y-5736340D01*
X13827409Y-5741401D01*
X13812034Y-5749619D01*
X13812034Y-5749619D01*
X13812034Y-5749619D01*
X13801935Y-5757907D01*
X13801935Y-5757907D01*
X13798558Y-5760678D01*
X13795787Y-5764055D01*
X13750652Y-5809190D01*
X13732103Y-5805500D01*
X13699897Y-5805500D01*
X13668309Y-5811783D01*
X13638554Y-5824108D01*
X13611775Y-5842001D01*
X13589001Y-5864775D01*
X13571108Y-5891554D01*
X13558783Y-5921309D01*
X13552500Y-5952897D01*
X13220234Y-5952897D01*
X13215331Y-5928251D01*
X13204800Y-5902827D01*
X13189512Y-5879946D01*
X13170053Y-5860488D01*
X13147173Y-5845199D01*
X13139448Y-5842000D01*
X13147173Y-5838800D01*
X13170053Y-5823512D01*
X13189512Y-5804053D01*
X13204800Y-5781173D01*
X13215331Y-5755749D01*
X13220700Y-5728759D01*
X13220700Y-5701241D01*
X13215331Y-5674251D01*
X13204800Y-5648827D01*
X13189512Y-5625946D01*
X13170053Y-5606488D01*
X13147173Y-5591200D01*
X13139448Y-5588000D01*
X13147173Y-5584801D01*
X13170053Y-5569512D01*
X13189512Y-5550054D01*
X13189882Y-5549500D01*
X13465653Y-5549500D01*
X13470000Y-5549928D01*
X13474347Y-5549500D01*
X13474348Y-5549500D01*
X13487349Y-5548220D01*
X13504031Y-5543159D01*
X13519406Y-5534941D01*
X13532882Y-5523882D01*
X13535653Y-5520504D01*
X13689347Y-5366810D01*
X13707897Y-5370500D01*
X13740103Y-5370500D01*
X13771691Y-5364217D01*
X13801446Y-5351892D01*
X13828225Y-5333999D01*
X13850999Y-5311225D01*
X13868892Y-5284446D01*
X13881217Y-5254691D01*
X13887500Y-5223103D01*
X13887500Y-5190897D01*
X13881217Y-5159309D01*
X13868892Y-5129554D01*
X13850999Y-5102775D01*
X13828225Y-5080001D01*
X13801446Y-5062108D01*
X13771691Y-5049783D01*
X13740103Y-5043500D01*
X13707897Y-5043500D01*
X13676309Y-5049783D01*
X13646554Y-5062108D01*
X13619775Y-5080001D01*
X13597001Y-5102775D01*
X13579108Y-5129554D01*
X13566783Y-5159309D01*
X13560500Y-5190897D01*
X13560500Y-5223103D01*
X13564190Y-5241653D01*
X13433342Y-5372500D01*
X13189882Y-5372500D01*
X13189512Y-5371947D01*
X13170053Y-5352488D01*
X13147173Y-5337200D01*
X13139448Y-5334000D01*
X13147173Y-5330801D01*
X13170053Y-5315512D01*
X13189512Y-5296054D01*
X13204800Y-5273173D01*
X13215331Y-5247749D01*
X13220700Y-5220759D01*
X13220700Y-5193241D01*
X13215331Y-5166251D01*
X13204800Y-5140827D01*
X13189512Y-5117947D01*
X13170053Y-5098488D01*
X13147173Y-5083200D01*
X13121749Y-5072669D01*
X13094759Y-5067300D01*
X13067241Y-5067300D01*
X13040251Y-5072669D01*
X13014827Y-5083200D01*
X12991946Y-5098488D01*
X12972488Y-5117947D01*
X12957199Y-5140827D01*
X12946669Y-5166251D01*
X12941300Y-5193241D01*
X12131000Y-5193241D01*
X12131000Y-4939241D01*
X12433300Y-4939241D01*
X12433300Y-4966759D01*
X12438669Y-4993749D01*
X12449199Y-5019173D01*
X12464488Y-5042054D01*
X12483946Y-5061512D01*
X12506827Y-5076801D01*
X12532251Y-5087331D01*
X12559241Y-5092700D01*
X12586759Y-5092700D01*
X12613749Y-5087331D01*
X12639173Y-5076801D01*
X12662053Y-5061512D01*
X12681512Y-5042054D01*
X12681882Y-5041500D01*
X13933342Y-5041500D01*
X14064190Y-5172348D01*
X14060500Y-5190897D01*
X14060500Y-5223103D01*
X14066783Y-5254691D01*
X14079108Y-5284446D01*
X14097001Y-5311225D01*
X14119775Y-5333999D01*
X14146554Y-5351892D01*
X14176309Y-5364217D01*
X14207897Y-5370500D01*
X14240103Y-5370500D01*
X14271691Y-5364217D01*
X14301446Y-5351892D01*
X14328225Y-5333999D01*
X14350999Y-5311225D01*
X14368892Y-5284446D01*
X14381217Y-5254691D01*
X14387500Y-5223103D01*
X14387500Y-5190897D01*
X14381217Y-5159309D01*
X14368892Y-5129554D01*
X14350999Y-5102775D01*
X14328225Y-5080001D01*
X14303529Y-5063500D01*
X15731193Y-5063500D01*
X15731193Y-5223500D01*
X15732419Y-5235948D01*
X15736050Y-5247918D01*
X15741946Y-5258949D01*
X15749881Y-5268619D01*
X15759551Y-5276554D01*
X15770582Y-5282450D01*
X15782552Y-5286081D01*
X15795000Y-5287307D01*
X15955000Y-5287307D01*
X15967448Y-5286081D01*
X15979418Y-5282450D01*
X15990449Y-5276554D01*
X16000118Y-5268619D01*
X16008054Y-5258949D01*
X16013950Y-5247918D01*
X16017581Y-5235948D01*
X16017970Y-5232000D01*
X16142992Y-5232000D01*
X16154039Y-5245461D01*
X16175890Y-5263393D01*
X16200819Y-5276718D01*
X16227869Y-5284924D01*
X16248951Y-5287000D01*
X16263049Y-5287000D01*
X16284131Y-5284924D01*
X16311181Y-5276718D01*
X16336110Y-5263393D01*
X16357961Y-5245461D01*
X16375893Y-5223610D01*
X16389218Y-5198681D01*
X16397424Y-5171631D01*
X16400194Y-5143500D01*
X16397424Y-5115369D01*
X16389218Y-5088319D01*
X16375893Y-5063390D01*
X16357961Y-5041539D01*
X16336110Y-5023607D01*
X16311181Y-5010282D01*
X16284131Y-5002076D01*
X16263049Y-5000000D01*
X16248951Y-5000000D01*
X16227869Y-5002076D01*
X16200819Y-5010282D01*
X16175890Y-5023607D01*
X16154039Y-5041539D01*
X16142992Y-5055000D01*
X16017970Y-5055000D01*
X16017581Y-5051052D01*
X16013950Y-5039082D01*
X16008054Y-5028051D01*
X16000118Y-5018382D01*
X15990449Y-5010446D01*
X15979418Y-5004550D01*
X15967448Y-5000919D01*
X15955000Y-4999693D01*
X15795000Y-4999693D01*
X15782552Y-5000919D01*
X15770582Y-5004550D01*
X15759551Y-5010446D01*
X15749881Y-5018382D01*
X15741946Y-5028051D01*
X15736050Y-5039082D01*
X15732419Y-5051052D01*
X15731193Y-5063500D01*
X14303529Y-5063500D01*
X14301446Y-5062108D01*
X14271691Y-5049783D01*
X14240103Y-5043500D01*
X14207897Y-5043500D01*
X14189347Y-5047190D01*
X14035653Y-4893496D01*
X14032882Y-4890118D01*
X14019406Y-4879059D01*
X14004031Y-4870841D01*
X13987349Y-4865781D01*
X13974348Y-4864500D01*
X13974347Y-4864500D01*
X13970000Y-4864072D01*
X13965653Y-4864500D01*
X13770267Y-4864500D01*
X13771691Y-4864217D01*
X13801446Y-4851892D01*
X13828225Y-4833999D01*
X13850999Y-4811225D01*
X13868892Y-4784446D01*
X13881217Y-4754691D01*
X13887500Y-4723103D01*
X13887500Y-4690897D01*
X13883810Y-4672348D01*
X13913198Y-4642960D01*
X14073555Y-4642960D01*
X14066783Y-4659309D01*
X14060500Y-4690897D01*
X14060500Y-4723103D01*
X14066783Y-4754691D01*
X14079108Y-4784446D01*
X14097001Y-4811225D01*
X14119775Y-4833999D01*
X14146554Y-4851892D01*
X14176309Y-4864217D01*
X14207897Y-4870500D01*
X14240103Y-4870500D01*
X14271691Y-4864217D01*
X14301446Y-4851892D01*
X14328225Y-4833999D01*
X14350999Y-4811225D01*
X14361506Y-4795500D01*
X14903013Y-4795500D01*
X14907360Y-4795928D01*
X14911707Y-4795500D01*
X14911708Y-4795500D01*
X14924709Y-4794220D01*
X14941391Y-4789159D01*
X14956766Y-4780941D01*
X14970242Y-4769882D01*
X14973013Y-4766504D01*
X15042492Y-4697026D01*
X15057819Y-4705218D01*
X15084869Y-4713424D01*
X15105951Y-4715500D01*
X15120049Y-4715500D01*
X15141131Y-4713424D01*
X15168181Y-4705218D01*
X15193110Y-4691893D01*
X15214961Y-4673961D01*
X15232893Y-4652110D01*
X15234983Y-4648200D01*
X16259500Y-4648200D01*
X16259500Y-4688200D01*
X16264351Y-4712050D01*
X16273761Y-4734495D01*
X16287369Y-4754673D01*
X16304653Y-4771808D01*
X16324947Y-4785242D01*
X16347472Y-4794459D01*
X16351239Y-4794846D01*
X16370300Y-4782373D01*
X16370300Y-4648200D01*
X16395700Y-4648200D01*
X16395700Y-4782373D01*
X16414761Y-4794846D01*
X16418528Y-4794459D01*
X16441053Y-4785242D01*
X16461347Y-4771808D01*
X16478631Y-4754673D01*
X16492239Y-4734495D01*
X16501649Y-4712050D01*
X16506500Y-4688200D01*
X16506500Y-4648200D01*
X16395700Y-4648200D01*
X16370300Y-4648200D01*
X16259500Y-4648200D01*
X15234983Y-4648200D01*
X15246218Y-4627181D01*
X15254424Y-4600131D01*
X15256130Y-4582800D01*
X16259500Y-4582800D01*
X16259500Y-4622800D01*
X16370300Y-4622800D01*
X16370300Y-4488627D01*
X16395700Y-4488627D01*
X16395700Y-4622800D01*
X16506500Y-4622800D01*
X16506500Y-4589434D01*
X16513500Y-4589434D01*
X16513500Y-4681567D01*
X16515287Y-4699710D01*
X16522349Y-4722990D01*
X16533817Y-4744445D01*
X16548500Y-4762337D01*
X16548500Y-4950622D01*
X16548072Y-4954970D01*
X16549780Y-4972319D01*
X16554841Y-4989001D01*
X16563059Y-5004376D01*
X16571347Y-5014475D01*
X16571347Y-5014475D01*
X16574118Y-5017852D01*
X16575133Y-5018684D01*
X16567446Y-5028051D01*
X16561550Y-5039082D01*
X16557919Y-5051052D01*
X16556693Y-5063500D01*
X16556693Y-5223500D01*
X16557919Y-5235948D01*
X16561550Y-5247918D01*
X16567446Y-5258949D01*
X16575381Y-5268619D01*
X16585051Y-5276554D01*
X16596082Y-5282450D01*
X16608052Y-5286081D01*
X16620500Y-5287307D01*
X16780500Y-5287307D01*
X16792948Y-5286081D01*
X16804918Y-5282450D01*
X16815949Y-5276554D01*
X16825619Y-5268619D01*
X16833554Y-5258949D01*
X16839450Y-5247918D01*
X16843081Y-5235948D01*
X16844307Y-5223500D01*
X16844307Y-5158465D01*
X17056500Y-5370658D01*
X17056500Y-5538048D01*
X17053524Y-5540036D01*
X17033536Y-5560024D01*
X17017832Y-5583527D01*
X17007015Y-5609643D01*
X17001500Y-5637366D01*
X17001500Y-5665633D01*
X17007015Y-5693357D01*
X17017832Y-5719473D01*
X17033536Y-5742976D01*
X17053524Y-5762964D01*
X17077027Y-5778668D01*
X17103143Y-5789485D01*
X17130867Y-5795000D01*
X17159134Y-5795000D01*
X17186857Y-5789485D01*
X17212973Y-5778668D01*
X17236476Y-5762964D01*
X17256464Y-5742976D01*
X17272168Y-5719473D01*
X17282985Y-5693357D01*
X17288500Y-5665633D01*
X17288500Y-5637366D01*
X17282985Y-5609643D01*
X17272168Y-5583527D01*
X17256464Y-5560024D01*
X17236476Y-5540036D01*
X17233500Y-5538048D01*
X17233500Y-5338347D01*
X17233928Y-5334000D01*
X17233500Y-5329653D01*
X17233500Y-5329652D01*
X17232220Y-5316651D01*
X17227159Y-5299969D01*
X17218941Y-5284594D01*
X17207882Y-5271118D01*
X17204505Y-5268347D01*
X16979500Y-5043342D01*
X16979500Y-4762337D01*
X16994183Y-4744445D01*
X17005651Y-4722990D01*
X17012713Y-4699710D01*
X17014500Y-4681566D01*
X17014500Y-4589434D01*
X17021500Y-4589434D01*
X17021500Y-4681567D01*
X17023287Y-4699710D01*
X17030349Y-4722990D01*
X17041817Y-4744445D01*
X17056500Y-4762337D01*
X17056500Y-4776182D01*
X17056072Y-4780530D01*
X17057781Y-4797879D01*
X17062841Y-4814561D01*
X17071059Y-4829936D01*
X17079347Y-4840035D01*
X17079347Y-4840035D01*
X17082118Y-4843412D01*
X17085495Y-4846183D01*
X17519830Y-5280518D01*
X17515015Y-5292143D01*
X17509500Y-5319867D01*
X17509500Y-5348134D01*
X17515015Y-5375857D01*
X17525832Y-5401973D01*
X17541536Y-5425476D01*
X17561524Y-5445464D01*
X17585027Y-5461168D01*
X17611143Y-5471985D01*
X17638867Y-5477500D01*
X17667134Y-5477500D01*
X17694857Y-5471985D01*
X17720973Y-5461168D01*
X17744476Y-5445464D01*
X17764464Y-5425476D01*
X17780168Y-5401973D01*
X17790985Y-5375857D01*
X17796500Y-5348134D01*
X17796500Y-5319867D01*
X17790985Y-5292143D01*
X17780168Y-5266027D01*
X17764464Y-5242524D01*
X17744476Y-5222536D01*
X17720973Y-5206832D01*
X17694857Y-5196015D01*
X17683355Y-5193727D01*
X17241823Y-4752195D01*
X17248183Y-4744445D01*
X17259651Y-4722990D01*
X17266713Y-4699710D01*
X17268500Y-4681566D01*
X17268500Y-4589434D01*
X17266713Y-4571290D01*
X17259651Y-4548010D01*
X17248183Y-4526555D01*
X17232750Y-4507750D01*
X17213945Y-4492317D01*
X17192490Y-4480849D01*
X17169210Y-4473787D01*
X17145000Y-4471403D01*
X17120790Y-4473787D01*
X17097510Y-4480849D01*
X17076055Y-4492317D01*
X17057250Y-4507750D01*
X17041817Y-4526555D01*
X17030349Y-4548010D01*
X17023287Y-4571290D01*
X17021500Y-4589434D01*
X17014500Y-4589434D01*
X17014500Y-4589434D01*
X17012713Y-4571290D01*
X17005651Y-4548010D01*
X16994183Y-4526555D01*
X16978750Y-4507750D01*
X16959945Y-4492317D01*
X16938490Y-4480849D01*
X16915210Y-4473787D01*
X16891000Y-4471403D01*
X16866790Y-4473787D01*
X16843510Y-4480849D01*
X16822055Y-4492317D01*
X16803250Y-4507750D01*
X16787817Y-4526555D01*
X16776349Y-4548010D01*
X16769287Y-4571290D01*
X16767500Y-4589434D01*
X16767500Y-4681567D01*
X16769287Y-4699710D01*
X16776349Y-4722990D01*
X16787817Y-4744445D01*
X16802500Y-4762337D01*
X16802500Y-5003816D01*
X16792948Y-5000919D01*
X16787495Y-5000382D01*
X16782659Y-4984439D01*
X16782659Y-4984439D01*
X16774441Y-4969064D01*
X16766153Y-4958965D01*
X16766153Y-4958965D01*
X16763382Y-4955588D01*
X16760005Y-4952817D01*
X16725500Y-4918312D01*
X16725500Y-4762337D01*
X16740183Y-4744445D01*
X16751651Y-4722990D01*
X16758713Y-4699710D01*
X16760500Y-4681566D01*
X16760500Y-4589434D01*
X16758713Y-4571290D01*
X16751651Y-4548010D01*
X16740183Y-4526555D01*
X16724750Y-4507750D01*
X16705945Y-4492317D01*
X16684490Y-4480849D01*
X16661210Y-4473787D01*
X16637000Y-4471403D01*
X16612790Y-4473787D01*
X16589510Y-4480849D01*
X16568055Y-4492317D01*
X16549250Y-4507750D01*
X16533817Y-4526555D01*
X16522349Y-4548010D01*
X16515287Y-4571290D01*
X16513500Y-4589434D01*
X16506500Y-4589434D01*
X16506500Y-4582800D01*
X16501649Y-4558950D01*
X16492239Y-4536505D01*
X16478631Y-4516328D01*
X16461347Y-4499192D01*
X16441053Y-4485758D01*
X16418528Y-4476541D01*
X16414761Y-4476154D01*
X16395700Y-4488627D01*
X16370300Y-4488627D01*
X16351239Y-4476154D01*
X16347472Y-4476541D01*
X16324947Y-4485758D01*
X16304653Y-4499192D01*
X16287369Y-4516328D01*
X16273761Y-4536505D01*
X16264351Y-4558950D01*
X16259500Y-4582800D01*
X15256130Y-4582800D01*
X15257194Y-4572000D01*
X15254424Y-4543869D01*
X15246218Y-4516819D01*
X15232893Y-4491890D01*
X15214961Y-4470039D01*
X15193110Y-4452107D01*
X15168181Y-4438782D01*
X15141131Y-4430576D01*
X15120049Y-4428500D01*
X15105951Y-4428500D01*
X15084869Y-4430576D01*
X15057819Y-4438782D01*
X15032890Y-4452107D01*
X15011039Y-4470039D01*
X14999992Y-4483500D01*
X14992318Y-4483500D01*
X14987970Y-4483072D01*
X14983622Y-4483500D01*
X14972876Y-4484558D01*
X14960961Y-4470039D01*
X14939110Y-4452107D01*
X14914181Y-4438782D01*
X14887131Y-4430576D01*
X14866049Y-4428500D01*
X14851951Y-4428500D01*
X14830869Y-4430576D01*
X14803819Y-4438782D01*
X14778890Y-4452107D01*
X14757039Y-4470039D01*
X14753743Y-4474055D01*
X14750461Y-4472301D01*
X14733779Y-4467241D01*
X14720778Y-4465960D01*
X14720777Y-4465960D01*
X14716430Y-4465532D01*
X14712083Y-4465960D01*
X13880886Y-4465960D01*
X13876540Y-4465532D01*
X13872193Y-4465960D01*
X13872192Y-4465960D01*
X13859191Y-4467241D01*
X13842509Y-4472301D01*
X13827134Y-4480519D01*
X13827134Y-4480519D01*
X13827134Y-4480519D01*
X13817035Y-4488807D01*
X13817035Y-4488807D01*
X13813658Y-4491578D01*
X13810887Y-4494955D01*
X13758652Y-4547190D01*
X13740103Y-4543500D01*
X13707897Y-4543500D01*
X13676309Y-4549783D01*
X13646554Y-4562108D01*
X13619775Y-4580001D01*
X13597001Y-4602775D01*
X13579108Y-4629554D01*
X13566783Y-4659309D01*
X13560500Y-4690897D01*
X13560500Y-4723103D01*
X13566783Y-4754691D01*
X13579108Y-4784446D01*
X13597001Y-4811225D01*
X13619775Y-4833999D01*
X13646554Y-4851892D01*
X13676309Y-4864217D01*
X13677732Y-4864500D01*
X12681882Y-4864500D01*
X12681512Y-4863947D01*
X12662053Y-4844488D01*
X12639173Y-4829200D01*
X12613749Y-4818669D01*
X12586759Y-4813300D01*
X12559241Y-4813300D01*
X12532251Y-4818669D01*
X12506827Y-4829200D01*
X12483946Y-4844488D01*
X12464488Y-4863947D01*
X12449199Y-4886827D01*
X12438669Y-4912251D01*
X12433300Y-4939241D01*
X12131000Y-4939241D01*
X12131000Y-4431241D01*
X12941300Y-4431241D01*
X12941300Y-4458759D01*
X12946669Y-4485749D01*
X12957199Y-4511173D01*
X12972488Y-4534054D01*
X12991946Y-4553512D01*
X13014827Y-4568801D01*
X13022551Y-4572000D01*
X13014827Y-4575200D01*
X12991946Y-4590488D01*
X12972488Y-4609947D01*
X12957199Y-4632827D01*
X12946669Y-4658251D01*
X12941300Y-4685241D01*
X12941300Y-4712759D01*
X12946669Y-4739749D01*
X12957199Y-4765173D01*
X12972488Y-4788054D01*
X12991946Y-4807512D01*
X13014827Y-4822801D01*
X13040251Y-4833331D01*
X13067241Y-4838700D01*
X13094759Y-4838700D01*
X13121749Y-4833331D01*
X13147173Y-4822801D01*
X13170053Y-4807512D01*
X13189512Y-4788054D01*
X13204800Y-4765173D01*
X13215331Y-4739749D01*
X13220700Y-4712759D01*
X13220700Y-4685241D01*
X13215331Y-4658251D01*
X13204800Y-4632827D01*
X13189512Y-4609947D01*
X13170053Y-4590488D01*
X13147173Y-4575200D01*
X13139448Y-4572000D01*
X13147173Y-4568801D01*
X13170053Y-4553512D01*
X13189512Y-4534054D01*
X13204800Y-4511173D01*
X13215331Y-4485749D01*
X13220700Y-4458759D01*
X13220700Y-4431241D01*
X13215331Y-4404251D01*
X13204800Y-4378827D01*
X13189512Y-4355947D01*
X13170053Y-4336488D01*
X13147173Y-4321200D01*
X13121749Y-4310669D01*
X13094759Y-4305300D01*
X13067241Y-4305300D01*
X13040251Y-4310669D01*
X13014827Y-4321200D01*
X12991946Y-4336488D01*
X12972488Y-4355947D01*
X12957199Y-4378827D01*
X12946669Y-4404251D01*
X12941300Y-4431241D01*
X12131000Y-4431241D01*
X12131000Y-4257000D01*
X20508000Y-4257000D01*
X20508000Y-7428842D01*
X20508000Y-7428842D01*
G37*
X20508000Y-7428842D02*
X20462802Y-7383644D01*
X20463500Y-7380133D01*
X20463500Y-7351866D01*
X20457985Y-7324143D01*
X20447168Y-7298027D01*
X20431464Y-7274524D01*
X20411476Y-7254536D01*
X20387973Y-7238832D01*
X20361857Y-7228015D01*
X20334134Y-7222500D01*
X20305867Y-7222500D01*
X20278143Y-7228015D01*
X20252027Y-7238832D01*
X20228524Y-7254536D01*
X20208536Y-7274524D01*
X20192832Y-7298027D01*
X20182015Y-7324143D01*
X20176500Y-7351866D01*
X20176500Y-7380133D01*
X20182015Y-7407857D01*
X20192832Y-7433973D01*
X20208536Y-7457476D01*
X20228524Y-7477464D01*
X20252027Y-7493168D01*
X20278143Y-7503985D01*
X20305867Y-7509500D01*
X20334134Y-7509500D01*
X20337644Y-7508802D01*
X20397630Y-7568788D01*
X20397630Y-7608458D01*
X20388131Y-7605576D01*
X20367049Y-7603500D01*
X20272951Y-7603500D01*
X20251869Y-7605576D01*
X20224819Y-7613782D01*
X20199890Y-7627107D01*
X20178039Y-7645039D01*
X20166992Y-7658500D01*
X20166108Y-7658500D01*
X20000019Y-7492411D01*
X20005151Y-7489667D01*
X20012310Y-7465270D01*
X19931000Y-7383960D01*
X19929586Y-7385375D01*
X19911625Y-7367414D01*
X19913040Y-7366000D01*
X19948961Y-7366000D01*
X20030270Y-7447310D01*
X20054667Y-7440151D01*
X20066757Y-7414600D01*
X20073630Y-7387182D01*
X20075022Y-7358949D01*
X20070879Y-7330987D01*
X20061360Y-7304371D01*
X20054667Y-7291849D01*
X20030270Y-7284690D01*
X19948961Y-7366000D01*
X19913040Y-7366000D01*
X19911625Y-7364586D01*
X19929586Y-7346625D01*
X19931000Y-7348039D01*
X20012310Y-7266730D01*
X20005151Y-7242333D01*
X19979600Y-7230243D01*
X19952182Y-7223370D01*
X19923949Y-7221978D01*
X19895987Y-7226121D01*
X19887720Y-7229078D01*
X19887720Y-7223238D01*
X20105595Y-7005363D01*
X20108972Y-7002592D01*
X20111842Y-6999094D01*
X20119738Y-6989473D01*
X20120031Y-6989116D01*
X20128249Y-6973741D01*
X20130819Y-6965270D01*
X20238690Y-6965270D01*
X20245849Y-6989667D01*
X20271400Y-7001757D01*
X20298818Y-7008630D01*
X20327051Y-7010022D01*
X20355013Y-7005879D01*
X20381629Y-6996360D01*
X20394151Y-6989667D01*
X20401310Y-6965270D01*
X20320000Y-6883960D01*
X20238690Y-6965270D01*
X20130819Y-6965270D01*
X20133310Y-6957059D01*
X20134590Y-6944058D01*
X20134590Y-6944057D01*
X20135018Y-6939710D01*
X20134590Y-6935363D01*
X20134590Y-6873051D01*
X20175978Y-6873051D01*
X20180121Y-6901013D01*
X20189640Y-6927629D01*
X20196333Y-6940151D01*
X20220730Y-6947310D01*
X20302040Y-6866000D01*
X20337961Y-6866000D01*
X20419270Y-6947310D01*
X20443667Y-6940151D01*
X20455757Y-6914600D01*
X20462630Y-6887182D01*
X20464022Y-6858949D01*
X20459879Y-6830987D01*
X20450360Y-6804371D01*
X20443667Y-6791849D01*
X20419270Y-6784690D01*
X20337961Y-6866000D01*
X20302040Y-6866000D01*
X20220730Y-6784690D01*
X20196333Y-6791849D01*
X20184243Y-6817400D01*
X20177370Y-6844818D01*
X20175978Y-6873051D01*
X20134590Y-6873051D01*
X20134590Y-6766730D01*
X20238690Y-6766730D01*
X20320000Y-6848039D01*
X20401310Y-6766730D01*
X20394151Y-6742333D01*
X20368600Y-6730243D01*
X20341182Y-6723370D01*
X20312949Y-6721978D01*
X20284987Y-6726121D01*
X20258371Y-6735640D01*
X20245849Y-6742333D01*
X20238690Y-6766730D01*
X20134590Y-6766730D01*
X20134590Y-6308906D01*
X20135018Y-6304560D01*
X20134590Y-6300213D01*
X20134590Y-6300212D01*
X20133310Y-6287211D01*
X20128249Y-6270529D01*
X20120031Y-6255154D01*
X20108972Y-6241678D01*
X20105595Y-6238907D01*
X19883043Y-6016356D01*
X19880272Y-6012978D01*
X19866796Y-6001919D01*
X19851421Y-5993701D01*
X19834739Y-5988640D01*
X19821738Y-5987360D01*
X19821737Y-5987360D01*
X19817390Y-5986932D01*
X19813043Y-5987360D01*
X18610360Y-5987360D01*
X18610360Y-5968909D01*
X18633476Y-5953464D01*
X18653464Y-5933476D01*
X18669168Y-5909973D01*
X18679985Y-5883857D01*
X18685500Y-5856133D01*
X18685500Y-5827866D01*
X18679985Y-5800143D01*
X18669168Y-5774027D01*
X18653464Y-5750524D01*
X18633476Y-5730536D01*
X18609973Y-5714832D01*
X18583857Y-5704015D01*
X18556134Y-5698500D01*
X18527867Y-5698500D01*
X18500143Y-5704015D01*
X18474027Y-5714832D01*
X18450524Y-5730536D01*
X18430536Y-5750524D01*
X18414832Y-5774027D01*
X18404015Y-5800143D01*
X18398500Y-5827866D01*
X18398500Y-5856133D01*
X18404015Y-5883857D01*
X18414832Y-5909973D01*
X18430536Y-5933476D01*
X18433360Y-5936300D01*
X18433360Y-5987360D01*
X16818957Y-5987360D01*
X16820393Y-5985610D01*
X16833718Y-5960681D01*
X16841924Y-5933631D01*
X16844694Y-5905500D01*
X16841924Y-5877369D01*
X16833718Y-5850319D01*
X16820393Y-5825390D01*
X16802461Y-5803539D01*
X16780610Y-5785607D01*
X16755681Y-5772282D01*
X16728631Y-5764076D01*
X16707549Y-5762000D01*
X16693451Y-5762000D01*
X16672369Y-5764076D01*
X16645319Y-5772282D01*
X16620390Y-5785607D01*
X16598539Y-5803539D01*
X16587492Y-5817000D01*
X16398970Y-5817000D01*
X16398581Y-5813052D01*
X16394950Y-5801082D01*
X16389054Y-5790051D01*
X16381118Y-5780381D01*
X16371449Y-5772446D01*
X16360418Y-5766550D01*
X16348448Y-5762919D01*
X16336000Y-5761693D01*
X16176000Y-5761693D01*
X16163552Y-5762919D01*
X16151582Y-5766550D01*
X16140551Y-5772446D01*
X16130881Y-5780381D01*
X16122946Y-5790051D01*
X16117050Y-5801082D01*
X16113419Y-5813052D01*
X16112193Y-5825500D01*
X16112193Y-5985500D01*
X16112376Y-5987360D01*
X15993457Y-5987360D01*
X15994893Y-5985610D01*
X16008218Y-5960681D01*
X16016424Y-5933631D01*
X16019194Y-5905500D01*
X16016424Y-5877369D01*
X16008218Y-5850319D01*
X15994893Y-5825390D01*
X15976961Y-5803539D01*
X15955110Y-5785607D01*
X15930181Y-5772282D01*
X15903131Y-5764076D01*
X15882049Y-5762000D01*
X15867951Y-5762000D01*
X15846869Y-5764076D01*
X15819819Y-5772282D01*
X15794890Y-5785607D01*
X15773039Y-5803539D01*
X15755107Y-5825390D01*
X15741782Y-5850319D01*
X15733576Y-5877369D01*
X15730806Y-5905500D01*
X15733576Y-5933631D01*
X15741782Y-5960681D01*
X15755107Y-5985610D01*
X15773039Y-6007461D01*
X15786500Y-6018508D01*
X15786500Y-6071511D01*
X15786072Y-6075860D01*
X15786500Y-6080208D01*
X15786500Y-6621502D01*
X15746889Y-6661113D01*
X15732464Y-6639524D01*
X15712476Y-6619536D01*
X15688973Y-6603832D01*
X15662857Y-6593015D01*
X15635133Y-6587500D01*
X15606866Y-6587500D01*
X15579143Y-6593015D01*
X15553027Y-6603832D01*
X15529524Y-6619536D01*
X15509536Y-6639524D01*
X15507548Y-6642500D01*
X15250903Y-6642500D01*
X15252191Y-6638904D01*
X15240062Y-6616700D01*
X15125700Y-6616700D01*
X15125700Y-6618700D01*
X15100300Y-6618700D01*
X15100300Y-6616700D01*
X15098300Y-6616700D01*
X15098300Y-6591300D01*
X15100300Y-6591300D01*
X15100300Y-6477008D01*
X15125700Y-6477008D01*
X15125700Y-6591300D01*
X15240062Y-6591300D01*
X15252191Y-6569096D01*
X15242707Y-6542612D01*
X15228238Y-6518487D01*
X15209341Y-6497648D01*
X15186742Y-6480896D01*
X15161309Y-6468875D01*
X15147904Y-6464810D01*
X15125700Y-6477008D01*
X15100300Y-6477008D01*
X15078096Y-6464810D01*
X15064691Y-6468875D01*
X15039258Y-6480896D01*
X15016659Y-6497648D01*
X15001823Y-6514008D01*
X15001581Y-6511552D01*
X14997950Y-6499582D01*
X14992054Y-6488551D01*
X14984118Y-6478881D01*
X14974449Y-6470946D01*
X14963418Y-6465050D01*
X14951448Y-6461419D01*
X14939000Y-6460193D01*
X14779000Y-6460193D01*
X14766552Y-6461419D01*
X14754582Y-6465050D01*
X14743551Y-6470946D01*
X14733881Y-6478881D01*
X14725946Y-6488551D01*
X14720050Y-6499582D01*
X14716419Y-6511552D01*
X14715193Y-6524000D01*
X14715193Y-6652535D01*
X14670653Y-6607996D01*
X14667882Y-6604618D01*
X14654406Y-6593559D01*
X14639031Y-6585341D01*
X14622349Y-6580280D01*
X14609348Y-6579000D01*
X14609347Y-6579000D01*
X14605000Y-6578572D01*
X14600653Y-6579000D01*
X14337224Y-6579000D01*
X14342999Y-6573225D01*
X14360892Y-6546446D01*
X14373217Y-6516691D01*
X14379500Y-6485103D01*
X14379500Y-6452897D01*
X14373217Y-6421309D01*
X14360892Y-6391554D01*
X14342999Y-6364775D01*
X14320225Y-6342001D01*
X14293446Y-6324108D01*
X14263691Y-6311783D01*
X14232103Y-6305500D01*
X14199897Y-6305500D01*
X14181347Y-6309190D01*
X14035653Y-6163496D01*
X14032882Y-6160118D01*
X14019406Y-6149059D01*
X14004031Y-6140841D01*
X13987349Y-6135780D01*
X13974348Y-6134500D01*
X13974347Y-6134500D01*
X13970000Y-6134072D01*
X13965653Y-6134500D01*
X12681882Y-6134500D01*
X12681512Y-6133946D01*
X12662053Y-6114488D01*
X12639173Y-6099199D01*
X12613749Y-6088669D01*
X12586759Y-6083300D01*
X12559241Y-6083300D01*
X12532251Y-6088669D01*
X12506827Y-6099199D01*
X12483946Y-6114488D01*
X12464488Y-6133946D01*
X12449199Y-6156827D01*
X12438669Y-6182251D01*
X12433300Y-6209241D01*
X12433300Y-6236759D01*
X12438669Y-6263749D01*
X12449199Y-6289173D01*
X12464488Y-6312053D01*
X12483946Y-6331512D01*
X12506827Y-6346800D01*
X12532251Y-6357331D01*
X12559241Y-6362700D01*
X12586759Y-6362700D01*
X12613749Y-6357331D01*
X12639173Y-6346800D01*
X12662053Y-6331512D01*
X12681512Y-6312053D01*
X12681882Y-6311500D01*
X13669732Y-6311500D01*
X13668309Y-6311783D01*
X13638554Y-6324108D01*
X13611775Y-6342001D01*
X13589001Y-6364775D01*
X13578494Y-6380500D01*
X13347347Y-6380500D01*
X13343000Y-6380072D01*
X13338653Y-6380500D01*
X13338652Y-6380500D01*
X13325651Y-6381780D01*
X13308969Y-6386841D01*
X13293594Y-6395059D01*
X13283495Y-6403347D01*
X13283495Y-6403347D01*
X13280118Y-6406118D01*
X13277347Y-6409495D01*
X13220700Y-6466142D01*
X13220700Y-6463241D01*
X13215331Y-6436251D01*
X13204800Y-6410827D01*
X13189512Y-6387946D01*
X13170053Y-6368488D01*
X13147173Y-6353199D01*
X13121749Y-6342669D01*
X13094759Y-6337300D01*
X13067241Y-6337300D01*
X13040251Y-6342669D01*
X13014827Y-6353199D01*
X12991946Y-6368488D01*
X12972488Y-6387946D01*
X12957199Y-6410827D01*
X12946669Y-6436251D01*
X12941300Y-6463241D01*
X12941300Y-6490759D01*
X12946669Y-6517749D01*
X12957199Y-6543173D01*
X12972488Y-6566053D01*
X12991946Y-6585512D01*
X13014827Y-6600800D01*
X13022551Y-6604000D01*
X13014827Y-6607199D01*
X12991946Y-6622488D01*
X12972488Y-6641946D01*
X12957199Y-6664827D01*
X12946669Y-6690251D01*
X12941300Y-6717241D01*
X12941300Y-6744759D01*
X12946669Y-6771749D01*
X12957199Y-6797173D01*
X12972488Y-6820053D01*
X12991946Y-6839512D01*
X13014827Y-6854800D01*
X13040251Y-6865331D01*
X13067241Y-6870700D01*
X13094759Y-6870700D01*
X13121749Y-6865331D01*
X13142750Y-6856632D01*
X13142750Y-6925092D01*
X13098644Y-6969198D01*
X13095133Y-6968500D01*
X13066866Y-6968500D01*
X13039143Y-6974015D01*
X13013027Y-6984832D01*
X12989524Y-7000536D01*
X12969536Y-7020524D01*
X12954000Y-7043776D01*
X12938464Y-7020524D01*
X12918476Y-7000536D01*
X12894973Y-6984832D01*
X12868857Y-6974015D01*
X12841133Y-6968500D01*
X12812866Y-6968500D01*
X12785143Y-6974015D01*
X12759027Y-6984832D01*
X12735524Y-7000536D01*
X12715536Y-7020524D01*
X12699908Y-7043913D01*
X12696667Y-7037849D01*
X12672270Y-7030690D01*
X12590960Y-7112000D01*
X12672270Y-7193310D01*
X12696667Y-7186151D01*
X12699719Y-7179701D01*
X12699832Y-7179973D01*
X12715536Y-7203476D01*
X12735524Y-7223464D01*
X12759027Y-7239168D01*
X12785143Y-7249985D01*
X12812866Y-7255500D01*
X12841133Y-7255500D01*
X12868857Y-7249985D01*
X12894973Y-7239168D01*
X12918476Y-7223464D01*
X12938464Y-7203476D01*
X12954000Y-7180224D01*
X12969536Y-7203476D01*
X12989524Y-7223464D01*
X12992500Y-7225452D01*
X12992500Y-7488653D01*
X12992072Y-7493000D01*
X12992500Y-7497347D01*
X12992500Y-7497348D01*
X12993154Y-7503989D01*
X12993780Y-7510349D01*
X12995125Y-7514781D01*
X12998841Y-7527031D01*
X13007059Y-7542406D01*
X13018118Y-7555882D01*
X13021495Y-7558653D01*
X13192198Y-7729356D01*
X13191500Y-7732866D01*
X13191500Y-7761133D01*
X13197015Y-7788857D01*
X13207832Y-7814973D01*
X13223536Y-7838476D01*
X13243524Y-7858464D01*
X13246500Y-7860452D01*
X13246500Y-8014548D01*
X13243524Y-8016536D01*
X13223536Y-8036524D01*
X13207832Y-8060027D01*
X13197015Y-8086143D01*
X13191500Y-8113866D01*
X13191500Y-8142133D01*
X13197015Y-8169857D01*
X13207832Y-8195973D01*
X13223536Y-8219476D01*
X13243524Y-8239464D01*
X13267027Y-8255168D01*
X13293143Y-8265985D01*
X13320866Y-8271500D01*
X13349133Y-8271500D01*
X13375460Y-8266263D01*
X13375460Y-8470382D01*
X13352644Y-8493198D01*
X13349133Y-8492500D01*
X13320866Y-8492500D01*
X13293143Y-8498015D01*
X13267027Y-8508832D01*
X13243524Y-8524536D01*
X13223536Y-8544524D01*
X13207908Y-8567913D01*
X13204667Y-8561849D01*
X13180270Y-8554690D01*
X13098960Y-8636000D01*
X13180270Y-8717310D01*
X13204667Y-8710151D01*
X13207719Y-8703701D01*
X13207832Y-8703973D01*
X13223536Y-8727476D01*
X13243524Y-8747464D01*
X13267027Y-8763168D01*
X13293143Y-8773985D01*
X13320866Y-8779500D01*
X13349133Y-8779500D01*
X13376857Y-8773985D01*
X13402973Y-8763168D01*
X13426476Y-8747464D01*
X13446464Y-8727476D01*
X13462000Y-8704224D01*
X13477536Y-8727476D01*
X13497524Y-8747464D01*
X13521027Y-8763168D01*
X13547143Y-8773985D01*
X13574866Y-8779500D01*
X13603133Y-8779500D01*
X13606644Y-8778802D01*
X13651842Y-8824000D01*
X12131000Y-8824000D01*
X12131000Y-8556000D01*
X12175193Y-8556000D01*
X12175193Y-8716000D01*
X12176419Y-8728448D01*
X12180050Y-8740418D01*
X12185946Y-8751449D01*
X12193881Y-8761119D01*
X12203551Y-8769054D01*
X12214582Y-8774950D01*
X12226552Y-8778581D01*
X12239000Y-8779807D01*
X12399000Y-8779807D01*
X12411448Y-8778581D01*
X12423418Y-8774950D01*
X12434449Y-8769054D01*
X12444118Y-8761119D01*
X12452054Y-8751449D01*
X12457950Y-8740418D01*
X12461581Y-8728448D01*
X12461664Y-8727604D01*
X12481524Y-8747464D01*
X12505027Y-8763168D01*
X12531143Y-8773985D01*
X12558866Y-8779500D01*
X12587133Y-8779500D01*
X12614857Y-8773985D01*
X12640973Y-8763168D01*
X12664476Y-8747464D01*
X12676669Y-8735270D01*
X12745690Y-8735270D01*
X12752849Y-8759667D01*
X12778400Y-8771757D01*
X12805818Y-8778630D01*
X12834051Y-8780022D01*
X12862013Y-8775879D01*
X12888629Y-8766360D01*
X12901151Y-8759667D01*
X12908310Y-8735270D01*
X12999690Y-8735270D01*
X13006849Y-8759667D01*
X13032400Y-8771757D01*
X13059818Y-8778630D01*
X13088051Y-8780022D01*
X13116013Y-8775879D01*
X13142629Y-8766360D01*
X13155151Y-8759667D01*
X13162310Y-8735270D01*
X13081000Y-8653961D01*
X12999690Y-8735270D01*
X12908310Y-8735270D01*
X12827000Y-8653961D01*
X12745690Y-8735270D01*
X12676669Y-8735270D01*
X12684464Y-8727476D01*
X12700091Y-8704087D01*
X12703333Y-8710151D01*
X12727730Y-8717310D01*
X12809039Y-8636000D01*
X12844960Y-8636000D01*
X12926270Y-8717310D01*
X12950667Y-8710151D01*
X12953797Y-8703536D01*
X12957333Y-8710151D01*
X12981730Y-8717310D01*
X13063039Y-8636000D01*
X12981730Y-8554690D01*
X12957333Y-8561849D01*
X12954203Y-8568464D01*
X12950667Y-8561849D01*
X12926270Y-8554690D01*
X12844960Y-8636000D01*
X12809039Y-8636000D01*
X12727730Y-8554690D01*
X12703333Y-8561849D01*
X12700281Y-8568299D01*
X12700168Y-8568027D01*
X12684464Y-8544524D01*
X12676669Y-8536730D01*
X12745690Y-8536730D01*
X12827000Y-8618040D01*
X12908310Y-8536730D01*
X12999690Y-8536730D01*
X13081000Y-8618040D01*
X13162310Y-8536730D01*
X13155151Y-8512333D01*
X13129600Y-8500243D01*
X13102182Y-8493370D01*
X13073949Y-8491978D01*
X13045987Y-8496121D01*
X13019371Y-8505640D01*
X13006849Y-8512333D01*
X12999690Y-8536730D01*
X12908310Y-8536730D01*
X12901151Y-8512333D01*
X12875600Y-8500243D01*
X12848182Y-8493370D01*
X12819949Y-8491978D01*
X12791987Y-8496121D01*
X12765371Y-8505640D01*
X12752849Y-8512333D01*
X12745690Y-8536730D01*
X12676669Y-8536730D01*
X12664476Y-8524536D01*
X12640973Y-8508832D01*
X12614857Y-8498015D01*
X12587133Y-8492500D01*
X12558866Y-8492500D01*
X12531143Y-8498015D01*
X12505027Y-8508832D01*
X12481524Y-8524536D01*
X12461664Y-8544396D01*
X12461581Y-8543552D01*
X12457950Y-8531582D01*
X12452054Y-8520551D01*
X12444118Y-8510882D01*
X12434449Y-8502946D01*
X12423418Y-8497050D01*
X12411448Y-8493419D01*
X12399000Y-8492193D01*
X12239000Y-8492193D01*
X12226552Y-8493419D01*
X12214582Y-8497050D01*
X12203551Y-8502946D01*
X12193881Y-8510882D01*
X12185946Y-8520551D01*
X12180050Y-8531582D01*
X12176419Y-8543552D01*
X12175193Y-8556000D01*
X12131000Y-8556000D01*
X12131000Y-7097866D01*
X12175500Y-7097866D01*
X12175500Y-7126133D01*
X12181015Y-7153857D01*
X12191832Y-7179973D01*
X12207536Y-7203476D01*
X12227524Y-7223464D01*
X12251027Y-7239168D01*
X12277143Y-7249985D01*
X12304866Y-7255500D01*
X12333133Y-7255500D01*
X12360857Y-7249985D01*
X12386973Y-7239168D01*
X12410476Y-7223464D01*
X12422669Y-7211270D01*
X12491690Y-7211270D01*
X12498849Y-7235667D01*
X12524400Y-7247757D01*
X12551818Y-7254630D01*
X12580051Y-7256022D01*
X12608013Y-7251879D01*
X12634629Y-7242360D01*
X12647151Y-7235667D01*
X12654310Y-7211270D01*
X12573000Y-7129960D01*
X12491690Y-7211270D01*
X12422669Y-7211270D01*
X12430464Y-7203476D01*
X12446091Y-7180087D01*
X12449333Y-7186151D01*
X12473730Y-7193310D01*
X12555039Y-7112000D01*
X12473730Y-7030690D01*
X12449333Y-7037849D01*
X12446281Y-7044299D01*
X12446168Y-7044027D01*
X12430464Y-7020524D01*
X12422669Y-7012730D01*
X12491690Y-7012730D01*
X12573000Y-7094039D01*
X12654310Y-7012730D01*
X12647151Y-6988333D01*
X12621600Y-6976243D01*
X12594182Y-6969370D01*
X12565949Y-6967978D01*
X12537987Y-6972121D01*
X12511371Y-6981640D01*
X12498849Y-6988333D01*
X12491690Y-7012730D01*
X12422669Y-7012730D01*
X12410476Y-7000536D01*
X12386973Y-6984832D01*
X12360857Y-6974015D01*
X12333133Y-6968500D01*
X12304866Y-6968500D01*
X12277143Y-6974015D01*
X12251027Y-6984832D01*
X12227524Y-7000536D01*
X12207536Y-7020524D01*
X12191832Y-7044027D01*
X12181015Y-7070143D01*
X12175500Y-7097866D01*
X12131000Y-7097866D01*
X12131000Y-5193241D01*
X12941300Y-5193241D01*
X12941300Y-5220759D01*
X12946669Y-5247749D01*
X12957199Y-5273173D01*
X12972488Y-5296054D01*
X12991946Y-5315512D01*
X13014827Y-5330801D01*
X13022551Y-5334000D01*
X13014827Y-5337200D01*
X12991946Y-5352488D01*
X12972488Y-5371947D01*
X12957199Y-5394827D01*
X12946669Y-5420251D01*
X12941300Y-5447241D01*
X12941300Y-5474759D01*
X12946669Y-5501749D01*
X12957199Y-5527173D01*
X12972488Y-5550054D01*
X12991946Y-5569512D01*
X13014827Y-5584801D01*
X13022551Y-5588000D01*
X13014827Y-5591200D01*
X12991946Y-5606488D01*
X12972488Y-5625946D01*
X12957199Y-5648827D01*
X12946669Y-5674251D01*
X12941300Y-5701241D01*
X12941300Y-5728759D01*
X12946669Y-5755749D01*
X12957199Y-5781173D01*
X12972488Y-5804053D01*
X12991946Y-5823512D01*
X13014827Y-5838800D01*
X13022551Y-5842000D01*
X13014827Y-5845199D01*
X12991946Y-5860488D01*
X12972488Y-5879946D01*
X12957199Y-5902827D01*
X12946669Y-5928251D01*
X12941300Y-5955241D01*
X12941300Y-5982759D01*
X12946669Y-6009749D01*
X12957199Y-6035173D01*
X12972488Y-6058053D01*
X12991946Y-6077512D01*
X13014827Y-6092800D01*
X13040251Y-6103331D01*
X13067241Y-6108700D01*
X13094759Y-6108700D01*
X13121749Y-6103331D01*
X13147173Y-6092800D01*
X13170053Y-6077512D01*
X13189512Y-6058053D01*
X13204800Y-6035173D01*
X13215331Y-6009749D01*
X13220700Y-5982759D01*
X13220700Y-5955241D01*
X13220234Y-5952897D01*
X13552500Y-5952897D01*
X13552500Y-5985103D01*
X13558783Y-6016691D01*
X13571108Y-6046446D01*
X13589001Y-6073225D01*
X13611775Y-6095999D01*
X13638554Y-6113892D01*
X13668309Y-6126217D01*
X13699897Y-6132500D01*
X13732103Y-6132500D01*
X13763691Y-6126217D01*
X13793446Y-6113892D01*
X13820225Y-6095999D01*
X13842999Y-6073225D01*
X13860892Y-6046446D01*
X13873217Y-6016691D01*
X13879500Y-5985103D01*
X13879500Y-5952897D01*
X13875810Y-5934347D01*
X13898098Y-5912060D01*
X14062614Y-5912060D01*
X14058783Y-5921309D01*
X14052500Y-5952897D01*
X14052500Y-5985103D01*
X14058783Y-6016691D01*
X14071108Y-6046446D01*
X14089001Y-6073225D01*
X14111775Y-6095999D01*
X14138554Y-6113892D01*
X14168309Y-6126217D01*
X14199897Y-6132500D01*
X14232103Y-6132500D01*
X14263691Y-6126217D01*
X14293446Y-6113892D01*
X14320225Y-6095999D01*
X14342999Y-6073225D01*
X14353506Y-6057500D01*
X14911013Y-6057500D01*
X14915360Y-6057928D01*
X14919707Y-6057500D01*
X14919708Y-6057500D01*
X14932709Y-6056219D01*
X14949391Y-6051159D01*
X14964766Y-6042941D01*
X14978242Y-6031882D01*
X14981013Y-6028504D01*
X15042492Y-5967026D01*
X15057819Y-5975218D01*
X15084869Y-5983424D01*
X15105951Y-5985500D01*
X15120049Y-5985500D01*
X15141131Y-5983424D01*
X15168181Y-5975218D01*
X15193110Y-5961893D01*
X15214961Y-5943961D01*
X15232893Y-5922110D01*
X15239417Y-5909905D01*
X15532500Y-6202988D01*
X15532500Y-6236548D01*
X15529524Y-6238536D01*
X15509536Y-6258524D01*
X15493832Y-6282027D01*
X15483015Y-6308143D01*
X15477500Y-6335866D01*
X15477500Y-6364133D01*
X15483015Y-6391857D01*
X15493832Y-6417973D01*
X15509536Y-6441476D01*
X15529524Y-6461464D01*
X15553027Y-6477168D01*
X15579143Y-6487985D01*
X15606866Y-6493500D01*
X15635133Y-6493500D01*
X15662857Y-6487985D01*
X15688973Y-6477168D01*
X15712476Y-6461464D01*
X15732464Y-6441476D01*
X15748168Y-6417973D01*
X15758985Y-6391857D01*
X15764500Y-6364133D01*
X15764500Y-6335866D01*
X15758985Y-6308143D01*
X15748168Y-6282027D01*
X15732464Y-6258524D01*
X15712476Y-6238536D01*
X15709500Y-6236548D01*
X15709500Y-6170677D01*
X15709928Y-6166330D01*
X15709500Y-6161983D01*
X15709500Y-6161982D01*
X15708219Y-6148981D01*
X15705750Y-6140841D01*
X15703159Y-6132299D01*
X15694941Y-6116924D01*
X15686653Y-6106825D01*
X15686653Y-6106825D01*
X15683882Y-6103448D01*
X15680505Y-6100677D01*
X15030267Y-5450439D01*
X15039258Y-5457104D01*
X15064691Y-5469125D01*
X15078096Y-5473190D01*
X15100300Y-5460992D01*
X15100300Y-5346700D01*
X15125700Y-5346700D01*
X15125700Y-5460992D01*
X15147904Y-5473190D01*
X15161309Y-5469125D01*
X15186742Y-5457104D01*
X15209341Y-5440352D01*
X15228238Y-5419513D01*
X15242707Y-5395388D01*
X15252191Y-5368904D01*
X15240062Y-5346700D01*
X15125700Y-5346700D01*
X15100300Y-5346700D01*
X15098300Y-5346700D01*
X15098300Y-5321300D01*
X15100300Y-5321300D01*
X15100300Y-5207009D01*
X15125700Y-5207009D01*
X15125700Y-5321300D01*
X15240062Y-5321300D01*
X15252191Y-5299096D01*
X15242707Y-5272612D01*
X15228238Y-5248487D01*
X15209341Y-5227648D01*
X15186742Y-5210896D01*
X15161309Y-5198875D01*
X15147904Y-5194810D01*
X15125700Y-5207009D01*
X15100300Y-5207009D01*
X15078096Y-5194810D01*
X15064691Y-5198875D01*
X15039258Y-5210896D01*
X15016659Y-5227648D01*
X15001823Y-5244008D01*
X15001581Y-5241552D01*
X14997950Y-5229582D01*
X14992054Y-5218551D01*
X14984118Y-5208882D01*
X14974449Y-5200946D01*
X14963418Y-5195050D01*
X14951448Y-5191419D01*
X14939000Y-5190193D01*
X14779000Y-5190193D01*
X14766552Y-5191419D01*
X14754582Y-5195050D01*
X14743551Y-5200946D01*
X14733881Y-5208882D01*
X14725946Y-5218551D01*
X14720050Y-5229582D01*
X14716419Y-5241552D01*
X14715193Y-5254000D01*
X14715193Y-5414000D01*
X14716419Y-5426448D01*
X14720050Y-5438418D01*
X14725946Y-5449449D01*
X14733881Y-5459119D01*
X14743551Y-5467054D01*
X14754582Y-5472950D01*
X14766552Y-5476581D01*
X14772005Y-5477118D01*
X14776841Y-5493061D01*
X14785059Y-5508436D01*
X14796118Y-5521912D01*
X14809594Y-5532971D01*
X14824969Y-5541189D01*
X14841651Y-5546250D01*
X14854652Y-5547530D01*
X14854652Y-5547530D01*
X14859000Y-5547958D01*
X14863348Y-5547530D01*
X14877042Y-5547530D01*
X15045095Y-5715583D01*
X15032890Y-5722107D01*
X15011039Y-5740039D01*
X14999992Y-5753500D01*
X14992318Y-5753500D01*
X14987970Y-5753072D01*
X14983622Y-5753500D01*
X14983622Y-5753500D01*
X14972876Y-5754558D01*
X14960961Y-5740039D01*
X14939110Y-5722107D01*
X14914181Y-5708782D01*
X14887131Y-5700576D01*
X14866049Y-5698500D01*
X14851951Y-5698500D01*
X14830869Y-5700576D01*
X14803819Y-5708782D01*
X14778890Y-5722107D01*
X14757039Y-5740039D01*
X14753982Y-5743764D01*
X14749561Y-5741401D01*
X14732879Y-5736340D01*
X14719878Y-5735060D01*
X14719877Y-5735060D01*
X14715530Y-5734632D01*
X14711183Y-5735060D01*
X13865786Y-5735060D01*
X13861440Y-5734632D01*
X13857093Y-5735060D01*
X13857092Y-5735060D01*
X13844091Y-5736340D01*
X13827409Y-5741401D01*
X13812034Y-5749619D01*
X13812034Y-5749619D01*
X13812034Y-5749619D01*
X13801935Y-5757907D01*
X13801935Y-5757907D01*
X13798558Y-5760678D01*
X13795787Y-5764055D01*
X13750652Y-5809190D01*
X13732103Y-5805500D01*
X13699897Y-5805500D01*
X13668309Y-5811783D01*
X13638554Y-5824108D01*
X13611775Y-5842001D01*
X13589001Y-5864775D01*
X13571108Y-5891554D01*
X13558783Y-5921309D01*
X13552500Y-5952897D01*
X13220234Y-5952897D01*
X13215331Y-5928251D01*
X13204800Y-5902827D01*
X13189512Y-5879946D01*
X13170053Y-5860488D01*
X13147173Y-5845199D01*
X13139448Y-5842000D01*
X13147173Y-5838800D01*
X13170053Y-5823512D01*
X13189512Y-5804053D01*
X13204800Y-5781173D01*
X13215331Y-5755749D01*
X13220700Y-5728759D01*
X13220700Y-5701241D01*
X13215331Y-5674251D01*
X13204800Y-5648827D01*
X13189512Y-5625946D01*
X13170053Y-5606488D01*
X13147173Y-5591200D01*
X13139448Y-5588000D01*
X13147173Y-5584801D01*
X13170053Y-5569512D01*
X13189512Y-5550054D01*
X13189882Y-5549500D01*
X13465653Y-5549500D01*
X13470000Y-5549928D01*
X13474347Y-5549500D01*
X13474348Y-5549500D01*
X13487349Y-5548220D01*
X13504031Y-5543159D01*
X13519406Y-5534941D01*
X13532882Y-5523882D01*
X13535653Y-5520504D01*
X13689347Y-5366810D01*
X13707897Y-5370500D01*
X13740103Y-5370500D01*
X13771691Y-5364217D01*
X13801446Y-5351892D01*
X13828225Y-5333999D01*
X13850999Y-5311225D01*
X13868892Y-5284446D01*
X13881217Y-5254691D01*
X13887500Y-5223103D01*
X13887500Y-5190897D01*
X13881217Y-5159309D01*
X13868892Y-5129554D01*
X13850999Y-5102775D01*
X13828225Y-5080001D01*
X13801446Y-5062108D01*
X13771691Y-5049783D01*
X13740103Y-5043500D01*
X13707897Y-5043500D01*
X13676309Y-5049783D01*
X13646554Y-5062108D01*
X13619775Y-5080001D01*
X13597001Y-5102775D01*
X13579108Y-5129554D01*
X13566783Y-5159309D01*
X13560500Y-5190897D01*
X13560500Y-5223103D01*
X13564190Y-5241653D01*
X13433342Y-5372500D01*
X13189882Y-5372500D01*
X13189512Y-5371947D01*
X13170053Y-5352488D01*
X13147173Y-5337200D01*
X13139448Y-5334000D01*
X13147173Y-5330801D01*
X13170053Y-5315512D01*
X13189512Y-5296054D01*
X13204800Y-5273173D01*
X13215331Y-5247749D01*
X13220700Y-5220759D01*
X13220700Y-5193241D01*
X13215331Y-5166251D01*
X13204800Y-5140827D01*
X13189512Y-5117947D01*
X13170053Y-5098488D01*
X13147173Y-5083200D01*
X13121749Y-5072669D01*
X13094759Y-5067300D01*
X13067241Y-5067300D01*
X13040251Y-5072669D01*
X13014827Y-5083200D01*
X12991946Y-5098488D01*
X12972488Y-5117947D01*
X12957199Y-5140827D01*
X12946669Y-5166251D01*
X12941300Y-5193241D01*
X12131000Y-5193241D01*
X12131000Y-4939241D01*
X12433300Y-4939241D01*
X12433300Y-4966759D01*
X12438669Y-4993749D01*
X12449199Y-5019173D01*
X12464488Y-5042054D01*
X12483946Y-5061512D01*
X12506827Y-5076801D01*
X12532251Y-5087331D01*
X12559241Y-5092700D01*
X12586759Y-5092700D01*
X12613749Y-5087331D01*
X12639173Y-5076801D01*
X12662053Y-5061512D01*
X12681512Y-5042054D01*
X12681882Y-5041500D01*
X13933342Y-5041500D01*
X14064190Y-5172348D01*
X14060500Y-5190897D01*
X14060500Y-5223103D01*
X14066783Y-5254691D01*
X14079108Y-5284446D01*
X14097001Y-5311225D01*
X14119775Y-5333999D01*
X14146554Y-5351892D01*
X14176309Y-5364217D01*
X14207897Y-5370500D01*
X14240103Y-5370500D01*
X14271691Y-5364217D01*
X14301446Y-5351892D01*
X14328225Y-5333999D01*
X14350999Y-5311225D01*
X14368892Y-5284446D01*
X14381217Y-5254691D01*
X14387500Y-5223103D01*
X14387500Y-5190897D01*
X14381217Y-5159309D01*
X14368892Y-5129554D01*
X14350999Y-5102775D01*
X14328225Y-5080001D01*
X14303529Y-5063500D01*
X15731193Y-5063500D01*
X15731193Y-5223500D01*
X15732419Y-5235948D01*
X15736050Y-5247918D01*
X15741946Y-5258949D01*
X15749881Y-5268619D01*
X15759551Y-5276554D01*
X15770582Y-5282450D01*
X15782552Y-5286081D01*
X15795000Y-5287307D01*
X15955000Y-5287307D01*
X15967448Y-5286081D01*
X15979418Y-5282450D01*
X15990449Y-5276554D01*
X16000118Y-5268619D01*
X16008054Y-5258949D01*
X16013950Y-5247918D01*
X16017581Y-5235948D01*
X16017970Y-5232000D01*
X16142992Y-5232000D01*
X16154039Y-5245461D01*
X16175890Y-5263393D01*
X16200819Y-5276718D01*
X16227869Y-5284924D01*
X16248951Y-5287000D01*
X16263049Y-5287000D01*
X16284131Y-5284924D01*
X16311181Y-5276718D01*
X16336110Y-5263393D01*
X16357961Y-5245461D01*
X16375893Y-5223610D01*
X16389218Y-5198681D01*
X16397424Y-5171631D01*
X16400194Y-5143500D01*
X16397424Y-5115369D01*
X16389218Y-5088319D01*
X16375893Y-5063390D01*
X16357961Y-5041539D01*
X16336110Y-5023607D01*
X16311181Y-5010282D01*
X16284131Y-5002076D01*
X16263049Y-5000000D01*
X16248951Y-5000000D01*
X16227869Y-5002076D01*
X16200819Y-5010282D01*
X16175890Y-5023607D01*
X16154039Y-5041539D01*
X16142992Y-5055000D01*
X16017970Y-5055000D01*
X16017581Y-5051052D01*
X16013950Y-5039082D01*
X16008054Y-5028051D01*
X16000118Y-5018382D01*
X15990449Y-5010446D01*
X15979418Y-5004550D01*
X15967448Y-5000919D01*
X15955000Y-4999693D01*
X15795000Y-4999693D01*
X15782552Y-5000919D01*
X15770582Y-5004550D01*
X15759551Y-5010446D01*
X15749881Y-5018382D01*
X15741946Y-5028051D01*
X15736050Y-5039082D01*
X15732419Y-5051052D01*
X15731193Y-5063500D01*
X14303529Y-5063500D01*
X14301446Y-5062108D01*
X14271691Y-5049783D01*
X14240103Y-5043500D01*
X14207897Y-5043500D01*
X14189347Y-5047190D01*
X14035653Y-4893496D01*
X14032882Y-4890118D01*
X14019406Y-4879059D01*
X14004031Y-4870841D01*
X13987349Y-4865781D01*
X13974348Y-4864500D01*
X13974347Y-4864500D01*
X13970000Y-4864072D01*
X13965653Y-4864500D01*
X13770267Y-4864500D01*
X13771691Y-4864217D01*
X13801446Y-4851892D01*
X13828225Y-4833999D01*
X13850999Y-4811225D01*
X13868892Y-4784446D01*
X13881217Y-4754691D01*
X13887500Y-4723103D01*
X13887500Y-4690897D01*
X13883810Y-4672348D01*
X13913198Y-4642960D01*
X14073555Y-4642960D01*
X14066783Y-4659309D01*
X14060500Y-4690897D01*
X14060500Y-4723103D01*
X14066783Y-4754691D01*
X14079108Y-4784446D01*
X14097001Y-4811225D01*
X14119775Y-4833999D01*
X14146554Y-4851892D01*
X14176309Y-4864217D01*
X14207897Y-4870500D01*
X14240103Y-4870500D01*
X14271691Y-4864217D01*
X14301446Y-4851892D01*
X14328225Y-4833999D01*
X14350999Y-4811225D01*
X14361506Y-4795500D01*
X14903013Y-4795500D01*
X14907360Y-4795928D01*
X14911707Y-4795500D01*
X14911708Y-4795500D01*
X14924709Y-4794220D01*
X14941391Y-4789159D01*
X14956766Y-4780941D01*
X14970242Y-4769882D01*
X14973013Y-4766504D01*
X15042492Y-4697026D01*
X15057819Y-4705218D01*
X15084869Y-4713424D01*
X15105951Y-4715500D01*
X15120049Y-4715500D01*
X15141131Y-4713424D01*
X15168181Y-4705218D01*
X15193110Y-4691893D01*
X15214961Y-4673961D01*
X15232893Y-4652110D01*
X15234983Y-4648200D01*
X16259500Y-4648200D01*
X16259500Y-4688200D01*
X16264351Y-4712050D01*
X16273761Y-4734495D01*
X16287369Y-4754673D01*
X16304653Y-4771808D01*
X16324947Y-4785242D01*
X16347472Y-4794459D01*
X16351239Y-4794846D01*
X16370300Y-4782373D01*
X16370300Y-4648200D01*
X16395700Y-4648200D01*
X16395700Y-4782373D01*
X16414761Y-4794846D01*
X16418528Y-4794459D01*
X16441053Y-4785242D01*
X16461347Y-4771808D01*
X16478631Y-4754673D01*
X16492239Y-4734495D01*
X16501649Y-4712050D01*
X16506500Y-4688200D01*
X16506500Y-4648200D01*
X16395700Y-4648200D01*
X16370300Y-4648200D01*
X16259500Y-4648200D01*
X15234983Y-4648200D01*
X15246218Y-4627181D01*
X15254424Y-4600131D01*
X15256130Y-4582800D01*
X16259500Y-4582800D01*
X16259500Y-4622800D01*
X16370300Y-4622800D01*
X16370300Y-4488627D01*
X16395700Y-4488627D01*
X16395700Y-4622800D01*
X16506500Y-4622800D01*
X16506500Y-4589434D01*
X16513500Y-4589434D01*
X16513500Y-4681567D01*
X16515287Y-4699710D01*
X16522349Y-4722990D01*
X16533817Y-4744445D01*
X16548500Y-4762337D01*
X16548500Y-4950622D01*
X16548072Y-4954970D01*
X16549780Y-4972319D01*
X16554841Y-4989001D01*
X16563059Y-5004376D01*
X16571347Y-5014475D01*
X16571347Y-5014475D01*
X16574118Y-5017852D01*
X16575133Y-5018684D01*
X16567446Y-5028051D01*
X16561550Y-5039082D01*
X16557919Y-5051052D01*
X16556693Y-5063500D01*
X16556693Y-5223500D01*
X16557919Y-5235948D01*
X16561550Y-5247918D01*
X16567446Y-5258949D01*
X16575381Y-5268619D01*
X16585051Y-5276554D01*
X16596082Y-5282450D01*
X16608052Y-5286081D01*
X16620500Y-5287307D01*
X16780500Y-5287307D01*
X16792948Y-5286081D01*
X16804918Y-5282450D01*
X16815949Y-5276554D01*
X16825619Y-5268619D01*
X16833554Y-5258949D01*
X16839450Y-5247918D01*
X16843081Y-5235948D01*
X16844307Y-5223500D01*
X16844307Y-5158465D01*
X17056500Y-5370658D01*
X17056500Y-5538048D01*
X17053524Y-5540036D01*
X17033536Y-5560024D01*
X17017832Y-5583527D01*
X17007015Y-5609643D01*
X17001500Y-5637366D01*
X17001500Y-5665633D01*
X17007015Y-5693357D01*
X17017832Y-5719473D01*
X17033536Y-5742976D01*
X17053524Y-5762964D01*
X17077027Y-5778668D01*
X17103143Y-5789485D01*
X17130867Y-5795000D01*
X17159134Y-5795000D01*
X17186857Y-5789485D01*
X17212973Y-5778668D01*
X17236476Y-5762964D01*
X17256464Y-5742976D01*
X17272168Y-5719473D01*
X17282985Y-5693357D01*
X17288500Y-5665633D01*
X17288500Y-5637366D01*
X17282985Y-5609643D01*
X17272168Y-5583527D01*
X17256464Y-5560024D01*
X17236476Y-5540036D01*
X17233500Y-5538048D01*
X17233500Y-5338347D01*
X17233928Y-5334000D01*
X17233500Y-5329653D01*
X17233500Y-5329652D01*
X17232220Y-5316651D01*
X17227159Y-5299969D01*
X17218941Y-5284594D01*
X17207882Y-5271118D01*
X17204505Y-5268347D01*
X16979500Y-5043342D01*
X16979500Y-4762337D01*
X16994183Y-4744445D01*
X17005651Y-4722990D01*
X17012713Y-4699710D01*
X17014500Y-4681566D01*
X17014500Y-4589434D01*
X17021500Y-4589434D01*
X17021500Y-4681567D01*
X17023287Y-4699710D01*
X17030349Y-4722990D01*
X17041817Y-4744445D01*
X17056500Y-4762337D01*
X17056500Y-4776182D01*
X17056072Y-4780530D01*
X17057781Y-4797879D01*
X17062841Y-4814561D01*
X17071059Y-4829936D01*
X17079347Y-4840035D01*
X17079347Y-4840035D01*
X17082118Y-4843412D01*
X17085495Y-4846183D01*
X17519830Y-5280518D01*
X17515015Y-5292143D01*
X17509500Y-5319867D01*
X17509500Y-5348134D01*
X17515015Y-5375857D01*
X17525832Y-5401973D01*
X17541536Y-5425476D01*
X17561524Y-5445464D01*
X17585027Y-5461168D01*
X17611143Y-5471985D01*
X17638867Y-5477500D01*
X17667134Y-5477500D01*
X17694857Y-5471985D01*
X17720973Y-5461168D01*
X17744476Y-5445464D01*
X17764464Y-5425476D01*
X17780168Y-5401973D01*
X17790985Y-5375857D01*
X17796500Y-5348134D01*
X17796500Y-5319867D01*
X17790985Y-5292143D01*
X17780168Y-5266027D01*
X17764464Y-5242524D01*
X17744476Y-5222536D01*
X17720973Y-5206832D01*
X17694857Y-5196015D01*
X17683355Y-5193727D01*
X17241823Y-4752195D01*
X17248183Y-4744445D01*
X17259651Y-4722990D01*
X17266713Y-4699710D01*
X17268500Y-4681566D01*
X17268500Y-4589434D01*
X17266713Y-4571290D01*
X17259651Y-4548010D01*
X17248183Y-4526555D01*
X17232750Y-4507750D01*
X17213945Y-4492317D01*
X17192490Y-4480849D01*
X17169210Y-4473787D01*
X17145000Y-4471403D01*
X17120790Y-4473787D01*
X17097510Y-4480849D01*
X17076055Y-4492317D01*
X17057250Y-4507750D01*
X17041817Y-4526555D01*
X17030349Y-4548010D01*
X17023287Y-4571290D01*
X17021500Y-4589434D01*
X17014500Y-4589434D01*
X17014500Y-4589434D01*
X17012713Y-4571290D01*
X17005651Y-4548010D01*
X16994183Y-4526555D01*
X16978750Y-4507750D01*
X16959945Y-4492317D01*
X16938490Y-4480849D01*
X16915210Y-4473787D01*
X16891000Y-4471403D01*
X16866790Y-4473787D01*
X16843510Y-4480849D01*
X16822055Y-4492317D01*
X16803250Y-4507750D01*
X16787817Y-4526555D01*
X16776349Y-4548010D01*
X16769287Y-4571290D01*
X16767500Y-4589434D01*
X16767500Y-4681567D01*
X16769287Y-4699710D01*
X16776349Y-4722990D01*
X16787817Y-4744445D01*
X16802500Y-4762337D01*
X16802500Y-5003816D01*
X16792948Y-5000919D01*
X16787495Y-5000382D01*
X16782659Y-4984439D01*
X16782659Y-4984439D01*
X16774441Y-4969064D01*
X16766153Y-4958965D01*
X16766153Y-4958965D01*
X16763382Y-4955588D01*
X16760005Y-4952817D01*
X16725500Y-4918312D01*
X16725500Y-4762337D01*
X16740183Y-4744445D01*
X16751651Y-4722990D01*
X16758713Y-4699710D01*
X16760500Y-4681566D01*
X16760500Y-4589434D01*
X16758713Y-4571290D01*
X16751651Y-4548010D01*
X16740183Y-4526555D01*
X16724750Y-4507750D01*
X16705945Y-4492317D01*
X16684490Y-4480849D01*
X16661210Y-4473787D01*
X16637000Y-4471403D01*
X16612790Y-4473787D01*
X16589510Y-4480849D01*
X16568055Y-4492317D01*
X16549250Y-4507750D01*
X16533817Y-4526555D01*
X16522349Y-4548010D01*
X16515287Y-4571290D01*
X16513500Y-4589434D01*
X16506500Y-4589434D01*
X16506500Y-4582800D01*
X16501649Y-4558950D01*
X16492239Y-4536505D01*
X16478631Y-4516328D01*
X16461347Y-4499192D01*
X16441053Y-4485758D01*
X16418528Y-4476541D01*
X16414761Y-4476154D01*
X16395700Y-4488627D01*
X16370300Y-4488627D01*
X16351239Y-4476154D01*
X16347472Y-4476541D01*
X16324947Y-4485758D01*
X16304653Y-4499192D01*
X16287369Y-4516328D01*
X16273761Y-4536505D01*
X16264351Y-4558950D01*
X16259500Y-4582800D01*
X15256130Y-4582800D01*
X15257194Y-4572000D01*
X15254424Y-4543869D01*
X15246218Y-4516819D01*
X15232893Y-4491890D01*
X15214961Y-4470039D01*
X15193110Y-4452107D01*
X15168181Y-4438782D01*
X15141131Y-4430576D01*
X15120049Y-4428500D01*
X15105951Y-4428500D01*
X15084869Y-4430576D01*
X15057819Y-4438782D01*
X15032890Y-4452107D01*
X15011039Y-4470039D01*
X14999992Y-4483500D01*
X14992318Y-4483500D01*
X14987970Y-4483072D01*
X14983622Y-4483500D01*
X14972876Y-4484558D01*
X14960961Y-4470039D01*
X14939110Y-4452107D01*
X14914181Y-4438782D01*
X14887131Y-4430576D01*
X14866049Y-4428500D01*
X14851951Y-4428500D01*
X14830869Y-4430576D01*
X14803819Y-4438782D01*
X14778890Y-4452107D01*
X14757039Y-4470039D01*
X14753743Y-4474055D01*
X14750461Y-4472301D01*
X14733779Y-4467241D01*
X14720778Y-4465960D01*
X14720777Y-4465960D01*
X14716430Y-4465532D01*
X14712083Y-4465960D01*
X13880886Y-4465960D01*
X13876540Y-4465532D01*
X13872193Y-4465960D01*
X13872192Y-4465960D01*
X13859191Y-4467241D01*
X13842509Y-4472301D01*
X13827134Y-4480519D01*
X13827134Y-4480519D01*
X13827134Y-4480519D01*
X13817035Y-4488807D01*
X13817035Y-4488807D01*
X13813658Y-4491578D01*
X13810887Y-4494955D01*
X13758652Y-4547190D01*
X13740103Y-4543500D01*
X13707897Y-4543500D01*
X13676309Y-4549783D01*
X13646554Y-4562108D01*
X13619775Y-4580001D01*
X13597001Y-4602775D01*
X13579108Y-4629554D01*
X13566783Y-4659309D01*
X13560500Y-4690897D01*
X13560500Y-4723103D01*
X13566783Y-4754691D01*
X13579108Y-4784446D01*
X13597001Y-4811225D01*
X13619775Y-4833999D01*
X13646554Y-4851892D01*
X13676309Y-4864217D01*
X13677732Y-4864500D01*
X12681882Y-4864500D01*
X12681512Y-4863947D01*
X12662053Y-4844488D01*
X12639173Y-4829200D01*
X12613749Y-4818669D01*
X12586759Y-4813300D01*
X12559241Y-4813300D01*
X12532251Y-4818669D01*
X12506827Y-4829200D01*
X12483946Y-4844488D01*
X12464488Y-4863947D01*
X12449199Y-4886827D01*
X12438669Y-4912251D01*
X12433300Y-4939241D01*
X12131000Y-4939241D01*
X12131000Y-4431241D01*
X12941300Y-4431241D01*
X12941300Y-4458759D01*
X12946669Y-4485749D01*
X12957199Y-4511173D01*
X12972488Y-4534054D01*
X12991946Y-4553512D01*
X13014827Y-4568801D01*
X13022551Y-4572000D01*
X13014827Y-4575200D01*
X12991946Y-4590488D01*
X12972488Y-4609947D01*
X12957199Y-4632827D01*
X12946669Y-4658251D01*
X12941300Y-4685241D01*
X12941300Y-4712759D01*
X12946669Y-4739749D01*
X12957199Y-4765173D01*
X12972488Y-4788054D01*
X12991946Y-4807512D01*
X13014827Y-4822801D01*
X13040251Y-4833331D01*
X13067241Y-4838700D01*
X13094759Y-4838700D01*
X13121749Y-4833331D01*
X13147173Y-4822801D01*
X13170053Y-4807512D01*
X13189512Y-4788054D01*
X13204800Y-4765173D01*
X13215331Y-4739749D01*
X13220700Y-4712759D01*
X13220700Y-4685241D01*
X13215331Y-4658251D01*
X13204800Y-4632827D01*
X13189512Y-4609947D01*
X13170053Y-4590488D01*
X13147173Y-4575200D01*
X13139448Y-4572000D01*
X13147173Y-4568801D01*
X13170053Y-4553512D01*
X13189512Y-4534054D01*
X13204800Y-4511173D01*
X13215331Y-4485749D01*
X13220700Y-4458759D01*
X13220700Y-4431241D01*
X13215331Y-4404251D01*
X13204800Y-4378827D01*
X13189512Y-4355947D01*
X13170053Y-4336488D01*
X13147173Y-4321200D01*
X13121749Y-4310669D01*
X13094759Y-4305300D01*
X13067241Y-4305300D01*
X13040251Y-4310669D01*
X13014827Y-4321200D01*
X12991946Y-4336488D01*
X12972488Y-4355947D01*
X12957199Y-4378827D01*
X12946669Y-4404251D01*
X12941300Y-4431241D01*
X12131000Y-4431241D01*
X12131000Y-4257000D01*
X20508000Y-4257000D01*
X20508000Y-7428842D01*
G36*
X18450524Y-6238536D02*
G01*
X18430536Y-6258524D01*
X18414832Y-6282027D01*
X18404015Y-6308143D01*
X18398500Y-6335866D01*
X18398500Y-6364133D01*
X18404015Y-6391857D01*
X18414832Y-6417973D01*
X18430536Y-6441476D01*
X18450524Y-6461464D01*
X18474027Y-6477168D01*
X18500143Y-6487985D01*
X18527867Y-6493500D01*
X18556134Y-6493500D01*
X18583857Y-6487985D01*
X18609973Y-6477168D01*
X18633476Y-6461464D01*
X18653464Y-6441476D01*
X18655452Y-6438500D01*
X18682992Y-6438500D01*
X18694039Y-6451961D01*
X18715890Y-6469893D01*
X18740819Y-6483218D01*
X18767869Y-6491424D01*
X18788951Y-6493500D01*
X18803049Y-6493500D01*
X18824131Y-6491424D01*
X18851181Y-6483218D01*
X18876110Y-6469893D01*
X18897891Y-6452018D01*
X19088500Y-6642628D01*
X19088500Y-6731163D01*
X19073817Y-6749055D01*
X19062349Y-6770510D01*
X19055287Y-6793790D01*
X19053500Y-6811934D01*
X19053500Y-6904066D01*
X19054531Y-6914530D01*
X19045721Y-6914530D01*
X19046500Y-6910700D01*
X19046500Y-6870700D01*
X18935700Y-6870700D01*
X18935700Y-6872700D01*
X18910300Y-6872700D01*
X18910300Y-6870700D01*
X18799500Y-6870700D01*
X18799500Y-6910700D01*
X18800279Y-6914530D01*
X18676257Y-6914530D01*
X18671910Y-6914102D01*
X18667563Y-6914530D01*
X18667562Y-6914530D01*
X18654561Y-6915810D01*
X18637879Y-6920871D01*
X18622504Y-6929089D01*
X18622504Y-6929089D01*
X18622504Y-6929089D01*
X18612405Y-6937377D01*
X18612405Y-6937377D01*
X18609028Y-6940148D01*
X18606257Y-6943525D01*
X18191925Y-7357857D01*
X18188548Y-7360628D01*
X18185777Y-7364005D01*
X18185777Y-7364005D01*
X18177489Y-7374104D01*
X18169271Y-7389479D01*
X18164211Y-7406161D01*
X18162502Y-7423510D01*
X18162930Y-7427858D01*
X18162930Y-7557583D01*
X18162502Y-7561930D01*
X18162930Y-7566277D01*
X18162930Y-7566278D01*
X18163451Y-7571564D01*
X18164211Y-7579279D01*
X18165014Y-7581928D01*
X18169271Y-7595961D01*
X18177489Y-7611336D01*
X18188548Y-7624812D01*
X18191926Y-7627583D01*
X19115232Y-8550890D01*
X18848048Y-8550890D01*
X18839268Y-8542110D01*
X18845500Y-8510778D01*
X18845500Y-8475222D01*
X18838564Y-8440350D01*
X18824957Y-8407501D01*
X18805204Y-8377938D01*
X18780062Y-8352796D01*
X18750499Y-8333043D01*
X18717650Y-8319436D01*
X18682778Y-8312500D01*
X18647222Y-8312500D01*
X18612350Y-8319436D01*
X18579501Y-8333043D01*
X18549938Y-8352796D01*
X18524797Y-8377938D01*
X18505043Y-8407501D01*
X18495353Y-8430895D01*
X18255620Y-8191162D01*
X18255620Y-7877497D01*
X18256048Y-7873150D01*
X18255620Y-7868803D01*
X18255620Y-7868802D01*
X18254340Y-7855801D01*
X18249279Y-7839119D01*
X18241061Y-7823744D01*
X18237454Y-7819349D01*
X18232773Y-7813645D01*
X18232773Y-7813645D01*
X18230002Y-7810268D01*
X18226625Y-7807497D01*
X17775430Y-7356302D01*
X17781054Y-7349449D01*
X17786950Y-7338418D01*
X17790581Y-7326448D01*
X17791807Y-7314000D01*
X17791807Y-7164000D01*
X17790581Y-7151552D01*
X17786950Y-7139582D01*
X17781054Y-7128551D01*
X17773119Y-7118881D01*
X17763449Y-7110946D01*
X17752418Y-7105050D01*
X17740448Y-7101419D01*
X17728000Y-7100193D01*
X17578000Y-7100193D01*
X17565552Y-7101419D01*
X17553582Y-7105050D01*
X17542551Y-7110946D01*
X17532882Y-7118881D01*
X17524946Y-7128551D01*
X17519050Y-7139582D01*
X17515419Y-7151552D01*
X17514193Y-7164000D01*
X17514193Y-7314000D01*
X17515419Y-7326448D01*
X17519050Y-7338418D01*
X17524946Y-7349449D01*
X17532882Y-7359118D01*
X17542551Y-7367054D01*
X17553582Y-7372950D01*
X17565552Y-7376581D01*
X17565851Y-7376611D01*
X17570841Y-7393061D01*
X17579059Y-7408436D01*
X17587347Y-7418535D01*
X17587347Y-7418535D01*
X17590118Y-7421912D01*
X17593495Y-7424683D01*
X17903112Y-7734300D01*
X17893241Y-7734300D01*
X17866251Y-7739669D01*
X17840827Y-7750199D01*
X17817947Y-7765488D01*
X17798488Y-7784946D01*
X17783200Y-7807827D01*
X17780000Y-7815551D01*
X17776801Y-7807827D01*
X17761512Y-7784946D01*
X17742054Y-7765488D01*
X17719173Y-7750199D01*
X17693749Y-7739669D01*
X17666759Y-7734300D01*
X17639241Y-7734300D01*
X17612251Y-7739669D01*
X17586827Y-7750199D01*
X17563947Y-7765488D01*
X17544488Y-7784946D01*
X17529200Y-7807827D01*
X17518669Y-7833251D01*
X17513300Y-7860241D01*
X17513300Y-7887759D01*
X17518669Y-7914749D01*
X17529200Y-7940173D01*
X17544488Y-7963053D01*
X17563947Y-7982512D01*
X17586827Y-7997800D01*
X17612251Y-8008331D01*
X17639241Y-8013700D01*
X17666759Y-8013700D01*
X17693749Y-8008331D01*
X17719173Y-7997800D01*
X17742054Y-7982512D01*
X17761512Y-7963053D01*
X17776801Y-7940173D01*
X17780000Y-7932448D01*
X17783200Y-7940173D01*
X17798488Y-7963053D01*
X17817947Y-7982512D01*
X17818500Y-7982882D01*
X17818500Y-8039052D01*
X17528437Y-8329116D01*
X17525764Y-8321698D01*
X17519566Y-8310102D01*
X17495557Y-8303404D01*
X17416961Y-8382000D01*
X17418375Y-8383414D01*
X17400414Y-8401375D01*
X17399000Y-8399961D01*
X17397586Y-8401375D01*
X17379625Y-8383414D01*
X17381040Y-8382000D01*
X17302444Y-8303404D01*
X17278434Y-8310102D01*
X17266724Y-8335005D01*
X17260098Y-8361713D01*
X17258809Y-8389202D01*
X17262654Y-8414730D01*
X16137815Y-8414730D01*
X16140902Y-8402287D01*
X16142191Y-8374798D01*
X16138344Y-8349260D01*
X16499893Y-8349260D01*
X16504240Y-8349688D01*
X16508587Y-8349260D01*
X16508588Y-8349260D01*
X16521589Y-8347979D01*
X16538271Y-8342919D01*
X16553646Y-8334701D01*
X16567122Y-8323642D01*
X16569893Y-8320264D01*
X16604714Y-8285443D01*
X17320404Y-8285443D01*
X17399000Y-8364039D01*
X17477596Y-8285443D01*
X17470898Y-8261434D01*
X17445995Y-8249724D01*
X17419287Y-8243098D01*
X17391798Y-8241809D01*
X17364587Y-8245908D01*
X17338698Y-8255236D01*
X17327102Y-8261434D01*
X17320404Y-8285443D01*
X16604714Y-8285443D01*
X16876588Y-8013570D01*
X16877241Y-8013700D01*
X16904759Y-8013700D01*
X16931749Y-8008331D01*
X16957173Y-7997800D01*
X16980054Y-7982512D01*
X16999512Y-7963053D01*
X17014801Y-7940173D01*
X17018000Y-7932448D01*
X17021200Y-7940173D01*
X17036488Y-7963053D01*
X17055947Y-7982512D01*
X17078827Y-7997800D01*
X17104251Y-8008331D01*
X17131241Y-8013700D01*
X17158759Y-8013700D01*
X17185749Y-8008331D01*
X17211173Y-7997800D01*
X17234054Y-7982512D01*
X17253512Y-7963053D01*
X17268801Y-7940173D01*
X17279331Y-7914749D01*
X17284700Y-7887759D01*
X17284700Y-7860241D01*
X17279331Y-7833251D01*
X17268801Y-7807827D01*
X17253512Y-7784946D01*
X17234054Y-7765488D01*
X17211173Y-7750199D01*
X17185749Y-7739669D01*
X17158759Y-7734300D01*
X17131241Y-7734300D01*
X17104251Y-7739669D01*
X17078827Y-7750199D01*
X17055947Y-7765488D01*
X17036488Y-7784946D01*
X17021200Y-7807827D01*
X17018000Y-7815551D01*
X17014801Y-7807827D01*
X16999512Y-7784946D01*
X16980054Y-7765488D01*
X16957173Y-7750199D01*
X16931749Y-7739669D01*
X16904759Y-7734300D01*
X16877241Y-7734300D01*
X16850251Y-7739669D01*
X16824827Y-7750199D01*
X16801947Y-7765488D01*
X16782488Y-7784946D01*
X16767199Y-7807827D01*
X16756669Y-7833251D01*
X16751300Y-7860241D01*
X16751300Y-7887759D01*
X16751430Y-7888412D01*
X16467582Y-8172260D01*
X15951187Y-8172260D01*
X15946840Y-8171832D01*
X15942493Y-8172260D01*
X15942492Y-8172260D01*
X15929491Y-8173540D01*
X15912809Y-8178601D01*
X15904241Y-8183181D01*
X15897434Y-8186819D01*
X15887335Y-8195107D01*
X15887335Y-8195107D01*
X15883958Y-8197878D01*
X15881187Y-8201255D01*
X15821245Y-8261197D01*
X15817868Y-8263968D01*
X15815097Y-8267345D01*
X15815097Y-8267345D01*
X15806809Y-8277444D01*
X15798591Y-8292819D01*
X15793530Y-8309501D01*
X15791822Y-8326850D01*
X15792250Y-8331198D01*
X15792250Y-8434603D01*
X15791822Y-8438950D01*
X15792250Y-8443297D01*
X15792250Y-8443298D01*
X15793287Y-8453824D01*
X15793530Y-8456299D01*
X15793950Y-8457681D01*
X15798591Y-8472981D01*
X15806809Y-8488356D01*
X15817868Y-8501832D01*
X15821246Y-8504603D01*
X15879377Y-8562735D01*
X15882148Y-8566112D01*
X15885525Y-8568883D01*
X15885525Y-8568883D01*
X15891308Y-8573629D01*
X15895624Y-8577171D01*
X15910999Y-8585389D01*
X15927681Y-8590450D01*
X15940682Y-8591730D01*
X15940683Y-8591730D01*
X15945030Y-8592158D01*
X15949376Y-8591730D01*
X17475133Y-8591730D01*
X17479480Y-8592158D01*
X17483827Y-8591730D01*
X17483828Y-8591730D01*
X17496829Y-8590450D01*
X17513511Y-8585389D01*
X17528886Y-8577171D01*
X17542362Y-8566112D01*
X17545133Y-8562734D01*
X17907000Y-8200868D01*
X18530132Y-8824000D01*
X14214638Y-8824000D01*
X14278497Y-8760141D01*
X14283027Y-8763168D01*
X14309143Y-8773985D01*
X14336866Y-8779500D01*
X14365133Y-8779500D01*
X14392857Y-8773985D01*
X14418973Y-8763168D01*
X14442476Y-8747464D01*
X14462464Y-8727476D01*
X14478000Y-8704224D01*
X14493536Y-8727476D01*
X14513524Y-8747464D01*
X14537027Y-8763168D01*
X14563143Y-8773985D01*
X14590866Y-8779500D01*
X14619133Y-8779500D01*
X14646857Y-8773985D01*
X14672973Y-8763168D01*
X14696476Y-8747464D01*
X14716464Y-8727476D01*
X14732000Y-8704224D01*
X14747536Y-8727476D01*
X14767524Y-8747464D01*
X14791027Y-8763168D01*
X14817143Y-8773985D01*
X14844866Y-8779500D01*
X14873133Y-8779500D01*
X14900857Y-8773985D01*
X14926973Y-8763168D01*
X14950476Y-8747464D01*
X14970464Y-8727476D01*
X14986000Y-8704224D01*
X15001536Y-8727476D01*
X15021524Y-8747464D01*
X15045027Y-8763168D01*
X15071143Y-8773985D01*
X15098866Y-8779500D01*
X15127133Y-8779500D01*
X15154857Y-8773985D01*
X15180973Y-8763168D01*
X15204476Y-8747464D01*
X15224464Y-8727476D01*
X15240168Y-8703973D01*
X15250985Y-8677857D01*
X15256500Y-8650134D01*
X15256500Y-8621867D01*
X15250985Y-8594143D01*
X15240168Y-8568027D01*
X15224464Y-8544524D01*
X15204476Y-8524536D01*
X15180973Y-8508832D01*
X15154857Y-8498015D01*
X15127133Y-8492500D01*
X15098866Y-8492500D01*
X15071143Y-8498015D01*
X15045027Y-8508832D01*
X15021524Y-8524536D01*
X15001536Y-8544524D01*
X14986000Y-8567776D01*
X14970464Y-8544524D01*
X14950476Y-8524536D01*
X14926973Y-8508832D01*
X14900857Y-8498015D01*
X14873571Y-8492587D01*
X15279208Y-8086950D01*
X15616652Y-8086950D01*
X15621000Y-8087378D01*
X15625348Y-8086950D01*
X16381203Y-8086950D01*
X16385550Y-8087378D01*
X16389897Y-8086950D01*
X16389898Y-8086950D01*
X16402899Y-8085669D01*
X16419581Y-8080609D01*
X16434956Y-8072391D01*
X16448432Y-8061332D01*
X16451203Y-8057954D01*
X16495588Y-8013570D01*
X16496241Y-8013700D01*
X16523759Y-8013700D01*
X16550749Y-8008331D01*
X16576173Y-7997800D01*
X16599053Y-7982512D01*
X16618512Y-7963053D01*
X16633800Y-7940173D01*
X16644331Y-7914749D01*
X16649700Y-7887759D01*
X16649700Y-7860241D01*
X16644331Y-7833251D01*
X16633800Y-7807827D01*
X16618512Y-7784946D01*
X16599053Y-7765488D01*
X16576173Y-7750199D01*
X16550749Y-7739669D01*
X16523759Y-7734300D01*
X16496241Y-7734300D01*
X16469251Y-7739669D01*
X16443827Y-7750199D01*
X16420946Y-7765488D01*
X16401488Y-7784946D01*
X16386199Y-7807827D01*
X16383000Y-7815551D01*
X16379800Y-7807827D01*
X16364512Y-7784946D01*
X16345053Y-7765488D01*
X16322173Y-7750199D01*
X16296749Y-7739669D01*
X16269759Y-7734300D01*
X16242241Y-7734300D01*
X16215251Y-7739669D01*
X16189827Y-7750199D01*
X16166946Y-7765488D01*
X16147488Y-7784946D01*
X16132199Y-7807827D01*
X16121669Y-7833251D01*
X16116300Y-7860241D01*
X16116300Y-7887759D01*
X16120714Y-7909950D01*
X15883286Y-7909950D01*
X15887700Y-7887759D01*
X15887700Y-7860241D01*
X15882331Y-7833251D01*
X15871800Y-7807827D01*
X15856512Y-7784946D01*
X15837053Y-7765488D01*
X15814173Y-7750199D01*
X15788749Y-7739669D01*
X15761759Y-7734300D01*
X15734241Y-7734300D01*
X15707251Y-7739669D01*
X15681827Y-7750199D01*
X15676061Y-7754053D01*
X15574493Y-7652486D01*
X15571722Y-7649108D01*
X15570127Y-7647800D01*
X16056383Y-7647800D01*
X16060730Y-7648228D01*
X16065077Y-7647800D01*
X16065078Y-7647800D01*
X16078079Y-7646519D01*
X16094761Y-7641459D01*
X16110136Y-7633241D01*
X16123612Y-7622182D01*
X16126383Y-7618804D01*
X16366500Y-7378688D01*
X16366500Y-7380133D01*
X16372015Y-7407857D01*
X16382832Y-7433973D01*
X16398536Y-7457476D01*
X16418524Y-7477464D01*
X16442027Y-7493168D01*
X16468143Y-7503985D01*
X16495866Y-7509500D01*
X16524133Y-7509500D01*
X16551857Y-7503985D01*
X16577973Y-7493168D01*
X16601476Y-7477464D01*
X16621464Y-7457476D01*
X16623452Y-7454500D01*
X17235342Y-7454500D01*
X17260500Y-7479658D01*
X17260500Y-7506641D01*
X17265823Y-7533399D01*
X17276263Y-7558604D01*
X17291420Y-7581289D01*
X17310711Y-7600580D01*
X17333396Y-7615737D01*
X17358601Y-7626177D01*
X17385359Y-7631500D01*
X17412641Y-7631500D01*
X17439399Y-7626177D01*
X17464604Y-7615737D01*
X17487289Y-7600580D01*
X17506580Y-7581289D01*
X17521737Y-7558604D01*
X17532178Y-7533399D01*
X17537500Y-7506641D01*
X17537500Y-7479359D01*
X17532178Y-7452601D01*
X17521737Y-7427396D01*
X17506580Y-7404711D01*
X17487289Y-7385420D01*
X17464604Y-7370263D01*
X17439399Y-7359822D01*
X17412641Y-7354500D01*
X17385658Y-7354500D01*
X17337653Y-7306495D01*
X17334882Y-7303118D01*
X17321406Y-7292059D01*
X17306031Y-7283841D01*
X17289349Y-7278780D01*
X17278109Y-7277673D01*
X17282725Y-7259004D01*
X17283981Y-7231751D01*
X17279897Y-7204776D01*
X17270628Y-7179117D01*
X17264586Y-7167814D01*
X17240699Y-7161261D01*
X17162961Y-7239000D01*
X17164375Y-7240414D01*
X17146414Y-7258375D01*
X17145000Y-7256960D01*
X17143586Y-7258375D01*
X17125625Y-7240414D01*
X17127040Y-7239000D01*
X17049301Y-7161261D01*
X17025414Y-7167814D01*
X17013824Y-7192512D01*
X17007275Y-7218996D01*
X17006019Y-7246249D01*
X17010104Y-7273224D01*
X17011648Y-7277500D01*
X16623452Y-7277500D01*
X16621464Y-7274524D01*
X16601476Y-7254536D01*
X16577973Y-7238832D01*
X16551857Y-7228015D01*
X16524133Y-7222500D01*
X16522688Y-7222500D01*
X16601887Y-7143301D01*
X17067261Y-7143301D01*
X17145000Y-7221039D01*
X17222739Y-7143301D01*
X17216186Y-7119414D01*
X17191488Y-7107824D01*
X17165004Y-7101275D01*
X17137751Y-7100019D01*
X17110776Y-7104103D01*
X17085117Y-7113372D01*
X17073814Y-7119414D01*
X17067261Y-7143301D01*
X16601887Y-7143301D01*
X16909188Y-6836000D01*
X17060653Y-6836000D01*
X17065000Y-6836428D01*
X17069347Y-6836000D01*
X17069348Y-6836000D01*
X17082349Y-6834719D01*
X17099031Y-6829659D01*
X17114406Y-6821441D01*
X17127882Y-6810382D01*
X17128165Y-6810036D01*
X17137951Y-6811000D01*
X17152049Y-6811000D01*
X17173131Y-6808924D01*
X17185076Y-6805300D01*
X18799500Y-6805300D01*
X18799500Y-6845300D01*
X18910300Y-6845300D01*
X18910300Y-6711127D01*
X18935700Y-6711127D01*
X18935700Y-6845300D01*
X19046500Y-6845300D01*
X19046500Y-6805300D01*
X19041649Y-6781450D01*
X19032239Y-6759005D01*
X19018631Y-6738827D01*
X19001347Y-6721692D01*
X18981053Y-6708258D01*
X18958528Y-6699041D01*
X18954761Y-6698654D01*
X18935700Y-6711127D01*
X18910300Y-6711127D01*
X18891239Y-6698654D01*
X18887472Y-6699041D01*
X18864947Y-6708258D01*
X18844653Y-6721692D01*
X18827369Y-6738827D01*
X18813761Y-6759005D01*
X18804351Y-6781450D01*
X18799500Y-6805300D01*
X17185076Y-6805300D01*
X17200181Y-6800718D01*
X17225110Y-6787393D01*
X17246961Y-6769461D01*
X17264893Y-6747610D01*
X17278218Y-6722681D01*
X17286424Y-6695631D01*
X17289194Y-6667500D01*
X17286424Y-6639369D01*
X17278218Y-6612319D01*
X17264893Y-6587390D01*
X17246961Y-6565539D01*
X17225110Y-6547607D01*
X17200181Y-6534282D01*
X17173131Y-6526076D01*
X17152049Y-6524000D01*
X17137951Y-6524000D01*
X17116869Y-6526076D01*
X17089819Y-6534282D01*
X17064890Y-6547607D01*
X17043039Y-6565539D01*
X17025107Y-6587390D01*
X17011782Y-6612319D01*
X17003576Y-6639369D01*
X17001643Y-6659000D01*
X16876877Y-6659000D01*
X16872530Y-6658572D01*
X16868183Y-6659000D01*
X16868182Y-6659000D01*
X16855181Y-6660280D01*
X16838499Y-6665341D01*
X16823124Y-6673559D01*
X16823124Y-6673559D01*
X16823124Y-6673559D01*
X16813025Y-6681847D01*
X16813025Y-6681847D01*
X16809648Y-6684618D01*
X16806877Y-6687995D01*
X16779641Y-6715231D01*
X16778424Y-6702869D01*
X16770218Y-6675819D01*
X16756893Y-6650890D01*
X16738961Y-6629039D01*
X16725500Y-6617992D01*
X16725500Y-6463008D01*
X16738961Y-6451961D01*
X16756893Y-6430110D01*
X16770218Y-6405181D01*
X16778424Y-6378131D01*
X16781194Y-6350000D01*
X16778424Y-6321869D01*
X16774556Y-6309120D01*
X17361932Y-6309120D01*
X17462317Y-6409505D01*
X17465088Y-6412882D01*
X17468465Y-6415653D01*
X17468465Y-6415653D01*
X17478564Y-6423941D01*
X17493939Y-6432159D01*
X17503201Y-6434969D01*
X17510621Y-6437219D01*
X17523622Y-6438500D01*
X17523623Y-6438500D01*
X17527970Y-6438928D01*
X17532317Y-6438500D01*
X17539992Y-6438500D01*
X17551039Y-6451961D01*
X17572890Y-6469893D01*
X17597819Y-6483218D01*
X17624869Y-6491424D01*
X17645951Y-6493500D01*
X17660049Y-6493500D01*
X17681131Y-6491424D01*
X17708181Y-6483218D01*
X17733110Y-6469893D01*
X17754961Y-6451961D01*
X17772893Y-6430110D01*
X17786218Y-6405181D01*
X17794424Y-6378131D01*
X17797194Y-6350000D01*
X17794424Y-6321869D01*
X17786218Y-6294819D01*
X17772893Y-6269890D01*
X17754961Y-6248039D01*
X17740413Y-6236100D01*
X18454170Y-6236100D01*
X18450524Y-6238536D01*
X18450524Y-6238536D01*
G37*
X18450524Y-6238536D02*
X18430536Y-6258524D01*
X18414832Y-6282027D01*
X18404015Y-6308143D01*
X18398500Y-6335866D01*
X18398500Y-6364133D01*
X18404015Y-6391857D01*
X18414832Y-6417973D01*
X18430536Y-6441476D01*
X18450524Y-6461464D01*
X18474027Y-6477168D01*
X18500143Y-6487985D01*
X18527867Y-6493500D01*
X18556134Y-6493500D01*
X18583857Y-6487985D01*
X18609973Y-6477168D01*
X18633476Y-6461464D01*
X18653464Y-6441476D01*
X18655452Y-6438500D01*
X18682992Y-6438500D01*
X18694039Y-6451961D01*
X18715890Y-6469893D01*
X18740819Y-6483218D01*
X18767869Y-6491424D01*
X18788951Y-6493500D01*
X18803049Y-6493500D01*
X18824131Y-6491424D01*
X18851181Y-6483218D01*
X18876110Y-6469893D01*
X18897891Y-6452018D01*
X19088500Y-6642628D01*
X19088500Y-6731163D01*
X19073817Y-6749055D01*
X19062349Y-6770510D01*
X19055287Y-6793790D01*
X19053500Y-6811934D01*
X19053500Y-6904066D01*
X19054531Y-6914530D01*
X19045721Y-6914530D01*
X19046500Y-6910700D01*
X19046500Y-6870700D01*
X18935700Y-6870700D01*
X18935700Y-6872700D01*
X18910300Y-6872700D01*
X18910300Y-6870700D01*
X18799500Y-6870700D01*
X18799500Y-6910700D01*
X18800279Y-6914530D01*
X18676257Y-6914530D01*
X18671910Y-6914102D01*
X18667563Y-6914530D01*
X18667562Y-6914530D01*
X18654561Y-6915810D01*
X18637879Y-6920871D01*
X18622504Y-6929089D01*
X18622504Y-6929089D01*
X18622504Y-6929089D01*
X18612405Y-6937377D01*
X18612405Y-6937377D01*
X18609028Y-6940148D01*
X18606257Y-6943525D01*
X18191925Y-7357857D01*
X18188548Y-7360628D01*
X18185777Y-7364005D01*
X18185777Y-7364005D01*
X18177489Y-7374104D01*
X18169271Y-7389479D01*
X18164211Y-7406161D01*
X18162502Y-7423510D01*
X18162930Y-7427858D01*
X18162930Y-7557583D01*
X18162502Y-7561930D01*
X18162930Y-7566277D01*
X18162930Y-7566278D01*
X18163451Y-7571564D01*
X18164211Y-7579279D01*
X18165014Y-7581928D01*
X18169271Y-7595961D01*
X18177489Y-7611336D01*
X18188548Y-7624812D01*
X18191926Y-7627583D01*
X19115232Y-8550890D01*
X18848048Y-8550890D01*
X18839268Y-8542110D01*
X18845500Y-8510778D01*
X18845500Y-8475222D01*
X18838564Y-8440350D01*
X18824957Y-8407501D01*
X18805204Y-8377938D01*
X18780062Y-8352796D01*
X18750499Y-8333043D01*
X18717650Y-8319436D01*
X18682778Y-8312500D01*
X18647222Y-8312500D01*
X18612350Y-8319436D01*
X18579501Y-8333043D01*
X18549938Y-8352796D01*
X18524797Y-8377938D01*
X18505043Y-8407501D01*
X18495353Y-8430895D01*
X18255620Y-8191162D01*
X18255620Y-7877497D01*
X18256048Y-7873150D01*
X18255620Y-7868803D01*
X18255620Y-7868802D01*
X18254340Y-7855801D01*
X18249279Y-7839119D01*
X18241061Y-7823744D01*
X18237454Y-7819349D01*
X18232773Y-7813645D01*
X18232773Y-7813645D01*
X18230002Y-7810268D01*
X18226625Y-7807497D01*
X17775430Y-7356302D01*
X17781054Y-7349449D01*
X17786950Y-7338418D01*
X17790581Y-7326448D01*
X17791807Y-7314000D01*
X17791807Y-7164000D01*
X17790581Y-7151552D01*
X17786950Y-7139582D01*
X17781054Y-7128551D01*
X17773119Y-7118881D01*
X17763449Y-7110946D01*
X17752418Y-7105050D01*
X17740448Y-7101419D01*
X17728000Y-7100193D01*
X17578000Y-7100193D01*
X17565552Y-7101419D01*
X17553582Y-7105050D01*
X17542551Y-7110946D01*
X17532882Y-7118881D01*
X17524946Y-7128551D01*
X17519050Y-7139582D01*
X17515419Y-7151552D01*
X17514193Y-7164000D01*
X17514193Y-7314000D01*
X17515419Y-7326448D01*
X17519050Y-7338418D01*
X17524946Y-7349449D01*
X17532882Y-7359118D01*
X17542551Y-7367054D01*
X17553582Y-7372950D01*
X17565552Y-7376581D01*
X17565851Y-7376611D01*
X17570841Y-7393061D01*
X17579059Y-7408436D01*
X17587347Y-7418535D01*
X17587347Y-7418535D01*
X17590118Y-7421912D01*
X17593495Y-7424683D01*
X17903112Y-7734300D01*
X17893241Y-7734300D01*
X17866251Y-7739669D01*
X17840827Y-7750199D01*
X17817947Y-7765488D01*
X17798488Y-7784946D01*
X17783200Y-7807827D01*
X17780000Y-7815551D01*
X17776801Y-7807827D01*
X17761512Y-7784946D01*
X17742054Y-7765488D01*
X17719173Y-7750199D01*
X17693749Y-7739669D01*
X17666759Y-7734300D01*
X17639241Y-7734300D01*
X17612251Y-7739669D01*
X17586827Y-7750199D01*
X17563947Y-7765488D01*
X17544488Y-7784946D01*
X17529200Y-7807827D01*
X17518669Y-7833251D01*
X17513300Y-7860241D01*
X17513300Y-7887759D01*
X17518669Y-7914749D01*
X17529200Y-7940173D01*
X17544488Y-7963053D01*
X17563947Y-7982512D01*
X17586827Y-7997800D01*
X17612251Y-8008331D01*
X17639241Y-8013700D01*
X17666759Y-8013700D01*
X17693749Y-8008331D01*
X17719173Y-7997800D01*
X17742054Y-7982512D01*
X17761512Y-7963053D01*
X17776801Y-7940173D01*
X17780000Y-7932448D01*
X17783200Y-7940173D01*
X17798488Y-7963053D01*
X17817947Y-7982512D01*
X17818500Y-7982882D01*
X17818500Y-8039052D01*
X17528437Y-8329116D01*
X17525764Y-8321698D01*
X17519566Y-8310102D01*
X17495557Y-8303404D01*
X17416961Y-8382000D01*
X17418375Y-8383414D01*
X17400414Y-8401375D01*
X17399000Y-8399961D01*
X17397586Y-8401375D01*
X17379625Y-8383414D01*
X17381040Y-8382000D01*
X17302444Y-8303404D01*
X17278434Y-8310102D01*
X17266724Y-8335005D01*
X17260098Y-8361713D01*
X17258809Y-8389202D01*
X17262654Y-8414730D01*
X16137815Y-8414730D01*
X16140902Y-8402287D01*
X16142191Y-8374798D01*
X16138344Y-8349260D01*
X16499893Y-8349260D01*
X16504240Y-8349688D01*
X16508587Y-8349260D01*
X16508588Y-8349260D01*
X16521589Y-8347979D01*
X16538271Y-8342919D01*
X16553646Y-8334701D01*
X16567122Y-8323642D01*
X16569893Y-8320264D01*
X16604714Y-8285443D01*
X17320404Y-8285443D01*
X17399000Y-8364039D01*
X17477596Y-8285443D01*
X17470898Y-8261434D01*
X17445995Y-8249724D01*
X17419287Y-8243098D01*
X17391798Y-8241809D01*
X17364587Y-8245908D01*
X17338698Y-8255236D01*
X17327102Y-8261434D01*
X17320404Y-8285443D01*
X16604714Y-8285443D01*
X16876588Y-8013570D01*
X16877241Y-8013700D01*
X16904759Y-8013700D01*
X16931749Y-8008331D01*
X16957173Y-7997800D01*
X16980054Y-7982512D01*
X16999512Y-7963053D01*
X17014801Y-7940173D01*
X17018000Y-7932448D01*
X17021200Y-7940173D01*
X17036488Y-7963053D01*
X17055947Y-7982512D01*
X17078827Y-7997800D01*
X17104251Y-8008331D01*
X17131241Y-8013700D01*
X17158759Y-8013700D01*
X17185749Y-8008331D01*
X17211173Y-7997800D01*
X17234054Y-7982512D01*
X17253512Y-7963053D01*
X17268801Y-7940173D01*
X17279331Y-7914749D01*
X17284700Y-7887759D01*
X17284700Y-7860241D01*
X17279331Y-7833251D01*
X17268801Y-7807827D01*
X17253512Y-7784946D01*
X17234054Y-7765488D01*
X17211173Y-7750199D01*
X17185749Y-7739669D01*
X17158759Y-7734300D01*
X17131241Y-7734300D01*
X17104251Y-7739669D01*
X17078827Y-7750199D01*
X17055947Y-7765488D01*
X17036488Y-7784946D01*
X17021200Y-7807827D01*
X17018000Y-7815551D01*
X17014801Y-7807827D01*
X16999512Y-7784946D01*
X16980054Y-7765488D01*
X16957173Y-7750199D01*
X16931749Y-7739669D01*
X16904759Y-7734300D01*
X16877241Y-7734300D01*
X16850251Y-7739669D01*
X16824827Y-7750199D01*
X16801947Y-7765488D01*
X16782488Y-7784946D01*
X16767199Y-7807827D01*
X16756669Y-7833251D01*
X16751300Y-7860241D01*
X16751300Y-7887759D01*
X16751430Y-7888412D01*
X16467582Y-8172260D01*
X15951187Y-8172260D01*
X15946840Y-8171832D01*
X15942493Y-8172260D01*
X15942492Y-8172260D01*
X15929491Y-8173540D01*
X15912809Y-8178601D01*
X15904241Y-8183181D01*
X15897434Y-8186819D01*
X15887335Y-8195107D01*
X15887335Y-8195107D01*
X15883958Y-8197878D01*
X15881187Y-8201255D01*
X15821245Y-8261197D01*
X15817868Y-8263968D01*
X15815097Y-8267345D01*
X15815097Y-8267345D01*
X15806809Y-8277444D01*
X15798591Y-8292819D01*
X15793530Y-8309501D01*
X15791822Y-8326850D01*
X15792250Y-8331198D01*
X15792250Y-8434603D01*
X15791822Y-8438950D01*
X15792250Y-8443297D01*
X15792250Y-8443298D01*
X15793287Y-8453824D01*
X15793530Y-8456299D01*
X15793950Y-8457681D01*
X15798591Y-8472981D01*
X15806809Y-8488356D01*
X15817868Y-8501832D01*
X15821246Y-8504603D01*
X15879377Y-8562735D01*
X15882148Y-8566112D01*
X15885525Y-8568883D01*
X15885525Y-8568883D01*
X15891308Y-8573629D01*
X15895624Y-8577171D01*
X15910999Y-8585389D01*
X15927681Y-8590450D01*
X15940682Y-8591730D01*
X15940683Y-8591730D01*
X15945030Y-8592158D01*
X15949376Y-8591730D01*
X17475133Y-8591730D01*
X17479480Y-8592158D01*
X17483827Y-8591730D01*
X17483828Y-8591730D01*
X17496829Y-8590450D01*
X17513511Y-8585389D01*
X17528886Y-8577171D01*
X17542362Y-8566112D01*
X17545133Y-8562734D01*
X17907000Y-8200868D01*
X18530132Y-8824000D01*
X14214638Y-8824000D01*
X14278497Y-8760141D01*
X14283027Y-8763168D01*
X14309143Y-8773985D01*
X14336866Y-8779500D01*
X14365133Y-8779500D01*
X14392857Y-8773985D01*
X14418973Y-8763168D01*
X14442476Y-8747464D01*
X14462464Y-8727476D01*
X14478000Y-8704224D01*
X14493536Y-8727476D01*
X14513524Y-8747464D01*
X14537027Y-8763168D01*
X14563143Y-8773985D01*
X14590866Y-8779500D01*
X14619133Y-8779500D01*
X14646857Y-8773985D01*
X14672973Y-8763168D01*
X14696476Y-8747464D01*
X14716464Y-8727476D01*
X14732000Y-8704224D01*
X14747536Y-8727476D01*
X14767524Y-8747464D01*
X14791027Y-8763168D01*
X14817143Y-8773985D01*
X14844866Y-8779500D01*
X14873133Y-8779500D01*
X14900857Y-8773985D01*
X14926973Y-8763168D01*
X14950476Y-8747464D01*
X14970464Y-8727476D01*
X14986000Y-8704224D01*
X15001536Y-8727476D01*
X15021524Y-8747464D01*
X15045027Y-8763168D01*
X15071143Y-8773985D01*
X15098866Y-8779500D01*
X15127133Y-8779500D01*
X15154857Y-8773985D01*
X15180973Y-8763168D01*
X15204476Y-8747464D01*
X15224464Y-8727476D01*
X15240168Y-8703973D01*
X15250985Y-8677857D01*
X15256500Y-8650134D01*
X15256500Y-8621867D01*
X15250985Y-8594143D01*
X15240168Y-8568027D01*
X15224464Y-8544524D01*
X15204476Y-8524536D01*
X15180973Y-8508832D01*
X15154857Y-8498015D01*
X15127133Y-8492500D01*
X15098866Y-8492500D01*
X15071143Y-8498015D01*
X15045027Y-8508832D01*
X15021524Y-8524536D01*
X15001536Y-8544524D01*
X14986000Y-8567776D01*
X14970464Y-8544524D01*
X14950476Y-8524536D01*
X14926973Y-8508832D01*
X14900857Y-8498015D01*
X14873571Y-8492587D01*
X15279208Y-8086950D01*
X15616652Y-8086950D01*
X15621000Y-8087378D01*
X15625348Y-8086950D01*
X16381203Y-8086950D01*
X16385550Y-8087378D01*
X16389897Y-8086950D01*
X16389898Y-8086950D01*
X16402899Y-8085669D01*
X16419581Y-8080609D01*
X16434956Y-8072391D01*
X16448432Y-8061332D01*
X16451203Y-8057954D01*
X16495588Y-8013570D01*
X16496241Y-8013700D01*
X16523759Y-8013700D01*
X16550749Y-8008331D01*
X16576173Y-7997800D01*
X16599053Y-7982512D01*
X16618512Y-7963053D01*
X16633800Y-7940173D01*
X16644331Y-7914749D01*
X16649700Y-7887759D01*
X16649700Y-7860241D01*
X16644331Y-7833251D01*
X16633800Y-7807827D01*
X16618512Y-7784946D01*
X16599053Y-7765488D01*
X16576173Y-7750199D01*
X16550749Y-7739669D01*
X16523759Y-7734300D01*
X16496241Y-7734300D01*
X16469251Y-7739669D01*
X16443827Y-7750199D01*
X16420946Y-7765488D01*
X16401488Y-7784946D01*
X16386199Y-7807827D01*
X16383000Y-7815551D01*
X16379800Y-7807827D01*
X16364512Y-7784946D01*
X16345053Y-7765488D01*
X16322173Y-7750199D01*
X16296749Y-7739669D01*
X16269759Y-7734300D01*
X16242241Y-7734300D01*
X16215251Y-7739669D01*
X16189827Y-7750199D01*
X16166946Y-7765488D01*
X16147488Y-7784946D01*
X16132199Y-7807827D01*
X16121669Y-7833251D01*
X16116300Y-7860241D01*
X16116300Y-7887759D01*
X16120714Y-7909950D01*
X15883286Y-7909950D01*
X15887700Y-7887759D01*
X15887700Y-7860241D01*
X15882331Y-7833251D01*
X15871800Y-7807827D01*
X15856512Y-7784946D01*
X15837053Y-7765488D01*
X15814173Y-7750199D01*
X15788749Y-7739669D01*
X15761759Y-7734300D01*
X15734241Y-7734300D01*
X15707251Y-7739669D01*
X15681827Y-7750199D01*
X15676061Y-7754053D01*
X15574493Y-7652486D01*
X15571722Y-7649108D01*
X15570127Y-7647800D01*
X16056383Y-7647800D01*
X16060730Y-7648228D01*
X16065077Y-7647800D01*
X16065078Y-7647800D01*
X16078079Y-7646519D01*
X16094761Y-7641459D01*
X16110136Y-7633241D01*
X16123612Y-7622182D01*
X16126383Y-7618804D01*
X16366500Y-7378688D01*
X16366500Y-7380133D01*
X16372015Y-7407857D01*
X16382832Y-7433973D01*
X16398536Y-7457476D01*
X16418524Y-7477464D01*
X16442027Y-7493168D01*
X16468143Y-7503985D01*
X16495866Y-7509500D01*
X16524133Y-7509500D01*
X16551857Y-7503985D01*
X16577973Y-7493168D01*
X16601476Y-7477464D01*
X16621464Y-7457476D01*
X16623452Y-7454500D01*
X17235342Y-7454500D01*
X17260500Y-7479658D01*
X17260500Y-7506641D01*
X17265823Y-7533399D01*
X17276263Y-7558604D01*
X17291420Y-7581289D01*
X17310711Y-7600580D01*
X17333396Y-7615737D01*
X17358601Y-7626177D01*
X17385359Y-7631500D01*
X17412641Y-7631500D01*
X17439399Y-7626177D01*
X17464604Y-7615737D01*
X17487289Y-7600580D01*
X17506580Y-7581289D01*
X17521737Y-7558604D01*
X17532178Y-7533399D01*
X17537500Y-7506641D01*
X17537500Y-7479359D01*
X17532178Y-7452601D01*
X17521737Y-7427396D01*
X17506580Y-7404711D01*
X17487289Y-7385420D01*
X17464604Y-7370263D01*
X17439399Y-7359822D01*
X17412641Y-7354500D01*
X17385658Y-7354500D01*
X17337653Y-7306495D01*
X17334882Y-7303118D01*
X17321406Y-7292059D01*
X17306031Y-7283841D01*
X17289349Y-7278780D01*
X17278109Y-7277673D01*
X17282725Y-7259004D01*
X17283981Y-7231751D01*
X17279897Y-7204776D01*
X17270628Y-7179117D01*
X17264586Y-7167814D01*
X17240699Y-7161261D01*
X17162961Y-7239000D01*
X17164375Y-7240414D01*
X17146414Y-7258375D01*
X17145000Y-7256960D01*
X17143586Y-7258375D01*
X17125625Y-7240414D01*
X17127040Y-7239000D01*
X17049301Y-7161261D01*
X17025414Y-7167814D01*
X17013824Y-7192512D01*
X17007275Y-7218996D01*
X17006019Y-7246249D01*
X17010104Y-7273224D01*
X17011648Y-7277500D01*
X16623452Y-7277500D01*
X16621464Y-7274524D01*
X16601476Y-7254536D01*
X16577973Y-7238832D01*
X16551857Y-7228015D01*
X16524133Y-7222500D01*
X16522688Y-7222500D01*
X16601887Y-7143301D01*
X17067261Y-7143301D01*
X17145000Y-7221039D01*
X17222739Y-7143301D01*
X17216186Y-7119414D01*
X17191488Y-7107824D01*
X17165004Y-7101275D01*
X17137751Y-7100019D01*
X17110776Y-7104103D01*
X17085117Y-7113372D01*
X17073814Y-7119414D01*
X17067261Y-7143301D01*
X16601887Y-7143301D01*
X16909188Y-6836000D01*
X17060653Y-6836000D01*
X17065000Y-6836428D01*
X17069347Y-6836000D01*
X17069348Y-6836000D01*
X17082349Y-6834719D01*
X17099031Y-6829659D01*
X17114406Y-6821441D01*
X17127882Y-6810382D01*
X17128165Y-6810036D01*
X17137951Y-6811000D01*
X17152049Y-6811000D01*
X17173131Y-6808924D01*
X17185076Y-6805300D01*
X18799500Y-6805300D01*
X18799500Y-6845300D01*
X18910300Y-6845300D01*
X18910300Y-6711127D01*
X18935700Y-6711127D01*
X18935700Y-6845300D01*
X19046500Y-6845300D01*
X19046500Y-6805300D01*
X19041649Y-6781450D01*
X19032239Y-6759005D01*
X19018631Y-6738827D01*
X19001347Y-6721692D01*
X18981053Y-6708258D01*
X18958528Y-6699041D01*
X18954761Y-6698654D01*
X18935700Y-6711127D01*
X18910300Y-6711127D01*
X18891239Y-6698654D01*
X18887472Y-6699041D01*
X18864947Y-6708258D01*
X18844653Y-6721692D01*
X18827369Y-6738827D01*
X18813761Y-6759005D01*
X18804351Y-6781450D01*
X18799500Y-6805300D01*
X17185076Y-6805300D01*
X17200181Y-6800718D01*
X17225110Y-6787393D01*
X17246961Y-6769461D01*
X17264893Y-6747610D01*
X17278218Y-6722681D01*
X17286424Y-6695631D01*
X17289194Y-6667500D01*
X17286424Y-6639369D01*
X17278218Y-6612319D01*
X17264893Y-6587390D01*
X17246961Y-6565539D01*
X17225110Y-6547607D01*
X17200181Y-6534282D01*
X17173131Y-6526076D01*
X17152049Y-6524000D01*
X17137951Y-6524000D01*
X17116869Y-6526076D01*
X17089819Y-6534282D01*
X17064890Y-6547607D01*
X17043039Y-6565539D01*
X17025107Y-6587390D01*
X17011782Y-6612319D01*
X17003576Y-6639369D01*
X17001643Y-6659000D01*
X16876877Y-6659000D01*
X16872530Y-6658572D01*
X16868183Y-6659000D01*
X16868182Y-6659000D01*
X16855181Y-6660280D01*
X16838499Y-6665341D01*
X16823124Y-6673559D01*
X16823124Y-6673559D01*
X16823124Y-6673559D01*
X16813025Y-6681847D01*
X16813025Y-6681847D01*
X16809648Y-6684618D01*
X16806877Y-6687995D01*
X16779641Y-6715231D01*
X16778424Y-6702869D01*
X16770218Y-6675819D01*
X16756893Y-6650890D01*
X16738961Y-6629039D01*
X16725500Y-6617992D01*
X16725500Y-6463008D01*
X16738961Y-6451961D01*
X16756893Y-6430110D01*
X16770218Y-6405181D01*
X16778424Y-6378131D01*
X16781194Y-6350000D01*
X16778424Y-6321869D01*
X16774556Y-6309120D01*
X17361932Y-6309120D01*
X17462317Y-6409505D01*
X17465088Y-6412882D01*
X17468465Y-6415653D01*
X17468465Y-6415653D01*
X17478564Y-6423941D01*
X17493939Y-6432159D01*
X17503201Y-6434969D01*
X17510621Y-6437219D01*
X17523622Y-6438500D01*
X17523623Y-6438500D01*
X17527970Y-6438928D01*
X17532317Y-6438500D01*
X17539992Y-6438500D01*
X17551039Y-6451961D01*
X17572890Y-6469893D01*
X17597819Y-6483218D01*
X17624869Y-6491424D01*
X17645951Y-6493500D01*
X17660049Y-6493500D01*
X17681131Y-6491424D01*
X17708181Y-6483218D01*
X17733110Y-6469893D01*
X17754961Y-6451961D01*
X17772893Y-6430110D01*
X17786218Y-6405181D01*
X17794424Y-6378131D01*
X17797194Y-6350000D01*
X17794424Y-6321869D01*
X17786218Y-6294819D01*
X17772893Y-6269890D01*
X17754961Y-6248039D01*
X17740413Y-6236100D01*
X18454170Y-6236100D01*
X18450524Y-6238536D01*
G36*
X16021375Y-8380586D02*
G01*
X16019960Y-8382000D01*
X16021375Y-8383414D01*
X16003414Y-8401375D01*
X16002000Y-8399961D01*
X16000586Y-8401375D01*
X15982625Y-8383414D01*
X15984039Y-8382000D01*
X15982625Y-8380586D01*
X16000586Y-8362625D01*
X16002000Y-8364039D01*
X16003414Y-8362625D01*
X16021375Y-8380586D01*
X16021375Y-8380586D01*
G37*
X16021375Y-8380586D02*
X16019960Y-8382000D01*
X16021375Y-8383414D01*
X16003414Y-8401375D01*
X16002000Y-8399961D01*
X16000586Y-8401375D01*
X15982625Y-8383414D01*
X15984039Y-8382000D01*
X15982625Y-8380586D01*
X16000586Y-8362625D01*
X16002000Y-8364039D01*
X16003414Y-8362625D01*
X16021375Y-8380586D01*
M02*
