G04 #@! TF.GenerationSoftware,KiCad,Pcbnew,5.1.2-f72e74a~84~ubuntu18.04.1*
G04 #@! TF.CreationDate,2019-05-20T21:08:09+03:00*
G04 #@! TF.ProjectId,manipulyator-v3 (2),6d616e69-7075-46c7-9961-746f722d7633,rev?*
G04 #@! TF.SameCoordinates,Original*
G04 #@! TF.FileFunction,Soldermask,Bot*
G04 #@! TF.FilePolarity,Negative*
%FSLAX45Y45*%
G04 Gerber Fmt 4.5, Leading zero omitted, Abs format (unit mm)*
G04 Created by KiCad (PCBNEW 5.1.2-f72e74a~84~ubuntu18.04.1) date 2019-05-20 21:08:09*
%MOMM*%
%LPD*%
G04 APERTURE LIST*
%ADD10C,0.100000*%
G04 APERTURE END LIST*
D10*
G36*
X3136323Y399330D02*
G01*
X3151810Y392915D01*
X3165748Y383601D01*
X3177601Y371748D01*
X3186915Y357810D01*
X3193330Y342323D01*
X3196600Y325882D01*
X3196600Y309118D01*
X3193330Y292677D01*
X3186915Y277190D01*
X3177601Y263252D01*
X3165748Y251398D01*
X3151810Y242085D01*
X3136323Y235670D01*
X3119882Y232400D01*
X3103118Y232400D01*
X3086677Y235670D01*
X3071190Y242085D01*
X3057252Y251398D01*
X3045398Y263252D01*
X3036085Y277190D01*
X3029670Y292677D01*
X3026400Y309118D01*
X3026400Y325882D01*
X3029670Y342323D01*
X3036085Y357810D01*
X3045398Y371748D01*
X3057252Y383601D01*
X3071190Y392915D01*
X3086677Y399330D01*
X3103118Y402600D01*
X3119882Y402600D01*
X3136323Y399330D01*
X3136323Y399330D01*
G37*
G36*
X2882323Y399330D02*
G01*
X2897810Y392915D01*
X2911748Y383601D01*
X2923601Y371748D01*
X2932915Y357810D01*
X2939330Y342323D01*
X2942600Y325882D01*
X2942600Y309118D01*
X2939330Y292677D01*
X2932915Y277190D01*
X2923601Y263252D01*
X2911748Y251398D01*
X2897810Y242085D01*
X2882323Y235670D01*
X2865882Y232400D01*
X2849118Y232400D01*
X2832677Y235670D01*
X2817190Y242085D01*
X2803252Y251398D01*
X2791399Y263252D01*
X2782085Y277190D01*
X2775670Y292677D01*
X2772400Y309118D01*
X2772400Y325882D01*
X2775670Y342323D01*
X2782085Y357810D01*
X2791399Y371748D01*
X2803252Y383601D01*
X2817190Y392915D01*
X2832677Y399330D01*
X2849118Y402600D01*
X2865882Y402600D01*
X2882323Y399330D01*
X2882323Y399330D01*
G37*
G36*
X402600Y232400D02*
G01*
X232400Y232400D01*
X232400Y402600D01*
X402600Y402600D01*
X402600Y232400D01*
X402600Y232400D01*
G37*
G36*
X596323Y399330D02*
G01*
X611810Y392915D01*
X625748Y383601D01*
X637602Y371748D01*
X646915Y357810D01*
X653330Y342323D01*
X656600Y325882D01*
X656600Y309118D01*
X653330Y292677D01*
X646915Y277190D01*
X637602Y263252D01*
X625748Y251398D01*
X611810Y242085D01*
X596323Y235670D01*
X579882Y232400D01*
X563118Y232400D01*
X546677Y235670D01*
X531190Y242085D01*
X517252Y251398D01*
X505398Y263252D01*
X496085Y277190D01*
X489670Y292677D01*
X486400Y309118D01*
X486400Y325882D01*
X489670Y342323D01*
X496085Y357810D01*
X505398Y371748D01*
X517252Y383601D01*
X531190Y392915D01*
X546677Y399330D01*
X563118Y402600D01*
X579882Y402600D01*
X596323Y399330D01*
X596323Y399330D01*
G37*
G36*
X850323Y399330D02*
G01*
X865810Y392915D01*
X879748Y383601D01*
X891601Y371748D01*
X900915Y357810D01*
X907330Y342323D01*
X910600Y325882D01*
X910600Y309118D01*
X907330Y292677D01*
X900915Y277190D01*
X891601Y263252D01*
X879748Y251398D01*
X865810Y242085D01*
X850323Y235670D01*
X833882Y232400D01*
X817118Y232400D01*
X800677Y235670D01*
X785190Y242085D01*
X771252Y251398D01*
X759398Y263252D01*
X750085Y277190D01*
X743670Y292677D01*
X740400Y309118D01*
X740400Y325882D01*
X743670Y342323D01*
X750085Y357810D01*
X759398Y371748D01*
X771252Y383601D01*
X785190Y392915D01*
X800677Y399330D01*
X817118Y402600D01*
X833882Y402600D01*
X850323Y399330D01*
X850323Y399330D01*
G37*
G36*
X1104323Y399330D02*
G01*
X1119810Y392915D01*
X1133748Y383601D01*
X1145602Y371748D01*
X1154915Y357810D01*
X1161330Y342323D01*
X1164600Y325882D01*
X1164600Y309118D01*
X1161330Y292677D01*
X1154915Y277190D01*
X1145602Y263252D01*
X1133748Y251398D01*
X1119810Y242085D01*
X1104323Y235670D01*
X1087882Y232400D01*
X1071118Y232400D01*
X1054677Y235670D01*
X1039190Y242085D01*
X1025252Y251398D01*
X1013398Y263252D01*
X1004085Y277190D01*
X997670Y292677D01*
X994400Y309118D01*
X994400Y325882D01*
X997670Y342323D01*
X1004085Y357810D01*
X1013398Y371748D01*
X1025252Y383601D01*
X1039190Y392915D01*
X1054677Y399330D01*
X1071118Y402600D01*
X1087882Y402600D01*
X1104323Y399330D01*
X1104323Y399330D01*
G37*
G36*
X1358323Y399330D02*
G01*
X1373810Y392915D01*
X1387748Y383601D01*
X1399601Y371748D01*
X1408915Y357810D01*
X1415330Y342323D01*
X1418600Y325882D01*
X1418600Y309118D01*
X1415330Y292677D01*
X1408915Y277190D01*
X1399601Y263252D01*
X1387748Y251398D01*
X1373810Y242085D01*
X1358323Y235670D01*
X1341882Y232400D01*
X1325118Y232400D01*
X1308677Y235670D01*
X1293190Y242085D01*
X1279252Y251398D01*
X1267399Y263252D01*
X1258085Y277190D01*
X1251670Y292677D01*
X1248400Y309118D01*
X1248400Y325882D01*
X1251670Y342323D01*
X1258085Y357810D01*
X1267399Y371748D01*
X1279252Y383601D01*
X1293190Y392915D01*
X1308677Y399330D01*
X1325118Y402600D01*
X1341882Y402600D01*
X1358323Y399330D01*
X1358323Y399330D01*
G37*
G36*
X1866323Y399330D02*
G01*
X1881810Y392915D01*
X1895748Y383601D01*
X1907601Y371748D01*
X1916915Y357810D01*
X1923330Y342323D01*
X1926600Y325882D01*
X1926600Y309118D01*
X1923330Y292677D01*
X1916915Y277190D01*
X1907601Y263252D01*
X1895748Y251398D01*
X1881810Y242085D01*
X1866323Y235670D01*
X1849882Y232400D01*
X1833118Y232400D01*
X1816677Y235670D01*
X1801190Y242085D01*
X1787252Y251398D01*
X1775398Y263252D01*
X1766085Y277190D01*
X1759670Y292677D01*
X1756400Y309118D01*
X1756400Y325882D01*
X1759670Y342323D01*
X1766085Y357810D01*
X1775398Y371748D01*
X1787252Y383601D01*
X1801190Y392915D01*
X1816677Y399330D01*
X1833118Y402600D01*
X1849882Y402600D01*
X1866323Y399330D01*
X1866323Y399330D01*
G37*
G36*
X1612323Y399330D02*
G01*
X1627810Y392915D01*
X1641748Y383601D01*
X1653601Y371748D01*
X1662915Y357810D01*
X1669330Y342323D01*
X1672600Y325882D01*
X1672600Y309118D01*
X1669330Y292677D01*
X1662915Y277190D01*
X1653601Y263252D01*
X1641748Y251398D01*
X1627810Y242085D01*
X1612323Y235670D01*
X1595882Y232400D01*
X1579118Y232400D01*
X1562677Y235670D01*
X1547190Y242085D01*
X1533252Y251398D01*
X1521398Y263252D01*
X1512085Y277190D01*
X1505670Y292677D01*
X1502400Y309118D01*
X1502400Y325882D01*
X1505670Y342323D01*
X1512085Y357810D01*
X1521398Y371748D01*
X1533252Y383601D01*
X1547190Y392915D01*
X1562677Y399330D01*
X1579118Y402600D01*
X1595882Y402600D01*
X1612323Y399330D01*
X1612323Y399330D01*
G37*
G36*
X2628323Y399330D02*
G01*
X2643810Y392915D01*
X2657748Y383601D01*
X2669602Y371748D01*
X2678915Y357810D01*
X2685330Y342323D01*
X2688600Y325882D01*
X2688600Y309118D01*
X2685330Y292677D01*
X2678915Y277190D01*
X2669602Y263252D01*
X2657748Y251398D01*
X2643810Y242085D01*
X2628323Y235670D01*
X2611882Y232400D01*
X2595118Y232400D01*
X2578677Y235670D01*
X2563190Y242085D01*
X2549252Y251398D01*
X2537399Y263252D01*
X2528085Y277190D01*
X2521670Y292677D01*
X2518400Y309118D01*
X2518400Y325882D01*
X2521670Y342323D01*
X2528085Y357810D01*
X2537399Y371748D01*
X2549252Y383601D01*
X2563190Y392915D01*
X2578677Y399330D01*
X2595118Y402600D01*
X2611882Y402600D01*
X2628323Y399330D01*
X2628323Y399330D01*
G37*
G36*
X2120323Y399330D02*
G01*
X2135810Y392915D01*
X2149748Y383601D01*
X2161602Y371748D01*
X2170915Y357810D01*
X2177330Y342323D01*
X2180600Y325882D01*
X2180600Y309118D01*
X2177330Y292677D01*
X2170915Y277190D01*
X2161602Y263252D01*
X2149748Y251398D01*
X2135810Y242085D01*
X2120323Y235670D01*
X2103882Y232400D01*
X2087118Y232400D01*
X2070677Y235670D01*
X2055190Y242085D01*
X2041252Y251398D01*
X2029398Y263252D01*
X2020085Y277190D01*
X2013670Y292677D01*
X2010400Y309118D01*
X2010400Y325882D01*
X2013670Y342323D01*
X2020085Y357810D01*
X2029398Y371748D01*
X2041252Y383601D01*
X2055190Y392915D01*
X2070677Y399330D01*
X2087118Y402600D01*
X2103882Y402600D01*
X2120323Y399330D01*
X2120323Y399330D01*
G37*
G36*
X2374323Y399330D02*
G01*
X2389810Y392915D01*
X2403748Y383601D01*
X2415602Y371748D01*
X2424915Y357810D01*
X2431330Y342323D01*
X2434600Y325882D01*
X2434600Y309118D01*
X2431330Y292677D01*
X2424915Y277190D01*
X2415602Y263252D01*
X2403748Y251398D01*
X2389810Y242085D01*
X2374323Y235670D01*
X2357882Y232400D01*
X2341118Y232400D01*
X2324677Y235670D01*
X2309190Y242085D01*
X2295252Y251398D01*
X2283399Y263252D01*
X2274085Y277190D01*
X2267670Y292677D01*
X2264400Y309118D01*
X2264400Y325882D01*
X2267670Y342323D01*
X2274085Y357810D01*
X2283399Y371748D01*
X2295252Y383601D01*
X2309190Y392915D01*
X2324677Y399330D01*
X2341118Y402600D01*
X2357882Y402600D01*
X2374323Y399330D01*
X2374323Y399330D01*
G37*
G36*
X6699115Y577908D02*
G01*
X6708319Y574095D01*
X6721336Y568704D01*
X6741334Y555341D01*
X6758341Y538334D01*
X6771704Y518336D01*
X6775840Y508350D01*
X6780908Y496115D01*
X6781463Y493324D01*
X6784665Y477224D01*
X6785600Y472526D01*
X6785600Y448474D01*
X6781491Y427817D01*
X6780908Y424885D01*
X6771704Y402664D01*
X6758341Y382666D01*
X6741334Y365659D01*
X6721336Y352296D01*
X6708319Y346905D01*
X6699115Y343092D01*
X6695248Y342323D01*
X6675526Y338400D01*
X6651474Y338400D01*
X6631752Y342323D01*
X6627885Y343092D01*
X6618681Y346905D01*
X6605664Y352296D01*
X6585666Y365659D01*
X6568659Y382666D01*
X6555296Y402664D01*
X6546092Y424885D01*
X6545509Y427817D01*
X6541400Y448474D01*
X6541400Y472526D01*
X6542335Y477224D01*
X6545537Y493324D01*
X6546092Y496115D01*
X6551160Y508350D01*
X6555296Y518336D01*
X6568659Y538334D01*
X6585666Y555341D01*
X6605664Y568704D01*
X6618681Y574095D01*
X6627885Y577908D01*
X6639679Y580254D01*
X6651474Y582600D01*
X6675526Y582600D01*
X6699115Y577908D01*
X6699115Y577908D01*
G37*
G36*
X7613182Y528369D02*
G01*
X7629224Y523502D01*
X7638890Y518336D01*
X7644008Y515600D01*
X7656966Y504966D01*
X7667600Y492008D01*
X7667600Y492008D01*
X7675502Y477224D01*
X7680369Y461182D01*
X7682012Y444500D01*
X7680369Y427818D01*
X7675502Y411776D01*
X7670632Y402664D01*
X7667600Y396992D01*
X7656966Y384034D01*
X7644008Y373400D01*
X7644008Y373399D01*
X7629224Y365498D01*
X7613182Y360631D01*
X7600680Y359400D01*
X7512320Y359400D01*
X7499818Y360631D01*
X7483776Y365498D01*
X7468992Y373399D01*
X7468992Y373400D01*
X7456034Y384034D01*
X7445400Y396992D01*
X7442368Y402664D01*
X7437498Y411776D01*
X7432631Y427818D01*
X7430988Y444500D01*
X7432631Y461182D01*
X7437498Y477224D01*
X7445399Y492008D01*
X7445400Y492008D01*
X7456034Y504966D01*
X7468992Y515600D01*
X7474110Y518336D01*
X7483776Y523502D01*
X7499818Y528369D01*
X7512320Y529600D01*
X7600680Y529600D01*
X7613182Y528369D01*
X7613182Y528369D01*
G37*
G36*
X8443600Y359400D02*
G01*
X8193400Y359400D01*
X8193400Y529600D01*
X8443600Y529600D01*
X8443600Y359400D01*
X8443600Y359400D01*
G37*
G36*
X5421214Y649676D02*
G01*
X5436010Y643547D01*
X5449326Y634650D01*
X5460650Y623326D01*
X5469547Y610010D01*
X5475676Y595214D01*
X5478800Y579508D01*
X5478800Y563493D01*
X5475676Y547786D01*
X5469547Y532990D01*
X5460650Y519674D01*
X5449326Y508350D01*
X5436010Y499453D01*
X5421214Y493324D01*
X5405508Y490200D01*
X5389493Y490200D01*
X5373786Y493324D01*
X5358990Y499453D01*
X5345675Y508350D01*
X5334350Y519674D01*
X5325453Y532990D01*
X5319324Y547786D01*
X5316200Y563493D01*
X5316200Y579508D01*
X5319324Y595214D01*
X5325453Y610010D01*
X5334350Y623326D01*
X5345675Y634650D01*
X5358990Y643547D01*
X5373786Y649676D01*
X5389493Y652800D01*
X5405508Y652800D01*
X5421214Y649676D01*
X5421214Y649676D01*
G37*
G36*
X4024214Y649676D02*
G01*
X4039010Y643547D01*
X4052325Y634650D01*
X4063650Y623326D01*
X4072547Y610010D01*
X4078676Y595214D01*
X4081800Y579508D01*
X4081800Y563493D01*
X4078676Y547786D01*
X4072547Y532990D01*
X4063650Y519674D01*
X4052325Y508350D01*
X4039010Y499453D01*
X4024214Y493324D01*
X4008507Y490200D01*
X3992492Y490200D01*
X3976786Y493324D01*
X3961990Y499453D01*
X3948674Y508350D01*
X3937350Y519674D01*
X3928453Y532990D01*
X3922324Y547786D01*
X3919200Y563493D01*
X3919200Y579508D01*
X3922324Y595214D01*
X3928453Y610010D01*
X3937350Y623326D01*
X3948674Y634650D01*
X3961990Y643547D01*
X3976786Y649676D01*
X3992492Y652800D01*
X4008507Y652800D01*
X4024214Y649676D01*
X4024214Y649676D01*
G37*
G36*
X8375182Y782369D02*
G01*
X8391224Y777502D01*
X8404491Y770411D01*
X8406008Y769600D01*
X8418966Y758966D01*
X8429600Y746008D01*
X8429601Y746008D01*
X8437502Y731224D01*
X8442369Y715182D01*
X8444012Y698500D01*
X8442369Y681818D01*
X8437502Y665776D01*
X8430567Y652800D01*
X8429600Y650992D01*
X8418966Y638034D01*
X8406008Y627400D01*
X8406008Y627400D01*
X8391224Y619498D01*
X8375182Y614631D01*
X8362680Y613400D01*
X8274320Y613400D01*
X8261818Y614631D01*
X8245776Y619498D01*
X8230992Y627400D01*
X8230992Y627400D01*
X8218034Y638034D01*
X8207400Y650992D01*
X8206433Y652800D01*
X8199498Y665776D01*
X8194631Y681818D01*
X8192988Y698500D01*
X8194631Y715182D01*
X8199498Y731224D01*
X8207399Y746008D01*
X8207400Y746008D01*
X8218034Y758966D01*
X8230992Y769600D01*
X8232509Y770411D01*
X8245776Y777502D01*
X8261818Y782369D01*
X8274320Y783600D01*
X8362680Y783600D01*
X8375182Y782369D01*
X8375182Y782369D01*
G37*
G36*
X7613182Y782369D02*
G01*
X7629224Y777502D01*
X7642491Y770411D01*
X7644008Y769600D01*
X7656966Y758966D01*
X7667600Y746008D01*
X7667600Y746008D01*
X7675502Y731224D01*
X7680369Y715182D01*
X7682012Y698500D01*
X7680369Y681818D01*
X7675502Y665776D01*
X7668567Y652800D01*
X7667600Y650992D01*
X7656966Y638034D01*
X7644008Y627400D01*
X7644008Y627400D01*
X7629224Y619498D01*
X7613182Y614631D01*
X7600680Y613400D01*
X7512320Y613400D01*
X7499818Y614631D01*
X7483776Y619498D01*
X7468992Y627400D01*
X7468992Y627400D01*
X7456034Y638034D01*
X7445400Y650992D01*
X7444433Y652800D01*
X7437498Y665776D01*
X7432631Y681818D01*
X7430988Y698500D01*
X7432631Y715182D01*
X7437498Y731224D01*
X7445399Y746008D01*
X7445400Y746008D01*
X7456034Y758966D01*
X7468992Y769600D01*
X7470509Y770411D01*
X7483776Y777502D01*
X7499818Y782369D01*
X7512320Y783600D01*
X7600680Y783600D01*
X7613182Y782369D01*
X7613182Y782369D01*
G37*
G36*
X1358323Y907330D02*
G01*
X1373810Y900915D01*
X1387748Y891601D01*
X1399601Y879748D01*
X1408915Y865810D01*
X1415330Y850323D01*
X1418600Y833882D01*
X1418600Y817118D01*
X1415330Y800677D01*
X1408915Y785190D01*
X1399601Y771252D01*
X1387748Y759398D01*
X1373810Y750085D01*
X1358323Y743670D01*
X1341882Y740400D01*
X1325118Y740400D01*
X1308677Y743670D01*
X1293190Y750085D01*
X1279252Y759398D01*
X1267399Y771252D01*
X1258085Y785190D01*
X1251670Y800677D01*
X1248400Y817118D01*
X1248400Y833882D01*
X1251670Y850323D01*
X1258085Y865810D01*
X1267399Y879748D01*
X1279252Y891601D01*
X1293190Y900915D01*
X1308677Y907330D01*
X1325118Y910600D01*
X1341882Y910600D01*
X1358323Y907330D01*
X1358323Y907330D01*
G37*
G36*
X2366182Y909369D02*
G01*
X2382224Y904502D01*
X2388936Y900915D01*
X2397008Y896600D01*
X2409966Y885966D01*
X2420600Y873008D01*
X2420601Y873008D01*
X2428502Y858224D01*
X2433369Y842182D01*
X2435012Y825500D01*
X2433369Y808818D01*
X2428502Y792776D01*
X2424448Y785190D01*
X2420600Y777992D01*
X2409966Y765034D01*
X2397008Y754400D01*
X2397008Y754399D01*
X2382224Y746498D01*
X2366182Y741631D01*
X2353680Y740400D01*
X2345320Y740400D01*
X2332818Y741631D01*
X2316776Y746498D01*
X2301992Y754399D01*
X2301992Y754400D01*
X2289034Y765034D01*
X2278400Y777992D01*
X2274552Y785190D01*
X2270498Y792776D01*
X2265631Y808818D01*
X2263988Y825500D01*
X2265631Y842182D01*
X2270498Y858224D01*
X2278400Y873008D01*
X2278400Y873008D01*
X2289034Y885966D01*
X2301992Y896600D01*
X2310064Y900915D01*
X2316776Y904502D01*
X2332818Y909369D01*
X2345320Y910600D01*
X2353680Y910600D01*
X2366182Y909369D01*
X2366182Y909369D01*
G37*
G36*
X7613182Y1036369D02*
G01*
X7629224Y1031502D01*
X7642491Y1024411D01*
X7644008Y1023600D01*
X7656966Y1012966D01*
X7667600Y1000008D01*
X7667600Y1000008D01*
X7675502Y985224D01*
X7680369Y969182D01*
X7682012Y952500D01*
X7680369Y935818D01*
X7675502Y919776D01*
X7670598Y910600D01*
X7667600Y904992D01*
X7656966Y892034D01*
X7644008Y881400D01*
X7644008Y881399D01*
X7629224Y873498D01*
X7613182Y868631D01*
X7600680Y867400D01*
X7512320Y867400D01*
X7499818Y868631D01*
X7483776Y873498D01*
X7468992Y881399D01*
X7468992Y881400D01*
X7456034Y892034D01*
X7445400Y904992D01*
X7442402Y910600D01*
X7437498Y919776D01*
X7432631Y935818D01*
X7430988Y952500D01*
X7432631Y969182D01*
X7437498Y985224D01*
X7445399Y1000008D01*
X7445400Y1000008D01*
X7456034Y1012966D01*
X7468992Y1023600D01*
X7470509Y1024411D01*
X7483776Y1031502D01*
X7499818Y1036369D01*
X7512320Y1037600D01*
X7600680Y1037600D01*
X7613182Y1036369D01*
X7613182Y1036369D01*
G37*
G36*
X8375182Y1036369D02*
G01*
X8391224Y1031502D01*
X8404491Y1024411D01*
X8406008Y1023600D01*
X8418966Y1012966D01*
X8429600Y1000008D01*
X8429601Y1000008D01*
X8437502Y985224D01*
X8442369Y969182D01*
X8444012Y952500D01*
X8442369Y935818D01*
X8437502Y919776D01*
X8432598Y910600D01*
X8429600Y904992D01*
X8418966Y892034D01*
X8406008Y881400D01*
X8406008Y881399D01*
X8391224Y873498D01*
X8375182Y868631D01*
X8362680Y867400D01*
X8274320Y867400D01*
X8261818Y868631D01*
X8245776Y873498D01*
X8230992Y881399D01*
X8230992Y881400D01*
X8218034Y892034D01*
X8207400Y904992D01*
X8204402Y910600D01*
X8199498Y919776D01*
X8194631Y935818D01*
X8192988Y952500D01*
X8194631Y969182D01*
X8199498Y985224D01*
X8207399Y1000008D01*
X8207400Y1000008D01*
X8218034Y1012966D01*
X8230992Y1023600D01*
X8232509Y1024411D01*
X8245776Y1031502D01*
X8261818Y1036369D01*
X8274320Y1037600D01*
X8362680Y1037600D01*
X8375182Y1036369D01*
X8375182Y1036369D01*
G37*
G36*
X3770214Y1157676D02*
G01*
X3785010Y1151547D01*
X3798325Y1142650D01*
X3809650Y1131326D01*
X3818547Y1118010D01*
X3824676Y1103214D01*
X3827800Y1087508D01*
X3827800Y1071493D01*
X3824676Y1055786D01*
X3818547Y1040990D01*
X3809650Y1027674D01*
X3798325Y1016350D01*
X3785010Y1007453D01*
X3770214Y1001324D01*
X3754507Y998200D01*
X3738492Y998200D01*
X3722786Y1001324D01*
X3707990Y1007453D01*
X3694674Y1016350D01*
X3683350Y1027674D01*
X3674453Y1040990D01*
X3668324Y1055786D01*
X3665200Y1071493D01*
X3665200Y1087508D01*
X3668324Y1103214D01*
X3674453Y1118010D01*
X3683350Y1131326D01*
X3694674Y1142650D01*
X3707990Y1151547D01*
X3722786Y1157676D01*
X3738492Y1160800D01*
X3754507Y1160800D01*
X3770214Y1157676D01*
X3770214Y1157676D01*
G37*
G36*
X4278214Y1157676D02*
G01*
X4293010Y1151547D01*
X4306326Y1142650D01*
X4317650Y1131326D01*
X4326547Y1118010D01*
X4332676Y1103214D01*
X4335800Y1087508D01*
X4335800Y1071493D01*
X4332676Y1055786D01*
X4326547Y1040990D01*
X4317650Y1027674D01*
X4306326Y1016350D01*
X4293010Y1007453D01*
X4278214Y1001324D01*
X4262508Y998200D01*
X4246493Y998200D01*
X4230786Y1001324D01*
X4215990Y1007453D01*
X4202675Y1016350D01*
X4191350Y1027674D01*
X4182453Y1040990D01*
X4176324Y1055786D01*
X4173200Y1071493D01*
X4173200Y1087508D01*
X4176324Y1103214D01*
X4182453Y1118010D01*
X4191350Y1131326D01*
X4202675Y1142650D01*
X4215990Y1151547D01*
X4230786Y1157676D01*
X4246493Y1160800D01*
X4262508Y1160800D01*
X4278214Y1157676D01*
X4278214Y1157676D01*
G37*
G36*
X4532214Y1157676D02*
G01*
X4547010Y1151547D01*
X4560326Y1142650D01*
X4571650Y1131326D01*
X4580547Y1118010D01*
X4586676Y1103214D01*
X4589800Y1087508D01*
X4589800Y1071493D01*
X4586676Y1055786D01*
X4580547Y1040990D01*
X4571650Y1027674D01*
X4560326Y1016350D01*
X4547010Y1007453D01*
X4532214Y1001324D01*
X4516508Y998200D01*
X4500493Y998200D01*
X4484786Y1001324D01*
X4469990Y1007453D01*
X4456675Y1016350D01*
X4445350Y1027674D01*
X4436453Y1040990D01*
X4430324Y1055786D01*
X4427200Y1071493D01*
X4427200Y1087508D01*
X4430324Y1103214D01*
X4436453Y1118010D01*
X4445350Y1131326D01*
X4456675Y1142650D01*
X4469990Y1151547D01*
X4484786Y1157676D01*
X4500493Y1160800D01*
X4516508Y1160800D01*
X4532214Y1157676D01*
X4532214Y1157676D01*
G37*
G36*
X3516214Y1157676D02*
G01*
X3531010Y1151547D01*
X3544325Y1142650D01*
X3555650Y1131326D01*
X3564547Y1118010D01*
X3570676Y1103214D01*
X3573800Y1087508D01*
X3573800Y1071493D01*
X3570676Y1055786D01*
X3564547Y1040990D01*
X3555650Y1027674D01*
X3544325Y1016350D01*
X3531010Y1007453D01*
X3516214Y1001324D01*
X3500507Y998200D01*
X3484492Y998200D01*
X3468786Y1001324D01*
X3453990Y1007453D01*
X3440674Y1016350D01*
X3429350Y1027674D01*
X3420453Y1040990D01*
X3414324Y1055786D01*
X3411200Y1071493D01*
X3411200Y1087508D01*
X3414324Y1103214D01*
X3420453Y1118010D01*
X3429350Y1131326D01*
X3440674Y1142650D01*
X3453990Y1151547D01*
X3468786Y1157676D01*
X3484492Y1160800D01*
X3500507Y1160800D01*
X3516214Y1157676D01*
X3516214Y1157676D01*
G37*
G36*
X4913214Y1157676D02*
G01*
X4928010Y1151547D01*
X4941326Y1142650D01*
X4952650Y1131326D01*
X4961547Y1118010D01*
X4967676Y1103214D01*
X4970800Y1087508D01*
X4970800Y1071493D01*
X4967676Y1055786D01*
X4961547Y1040990D01*
X4952650Y1027674D01*
X4941326Y1016350D01*
X4928010Y1007453D01*
X4913214Y1001324D01*
X4897508Y998200D01*
X4881493Y998200D01*
X4865786Y1001324D01*
X4850990Y1007453D01*
X4837675Y1016350D01*
X4826350Y1027674D01*
X4817453Y1040990D01*
X4811324Y1055786D01*
X4808200Y1071493D01*
X4808200Y1087508D01*
X4811324Y1103214D01*
X4817453Y1118010D01*
X4826350Y1131326D01*
X4837675Y1142650D01*
X4850990Y1151547D01*
X4865786Y1157676D01*
X4881493Y1160800D01*
X4897508Y1160800D01*
X4913214Y1157676D01*
X4913214Y1157676D01*
G37*
G36*
X5675214Y1157676D02*
G01*
X5690010Y1151547D01*
X5703325Y1142650D01*
X5714650Y1131326D01*
X5723547Y1118010D01*
X5729676Y1103214D01*
X5732800Y1087508D01*
X5732800Y1071493D01*
X5729676Y1055786D01*
X5723547Y1040990D01*
X5714650Y1027674D01*
X5703325Y1016350D01*
X5690010Y1007453D01*
X5675214Y1001324D01*
X5659507Y998200D01*
X5643492Y998200D01*
X5627786Y1001324D01*
X5612990Y1007453D01*
X5599674Y1016350D01*
X5588350Y1027674D01*
X5579453Y1040990D01*
X5573324Y1055786D01*
X5570200Y1071493D01*
X5570200Y1087508D01*
X5573324Y1103214D01*
X5579453Y1118010D01*
X5588350Y1131326D01*
X5599674Y1142650D01*
X5612990Y1151547D01*
X5627786Y1157676D01*
X5643492Y1160800D01*
X5659507Y1160800D01*
X5675214Y1157676D01*
X5675214Y1157676D01*
G37*
G36*
X5167214Y1157676D02*
G01*
X5182010Y1151547D01*
X5195326Y1142650D01*
X5206650Y1131326D01*
X5215547Y1118010D01*
X5221676Y1103214D01*
X5224800Y1087508D01*
X5224800Y1071493D01*
X5221676Y1055786D01*
X5215547Y1040990D01*
X5206650Y1027674D01*
X5195326Y1016350D01*
X5182010Y1007453D01*
X5167214Y1001324D01*
X5151508Y998200D01*
X5135493Y998200D01*
X5119786Y1001324D01*
X5104990Y1007453D01*
X5091675Y1016350D01*
X5080350Y1027674D01*
X5071453Y1040990D01*
X5065324Y1055786D01*
X5062200Y1071493D01*
X5062200Y1087508D01*
X5065324Y1103214D01*
X5071453Y1118010D01*
X5080350Y1131326D01*
X5091675Y1142650D01*
X5104990Y1151547D01*
X5119786Y1157676D01*
X5135493Y1160800D01*
X5151508Y1160800D01*
X5167214Y1157676D01*
X5167214Y1157676D01*
G37*
G36*
X5929214Y1157676D02*
G01*
X5944010Y1151547D01*
X5957325Y1142650D01*
X5968650Y1131326D01*
X5977547Y1118010D01*
X5983676Y1103214D01*
X5986800Y1087508D01*
X5986800Y1071493D01*
X5983676Y1055786D01*
X5977547Y1040990D01*
X5968650Y1027674D01*
X5957325Y1016350D01*
X5944010Y1007453D01*
X5929214Y1001324D01*
X5913507Y998200D01*
X5897492Y998200D01*
X5881786Y1001324D01*
X5866990Y1007453D01*
X5853674Y1016350D01*
X5842350Y1027674D01*
X5833453Y1040990D01*
X5827324Y1055786D01*
X5824200Y1071493D01*
X5824200Y1087508D01*
X5827324Y1103214D01*
X5833453Y1118010D01*
X5842350Y1131326D01*
X5853674Y1142650D01*
X5866990Y1151547D01*
X5881786Y1157676D01*
X5897492Y1160800D01*
X5913507Y1160800D01*
X5929214Y1157676D01*
X5929214Y1157676D01*
G37*
G36*
X7613182Y1290369D02*
G01*
X7629224Y1285502D01*
X7635936Y1281915D01*
X7644008Y1277600D01*
X7656966Y1266966D01*
X7667600Y1254008D01*
X7667600Y1254008D01*
X7675502Y1239224D01*
X7680369Y1223182D01*
X7682012Y1206500D01*
X7680369Y1189818D01*
X7675502Y1173776D01*
X7671448Y1166190D01*
X7667600Y1158992D01*
X7656966Y1146034D01*
X7644008Y1135400D01*
X7644008Y1135400D01*
X7629224Y1127498D01*
X7613182Y1122631D01*
X7600680Y1121400D01*
X7512320Y1121400D01*
X7499818Y1122631D01*
X7483776Y1127498D01*
X7468992Y1135400D01*
X7468992Y1135400D01*
X7456034Y1146034D01*
X7445400Y1158992D01*
X7441552Y1166190D01*
X7437498Y1173776D01*
X7432631Y1189818D01*
X7430988Y1206500D01*
X7432631Y1223182D01*
X7437498Y1239224D01*
X7445399Y1254008D01*
X7445400Y1254008D01*
X7456034Y1266966D01*
X7468992Y1277600D01*
X7477064Y1281915D01*
X7483776Y1285502D01*
X7499818Y1290369D01*
X7512320Y1291600D01*
X7600680Y1291600D01*
X7613182Y1290369D01*
X7613182Y1290369D01*
G37*
G36*
X2366182Y1290369D02*
G01*
X2382224Y1285502D01*
X2388936Y1281915D01*
X2397008Y1277600D01*
X2409966Y1266966D01*
X2420600Y1254008D01*
X2420601Y1254008D01*
X2428502Y1239224D01*
X2433369Y1223182D01*
X2435012Y1206500D01*
X2433369Y1189818D01*
X2428502Y1173776D01*
X2424448Y1166190D01*
X2420600Y1158992D01*
X2409966Y1146034D01*
X2397008Y1135400D01*
X2397008Y1135400D01*
X2382224Y1127498D01*
X2366182Y1122631D01*
X2353680Y1121400D01*
X2345320Y1121400D01*
X2332818Y1122631D01*
X2316776Y1127498D01*
X2301992Y1135400D01*
X2301992Y1135400D01*
X2289034Y1146034D01*
X2278400Y1158992D01*
X2274552Y1166190D01*
X2270498Y1173776D01*
X2265631Y1189818D01*
X2263988Y1206500D01*
X2265631Y1223182D01*
X2270498Y1239224D01*
X2278400Y1254008D01*
X2278400Y1254008D01*
X2289034Y1266966D01*
X2301992Y1277600D01*
X2310064Y1281915D01*
X2316776Y1285502D01*
X2332818Y1290369D01*
X2345320Y1291600D01*
X2353680Y1291600D01*
X2366182Y1290369D01*
X2366182Y1290369D01*
G37*
G36*
X1358323Y1288330D02*
G01*
X1373810Y1281915D01*
X1387748Y1272602D01*
X1399601Y1260748D01*
X1408915Y1246810D01*
X1415330Y1231323D01*
X1418600Y1214882D01*
X1418600Y1198118D01*
X1415330Y1181677D01*
X1408915Y1166190D01*
X1399601Y1152252D01*
X1387748Y1140399D01*
X1373810Y1131085D01*
X1358323Y1124670D01*
X1341882Y1121400D01*
X1325118Y1121400D01*
X1308677Y1124670D01*
X1293190Y1131085D01*
X1279252Y1140399D01*
X1267399Y1152252D01*
X1258085Y1166190D01*
X1251670Y1181677D01*
X1248400Y1198118D01*
X1248400Y1214882D01*
X1251670Y1231323D01*
X1258085Y1246810D01*
X1267399Y1260748D01*
X1279252Y1272602D01*
X1293190Y1281915D01*
X1308677Y1288330D01*
X1325118Y1291600D01*
X1341882Y1291600D01*
X1358323Y1288330D01*
X1358323Y1288330D01*
G37*
G36*
X8375182Y1290369D02*
G01*
X8391224Y1285502D01*
X8397936Y1281915D01*
X8406008Y1277600D01*
X8418966Y1266966D01*
X8429600Y1254008D01*
X8429601Y1254008D01*
X8437502Y1239224D01*
X8442369Y1223182D01*
X8444012Y1206500D01*
X8442369Y1189818D01*
X8437502Y1173776D01*
X8433448Y1166190D01*
X8429600Y1158992D01*
X8418966Y1146034D01*
X8406008Y1135400D01*
X8406008Y1135400D01*
X8391224Y1127498D01*
X8375182Y1122631D01*
X8362680Y1121400D01*
X8274320Y1121400D01*
X8261818Y1122631D01*
X8245776Y1127498D01*
X8230992Y1135400D01*
X8230992Y1135400D01*
X8218034Y1146034D01*
X8207400Y1158992D01*
X8203552Y1166190D01*
X8199498Y1173776D01*
X8194631Y1189818D01*
X8192988Y1206500D01*
X8194631Y1223182D01*
X8199498Y1239224D01*
X8207399Y1254008D01*
X8207400Y1254008D01*
X8218034Y1266966D01*
X8230992Y1277600D01*
X8239064Y1281915D01*
X8245776Y1285502D01*
X8261818Y1290369D01*
X8274320Y1291600D01*
X8362680Y1291600D01*
X8375182Y1290369D01*
X8375182Y1290369D01*
G37*
G36*
X6449115Y1577908D02*
G01*
X6458319Y1574095D01*
X6471336Y1568704D01*
X6491334Y1555341D01*
X6508341Y1538334D01*
X6521704Y1518336D01*
X6530908Y1496115D01*
X6535600Y1472526D01*
X6535600Y1448474D01*
X6530908Y1424885D01*
X6521704Y1402664D01*
X6508341Y1382666D01*
X6491334Y1365659D01*
X6471336Y1352296D01*
X6458319Y1346905D01*
X6449115Y1343092D01*
X6437320Y1340746D01*
X6425526Y1338400D01*
X6401474Y1338400D01*
X6389679Y1340746D01*
X6377885Y1343092D01*
X6368681Y1346905D01*
X6355664Y1352296D01*
X6335666Y1365659D01*
X6318659Y1382666D01*
X6305296Y1402664D01*
X6296092Y1424885D01*
X6291400Y1448474D01*
X6291400Y1472526D01*
X6296092Y1496115D01*
X6305296Y1518336D01*
X6318659Y1538334D01*
X6335666Y1555341D01*
X6355664Y1568704D01*
X6368681Y1574095D01*
X6377885Y1577908D01*
X6401474Y1582600D01*
X6425526Y1582600D01*
X6449115Y1577908D01*
X6449115Y1577908D01*
G37*
G36*
X6949115Y1577908D02*
G01*
X6958319Y1574095D01*
X6971336Y1568704D01*
X6991334Y1555341D01*
X7008341Y1538334D01*
X7021704Y1518336D01*
X7030908Y1496115D01*
X7035600Y1472526D01*
X7035600Y1448474D01*
X7030908Y1424885D01*
X7021704Y1402664D01*
X7008341Y1382666D01*
X6991334Y1365659D01*
X6971336Y1352296D01*
X6958319Y1346905D01*
X6949115Y1343092D01*
X6937320Y1340746D01*
X6925526Y1338400D01*
X6901474Y1338400D01*
X6889679Y1340746D01*
X6877885Y1343092D01*
X6868681Y1346905D01*
X6855664Y1352296D01*
X6835666Y1365659D01*
X6818659Y1382666D01*
X6805296Y1402664D01*
X6796092Y1424885D01*
X6791400Y1448474D01*
X6791400Y1472526D01*
X6796092Y1496115D01*
X6805296Y1518336D01*
X6818659Y1538334D01*
X6835666Y1555341D01*
X6855664Y1568704D01*
X6868681Y1574095D01*
X6877885Y1577908D01*
X6901474Y1582600D01*
X6925526Y1582600D01*
X6949115Y1577908D01*
X6949115Y1577908D01*
G37*
G36*
X5420864Y1537522D02*
G01*
X5431173Y1533252D01*
X5435442Y1531484D01*
X5448561Y1522718D01*
X5459718Y1511561D01*
X5465839Y1502400D01*
X5468484Y1498441D01*
X5474522Y1483864D01*
X5477600Y1468389D01*
X5477600Y1452611D01*
X5474522Y1437136D01*
X5469447Y1424885D01*
X5468484Y1422558D01*
X5459718Y1409439D01*
X5448561Y1398282D01*
X5435442Y1389516D01*
X5435442Y1389516D01*
X5435441Y1389516D01*
X5420864Y1383478D01*
X5405389Y1380400D01*
X5389611Y1380400D01*
X5374136Y1383478D01*
X5359559Y1389516D01*
X5359559Y1389516D01*
X5359558Y1389516D01*
X5346439Y1398282D01*
X5335282Y1409439D01*
X5326516Y1422558D01*
X5325553Y1424885D01*
X5320478Y1437136D01*
X5317400Y1452611D01*
X5317400Y1468389D01*
X5320478Y1483864D01*
X5326516Y1498441D01*
X5329161Y1502400D01*
X5335282Y1511561D01*
X5346439Y1522718D01*
X5359558Y1531484D01*
X5363827Y1533252D01*
X5374136Y1537522D01*
X5389611Y1540600D01*
X5405389Y1540600D01*
X5420864Y1537522D01*
X5420864Y1537522D01*
G37*
G36*
X8343323Y1669330D02*
G01*
X8358810Y1662915D01*
X8372748Y1653601D01*
X8384601Y1641748D01*
X8393915Y1627810D01*
X8400330Y1612323D01*
X8403600Y1595882D01*
X8403600Y1579118D01*
X8400330Y1562677D01*
X8393915Y1547190D01*
X8384601Y1533252D01*
X8372748Y1521398D01*
X8358810Y1512085D01*
X8343323Y1505670D01*
X8326882Y1502400D01*
X8310118Y1502400D01*
X8293677Y1505670D01*
X8278190Y1512085D01*
X8264252Y1521398D01*
X8252398Y1533252D01*
X8243085Y1547190D01*
X8236670Y1562677D01*
X8233400Y1579118D01*
X8233400Y1595882D01*
X8236670Y1612323D01*
X8243085Y1627810D01*
X8252398Y1641748D01*
X8264252Y1653601D01*
X8278190Y1662915D01*
X8293677Y1669330D01*
X8310118Y1672600D01*
X8326882Y1672600D01*
X8343323Y1669330D01*
X8343323Y1669330D01*
G37*
G36*
X4533323Y1669330D02*
G01*
X4548810Y1662915D01*
X4562748Y1653601D01*
X4574602Y1641748D01*
X4583915Y1627810D01*
X4590330Y1612323D01*
X4593600Y1595882D01*
X4593600Y1579118D01*
X4590330Y1562677D01*
X4583915Y1547190D01*
X4574602Y1533252D01*
X4562748Y1521398D01*
X4548810Y1512085D01*
X4533323Y1505670D01*
X4516882Y1502400D01*
X4500118Y1502400D01*
X4483677Y1505670D01*
X4468190Y1512085D01*
X4454252Y1521398D01*
X4442399Y1533252D01*
X4433085Y1547190D01*
X4426670Y1562677D01*
X4423400Y1579118D01*
X4423400Y1595882D01*
X4426670Y1612323D01*
X4433085Y1627810D01*
X4442399Y1641748D01*
X4454252Y1653601D01*
X4468190Y1662915D01*
X4483677Y1669330D01*
X4500118Y1672600D01*
X4516882Y1672600D01*
X4533323Y1669330D01*
X4533323Y1669330D01*
G37*
G36*
X3509182Y1671369D02*
G01*
X3525224Y1666502D01*
X3530955Y1663439D01*
X3540008Y1658600D01*
X3552966Y1647966D01*
X3563600Y1635008D01*
X3563600Y1635008D01*
X3571502Y1620224D01*
X3576369Y1604182D01*
X3578012Y1587500D01*
X3576369Y1570818D01*
X3572408Y1557762D01*
X3571674Y1555341D01*
X3571502Y1554776D01*
X3567448Y1547190D01*
X3563600Y1539992D01*
X3552966Y1527034D01*
X3540008Y1516400D01*
X3540008Y1516399D01*
X3525224Y1508498D01*
X3509182Y1503631D01*
X3496680Y1502400D01*
X3488320Y1502400D01*
X3475818Y1503631D01*
X3459776Y1508498D01*
X3444992Y1516399D01*
X3444992Y1516400D01*
X3432034Y1527034D01*
X3421400Y1539992D01*
X3417552Y1547190D01*
X3413498Y1554776D01*
X3413326Y1555341D01*
X3412592Y1557762D01*
X3408631Y1570818D01*
X3406988Y1587500D01*
X3408631Y1604182D01*
X3413498Y1620224D01*
X3421399Y1635008D01*
X3421400Y1635008D01*
X3432034Y1647966D01*
X3444992Y1658600D01*
X3454045Y1663439D01*
X3459776Y1666502D01*
X3475818Y1671369D01*
X3488320Y1672600D01*
X3496680Y1672600D01*
X3509182Y1671369D01*
X3509182Y1671369D01*
G37*
G36*
X7454323Y1669330D02*
G01*
X7469810Y1662915D01*
X7483748Y1653601D01*
X7495601Y1641748D01*
X7504915Y1627810D01*
X7511330Y1612323D01*
X7514600Y1595882D01*
X7514600Y1579118D01*
X7511330Y1562677D01*
X7504915Y1547190D01*
X7495601Y1533252D01*
X7483748Y1521398D01*
X7469810Y1512085D01*
X7454323Y1505670D01*
X7437882Y1502400D01*
X7421118Y1502400D01*
X7404677Y1505670D01*
X7389190Y1512085D01*
X7375252Y1521398D01*
X7363398Y1533252D01*
X7354085Y1547190D01*
X7347670Y1562677D01*
X7344400Y1579118D01*
X7344400Y1595882D01*
X7347670Y1612323D01*
X7354085Y1627810D01*
X7363398Y1641748D01*
X7375252Y1653601D01*
X7389190Y1662915D01*
X7404677Y1669330D01*
X7421118Y1672600D01*
X7437882Y1672600D01*
X7454323Y1669330D01*
X7454323Y1669330D01*
G37*
G36*
X7954323Y1669330D02*
G01*
X7969810Y1662915D01*
X7983748Y1653601D01*
X7995601Y1641748D01*
X8004915Y1627810D01*
X8011330Y1612323D01*
X8014600Y1595882D01*
X8014600Y1579118D01*
X8011330Y1562677D01*
X8004915Y1547190D01*
X7995601Y1533252D01*
X7983748Y1521398D01*
X7969810Y1512085D01*
X7954323Y1505670D01*
X7937882Y1502400D01*
X7921118Y1502400D01*
X7904677Y1505670D01*
X7889190Y1512085D01*
X7875252Y1521398D01*
X7863398Y1533252D01*
X7854085Y1547190D01*
X7847670Y1562677D01*
X7844400Y1579118D01*
X7844400Y1595882D01*
X7847670Y1612323D01*
X7854085Y1627810D01*
X7863398Y1641748D01*
X7875252Y1653601D01*
X7889190Y1662915D01*
X7904677Y1669330D01*
X7921118Y1672600D01*
X7937882Y1672600D01*
X7954323Y1669330D01*
X7954323Y1669330D01*
G37*
G36*
X5731600Y1634400D02*
G01*
X5571400Y1634400D01*
X5571400Y1794600D01*
X5731600Y1794600D01*
X5731600Y1634400D01*
X5731600Y1634400D01*
G37*
G36*
X5166864Y1791522D02*
G01*
X5177173Y1787252D01*
X5181442Y1785484D01*
X5194561Y1776718D01*
X5205718Y1765561D01*
X5211839Y1756400D01*
X5214484Y1752441D01*
X5220522Y1737864D01*
X5223600Y1722389D01*
X5223600Y1706611D01*
X5220522Y1691136D01*
X5214484Y1676559D01*
X5214484Y1676558D01*
X5205718Y1663439D01*
X5194561Y1652282D01*
X5181442Y1643516D01*
X5181442Y1643516D01*
X5181441Y1643516D01*
X5166864Y1637478D01*
X5151389Y1634400D01*
X5135611Y1634400D01*
X5120136Y1637478D01*
X5105559Y1643516D01*
X5105559Y1643516D01*
X5105558Y1643516D01*
X5092439Y1652282D01*
X5081282Y1663439D01*
X5072516Y1676558D01*
X5072516Y1676559D01*
X5066478Y1691136D01*
X5063400Y1706611D01*
X5063400Y1722389D01*
X5066478Y1737864D01*
X5072516Y1752441D01*
X5075161Y1756400D01*
X5081282Y1765561D01*
X5092439Y1776718D01*
X5105558Y1785484D01*
X5109827Y1787252D01*
X5120136Y1791522D01*
X5135611Y1794600D01*
X5151389Y1794600D01*
X5166864Y1791522D01*
X5166864Y1791522D01*
G37*
G36*
X2374323Y1923330D02*
G01*
X2389810Y1916915D01*
X2403748Y1907601D01*
X2415602Y1895748D01*
X2424915Y1881810D01*
X2431330Y1866323D01*
X2434600Y1849882D01*
X2434600Y1833118D01*
X2431330Y1816677D01*
X2424915Y1801190D01*
X2415602Y1787252D01*
X2403748Y1775398D01*
X2389810Y1766085D01*
X2374323Y1759670D01*
X2357882Y1756400D01*
X2341118Y1756400D01*
X2324677Y1759670D01*
X2309190Y1766085D01*
X2295252Y1775398D01*
X2283399Y1787252D01*
X2274085Y1801190D01*
X2267670Y1816677D01*
X2264400Y1833118D01*
X2264400Y1849882D01*
X2267670Y1866323D01*
X2274085Y1881810D01*
X2283399Y1895748D01*
X2295252Y1907601D01*
X2309190Y1916915D01*
X2324677Y1923330D01*
X2341118Y1926600D01*
X2357882Y1926600D01*
X2374323Y1923330D01*
X2374323Y1923330D01*
G37*
G36*
X1612323Y1923330D02*
G01*
X1627810Y1916915D01*
X1641748Y1907601D01*
X1653601Y1895748D01*
X1662915Y1881810D01*
X1669330Y1866323D01*
X1672600Y1849882D01*
X1672600Y1833118D01*
X1669330Y1816677D01*
X1662915Y1801190D01*
X1653601Y1787252D01*
X1641748Y1775398D01*
X1627810Y1766085D01*
X1612323Y1759670D01*
X1595882Y1756400D01*
X1579118Y1756400D01*
X1562677Y1759670D01*
X1547190Y1766085D01*
X1533252Y1775398D01*
X1521398Y1787252D01*
X1512085Y1801190D01*
X1505670Y1816677D01*
X1502400Y1833118D01*
X1502400Y1849882D01*
X1505670Y1866323D01*
X1512085Y1881810D01*
X1521398Y1895748D01*
X1533252Y1907601D01*
X1547190Y1916915D01*
X1562677Y1923330D01*
X1579118Y1926600D01*
X1595882Y1926600D01*
X1612323Y1923330D01*
X1612323Y1923330D01*
G37*
G36*
X1104323Y1923330D02*
G01*
X1119810Y1916915D01*
X1133748Y1907601D01*
X1145602Y1895748D01*
X1154915Y1881810D01*
X1161330Y1866323D01*
X1164600Y1849882D01*
X1164600Y1833118D01*
X1161330Y1816677D01*
X1154915Y1801190D01*
X1145602Y1787252D01*
X1133748Y1775398D01*
X1119810Y1766085D01*
X1104323Y1759670D01*
X1087882Y1756400D01*
X1071118Y1756400D01*
X1054677Y1759670D01*
X1039190Y1766085D01*
X1025252Y1775398D01*
X1013398Y1787252D01*
X1004085Y1801190D01*
X997670Y1816677D01*
X994400Y1833118D01*
X994400Y1849882D01*
X997670Y1866323D01*
X1004085Y1881810D01*
X1013398Y1895748D01*
X1025252Y1907601D01*
X1039190Y1916915D01*
X1054677Y1923330D01*
X1071118Y1926600D01*
X1087882Y1926600D01*
X1104323Y1923330D01*
X1104323Y1923330D01*
G37*
G36*
X850323Y1923330D02*
G01*
X865810Y1916915D01*
X879748Y1907601D01*
X891601Y1895748D01*
X900915Y1881810D01*
X907330Y1866323D01*
X910600Y1849882D01*
X910600Y1833118D01*
X907330Y1816677D01*
X900915Y1801190D01*
X891601Y1787252D01*
X879748Y1775398D01*
X865810Y1766085D01*
X850323Y1759670D01*
X833882Y1756400D01*
X817118Y1756400D01*
X800677Y1759670D01*
X785190Y1766085D01*
X771252Y1775398D01*
X759398Y1787252D01*
X750085Y1801190D01*
X743670Y1816677D01*
X740400Y1833118D01*
X740400Y1849882D01*
X743670Y1866323D01*
X750085Y1881810D01*
X759398Y1895748D01*
X771252Y1907601D01*
X785190Y1916915D01*
X800677Y1923330D01*
X817118Y1926600D01*
X833882Y1926600D01*
X850323Y1923330D01*
X850323Y1923330D01*
G37*
G36*
X596323Y1923330D02*
G01*
X611810Y1916915D01*
X625748Y1907601D01*
X637602Y1895748D01*
X646915Y1881810D01*
X653330Y1866323D01*
X656600Y1849882D01*
X656600Y1833118D01*
X653330Y1816677D01*
X646915Y1801190D01*
X637602Y1787252D01*
X625748Y1775398D01*
X611810Y1766085D01*
X596323Y1759670D01*
X579882Y1756400D01*
X563118Y1756400D01*
X546677Y1759670D01*
X531190Y1766085D01*
X517252Y1775398D01*
X505398Y1787252D01*
X496085Y1801190D01*
X489670Y1816677D01*
X486400Y1833118D01*
X486400Y1849882D01*
X489670Y1866323D01*
X496085Y1881810D01*
X505398Y1895748D01*
X517252Y1907601D01*
X531190Y1916915D01*
X546677Y1923330D01*
X563118Y1926600D01*
X579882Y1926600D01*
X596323Y1923330D01*
X596323Y1923330D01*
G37*
G36*
X342323Y1923330D02*
G01*
X357810Y1916915D01*
X371748Y1907601D01*
X383601Y1895748D01*
X392915Y1881810D01*
X399330Y1866323D01*
X402600Y1849882D01*
X402600Y1833118D01*
X399330Y1816677D01*
X392915Y1801190D01*
X383601Y1787252D01*
X371748Y1775398D01*
X357810Y1766085D01*
X342323Y1759670D01*
X325882Y1756400D01*
X309118Y1756400D01*
X292677Y1759670D01*
X277190Y1766085D01*
X263252Y1775398D01*
X251398Y1787252D01*
X242085Y1801190D01*
X235670Y1816677D01*
X232400Y1833118D01*
X232400Y1849882D01*
X235670Y1866323D01*
X242085Y1881810D01*
X251398Y1895748D01*
X263252Y1907601D01*
X277190Y1916915D01*
X292677Y1923330D01*
X309118Y1926600D01*
X325882Y1926600D01*
X342323Y1923330D01*
X342323Y1923330D01*
G37*
G36*
X1866323Y1923330D02*
G01*
X1881810Y1916915D01*
X1895748Y1907601D01*
X1907601Y1895748D01*
X1916915Y1881810D01*
X1923330Y1866323D01*
X1926600Y1849882D01*
X1926600Y1833118D01*
X1923330Y1816677D01*
X1916915Y1801190D01*
X1907601Y1787252D01*
X1895748Y1775398D01*
X1881810Y1766085D01*
X1866323Y1759670D01*
X1849882Y1756400D01*
X1833118Y1756400D01*
X1816677Y1759670D01*
X1801190Y1766085D01*
X1787252Y1775398D01*
X1775398Y1787252D01*
X1766085Y1801190D01*
X1759670Y1816677D01*
X1756400Y1833118D01*
X1756400Y1849882D01*
X1759670Y1866323D01*
X1766085Y1881810D01*
X1775398Y1895748D01*
X1787252Y1907601D01*
X1801190Y1916915D01*
X1816677Y1923330D01*
X1833118Y1926600D01*
X1849882Y1926600D01*
X1866323Y1923330D01*
X1866323Y1923330D01*
G37*
G36*
X2120323Y1923330D02*
G01*
X2135810Y1916915D01*
X2149748Y1907601D01*
X2161602Y1895748D01*
X2170915Y1881810D01*
X2177330Y1866323D01*
X2180600Y1849882D01*
X2180600Y1833118D01*
X2177330Y1816677D01*
X2170915Y1801190D01*
X2161602Y1787252D01*
X2149748Y1775398D01*
X2135810Y1766085D01*
X2120323Y1759670D01*
X2103882Y1756400D01*
X2087118Y1756400D01*
X2070677Y1759670D01*
X2055190Y1766085D01*
X2041252Y1775398D01*
X2029398Y1787252D01*
X2020085Y1801190D01*
X2013670Y1816677D01*
X2010400Y1833118D01*
X2010400Y1849882D01*
X2013670Y1866323D01*
X2020085Y1881810D01*
X2029398Y1895748D01*
X2041252Y1907601D01*
X2055190Y1916915D01*
X2070677Y1923330D01*
X2087118Y1926600D01*
X2103882Y1926600D01*
X2120323Y1923330D01*
X2120323Y1923330D01*
G37*
G36*
X3136323Y1923330D02*
G01*
X3151810Y1916915D01*
X3165748Y1907601D01*
X3177601Y1895748D01*
X3186915Y1881810D01*
X3193330Y1866323D01*
X3196600Y1849882D01*
X3196600Y1833118D01*
X3193330Y1816677D01*
X3186915Y1801190D01*
X3177601Y1787252D01*
X3165748Y1775398D01*
X3151810Y1766085D01*
X3136323Y1759670D01*
X3119882Y1756400D01*
X3103118Y1756400D01*
X3086677Y1759670D01*
X3071190Y1766085D01*
X3057252Y1775398D01*
X3045398Y1787252D01*
X3036085Y1801190D01*
X3029670Y1816677D01*
X3026400Y1833118D01*
X3026400Y1849882D01*
X3029670Y1866323D01*
X3036085Y1881810D01*
X3045398Y1895748D01*
X3057252Y1907601D01*
X3071190Y1916915D01*
X3086677Y1923330D01*
X3103118Y1926600D01*
X3119882Y1926600D01*
X3136323Y1923330D01*
X3136323Y1923330D01*
G37*
G36*
X1358323Y1923330D02*
G01*
X1373810Y1916915D01*
X1387748Y1907601D01*
X1399601Y1895748D01*
X1408915Y1881810D01*
X1415330Y1866323D01*
X1418600Y1849882D01*
X1418600Y1833118D01*
X1415330Y1816677D01*
X1408915Y1801190D01*
X1399601Y1787252D01*
X1387748Y1775398D01*
X1373810Y1766085D01*
X1358323Y1759670D01*
X1341882Y1756400D01*
X1325118Y1756400D01*
X1308677Y1759670D01*
X1293190Y1766085D01*
X1279252Y1775398D01*
X1267399Y1787252D01*
X1258085Y1801190D01*
X1251670Y1816677D01*
X1248400Y1833118D01*
X1248400Y1849882D01*
X1251670Y1866323D01*
X1258085Y1881810D01*
X1267399Y1895748D01*
X1279252Y1907601D01*
X1293190Y1916915D01*
X1308677Y1923330D01*
X1325118Y1926600D01*
X1341882Y1926600D01*
X1358323Y1923330D01*
X1358323Y1923330D01*
G37*
G36*
X2882323Y1923330D02*
G01*
X2897810Y1916915D01*
X2911748Y1907601D01*
X2923601Y1895748D01*
X2932915Y1881810D01*
X2939330Y1866323D01*
X2942600Y1849882D01*
X2942600Y1833118D01*
X2939330Y1816677D01*
X2932915Y1801190D01*
X2923601Y1787252D01*
X2911748Y1775398D01*
X2897810Y1766085D01*
X2882323Y1759670D01*
X2865882Y1756400D01*
X2849118Y1756400D01*
X2832677Y1759670D01*
X2817190Y1766085D01*
X2803252Y1775398D01*
X2791399Y1787252D01*
X2782085Y1801190D01*
X2775670Y1816677D01*
X2772400Y1833118D01*
X2772400Y1849882D01*
X2775670Y1866323D01*
X2782085Y1881810D01*
X2791399Y1895748D01*
X2803252Y1907601D01*
X2817190Y1916915D01*
X2832677Y1923330D01*
X2849118Y1926600D01*
X2865882Y1926600D01*
X2882323Y1923330D01*
X2882323Y1923330D01*
G37*
G36*
X2628323Y1923330D02*
G01*
X2643810Y1916915D01*
X2657748Y1907601D01*
X2669602Y1895748D01*
X2678915Y1881810D01*
X2685330Y1866323D01*
X2688600Y1849882D01*
X2688600Y1833118D01*
X2685330Y1816677D01*
X2678915Y1801190D01*
X2669602Y1787252D01*
X2657748Y1775398D01*
X2643810Y1766085D01*
X2628323Y1759670D01*
X2611882Y1756400D01*
X2595118Y1756400D01*
X2578677Y1759670D01*
X2563190Y1766085D01*
X2549252Y1775398D01*
X2537399Y1787252D01*
X2528085Y1801190D01*
X2521670Y1816677D01*
X2518400Y1833118D01*
X2518400Y1849882D01*
X2521670Y1866323D01*
X2528085Y1881810D01*
X2537399Y1895748D01*
X2549252Y1907601D01*
X2563190Y1916915D01*
X2578677Y1923330D01*
X2595118Y1926600D01*
X2611882Y1926600D01*
X2628323Y1923330D01*
X2628323Y1923330D01*
G37*
G36*
X2945823Y2113830D02*
G01*
X2961310Y2107415D01*
X2975248Y2098102D01*
X2987101Y2086248D01*
X2996415Y2072310D01*
X3002830Y2056823D01*
X3006100Y2040382D01*
X3006100Y2023618D01*
X3002830Y2007177D01*
X2996415Y1991690D01*
X2987101Y1977752D01*
X2975248Y1965898D01*
X2961310Y1956585D01*
X2945823Y1950170D01*
X2929382Y1946900D01*
X2912618Y1946900D01*
X2896177Y1950170D01*
X2880690Y1956585D01*
X2866752Y1965898D01*
X2854898Y1977752D01*
X2845585Y1991690D01*
X2839170Y2007177D01*
X2835900Y2023618D01*
X2835900Y2040382D01*
X2839170Y2056823D01*
X2845585Y2072310D01*
X2854898Y2086248D01*
X2866752Y2098102D01*
X2880690Y2107415D01*
X2896177Y2113830D01*
X2912618Y2117100D01*
X2929382Y2117100D01*
X2945823Y2113830D01*
X2945823Y2113830D01*
G37*
G36*
X7950262Y2199658D02*
G01*
X7956792Y2197677D01*
X7962533Y2195935D01*
X7973842Y2189891D01*
X7983755Y2181755D01*
X7991891Y2171843D01*
X7997935Y2160534D01*
X7998294Y2159350D01*
X8001658Y2148262D01*
X8002600Y2138697D01*
X8002600Y2052303D01*
X8001658Y2042738D01*
X8000943Y2040382D01*
X7997935Y2030466D01*
X7991891Y2019157D01*
X7983755Y2009245D01*
X7973842Y2001109D01*
X7962534Y1995065D01*
X7959340Y1994096D01*
X7950262Y1991342D01*
X7937500Y1990085D01*
X7924738Y1991342D01*
X7915660Y1994096D01*
X7912466Y1995065D01*
X7901158Y2001109D01*
X7891245Y2009245D01*
X7883109Y2019157D01*
X7877065Y2030466D01*
X7876220Y2033252D01*
X7873342Y2042738D01*
X7872400Y2052303D01*
X7872400Y2138697D01*
X7873342Y2148262D01*
X7877064Y2160533D01*
X7877065Y2160534D01*
X7883109Y2171842D01*
X7891245Y2181755D01*
X7901157Y2189891D01*
X7912466Y2195935D01*
X7918208Y2197677D01*
X7924738Y2199658D01*
X7937500Y2200915D01*
X7950262Y2199658D01*
X7950262Y2199658D01*
G37*
G36*
X6934262Y2199658D02*
G01*
X6940792Y2197677D01*
X6946533Y2195935D01*
X6957842Y2189891D01*
X6967755Y2181755D01*
X6975891Y2171843D01*
X6981935Y2160534D01*
X6982294Y2159350D01*
X6985658Y2148262D01*
X6986600Y2138697D01*
X6986600Y2052303D01*
X6985658Y2042738D01*
X6984943Y2040382D01*
X6981935Y2030466D01*
X6975891Y2019157D01*
X6967755Y2009245D01*
X6957842Y2001109D01*
X6946534Y1995065D01*
X6943340Y1994096D01*
X6934262Y1991342D01*
X6921500Y1990085D01*
X6908738Y1991342D01*
X6899660Y1994096D01*
X6896466Y1995065D01*
X6885158Y2001109D01*
X6875245Y2009245D01*
X6867109Y2019157D01*
X6861065Y2030466D01*
X6860220Y2033252D01*
X6857342Y2042738D01*
X6856400Y2052303D01*
X6856400Y2138697D01*
X6857342Y2148262D01*
X6861064Y2160533D01*
X6861065Y2160534D01*
X6867109Y2171842D01*
X6875245Y2181755D01*
X6885157Y2189891D01*
X6896466Y2195935D01*
X6902208Y2197677D01*
X6908738Y2199658D01*
X6921500Y2200915D01*
X6934262Y2199658D01*
X6934262Y2199658D01*
G37*
G36*
X7188262Y2199658D02*
G01*
X7194792Y2197677D01*
X7200533Y2195935D01*
X7211842Y2189891D01*
X7221755Y2181755D01*
X7229891Y2171843D01*
X7235935Y2160534D01*
X7236294Y2159350D01*
X7239658Y2148262D01*
X7240600Y2138697D01*
X7240600Y2052303D01*
X7239658Y2042738D01*
X7238943Y2040382D01*
X7235935Y2030466D01*
X7229891Y2019157D01*
X7221755Y2009245D01*
X7211842Y2001109D01*
X7200534Y1995065D01*
X7197340Y1994096D01*
X7188262Y1991342D01*
X7175500Y1990085D01*
X7162738Y1991342D01*
X7153660Y1994096D01*
X7150466Y1995065D01*
X7139158Y2001109D01*
X7129245Y2009245D01*
X7121109Y2019157D01*
X7115065Y2030466D01*
X7114220Y2033252D01*
X7111342Y2042738D01*
X7110400Y2052303D01*
X7110400Y2138697D01*
X7111342Y2148262D01*
X7115064Y2160533D01*
X7115065Y2160534D01*
X7121109Y2171842D01*
X7129245Y2181755D01*
X7139157Y2189891D01*
X7150466Y2195935D01*
X7156208Y2197677D01*
X7162738Y2199658D01*
X7175500Y2200915D01*
X7188262Y2199658D01*
X7188262Y2199658D01*
G37*
G36*
X7454323Y2367830D02*
G01*
X7469810Y2361415D01*
X7483748Y2352102D01*
X7495601Y2340248D01*
X7504915Y2326310D01*
X7511330Y2310823D01*
X7514600Y2294382D01*
X7514600Y2277618D01*
X7511330Y2261177D01*
X7504915Y2245690D01*
X7495601Y2231752D01*
X7483748Y2219899D01*
X7469810Y2210585D01*
X7469682Y2210532D01*
X7467522Y2209378D01*
X7465627Y2207823D01*
X7464073Y2205929D01*
X7462917Y2203768D01*
X7462206Y2201423D01*
X7461966Y2198985D01*
X7462206Y2196546D01*
X7462917Y2194201D01*
X7464072Y2192040D01*
X7465627Y2190146D01*
X7466536Y2189322D01*
X7475755Y2181755D01*
X7483891Y2171843D01*
X7489935Y2160534D01*
X7490294Y2159350D01*
X7493658Y2148262D01*
X7494600Y2138697D01*
X7494600Y2052303D01*
X7493658Y2042738D01*
X7492943Y2040382D01*
X7489935Y2030466D01*
X7483891Y2019157D01*
X7475755Y2009245D01*
X7465842Y2001109D01*
X7454534Y1995065D01*
X7451340Y1994096D01*
X7442262Y1991342D01*
X7429500Y1990085D01*
X7416738Y1991342D01*
X7407660Y1994096D01*
X7404466Y1995065D01*
X7393158Y2001109D01*
X7383245Y2009245D01*
X7375109Y2019157D01*
X7369065Y2030466D01*
X7368220Y2033252D01*
X7365342Y2042738D01*
X7364400Y2052303D01*
X7364400Y2138697D01*
X7365342Y2148262D01*
X7369064Y2160533D01*
X7369065Y2160534D01*
X7375109Y2171842D01*
X7383245Y2181755D01*
X7392464Y2189322D01*
X7394197Y2191054D01*
X7395558Y2193092D01*
X7396496Y2195356D01*
X7396974Y2197759D01*
X7396974Y2200209D01*
X7396496Y2202613D01*
X7395558Y2204877D01*
X7394197Y2206914D01*
X7392464Y2208647D01*
X7390427Y2210008D01*
X7389319Y2210532D01*
X7389190Y2210585D01*
X7375252Y2219899D01*
X7363398Y2231752D01*
X7354085Y2245690D01*
X7347670Y2261177D01*
X7344400Y2277618D01*
X7344400Y2294382D01*
X7347670Y2310823D01*
X7354085Y2326310D01*
X7363398Y2340248D01*
X7375252Y2352102D01*
X7389190Y2361415D01*
X7404677Y2367830D01*
X7421118Y2371100D01*
X7437882Y2371100D01*
X7454323Y2367830D01*
X7454323Y2367830D01*
G37*
G36*
X7696262Y2199658D02*
G01*
X7702792Y2197677D01*
X7708533Y2195935D01*
X7719842Y2189891D01*
X7729755Y2181755D01*
X7737891Y2171843D01*
X7743935Y2160534D01*
X7744294Y2159350D01*
X7747658Y2148262D01*
X7748600Y2138697D01*
X7748600Y2052303D01*
X7747658Y2042738D01*
X7746943Y2040382D01*
X7743935Y2030466D01*
X7737891Y2019157D01*
X7729755Y2009245D01*
X7719842Y2001109D01*
X7708534Y1995065D01*
X7705340Y1994096D01*
X7696262Y1991342D01*
X7683500Y1990085D01*
X7670738Y1991342D01*
X7661660Y1994096D01*
X7658466Y1995065D01*
X7647158Y2001109D01*
X7637245Y2009245D01*
X7629109Y2019157D01*
X7623065Y2030466D01*
X7622220Y2033252D01*
X7619342Y2042738D01*
X7618400Y2052303D01*
X7618400Y2138697D01*
X7619342Y2148262D01*
X7623064Y2160533D01*
X7623065Y2160534D01*
X7629109Y2171842D01*
X7637245Y2181755D01*
X7647157Y2189891D01*
X7658466Y2195935D01*
X7664208Y2197677D01*
X7670738Y2199658D01*
X7683500Y2200915D01*
X7696262Y2199658D01*
X7696262Y2199658D01*
G37*
G36*
X8343323Y2169330D02*
G01*
X8358810Y2162915D01*
X8372748Y2153602D01*
X8384601Y2141748D01*
X8393915Y2127810D01*
X8400330Y2112323D01*
X8403600Y2095882D01*
X8403600Y2079118D01*
X8400330Y2062677D01*
X8393915Y2047190D01*
X8384601Y2033252D01*
X8372748Y2021398D01*
X8358810Y2012085D01*
X8343323Y2005670D01*
X8326882Y2002400D01*
X8310118Y2002400D01*
X8293677Y2005670D01*
X8278190Y2012085D01*
X8264252Y2021398D01*
X8252398Y2033252D01*
X8243085Y2047190D01*
X8236670Y2062677D01*
X8233400Y2079118D01*
X8233400Y2095882D01*
X8236670Y2112323D01*
X8243085Y2127810D01*
X8252398Y2141748D01*
X8264252Y2153602D01*
X8278190Y2162915D01*
X8293677Y2169330D01*
X8310118Y2172600D01*
X8326882Y2172600D01*
X8343323Y2169330D01*
X8343323Y2169330D01*
G37*
G36*
X2501323Y2240830D02*
G01*
X2516810Y2234415D01*
X2530748Y2225102D01*
X2542602Y2213248D01*
X2551915Y2199310D01*
X2558330Y2183823D01*
X2561600Y2167382D01*
X2561600Y2150618D01*
X2558330Y2134177D01*
X2551915Y2118690D01*
X2542602Y2104752D01*
X2530748Y2092898D01*
X2516810Y2083585D01*
X2501323Y2077170D01*
X2484882Y2073900D01*
X2468118Y2073900D01*
X2451677Y2077170D01*
X2436190Y2083585D01*
X2422252Y2092898D01*
X2410399Y2104752D01*
X2401085Y2118690D01*
X2394670Y2134177D01*
X2391400Y2150618D01*
X2391400Y2167382D01*
X2394670Y2183823D01*
X2401085Y2199310D01*
X2410399Y2213248D01*
X2422252Y2225102D01*
X2436190Y2234415D01*
X2451677Y2240830D01*
X2468118Y2244100D01*
X2484882Y2244100D01*
X2501323Y2240830D01*
X2501323Y2240830D01*
G37*
G36*
X3644323Y2304330D02*
G01*
X3659810Y2297915D01*
X3673748Y2288602D01*
X3685601Y2276748D01*
X3694915Y2262810D01*
X3701330Y2247323D01*
X3704600Y2230882D01*
X3704600Y2214118D01*
X3701330Y2197677D01*
X3694915Y2182190D01*
X3685601Y2168252D01*
X3673748Y2156399D01*
X3659810Y2147085D01*
X3644323Y2140670D01*
X3627882Y2137400D01*
X3611118Y2137400D01*
X3594677Y2140670D01*
X3579190Y2147085D01*
X3565252Y2156399D01*
X3553398Y2168252D01*
X3544085Y2182190D01*
X3537670Y2197677D01*
X3534400Y2214118D01*
X3534400Y2230882D01*
X3537670Y2247323D01*
X3544085Y2262810D01*
X3553398Y2276748D01*
X3565252Y2288602D01*
X3579190Y2297915D01*
X3594677Y2304330D01*
X3611118Y2307600D01*
X3627882Y2307600D01*
X3644323Y2304330D01*
X3644323Y2304330D01*
G37*
G36*
X4652182Y2306369D02*
G01*
X4668224Y2301502D01*
X4674936Y2297915D01*
X4683008Y2293600D01*
X4695966Y2282966D01*
X4706600Y2270008D01*
X4706601Y2270008D01*
X4714502Y2255224D01*
X4719369Y2239182D01*
X4721012Y2222500D01*
X4719369Y2205818D01*
X4714502Y2189776D01*
X4710448Y2182190D01*
X4706600Y2174992D01*
X4695966Y2162034D01*
X4683008Y2151400D01*
X4683008Y2151400D01*
X4668224Y2143498D01*
X4652182Y2138631D01*
X4639680Y2137400D01*
X4631320Y2137400D01*
X4618818Y2138631D01*
X4602776Y2143498D01*
X4587992Y2151400D01*
X4587992Y2151400D01*
X4575034Y2162034D01*
X4564400Y2174992D01*
X4560552Y2182190D01*
X4556498Y2189776D01*
X4551631Y2205818D01*
X4549988Y2222500D01*
X4551631Y2239182D01*
X4556498Y2255224D01*
X4564400Y2270008D01*
X4564400Y2270008D01*
X4575034Y2282966D01*
X4587992Y2293600D01*
X4596064Y2297915D01*
X4602776Y2301502D01*
X4618818Y2306369D01*
X4631320Y2307600D01*
X4639680Y2307600D01*
X4652182Y2306369D01*
X4652182Y2306369D01*
G37*
G36*
X1103214Y2300676D02*
G01*
X1118010Y2294547D01*
X1131326Y2285650D01*
X1142650Y2274326D01*
X1151547Y2261010D01*
X1157676Y2246214D01*
X1160800Y2230508D01*
X1160800Y2214493D01*
X1157676Y2198786D01*
X1151547Y2183990D01*
X1142650Y2170675D01*
X1131326Y2159350D01*
X1118010Y2150453D01*
X1103214Y2144324D01*
X1087508Y2141200D01*
X1071493Y2141200D01*
X1055786Y2144324D01*
X1040990Y2150453D01*
X1027674Y2159350D01*
X1016350Y2170675D01*
X1007453Y2183990D01*
X1001324Y2198786D01*
X998200Y2214493D01*
X998200Y2230508D01*
X1001324Y2246214D01*
X1007453Y2261010D01*
X1016350Y2274326D01*
X1027674Y2285650D01*
X1040990Y2294547D01*
X1055786Y2300676D01*
X1071493Y2303800D01*
X1087508Y2303800D01*
X1103214Y2300676D01*
X1103214Y2300676D01*
G37*
G36*
X5160182Y2369869D02*
G01*
X5176224Y2365002D01*
X5189491Y2357911D01*
X5191008Y2357100D01*
X5203966Y2346466D01*
X5214600Y2333508D01*
X5214601Y2333508D01*
X5222502Y2318724D01*
X5227369Y2302682D01*
X5229012Y2286000D01*
X5227369Y2269318D01*
X5222502Y2253276D01*
X5218448Y2245690D01*
X5214600Y2238492D01*
X5203966Y2225534D01*
X5191008Y2214900D01*
X5190246Y2214493D01*
X5176224Y2206998D01*
X5160182Y2202131D01*
X5147680Y2200900D01*
X5139320Y2200900D01*
X5126818Y2202131D01*
X5110776Y2206998D01*
X5096754Y2214493D01*
X5095992Y2214900D01*
X5083034Y2225534D01*
X5072400Y2238492D01*
X5068552Y2245690D01*
X5064498Y2253276D01*
X5059631Y2269318D01*
X5057988Y2286000D01*
X5059631Y2302682D01*
X5064498Y2318724D01*
X5072400Y2333508D01*
X5072400Y2333508D01*
X5083034Y2346466D01*
X5095992Y2357100D01*
X5097509Y2357911D01*
X5110776Y2365002D01*
X5126818Y2369869D01*
X5139320Y2371100D01*
X5147680Y2371100D01*
X5160182Y2369869D01*
X5160182Y2369869D01*
G37*
G36*
X3128182Y2433369D02*
G01*
X3144224Y2428502D01*
X3157491Y2421411D01*
X3159008Y2420600D01*
X3171966Y2409966D01*
X3182600Y2397008D01*
X3182600Y2397008D01*
X3190502Y2382224D01*
X3195369Y2366182D01*
X3197012Y2349500D01*
X3195369Y2332818D01*
X3190502Y2316776D01*
X3185598Y2307600D01*
X3182600Y2301992D01*
X3171966Y2289034D01*
X3159008Y2278400D01*
X3159008Y2278400D01*
X3144224Y2270498D01*
X3128182Y2265631D01*
X3115680Y2264400D01*
X3107320Y2264400D01*
X3094818Y2265631D01*
X3078776Y2270498D01*
X3063992Y2278400D01*
X3063992Y2278400D01*
X3051034Y2289034D01*
X3040400Y2301992D01*
X3037402Y2307600D01*
X3032498Y2316776D01*
X3027631Y2332818D01*
X3025988Y2349500D01*
X3027631Y2366182D01*
X3032498Y2382224D01*
X3040399Y2397008D01*
X3040400Y2397008D01*
X3051034Y2409966D01*
X3063992Y2420600D01*
X3065509Y2421411D01*
X3078776Y2428502D01*
X3094818Y2433369D01*
X3107320Y2434600D01*
X3115680Y2434600D01*
X3128182Y2433369D01*
X3128182Y2433369D01*
G37*
G36*
X2942600Y2264400D02*
G01*
X2772400Y2264400D01*
X2772400Y2434600D01*
X2942600Y2434600D01*
X2942600Y2264400D01*
X2942600Y2264400D01*
G37*
G36*
X7644823Y2494830D02*
G01*
X7660310Y2488415D01*
X7674248Y2479102D01*
X7686101Y2467248D01*
X7695415Y2453310D01*
X7701830Y2437823D01*
X7705100Y2421382D01*
X7705100Y2404618D01*
X7701830Y2388177D01*
X7695415Y2372690D01*
X7686101Y2358752D01*
X7674248Y2346899D01*
X7660310Y2337585D01*
X7644823Y2331170D01*
X7628382Y2327900D01*
X7611618Y2327900D01*
X7595177Y2331170D01*
X7579690Y2337585D01*
X7565752Y2346899D01*
X7553898Y2358752D01*
X7544585Y2372690D01*
X7538170Y2388177D01*
X7534900Y2404618D01*
X7534900Y2421382D01*
X7538170Y2437823D01*
X7544585Y2453310D01*
X7553898Y2467248D01*
X7565752Y2479102D01*
X7579690Y2488415D01*
X7595177Y2494830D01*
X7611618Y2498100D01*
X7628382Y2498100D01*
X7644823Y2494830D01*
X7644823Y2494830D01*
G37*
G36*
X1745156Y2585561D02*
G01*
X1764283Y2577639D01*
X1764283Y2577638D01*
X1781497Y2566137D01*
X1796136Y2551497D01*
X1804053Y2539650D01*
X1807638Y2534283D01*
X1815561Y2515156D01*
X1819600Y2494852D01*
X1819600Y2474148D01*
X1815561Y2453844D01*
X1808994Y2437990D01*
X1807638Y2434717D01*
X1796136Y2417503D01*
X1781497Y2402864D01*
X1764283Y2391362D01*
X1764283Y2391362D01*
X1764283Y2391362D01*
X1745156Y2383439D01*
X1724852Y2379400D01*
X1704148Y2379400D01*
X1683844Y2383439D01*
X1664717Y2391362D01*
X1664717Y2391362D01*
X1664716Y2391362D01*
X1647503Y2402864D01*
X1632863Y2417503D01*
X1621362Y2434717D01*
X1620006Y2437990D01*
X1613439Y2453844D01*
X1609400Y2474148D01*
X1609400Y2494852D01*
X1613439Y2515156D01*
X1621361Y2534283D01*
X1624947Y2539650D01*
X1632863Y2551497D01*
X1647503Y2566137D01*
X1664716Y2577638D01*
X1664717Y2577639D01*
X1683844Y2585561D01*
X1704148Y2589600D01*
X1724852Y2589600D01*
X1745156Y2585561D01*
X1745156Y2585561D01*
G37*
G36*
X2245156Y2585561D02*
G01*
X2264283Y2577639D01*
X2264284Y2577638D01*
X2281497Y2566137D01*
X2296137Y2551497D01*
X2304053Y2539650D01*
X2307639Y2534283D01*
X2315561Y2515156D01*
X2319600Y2494852D01*
X2319600Y2474148D01*
X2315561Y2453844D01*
X2308994Y2437990D01*
X2307638Y2434717D01*
X2296137Y2417503D01*
X2281497Y2402864D01*
X2264284Y2391362D01*
X2264283Y2391362D01*
X2264283Y2391362D01*
X2245156Y2383439D01*
X2224852Y2379400D01*
X2204148Y2379400D01*
X2183844Y2383439D01*
X2164717Y2391362D01*
X2164717Y2391362D01*
X2164717Y2391362D01*
X2147503Y2402864D01*
X2132864Y2417503D01*
X2121362Y2434717D01*
X2120006Y2437990D01*
X2113439Y2453844D01*
X2109400Y2474148D01*
X2109400Y2494852D01*
X2113439Y2515156D01*
X2121362Y2534283D01*
X2124948Y2539650D01*
X2132864Y2551497D01*
X2147503Y2566137D01*
X2164717Y2577638D01*
X2164717Y2577639D01*
X2183844Y2585561D01*
X2204148Y2589600D01*
X2224852Y2589600D01*
X2245156Y2585561D01*
X2245156Y2585561D01*
G37*
G36*
X1103214Y2554676D02*
G01*
X1118010Y2548547D01*
X1131326Y2539650D01*
X1142650Y2528326D01*
X1151547Y2515010D01*
X1157676Y2500214D01*
X1160800Y2484508D01*
X1160800Y2468493D01*
X1157676Y2452786D01*
X1151547Y2437990D01*
X1142650Y2424675D01*
X1131326Y2413350D01*
X1118010Y2404453D01*
X1103214Y2398324D01*
X1087508Y2395200D01*
X1071493Y2395200D01*
X1055786Y2398324D01*
X1040990Y2404453D01*
X1027674Y2413350D01*
X1016350Y2424675D01*
X1007453Y2437990D01*
X1001324Y2452786D01*
X998200Y2468493D01*
X998200Y2484508D01*
X1001324Y2500214D01*
X1007453Y2515010D01*
X1016350Y2528326D01*
X1027674Y2539650D01*
X1040990Y2548547D01*
X1055786Y2554676D01*
X1071493Y2557800D01*
X1087508Y2557800D01*
X1103214Y2554676D01*
X1103214Y2554676D01*
G37*
G36*
X3644323Y2685330D02*
G01*
X3659810Y2678915D01*
X3673748Y2669602D01*
X3685601Y2657748D01*
X3694915Y2643810D01*
X3701330Y2628323D01*
X3704600Y2611882D01*
X3704600Y2595118D01*
X3701330Y2578677D01*
X3694915Y2563190D01*
X3685601Y2549252D01*
X3673748Y2537399D01*
X3659810Y2528085D01*
X3644323Y2521670D01*
X3627882Y2518400D01*
X3611118Y2518400D01*
X3594677Y2521670D01*
X3579190Y2528085D01*
X3565252Y2537399D01*
X3553398Y2549252D01*
X3544085Y2563190D01*
X3537670Y2578677D01*
X3534400Y2595118D01*
X3534400Y2611882D01*
X3537670Y2628323D01*
X3544085Y2643810D01*
X3553398Y2657748D01*
X3565252Y2669602D01*
X3579190Y2678915D01*
X3594677Y2685330D01*
X3611118Y2688600D01*
X3627882Y2688600D01*
X3644323Y2685330D01*
X3644323Y2685330D01*
G37*
G36*
X7835323Y2685330D02*
G01*
X7850810Y2678915D01*
X7864748Y2669602D01*
X7876601Y2657748D01*
X7885915Y2643810D01*
X7892330Y2628323D01*
X7895600Y2611882D01*
X7895600Y2595118D01*
X7892330Y2578677D01*
X7885915Y2563190D01*
X7876601Y2549252D01*
X7864748Y2537399D01*
X7850810Y2528085D01*
X7835323Y2521670D01*
X7818882Y2518400D01*
X7802118Y2518400D01*
X7785677Y2521670D01*
X7770190Y2528085D01*
X7756252Y2537399D01*
X7744398Y2549252D01*
X7735085Y2563190D01*
X7728670Y2578677D01*
X7725400Y2595118D01*
X7725400Y2611882D01*
X7728670Y2628323D01*
X7735085Y2643810D01*
X7744398Y2657748D01*
X7756252Y2669602D01*
X7770190Y2678915D01*
X7785677Y2685330D01*
X7802118Y2688600D01*
X7818882Y2688600D01*
X7835323Y2685330D01*
X7835323Y2685330D01*
G37*
G36*
X4652182Y2687369D02*
G01*
X4668224Y2682502D01*
X4681491Y2675411D01*
X4683008Y2674600D01*
X4695966Y2663966D01*
X4706600Y2651008D01*
X4706601Y2651008D01*
X4714502Y2636224D01*
X4719369Y2620182D01*
X4721012Y2603500D01*
X4719369Y2586818D01*
X4714502Y2570776D01*
X4710448Y2563190D01*
X4706600Y2555992D01*
X4695966Y2543034D01*
X4683008Y2532400D01*
X4683008Y2532400D01*
X4668224Y2524498D01*
X4652182Y2519631D01*
X4639680Y2518400D01*
X4631320Y2518400D01*
X4618818Y2519631D01*
X4602776Y2524498D01*
X4587992Y2532400D01*
X4587992Y2532400D01*
X4575034Y2543034D01*
X4564400Y2555992D01*
X4560552Y2563190D01*
X4556498Y2570776D01*
X4551631Y2586818D01*
X4549988Y2603500D01*
X4551631Y2620182D01*
X4556498Y2636224D01*
X4564400Y2651008D01*
X4564400Y2651008D01*
X4575034Y2663966D01*
X4587992Y2674600D01*
X4589509Y2675411D01*
X4602776Y2682502D01*
X4618818Y2687369D01*
X4631320Y2688600D01*
X4639680Y2688600D01*
X4652182Y2687369D01*
X4652182Y2687369D01*
G37*
G36*
X5668182Y2687369D02*
G01*
X5684224Y2682502D01*
X5697491Y2675411D01*
X5699008Y2674600D01*
X5711966Y2663966D01*
X5722600Y2651008D01*
X5722600Y2651008D01*
X5730502Y2636224D01*
X5735369Y2620182D01*
X5737012Y2603500D01*
X5735369Y2586818D01*
X5730502Y2570776D01*
X5726448Y2563190D01*
X5722600Y2555992D01*
X5711966Y2543034D01*
X5699008Y2532400D01*
X5699008Y2532400D01*
X5684224Y2524498D01*
X5668182Y2519631D01*
X5655680Y2518400D01*
X5647320Y2518400D01*
X5634818Y2519631D01*
X5618776Y2524498D01*
X5603992Y2532400D01*
X5603992Y2532400D01*
X5591034Y2543034D01*
X5580400Y2555992D01*
X5576552Y2563190D01*
X5572498Y2570776D01*
X5567631Y2586818D01*
X5565988Y2603500D01*
X5567631Y2620182D01*
X5572498Y2636224D01*
X5580400Y2651008D01*
X5580400Y2651008D01*
X5591034Y2663966D01*
X5603992Y2674600D01*
X5605509Y2675411D01*
X5618776Y2682502D01*
X5634818Y2687369D01*
X5647320Y2688600D01*
X5655680Y2688600D01*
X5668182Y2687369D01*
X5668182Y2687369D01*
G37*
G36*
X6565323Y2685330D02*
G01*
X6580810Y2678915D01*
X6594748Y2669602D01*
X6606601Y2657748D01*
X6615915Y2643810D01*
X6622330Y2628323D01*
X6625600Y2611882D01*
X6625600Y2595118D01*
X6622330Y2578677D01*
X6615915Y2563190D01*
X6606601Y2549252D01*
X6594748Y2537399D01*
X6580810Y2528085D01*
X6565323Y2521670D01*
X6548882Y2518400D01*
X6532118Y2518400D01*
X6515677Y2521670D01*
X6500190Y2528085D01*
X6486252Y2537399D01*
X6474398Y2549252D01*
X6465085Y2563190D01*
X6458670Y2578677D01*
X6455400Y2595118D01*
X6455400Y2611882D01*
X6458670Y2628323D01*
X6465085Y2643810D01*
X6474398Y2657748D01*
X6486252Y2669602D01*
X6500190Y2678915D01*
X6515677Y2685330D01*
X6532118Y2688600D01*
X6548882Y2688600D01*
X6565323Y2685330D01*
X6565323Y2685330D01*
G37*
G36*
X6811182Y2687369D02*
G01*
X6827224Y2682502D01*
X6840491Y2675411D01*
X6842008Y2674600D01*
X6854966Y2663966D01*
X6865600Y2651008D01*
X6865600Y2651008D01*
X6873502Y2636224D01*
X6878369Y2620182D01*
X6880012Y2603500D01*
X6878369Y2586818D01*
X6873502Y2570776D01*
X6869448Y2563190D01*
X6865600Y2555992D01*
X6854966Y2543034D01*
X6842008Y2532400D01*
X6842008Y2532400D01*
X6827224Y2524498D01*
X6811182Y2519631D01*
X6798680Y2518400D01*
X6790320Y2518400D01*
X6777818Y2519631D01*
X6761776Y2524498D01*
X6746992Y2532400D01*
X6746992Y2532400D01*
X6734034Y2543034D01*
X6723400Y2555992D01*
X6719552Y2563190D01*
X6715498Y2570776D01*
X6710631Y2586818D01*
X6708988Y2603500D01*
X6710631Y2620182D01*
X6715498Y2636224D01*
X6723399Y2651008D01*
X6723400Y2651008D01*
X6734034Y2663966D01*
X6746992Y2674600D01*
X6748509Y2675411D01*
X6761776Y2682502D01*
X6777818Y2687369D01*
X6790320Y2688600D01*
X6798680Y2688600D01*
X6811182Y2687369D01*
X6811182Y2687369D01*
G37*
G36*
X595214Y2808676D02*
G01*
X610010Y2802547D01*
X623326Y2793650D01*
X634650Y2782326D01*
X643547Y2769010D01*
X649676Y2754214D01*
X652800Y2738508D01*
X652800Y2722493D01*
X649676Y2706786D01*
X643547Y2691990D01*
X634650Y2678675D01*
X623326Y2667350D01*
X610010Y2658453D01*
X595214Y2652324D01*
X579508Y2649200D01*
X563493Y2649200D01*
X547786Y2652324D01*
X532990Y2658453D01*
X519674Y2667350D01*
X508350Y2678675D01*
X499453Y2691990D01*
X493324Y2706786D01*
X490200Y2722493D01*
X490200Y2738508D01*
X493324Y2754214D01*
X499453Y2769010D01*
X508350Y2782326D01*
X519674Y2793650D01*
X532990Y2802547D01*
X547786Y2808676D01*
X563493Y2811800D01*
X579508Y2811800D01*
X595214Y2808676D01*
X595214Y2808676D01*
G37*
G36*
X2245156Y3085561D02*
G01*
X2261538Y3078776D01*
X2264284Y3077638D01*
X2281497Y3066136D01*
X2296137Y3051497D01*
X2306435Y3036085D01*
X2307639Y3034283D01*
X2315561Y3015156D01*
X2319600Y2994852D01*
X2319600Y2974148D01*
X2315561Y2953844D01*
X2312308Y2945990D01*
X2307638Y2934716D01*
X2296137Y2917503D01*
X2281497Y2902863D01*
X2264284Y2891362D01*
X2264283Y2891361D01*
X2264283Y2891361D01*
X2245156Y2883439D01*
X2224852Y2879400D01*
X2204148Y2879400D01*
X2183844Y2883439D01*
X2164717Y2891361D01*
X2164717Y2891361D01*
X2164717Y2891362D01*
X2147503Y2902863D01*
X2132864Y2917503D01*
X2121362Y2934716D01*
X2116692Y2945990D01*
X2113439Y2953844D01*
X2109400Y2974148D01*
X2109400Y2994852D01*
X2113439Y3015156D01*
X2121362Y3034283D01*
X2122566Y3036085D01*
X2132864Y3051497D01*
X2147503Y3066136D01*
X2164717Y3077638D01*
X2167462Y3078776D01*
X2183844Y3085561D01*
X2204148Y3089600D01*
X2224852Y3089600D01*
X2245156Y3085561D01*
X2245156Y3085561D01*
G37*
G36*
X1745156Y3085561D02*
G01*
X1761538Y3078776D01*
X1764283Y3077638D01*
X1781497Y3066136D01*
X1796136Y3051497D01*
X1806434Y3036085D01*
X1807638Y3034283D01*
X1815561Y3015156D01*
X1819600Y2994852D01*
X1819600Y2974148D01*
X1815561Y2953844D01*
X1812308Y2945990D01*
X1807638Y2934716D01*
X1796136Y2917503D01*
X1781497Y2902863D01*
X1764283Y2891362D01*
X1764283Y2891361D01*
X1764283Y2891361D01*
X1745156Y2883439D01*
X1724852Y2879400D01*
X1704148Y2879400D01*
X1683844Y2883439D01*
X1664717Y2891361D01*
X1664717Y2891361D01*
X1664716Y2891362D01*
X1647503Y2902863D01*
X1632863Y2917503D01*
X1621362Y2934716D01*
X1616692Y2945990D01*
X1613439Y2953844D01*
X1609400Y2974148D01*
X1609400Y2994852D01*
X1613439Y3015156D01*
X1621361Y3034283D01*
X1622566Y3036085D01*
X1632863Y3051497D01*
X1647503Y3066136D01*
X1664716Y3077638D01*
X1667462Y3078776D01*
X1683844Y3085561D01*
X1704148Y3089600D01*
X1724852Y3089600D01*
X1745156Y3085561D01*
X1745156Y3085561D01*
G37*
G36*
X1103214Y3062676D02*
G01*
X1118010Y3056547D01*
X1131326Y3047650D01*
X1142650Y3036325D01*
X1151547Y3023010D01*
X1157676Y3008214D01*
X1160800Y2992507D01*
X1160800Y2976492D01*
X1157676Y2960786D01*
X1151547Y2945990D01*
X1142650Y2932674D01*
X1131326Y2921350D01*
X1118010Y2912453D01*
X1103214Y2906324D01*
X1087508Y2903200D01*
X1071493Y2903200D01*
X1055786Y2906324D01*
X1040990Y2912453D01*
X1027674Y2921350D01*
X1016350Y2932674D01*
X1007453Y2945990D01*
X1001324Y2960786D01*
X998200Y2976492D01*
X998200Y2992507D01*
X1001324Y3008214D01*
X1007453Y3023010D01*
X1016350Y3036325D01*
X1027674Y3047650D01*
X1040990Y3056547D01*
X1055786Y3062676D01*
X1071493Y3065800D01*
X1087508Y3065800D01*
X1103214Y3062676D01*
X1103214Y3062676D01*
G37*
G36*
X4715682Y3131869D02*
G01*
X4731724Y3127002D01*
X4744991Y3119911D01*
X4746508Y3119100D01*
X4759466Y3108466D01*
X4770100Y3095508D01*
X4770101Y3095508D01*
X4778002Y3080724D01*
X4782869Y3064682D01*
X4784512Y3048000D01*
X4782869Y3031318D01*
X4778002Y3015276D01*
X4774228Y3008214D01*
X4770100Y3000492D01*
X4759466Y2987534D01*
X4746508Y2976900D01*
X4745746Y2976492D01*
X4731724Y2968998D01*
X4715682Y2964131D01*
X4703180Y2962900D01*
X4694820Y2962900D01*
X4682318Y2964131D01*
X4666276Y2968998D01*
X4652254Y2976492D01*
X4651492Y2976900D01*
X4638534Y2987534D01*
X4627900Y3000492D01*
X4623772Y3008214D01*
X4619998Y3015276D01*
X4615131Y3031318D01*
X4613488Y3048000D01*
X4615131Y3064682D01*
X4619998Y3080724D01*
X4627900Y3095508D01*
X4627900Y3095508D01*
X4638534Y3108466D01*
X4651492Y3119100D01*
X4653009Y3119911D01*
X4666276Y3127002D01*
X4682318Y3131869D01*
X4694820Y3133100D01*
X4703180Y3133100D01*
X4715682Y3131869D01*
X4715682Y3131869D01*
G37*
G36*
X4339600Y2962900D02*
G01*
X4169400Y2962900D01*
X4169400Y3133100D01*
X4339600Y3133100D01*
X4339600Y2962900D01*
X4339600Y2962900D01*
G37*
G36*
X3890182Y3131869D02*
G01*
X3906224Y3127002D01*
X3919491Y3119911D01*
X3921008Y3119100D01*
X3933966Y3108466D01*
X3944600Y3095508D01*
X3944600Y3095508D01*
X3952502Y3080724D01*
X3957369Y3064682D01*
X3959012Y3048000D01*
X3957369Y3031318D01*
X3952502Y3015276D01*
X3948728Y3008214D01*
X3944600Y3000492D01*
X3933966Y2987534D01*
X3921008Y2976900D01*
X3920246Y2976492D01*
X3906224Y2968998D01*
X3890182Y2964131D01*
X3877680Y2962900D01*
X3869320Y2962900D01*
X3856818Y2964131D01*
X3840776Y2968998D01*
X3826754Y2976492D01*
X3825992Y2976900D01*
X3813034Y2987534D01*
X3802400Y3000492D01*
X3798272Y3008214D01*
X3794498Y3015276D01*
X3789631Y3031318D01*
X3787988Y3048000D01*
X3789631Y3064682D01*
X3794498Y3080724D01*
X3802399Y3095508D01*
X3802400Y3095508D01*
X3813034Y3108466D01*
X3825992Y3119100D01*
X3827509Y3119911D01*
X3840776Y3127002D01*
X3856818Y3131869D01*
X3869320Y3133100D01*
X3877680Y3133100D01*
X3890182Y3131869D01*
X3890182Y3131869D01*
G37*
G36*
X3128182Y3195369D02*
G01*
X3144224Y3190502D01*
X3157491Y3183411D01*
X3159008Y3182600D01*
X3171966Y3171966D01*
X3182600Y3159008D01*
X3182600Y3159008D01*
X3190502Y3144224D01*
X3195369Y3128182D01*
X3197012Y3111500D01*
X3195369Y3094818D01*
X3190502Y3078776D01*
X3186448Y3071190D01*
X3182600Y3063992D01*
X3171966Y3051034D01*
X3159008Y3040400D01*
X3159008Y3040399D01*
X3144224Y3032498D01*
X3128182Y3027631D01*
X3115680Y3026400D01*
X3107320Y3026400D01*
X3094818Y3027631D01*
X3078776Y3032498D01*
X3063992Y3040399D01*
X3063992Y3040400D01*
X3051034Y3051034D01*
X3040400Y3063992D01*
X3036552Y3071190D01*
X3032498Y3078776D01*
X3027631Y3094818D01*
X3025988Y3111500D01*
X3027631Y3128182D01*
X3032498Y3144224D01*
X3040399Y3159008D01*
X3040400Y3159008D01*
X3051034Y3171966D01*
X3063992Y3182600D01*
X3065509Y3183411D01*
X3078776Y3190502D01*
X3094818Y3195369D01*
X3107320Y3196600D01*
X3115680Y3196600D01*
X3128182Y3195369D01*
X3128182Y3195369D01*
G37*
G36*
X6565323Y3193330D02*
G01*
X6580810Y3186915D01*
X6594748Y3177601D01*
X6606601Y3165748D01*
X6615915Y3151810D01*
X6622330Y3136323D01*
X6625600Y3119882D01*
X6625600Y3103118D01*
X6622330Y3086677D01*
X6615915Y3071190D01*
X6606601Y3057252D01*
X6594748Y3045398D01*
X6580810Y3036085D01*
X6565323Y3029670D01*
X6548882Y3026400D01*
X6532118Y3026400D01*
X6515677Y3029670D01*
X6500190Y3036085D01*
X6486252Y3045398D01*
X6474398Y3057252D01*
X6465085Y3071190D01*
X6458670Y3086677D01*
X6455400Y3103118D01*
X6455400Y3119882D01*
X6458670Y3136323D01*
X6465085Y3151810D01*
X6474398Y3165748D01*
X6486252Y3177601D01*
X6500190Y3186915D01*
X6515677Y3193330D01*
X6532118Y3196600D01*
X6548882Y3196600D01*
X6565323Y3193330D01*
X6565323Y3193330D01*
G37*
G36*
X2874182Y3195369D02*
G01*
X2890224Y3190502D01*
X2903491Y3183411D01*
X2905008Y3182600D01*
X2917966Y3171966D01*
X2928600Y3159008D01*
X2928600Y3159008D01*
X2936502Y3144224D01*
X2941369Y3128182D01*
X2943012Y3111500D01*
X2941369Y3094818D01*
X2936502Y3078776D01*
X2932448Y3071190D01*
X2928600Y3063992D01*
X2917966Y3051034D01*
X2905008Y3040400D01*
X2905008Y3040399D01*
X2890224Y3032498D01*
X2874182Y3027631D01*
X2861680Y3026400D01*
X2853320Y3026400D01*
X2840818Y3027631D01*
X2824776Y3032498D01*
X2809992Y3040399D01*
X2809992Y3040400D01*
X2797034Y3051034D01*
X2786400Y3063992D01*
X2782552Y3071190D01*
X2778498Y3078776D01*
X2773631Y3094818D01*
X2771988Y3111500D01*
X2773631Y3128182D01*
X2778498Y3144224D01*
X2786400Y3159008D01*
X2786400Y3159008D01*
X2797034Y3171966D01*
X2809992Y3182600D01*
X2811509Y3183411D01*
X2824776Y3190502D01*
X2840818Y3195369D01*
X2853320Y3196600D01*
X2861680Y3196600D01*
X2874182Y3195369D01*
X2874182Y3195369D01*
G37*
G36*
X1103214Y3316676D02*
G01*
X1118010Y3310547D01*
X1131326Y3301650D01*
X1142650Y3290325D01*
X1151547Y3277010D01*
X1157676Y3262214D01*
X1160800Y3246507D01*
X1160800Y3230492D01*
X1157676Y3214786D01*
X1151547Y3199990D01*
X1142650Y3186674D01*
X1131326Y3175350D01*
X1118010Y3166453D01*
X1103214Y3160324D01*
X1087508Y3157200D01*
X1071493Y3157200D01*
X1055786Y3160324D01*
X1040990Y3166453D01*
X1027674Y3175350D01*
X1016350Y3186674D01*
X1007453Y3199990D01*
X1001324Y3214786D01*
X998200Y3230492D01*
X998200Y3246507D01*
X1001324Y3262214D01*
X1007453Y3277010D01*
X1016350Y3290325D01*
X1027674Y3301650D01*
X1040990Y3310547D01*
X1055786Y3316676D01*
X1071493Y3319800D01*
X1087508Y3319800D01*
X1103214Y3316676D01*
X1103214Y3316676D01*
G37*
G36*
X5168323Y3383830D02*
G01*
X5183810Y3377415D01*
X5197748Y3368101D01*
X5209602Y3356248D01*
X5218915Y3342310D01*
X5225330Y3326823D01*
X5228600Y3310382D01*
X5228600Y3293618D01*
X5225330Y3277177D01*
X5218915Y3261690D01*
X5209602Y3247752D01*
X5197748Y3235898D01*
X5183810Y3226585D01*
X5168323Y3220170D01*
X5151882Y3216900D01*
X5135118Y3216900D01*
X5118677Y3220170D01*
X5103190Y3226585D01*
X5089252Y3235898D01*
X5077399Y3247752D01*
X5068085Y3261690D01*
X5061670Y3277177D01*
X5058400Y3293618D01*
X5058400Y3310382D01*
X5061670Y3326823D01*
X5068085Y3342310D01*
X5077399Y3356248D01*
X5089252Y3368101D01*
X5103190Y3377415D01*
X5118677Y3383830D01*
X5135118Y3387100D01*
X5151882Y3387100D01*
X5168323Y3383830D01*
X5168323Y3383830D01*
G37*
G36*
X1103214Y3570676D02*
G01*
X1118010Y3564547D01*
X1131326Y3555650D01*
X1142650Y3544325D01*
X1151547Y3531010D01*
X1157676Y3516214D01*
X1160800Y3500507D01*
X1160800Y3484492D01*
X1157676Y3468786D01*
X1151547Y3453990D01*
X1142650Y3440674D01*
X1131326Y3429350D01*
X1118010Y3420453D01*
X1103214Y3414324D01*
X1087508Y3411200D01*
X1071493Y3411200D01*
X1055786Y3414324D01*
X1040990Y3420453D01*
X1027674Y3429350D01*
X1016350Y3440674D01*
X1007453Y3453990D01*
X1001324Y3468786D01*
X998200Y3484492D01*
X998200Y3500507D01*
X1001324Y3516214D01*
X1007453Y3531010D01*
X1016350Y3544325D01*
X1027674Y3555650D01*
X1040990Y3564547D01*
X1055786Y3570676D01*
X1071493Y3573800D01*
X1087508Y3573800D01*
X1103214Y3570676D01*
X1103214Y3570676D01*
G37*
G36*
X3128182Y3703369D02*
G01*
X3144224Y3698502D01*
X3157491Y3691411D01*
X3159008Y3690600D01*
X3171966Y3679966D01*
X3182600Y3667008D01*
X3182600Y3667008D01*
X3190502Y3652224D01*
X3195369Y3636182D01*
X3197012Y3619500D01*
X3195369Y3602818D01*
X3190502Y3586776D01*
X3186448Y3579190D01*
X3182600Y3571992D01*
X3171966Y3559034D01*
X3159008Y3548400D01*
X3159008Y3548399D01*
X3144224Y3540498D01*
X3128182Y3535631D01*
X3115680Y3534400D01*
X3107320Y3534400D01*
X3094818Y3535631D01*
X3078776Y3540498D01*
X3063992Y3548399D01*
X3063992Y3548400D01*
X3051034Y3559034D01*
X3040400Y3571992D01*
X3036552Y3579190D01*
X3032498Y3586776D01*
X3027631Y3602818D01*
X3025988Y3619500D01*
X3027631Y3636182D01*
X3032498Y3652224D01*
X3040399Y3667008D01*
X3040400Y3667008D01*
X3051034Y3679966D01*
X3063992Y3690600D01*
X3065509Y3691411D01*
X3078776Y3698502D01*
X3094818Y3703369D01*
X3107320Y3704600D01*
X3115680Y3704600D01*
X3128182Y3703369D01*
X3128182Y3703369D01*
G37*
G36*
X2942600Y3534400D02*
G01*
X2772400Y3534400D01*
X2772400Y3704600D01*
X2942600Y3704600D01*
X2942600Y3534400D01*
X2942600Y3534400D01*
G37*
G36*
X5676323Y3701330D02*
G01*
X5691810Y3694915D01*
X5705748Y3685601D01*
X5717601Y3673748D01*
X5726915Y3659810D01*
X5733330Y3644323D01*
X5736600Y3627882D01*
X5736600Y3611118D01*
X5733330Y3594677D01*
X5726915Y3579190D01*
X5717601Y3565252D01*
X5705748Y3553398D01*
X5691810Y3544085D01*
X5676323Y3537670D01*
X5659882Y3534400D01*
X5643118Y3534400D01*
X5626677Y3537670D01*
X5611190Y3544085D01*
X5597252Y3553398D01*
X5585399Y3565252D01*
X5576085Y3579190D01*
X5569670Y3594677D01*
X5566400Y3611118D01*
X5566400Y3627882D01*
X5569670Y3644323D01*
X5576085Y3659810D01*
X5585399Y3673748D01*
X5597252Y3685601D01*
X5611190Y3694915D01*
X5626677Y3701330D01*
X5643118Y3704600D01*
X5659882Y3704600D01*
X5676323Y3701330D01*
X5676323Y3701330D01*
G37*
G36*
X2253156Y3847561D02*
G01*
X2272283Y3839638D01*
X2272284Y3839638D01*
X2289497Y3828136D01*
X2304137Y3813497D01*
X2314274Y3798325D01*
X2315639Y3796283D01*
X2323561Y3777156D01*
X2327600Y3756852D01*
X2327600Y3736148D01*
X2323561Y3715844D01*
X2315639Y3696717D01*
X2315638Y3696716D01*
X2304137Y3679503D01*
X2289497Y3664863D01*
X2272284Y3653362D01*
X2272283Y3653361D01*
X2272283Y3653361D01*
X2253156Y3645439D01*
X2232852Y3641400D01*
X2212148Y3641400D01*
X2191844Y3645439D01*
X2172717Y3653361D01*
X2172717Y3653361D01*
X2172717Y3653362D01*
X2155503Y3664863D01*
X2140864Y3679503D01*
X2129362Y3696716D01*
X2129362Y3696717D01*
X2121439Y3715844D01*
X2117400Y3736148D01*
X2117400Y3756852D01*
X2121439Y3777156D01*
X2129362Y3796283D01*
X2130726Y3798325D01*
X2140864Y3813497D01*
X2155503Y3828136D01*
X2172717Y3839638D01*
X2172717Y3839638D01*
X2191844Y3847561D01*
X2212148Y3851600D01*
X2232852Y3851600D01*
X2253156Y3847561D01*
X2253156Y3847561D01*
G37*
G36*
X1753156Y3847561D02*
G01*
X1772283Y3839638D01*
X1772283Y3839638D01*
X1789497Y3828136D01*
X1804136Y3813497D01*
X1814274Y3798325D01*
X1815638Y3796283D01*
X1823561Y3777156D01*
X1827600Y3756852D01*
X1827600Y3736148D01*
X1823561Y3715844D01*
X1815638Y3696717D01*
X1815638Y3696716D01*
X1804136Y3679503D01*
X1789497Y3664863D01*
X1772283Y3653362D01*
X1772283Y3653361D01*
X1772283Y3653361D01*
X1753156Y3645439D01*
X1732852Y3641400D01*
X1712148Y3641400D01*
X1691844Y3645439D01*
X1672717Y3653361D01*
X1672717Y3653361D01*
X1672716Y3653362D01*
X1655503Y3664863D01*
X1640863Y3679503D01*
X1629362Y3696716D01*
X1629361Y3696717D01*
X1621439Y3715844D01*
X1617400Y3736148D01*
X1617400Y3756852D01*
X1621439Y3777156D01*
X1629361Y3796283D01*
X1630726Y3798325D01*
X1640863Y3813497D01*
X1655503Y3828136D01*
X1672716Y3839638D01*
X1672717Y3839638D01*
X1691844Y3847561D01*
X1712148Y3851600D01*
X1732852Y3851600D01*
X1753156Y3847561D01*
X1753156Y3847561D01*
G37*
G36*
X1103214Y3824676D02*
G01*
X1118010Y3818547D01*
X1131326Y3809650D01*
X1142650Y3798325D01*
X1151547Y3785010D01*
X1157676Y3770214D01*
X1160800Y3754507D01*
X1160800Y3738492D01*
X1157676Y3722786D01*
X1151547Y3707990D01*
X1142650Y3694674D01*
X1131326Y3683350D01*
X1118010Y3674453D01*
X1103214Y3668324D01*
X1087508Y3665200D01*
X1071493Y3665200D01*
X1055786Y3668324D01*
X1040990Y3674453D01*
X1027674Y3683350D01*
X1016350Y3694674D01*
X1007453Y3707990D01*
X1001324Y3722786D01*
X998200Y3738492D01*
X998200Y3754507D01*
X1001324Y3770214D01*
X1007453Y3785010D01*
X1016350Y3798325D01*
X1027674Y3809650D01*
X1040990Y3818547D01*
X1055786Y3824676D01*
X1071493Y3827800D01*
X1087508Y3827800D01*
X1103214Y3824676D01*
X1103214Y3824676D01*
G37*
G36*
X4271182Y3893869D02*
G01*
X4287224Y3889002D01*
X4300491Y3881911D01*
X4302008Y3881100D01*
X4314966Y3870466D01*
X4325600Y3857508D01*
X4325601Y3857508D01*
X4333502Y3842724D01*
X4338369Y3826682D01*
X4340012Y3810000D01*
X4338369Y3793318D01*
X4333502Y3777276D01*
X4329728Y3770214D01*
X4325600Y3762492D01*
X4314966Y3749534D01*
X4302008Y3738900D01*
X4301246Y3738492D01*
X4287224Y3730998D01*
X4271182Y3726131D01*
X4258680Y3724900D01*
X4250320Y3724900D01*
X4237818Y3726131D01*
X4221776Y3730998D01*
X4207754Y3738492D01*
X4206992Y3738900D01*
X4194034Y3749534D01*
X4183400Y3762492D01*
X4179272Y3770214D01*
X4175498Y3777276D01*
X4170631Y3793318D01*
X4168988Y3810000D01*
X4170631Y3826682D01*
X4175498Y3842724D01*
X4183399Y3857508D01*
X4183400Y3857508D01*
X4194034Y3870466D01*
X4206992Y3881100D01*
X4208509Y3881911D01*
X4221776Y3889002D01*
X4237818Y3893869D01*
X4250320Y3895100D01*
X4258680Y3895100D01*
X4271182Y3893869D01*
X4271182Y3893869D01*
G37*
G36*
X4784100Y3724900D02*
G01*
X4613900Y3724900D01*
X4613900Y3895100D01*
X4784100Y3895100D01*
X4784100Y3724900D01*
X4784100Y3724900D01*
G37*
G36*
X3958600Y3724900D02*
G01*
X3788400Y3724900D01*
X3788400Y3895100D01*
X3958600Y3895100D01*
X3958600Y3724900D01*
X3958600Y3724900D01*
G37*
G36*
X595214Y4078676D02*
G01*
X610010Y4072547D01*
X623326Y4063650D01*
X634650Y4052325D01*
X643547Y4039010D01*
X649676Y4024214D01*
X652800Y4008507D01*
X652800Y3992492D01*
X649676Y3976786D01*
X643547Y3961990D01*
X634650Y3948674D01*
X623326Y3937350D01*
X610010Y3928453D01*
X595214Y3922324D01*
X579508Y3919200D01*
X563493Y3919200D01*
X547786Y3922324D01*
X532990Y3928453D01*
X519674Y3937350D01*
X508350Y3948674D01*
X499453Y3961990D01*
X493324Y3976786D01*
X490200Y3992492D01*
X490200Y4008507D01*
X493324Y4024214D01*
X499453Y4039010D01*
X508350Y4052325D01*
X519674Y4063650D01*
X532990Y4072547D01*
X547786Y4078676D01*
X563493Y4081800D01*
X579508Y4081800D01*
X595214Y4078676D01*
X595214Y4078676D01*
G37*
G36*
X1753156Y4347561D02*
G01*
X1772283Y4339639D01*
X1772283Y4339638D01*
X1789497Y4328137D01*
X1804136Y4313497D01*
X1815561Y4296400D01*
X1815638Y4296283D01*
X1823561Y4277156D01*
X1827600Y4256852D01*
X1827600Y4236148D01*
X1823561Y4215844D01*
X1818106Y4202675D01*
X1815638Y4196717D01*
X1804136Y4179503D01*
X1789497Y4164863D01*
X1772283Y4153362D01*
X1772283Y4153361D01*
X1772283Y4153361D01*
X1753156Y4145439D01*
X1732852Y4141400D01*
X1712148Y4141400D01*
X1691844Y4145439D01*
X1672717Y4153361D01*
X1672717Y4153361D01*
X1672716Y4153362D01*
X1655503Y4164863D01*
X1640863Y4179503D01*
X1629362Y4196717D01*
X1626894Y4202675D01*
X1621439Y4215844D01*
X1617400Y4236148D01*
X1617400Y4256852D01*
X1621439Y4277156D01*
X1629361Y4296283D01*
X1629439Y4296400D01*
X1640863Y4313497D01*
X1655503Y4328137D01*
X1672716Y4339638D01*
X1672717Y4339639D01*
X1691844Y4347561D01*
X1712148Y4351600D01*
X1732852Y4351600D01*
X1753156Y4347561D01*
X1753156Y4347561D01*
G37*
G36*
X2253156Y4347561D02*
G01*
X2272283Y4339639D01*
X2272284Y4339638D01*
X2289497Y4328137D01*
X2304137Y4313497D01*
X2315561Y4296400D01*
X2315639Y4296283D01*
X2323561Y4277156D01*
X2327600Y4256852D01*
X2327600Y4236148D01*
X2323561Y4215844D01*
X2318106Y4202675D01*
X2315638Y4196717D01*
X2304137Y4179503D01*
X2289497Y4164863D01*
X2272284Y4153362D01*
X2272283Y4153361D01*
X2272283Y4153361D01*
X2253156Y4145439D01*
X2232852Y4141400D01*
X2212148Y4141400D01*
X2191844Y4145439D01*
X2172717Y4153361D01*
X2172717Y4153361D01*
X2172717Y4153362D01*
X2155503Y4164863D01*
X2140864Y4179503D01*
X2129362Y4196717D01*
X2126894Y4202675D01*
X2121439Y4215844D01*
X2117400Y4236148D01*
X2117400Y4256852D01*
X2121439Y4277156D01*
X2129362Y4296283D01*
X2129440Y4296400D01*
X2140864Y4313497D01*
X2155503Y4328137D01*
X2172717Y4339638D01*
X2172717Y4339639D01*
X2191844Y4347561D01*
X2212148Y4351600D01*
X2232852Y4351600D01*
X2253156Y4347561D01*
X2253156Y4347561D01*
G37*
G36*
X1103214Y4332676D02*
G01*
X1118010Y4326547D01*
X1131326Y4317650D01*
X1142650Y4306326D01*
X1151547Y4293010D01*
X1157676Y4278214D01*
X1160800Y4262508D01*
X1160800Y4246493D01*
X1157676Y4230786D01*
X1151547Y4215990D01*
X1142650Y4202675D01*
X1131326Y4191350D01*
X1118010Y4182453D01*
X1103214Y4176324D01*
X1087508Y4173200D01*
X1071493Y4173200D01*
X1055786Y4176324D01*
X1040990Y4182453D01*
X1027674Y4191350D01*
X1016350Y4202675D01*
X1007453Y4215990D01*
X1001324Y4230786D01*
X998200Y4246493D01*
X998200Y4262508D01*
X1001324Y4278214D01*
X1007453Y4293010D01*
X1016350Y4306326D01*
X1027674Y4317650D01*
X1040990Y4326547D01*
X1055786Y4332676D01*
X1071493Y4335800D01*
X1087508Y4335800D01*
X1103214Y4332676D01*
X1103214Y4332676D01*
G37*
G36*
X4394262Y4422158D02*
G01*
X4403340Y4419404D01*
X4406534Y4418435D01*
X4417842Y4412391D01*
X4427755Y4404255D01*
X4435891Y4394343D01*
X4441935Y4383034D01*
X4442401Y4381500D01*
X4445658Y4370762D01*
X4446600Y4361197D01*
X4446600Y4274803D01*
X4445658Y4265238D01*
X4444830Y4262508D01*
X4441935Y4252966D01*
X4435891Y4241658D01*
X4427755Y4231745D01*
X4417843Y4223609D01*
X4406534Y4217565D01*
X4403340Y4216596D01*
X4394262Y4213842D01*
X4381500Y4212585D01*
X4368738Y4213842D01*
X4359660Y4216596D01*
X4356467Y4217565D01*
X4345158Y4223609D01*
X4335245Y4231745D01*
X4327110Y4241658D01*
X4321065Y4252966D01*
X4319886Y4256851D01*
X4317342Y4265238D01*
X4316400Y4274803D01*
X4316400Y4361197D01*
X4317342Y4370762D01*
X4321065Y4383033D01*
X4321065Y4383034D01*
X4327109Y4394342D01*
X4335245Y4404255D01*
X4345158Y4412391D01*
X4356466Y4418435D01*
X4359660Y4419404D01*
X4368738Y4422158D01*
X4381500Y4423415D01*
X4394262Y4422158D01*
X4394262Y4422158D01*
G37*
G36*
X4648262Y4422158D02*
G01*
X4657340Y4419404D01*
X4660534Y4418435D01*
X4671842Y4412391D01*
X4681755Y4404255D01*
X4689891Y4394343D01*
X4695935Y4383034D01*
X4696401Y4381500D01*
X4699658Y4370762D01*
X4700600Y4361197D01*
X4700600Y4274803D01*
X4699658Y4265238D01*
X4698830Y4262508D01*
X4695935Y4252966D01*
X4689891Y4241658D01*
X4681755Y4231745D01*
X4671843Y4223609D01*
X4660534Y4217565D01*
X4657340Y4216596D01*
X4648262Y4213842D01*
X4635500Y4212585D01*
X4622738Y4213842D01*
X4613660Y4216596D01*
X4610467Y4217565D01*
X4599158Y4223609D01*
X4589245Y4231745D01*
X4581110Y4241658D01*
X4575065Y4252966D01*
X4573886Y4256851D01*
X4571342Y4265238D01*
X4570400Y4274803D01*
X4570400Y4361197D01*
X4571342Y4370762D01*
X4575065Y4383033D01*
X4575065Y4383034D01*
X4581109Y4394342D01*
X4589245Y4404255D01*
X4599158Y4412391D01*
X4610466Y4418435D01*
X4613660Y4419404D01*
X4622738Y4422158D01*
X4635500Y4423415D01*
X4648262Y4422158D01*
X4648262Y4422158D01*
G37*
G36*
X4902262Y4422158D02*
G01*
X4911340Y4419404D01*
X4914534Y4418435D01*
X4925842Y4412391D01*
X4935755Y4404255D01*
X4943891Y4394343D01*
X4949935Y4383034D01*
X4950401Y4381500D01*
X4953658Y4370762D01*
X4954600Y4361197D01*
X4954600Y4274803D01*
X4953658Y4265238D01*
X4952830Y4262508D01*
X4949935Y4252966D01*
X4943891Y4241658D01*
X4935755Y4231745D01*
X4925843Y4223609D01*
X4914534Y4217565D01*
X4911340Y4216596D01*
X4902262Y4213842D01*
X4889500Y4212585D01*
X4876738Y4213842D01*
X4867660Y4216596D01*
X4864467Y4217565D01*
X4853158Y4223609D01*
X4843245Y4231745D01*
X4835110Y4241658D01*
X4829065Y4252966D01*
X4827886Y4256851D01*
X4825342Y4265238D01*
X4824400Y4274803D01*
X4824400Y4361197D01*
X4825342Y4370762D01*
X4829065Y4383033D01*
X4829065Y4383034D01*
X4835109Y4394342D01*
X4843245Y4404255D01*
X4853158Y4412391D01*
X4864466Y4418435D01*
X4867660Y4419404D01*
X4876738Y4422158D01*
X4889500Y4423415D01*
X4902262Y4422158D01*
X4902262Y4422158D01*
G37*
G36*
X5156262Y4422158D02*
G01*
X5165340Y4419404D01*
X5168534Y4418435D01*
X5179842Y4412391D01*
X5189755Y4404255D01*
X5197891Y4394343D01*
X5203935Y4383034D01*
X5204401Y4381500D01*
X5207658Y4370762D01*
X5208600Y4361197D01*
X5208600Y4274803D01*
X5207658Y4265238D01*
X5206830Y4262508D01*
X5203935Y4252966D01*
X5197891Y4241658D01*
X5189755Y4231745D01*
X5179843Y4223609D01*
X5168534Y4217565D01*
X5165340Y4216596D01*
X5156262Y4213842D01*
X5143500Y4212585D01*
X5130738Y4213842D01*
X5121660Y4216596D01*
X5118467Y4217565D01*
X5107158Y4223609D01*
X5097245Y4231745D01*
X5089110Y4241658D01*
X5083065Y4252966D01*
X5081886Y4256851D01*
X5079342Y4265238D01*
X5078400Y4274803D01*
X5078400Y4361197D01*
X5079342Y4370762D01*
X5083065Y4383033D01*
X5083065Y4383034D01*
X5089109Y4394342D01*
X5097245Y4404255D01*
X5107158Y4412391D01*
X5118466Y4418435D01*
X5121660Y4419404D01*
X5130738Y4422158D01*
X5143500Y4423415D01*
X5156262Y4422158D01*
X5156262Y4422158D01*
G37*
G36*
X2874182Y4465369D02*
G01*
X2890224Y4460502D01*
X2903491Y4453411D01*
X2905008Y4452600D01*
X2917966Y4441966D01*
X2928600Y4429008D01*
X2928600Y4429008D01*
X2936502Y4414224D01*
X2941369Y4398182D01*
X2943012Y4381500D01*
X2941369Y4364818D01*
X2936502Y4348776D01*
X2929567Y4335800D01*
X2928600Y4333992D01*
X2917966Y4321034D01*
X2905008Y4310400D01*
X2905008Y4310400D01*
X2890224Y4302498D01*
X2874182Y4297631D01*
X2861680Y4296400D01*
X2853320Y4296400D01*
X2840818Y4297631D01*
X2824776Y4302498D01*
X2809992Y4310400D01*
X2809992Y4310400D01*
X2797034Y4321034D01*
X2786400Y4333992D01*
X2785433Y4335800D01*
X2778498Y4348776D01*
X2773631Y4364818D01*
X2771988Y4381500D01*
X2773631Y4398182D01*
X2778498Y4414224D01*
X2786400Y4429008D01*
X2786400Y4429008D01*
X2797034Y4441966D01*
X2809992Y4452600D01*
X2811509Y4453411D01*
X2824776Y4460502D01*
X2840818Y4465369D01*
X2853320Y4466600D01*
X2861680Y4466600D01*
X2874182Y4465369D01*
X2874182Y4465369D01*
G37*
G36*
X3128182Y4465369D02*
G01*
X3144224Y4460502D01*
X3157491Y4453411D01*
X3159008Y4452600D01*
X3171966Y4441966D01*
X3182600Y4429008D01*
X3182600Y4429008D01*
X3190502Y4414224D01*
X3195369Y4398182D01*
X3197012Y4381500D01*
X3195369Y4364818D01*
X3190502Y4348776D01*
X3183567Y4335800D01*
X3182600Y4333992D01*
X3171966Y4321034D01*
X3159008Y4310400D01*
X3159008Y4310400D01*
X3144224Y4302498D01*
X3128182Y4297631D01*
X3115680Y4296400D01*
X3107320Y4296400D01*
X3094818Y4297631D01*
X3078776Y4302498D01*
X3063992Y4310400D01*
X3063992Y4310400D01*
X3051034Y4321034D01*
X3040400Y4333992D01*
X3039433Y4335800D01*
X3032498Y4348776D01*
X3027631Y4364818D01*
X3025988Y4381500D01*
X3027631Y4398182D01*
X3032498Y4414224D01*
X3040399Y4429008D01*
X3040400Y4429008D01*
X3051034Y4441966D01*
X3063992Y4452600D01*
X3065509Y4453411D01*
X3078776Y4460502D01*
X3094818Y4465369D01*
X3107320Y4466600D01*
X3115680Y4466600D01*
X3128182Y4465369D01*
X3128182Y4465369D01*
G37*
G36*
X1103214Y4586676D02*
G01*
X1118010Y4580547D01*
X1131326Y4571650D01*
X1142650Y4560326D01*
X1151547Y4547010D01*
X1157676Y4532214D01*
X1160800Y4516508D01*
X1160800Y4500493D01*
X1157676Y4484786D01*
X1151547Y4469990D01*
X1142650Y4456675D01*
X1131326Y4445350D01*
X1118010Y4436453D01*
X1103214Y4430324D01*
X1087508Y4427200D01*
X1071493Y4427200D01*
X1055786Y4430324D01*
X1040990Y4436453D01*
X1027674Y4445350D01*
X1016350Y4456675D01*
X1007453Y4469990D01*
X1001324Y4484786D01*
X998200Y4500493D01*
X998200Y4516508D01*
X1001324Y4532214D01*
X1007453Y4547010D01*
X1016350Y4560326D01*
X1027674Y4571650D01*
X1040990Y4580547D01*
X1055786Y4586676D01*
X1071493Y4589800D01*
X1087508Y4589800D01*
X1103214Y4586676D01*
X1103214Y4586676D01*
G37*
M02*
