M48
; DRILL file {KiCad 5.1.2-f72e74a~84~ubuntu18.04.1} date Пн 20 мая 2019 21:08:18
; FORMAT={-:-/ absolute / inch / decimal}
; #@! TF.CreationDate,2019-05-20T21:08:18+03:00
; #@! TF.GenerationSoftware,Kicad,Pcbnew,5.1.2-f72e74a~84~ubuntu18.04.1
; #@! TF.FileFunction,Plated,1,2,PTH
FMAT,2
INCH
T1C0.0300
T2C0.0315
T3C0.0433
T4C0.0512
%
G90
G05
T1
X1.925Y0.425
X2.025Y0.425
X2.125Y0.225
X2.225Y0.425
X2.325Y0.425
X0.225Y1.575
X0.425Y1.775
X0.425Y1.675
X0.425Y1.475
X0.425Y1.375
X1.375Y0.425
X1.475Y0.425
X1.575Y0.225
X1.675Y0.425
X1.775Y0.425
X0.225Y1.075
X0.425Y1.275
X0.425Y1.175
X0.425Y0.975
X0.425Y0.875
T2
X0.975Y0.85
X1.15Y0.8
X2.575Y1.225
X2.575Y1.025
X2.925Y0.9
X3.0Y0.95
X2.725Y0.825
X2.825Y0.825
X2.925Y0.825
X3.025Y0.825
X3.125Y0.825
X0.525Y0.325
X0.925Y0.325
X2.025Y0.675
X2.125Y0.575
X2.225Y0.675
X1.725Y1.7
X1.825Y1.7
X1.925Y1.7
X2.025Y1.7
X1.125Y1.225
X1.125Y0.925
X1.225Y1.225
X1.225Y0.925
X0.525Y0.475
X0.925Y0.475
X2.225Y1.425
X2.225Y1.025
X2.675Y1.025
X3.075Y1.025
X2.975Y0.475
X2.975Y0.375
X2.975Y0.275
X2.975Y0.175
X3.275Y0.475
X3.275Y0.375
X3.275Y0.275
X3.275Y0.175
X1.375Y0.625
X1.775Y0.625
X1.125Y1.725
X1.125Y1.425
X1.225Y1.725
X1.225Y1.425
X1.85Y1.5
X1.85Y1.2
X2.025Y1.3
X2.025Y0.9
X2.925Y0.625
X3.1219Y0.625
X1.525Y1.5
X1.525Y1.2
X3.275Y0.8219
X3.275Y0.625
X1.675Y1.5
X1.675Y1.2
X1.425Y0.875
X1.825Y0.875
X1.425Y1.025
X1.825Y1.025
T3
X0.125Y0.725
X0.125Y0.125
X0.225Y0.725
X0.225Y0.125
X0.325Y0.725
X0.325Y0.125
X0.425Y0.725
X0.425Y0.125
X0.525Y0.725
X0.525Y0.125
X0.625Y0.725
X0.625Y0.125
X0.725Y0.725
X0.725Y0.125
X0.825Y0.725
X0.825Y0.125
X0.925Y0.725
X0.925Y0.125
X1.025Y0.725
X1.025Y0.125
X1.125Y0.725
X1.125Y0.125
X1.225Y0.725
X1.225Y0.125
X0.675Y1.175
X0.675Y0.9781
X0.8719Y1.175
X0.8719Y0.9781
X0.6781Y1.6719
X0.6781Y1.475
X0.875Y1.6719
X0.875Y1.475
T4
X2.525Y0.575
X2.6234Y0.1813
X2.7219Y0.575
T0
M30
