M48
; DRILL file {KiCad 5.1.0-060a0da~80~ubuntu18.04.1} date Сб 27 апр 2019 22:21:38
; FORMAT={-:-/ absolute / inch / decimal}
; #@! TF.CreationDate,2019-04-27T22:21:38+03:00
; #@! TF.GenerationSoftware,Kicad,Pcbnew,5.1.0-060a0da~80~ubuntu18.04.1
; #@! TF.FileFunction,Plated,1,2,PTH
FMAT,2
INCH
T1C0.0300
T2C0.0315
T3C0.0433
T4C0.0512
%
G90
G05
T1
X4.95Y-1.95
X5.15Y-1.75
X5.15Y-1.85
X5.15Y-2.05
X5.15Y-2.15
X6.65Y-3.1
X6.75Y-3.1
X6.85Y-3.3
X6.95Y-3.1
X7.05Y-3.1
X6.1Y-3.1
X6.2Y-3.1
X6.3Y-3.3
X6.4Y-3.1
X6.5Y-3.1
X4.95Y-2.45
X5.15Y-2.25
X5.15Y-2.35
X5.15Y-2.55
X5.15Y-2.65
T2
X5.7Y-2.675
X5.875Y-2.725
X7.3Y-2.3
X7.3Y-2.5
X7.65Y-2.625
X7.725Y-2.575
X8.0Y-2.7031
X8.0Y-2.9
X6.1Y-2.9
X6.5Y-2.9
X6.45Y-1.825
X6.55Y-1.825
X6.65Y-1.825
X6.75Y-1.825
X5.25Y-3.05
X5.65Y-3.05
X6.95Y-2.1
X6.95Y-2.5
X7.7Y-3.05
X7.7Y-3.15
X7.7Y-3.25
X7.7Y-3.35
X8.0Y-3.05
X8.0Y-3.15
X8.0Y-3.25
X8.0Y-3.35
X5.85Y-1.8
X5.85Y-2.1
X5.95Y-1.8
X5.95Y-2.1
X5.85Y-2.3
X5.85Y-2.6
X5.95Y-2.3
X5.95Y-2.6
X6.4Y-2.025
X6.4Y-2.325
X6.575Y-2.025
X6.575Y-2.325
X5.25Y-3.2
X5.65Y-3.2
X6.75Y-2.85
X6.85Y-2.95
X6.95Y-2.85
X7.65Y-2.9
X7.8469Y-2.9
X7.45Y-2.7
X7.55Y-2.7
X7.65Y-2.7
X7.75Y-2.7
X7.85Y-2.7
X6.75Y-2.225
X6.75Y-2.625
X6.15Y-2.65
X6.55Y-2.65
X7.4Y-2.5
X7.8Y-2.5
X6.25Y-2.025
X6.25Y-2.325
X6.15Y-2.5
X6.55Y-2.5
T3
X5.4Y-2.35
X5.4Y-2.5469
X5.5969Y-2.35
X5.5969Y-2.5469
X5.4031Y-1.8531
X5.4031Y-2.05
X5.6Y-1.8531
X5.6Y-2.05
X4.85Y-2.8
X4.85Y-3.4
X4.95Y-2.8
X4.95Y-3.4
X5.05Y-2.8
X5.05Y-3.4
X5.15Y-2.8
X5.15Y-3.4
X5.25Y-2.8
X5.25Y-3.4
X5.35Y-2.8
X5.35Y-3.4
X5.45Y-2.8
X5.45Y-3.4
X5.55Y-2.8
X5.55Y-3.4
X5.65Y-2.8
X5.65Y-3.4
X5.75Y-2.8
X5.75Y-3.4
X5.85Y-2.8
X5.85Y-3.4
X5.95Y-2.8
X5.95Y-3.4
T4
X7.25Y-2.95
X7.3484Y-3.3437
X7.4469Y-2.95
T0
M30
